<svg width="200" height="97" viewBox="0 0 200 97" fill="none" xmlns="http://www.w3.org/2000/svg">
<mask id="mask0_494_3391" style="mask-type:alpha" maskUnits="userSpaceOnUse" x="7" y="63" width="189" height="30">
<path d="M89.5422 74.4357L93.6471 75.9034L97.7248 76.545L101.133 73.513L98.6656 78.4028L97.2297 92.046L100.756 81.4217L105.661 79.3317L103.86 73.513L113.631 71.2803L118.234 73.8278L124.423 71.757L138.79 71.9343L133.485 73.6896L138.958 75.6466L160.806 70.7213C160.806 70.7213 173.662 68.1076 172.581 68.1564L182.114 70.7213L195.291 68.4656L180.151 67.5541L164.148 67.0684L159.965 67.0684L158.364 68.1564L166.474 68.8921L144.207 72.6539C145.375 72.0041 147.883 70.5865 148.58 70.1141C149.277 69.6418 152.084 68.2106 153.4 67.5541L143.909 66.0543L143.996 67.9792L135.145 70.7213L128.739 67.9799L122.918 68.243L126.6 70.2809L118.153 72.0404L118.091 70.6655L118.023 69.1531L117.991 68.4656L115.721 67.8793L106.23 66.3795L106.317 68.3044L110.03 71.0298L104.734 69.635L102.491 71.5975L100.248 70.7565L97.7248 73.8404L93.5601 73.9785C94.8601 72.9554 98.2873 69.3562 98.2873 69.3562C98.2873 69.3562 95.2293 67.887 93.2867 67.9289L82.9433 67.432L88.5036 71.3138L78.2969 73.8417C76.9328 73.4441 73.7255 71.9818 73.7255 71.9818C73.7255 71.9818 76.5058 70.6161 78.1354 70.2669L66.3739 68.1808L62.8349 69.3052L58.7544 68.7939L58.1937 70.4761L57.0722 70.1755L55.3901 70.7565L54.4319 72.0271L53.1472 70.4761L51.7454 70.1755L50.9043 71.0368L48.0133 69.0107L43.5785 70.1755L40.2014 64.955L27.354 67.9289L16.9806 69.4762L8.00894 67.9289L18.6434 74.4713L20.3664 72.8779L40.2505 69.0743L30.2495 73.1201L43.6531 71.8254L52.7276 74.033L66.5604 72.3056L71.2374 76.5029L83.2727 74.719L89.5422 74.4357ZM89.5422 74.4357L93.4296 71.0912L91.9868 68.9521" stroke="white" stroke-width="2.7854"/>
</mask>
<g mask="url(#mask0_494_3391)">
<path d="M11.0942 69.6344L99.1278 67.6719L187.161 69.6344L143.145 70.6157L121.136 71.1063L110.132 71.3516L104.63 71.4743L99.1278 77.3867L93.6257 71.4743L88.1236 71.3516L77.1194 71.1063L55.111 70.6157L11.0942 69.6344Z" fill="#1D151F"/>
</g>
<mask id="mask1_494_3391" style="mask-type:alpha" maskUnits="userSpaceOnUse" x="17" y="4" width="183" height="33">
<path d="M109.984 22.7736L113.449 21.3058L116.891 20.6642L119.768 23.6962L117.686 18.8064L116.473 5.16325L119.45 15.7875L123.591 17.8775L122.07 23.6962L130.318 25.9289L134.203 23.3815L139.427 25.4522L151.555 25.2749L147.076 23.5197L155.949 27.0951L170.138 26.4879C170.138 26.4879 180.989 29.1016 180.078 29.0528L188.124 26.4879L199.246 28.7436L186.467 29.6551L172.959 30.1409L169.428 30.1409L168.077 29.0528L174.923 28.3172L155.169 22.4902C156.155 23.14 159.23 26.6228 159.818 27.0951C160.406 27.5675 162.776 28.9986 163.887 29.6551L155.876 31.155L155.949 29.2301L148.478 26.4879L143.071 29.2294L139.427 32.2542L141.264 26.9283L134.135 25.1689L134.082 26.5438L134.025 28.0562L133.998 28.7436L132.082 29.3299L124.071 30.8298L124.144 28.9049L127.278 26.1795L122.808 27.5742L120.914 25.6117L119.021 26.4528L116.891 23.3688L113.376 23.2307C114.473 24.2539 117.366 27.8531 117.366 27.8531C117.366 27.8531 114.785 29.3222 113.145 29.2804L104.414 29.7773L109.108 25.8954L99.3929 22.4902C98.2414 22.8878 96.6336 25.2275 96.6336 25.2275C96.6336 25.2275 104.289 28.3944 105.664 28.7436L90.4282 29.0284L87.4408 27.9041L83.9965 28.4153L83.5232 26.7331L82.5766 27.0337L81.1567 26.4528L80.3479 25.1821L79.2635 26.7331L78.0802 27.0337L77.3703 26.1724L74.93 28.1986L71.1866 27.0337L68.336 32.2542L57.4915 29.2804L48.7354 27.7331L23.1942 28.9049L19.3335 18.8064L51.5933 24.3314L68.3774 28.135L59.9356 24.0892L71.2496 25.3838L78.9093 23.1763L90.5855 24.9037L99.3929 19.7952L104.692 22.4902L109.984 22.7736ZM109.984 22.7736L113.266 26.118L112.048 28.2572" stroke="white" stroke-width="2.7854"/>
</mask>
<g mask="url(#mask1_494_3391)">
<path d="M25.2749 28.0394L99.5839 30.002L173.893 28.0394L136.738 27.0582L118.161 26.5675L108.872 26.3222L105.46 26.1995L99.5839 20.2871L93.6166 26.1995L90.2952 26.3222L81.0066 26.5675L62.4294 27.0582L25.2749 28.0394Z" fill="#1D151F"/>
</g>
<mask id="mask2_494_3391" style="mask-type:alpha" maskUnits="userSpaceOnUse" x="-6" y="17" width="215" height="58">
<path d="M88.7195 62.3135L93.5371 68.0469L97.2609 67.6671L103.51 59.7674L113.069 52.0488L118.771 61.8419L124.607 54.5031L139.816 56.0642L134.807 62.2812L141.23 69.9258L157.838 59.4496L167.663 61.9059C167.663 61.9059 175.312 43.9695 174.189 44.0841L185.095 54.2509L185.948 48.2601L198.238 46.6597L187.87 40.6358L185.095 26.3843L177.391 38.2701L164.934 39.4963L160.523 39.2344L159.197 43.1939L166.571 48.2601L145.769 59.0882C146.783 56.7369 150.984 50.8506 151.561 49.1318C152.138 47.413 152.593 43.0029 153.763 40.6358L143.255 34.4453L143.988 41.6328L135.569 51.3101L127.9 40.6801L121.849 41.2973L126.411 49.1318L118.091 55.1678L117.567 50.0339L116.991 44.3865L116.729 41.8196L114.14 39.49L103.632 33.2995L102.164 39.223L109.188 50.8885L103.139 45.3527L101.428 52.5348L98.7825 49.2561L97.1494 60.6049L92.804 60.8594C93.8338 57.1233 96.2484 43.9086 96.2484 43.9086C96.2484 43.9086 92.5343 38.2355 90.4999 38.2701L79.4275 35.7684L86.5841 50.6004L76.6639 59.3933C75.0929 57.8244 71.2237 52.1672 71.2237 52.1672C71.2237 52.1672 70.8138 43.2072 72.4158 42.0063L62.2052 37.5251L60.9534 45.5769L54.3749 39.3355L54.3442 45.5769L53.0615 44.3851L51.4813 46.4474L50.8943 51.1284L49.0228 45.2609L47.4445 44.0515L46.8446 47.2126L43.121 39.4717L38.8329 43.5402L33.5323 23.8502L24.0353 27.6906L16.6331 30.9707L10.3921 28.8226L0.577335 32.9306L8.38912 41.2973L13.971 58.007L15.9225 46.4474L15.9225 39.223L24.9287 41.8196L34.9567 39.223L24.9287 54.5031L39.4613 49.7009L49.7656 58.5058L63.7762 52.9269L70.1066 68.8807L82.2029 62.9782L88.7195 62.3135ZM88.7195 62.3135L91.7043 50.0782L89.47 42.0063" stroke="white" stroke-width="6.68497"/>
</mask>
<g mask="url(#mask2_494_3391)">
<path d="M16.4269 27.9805V58.7696H11.5799V27.9805H16.4269ZM24.9575 57.3802L25.7331 58.7696H16.3299V57.3802H24.9575ZM27.3164 52.1454L25.83 58.7696H19.4966L20.6599 57.3802C21.737 57.3802 22.6848 57.1755 23.5034 56.7662C24.322 56.3354 25.0222 55.7322 25.6038 54.9567C26.1854 54.1596 26.6486 53.2225 26.9933 52.1454H27.3164ZM11.6768 56.4108V58.7696H9.0918V58.4465C9.0918 58.4465 9.15642 58.4465 9.28568 58.4465C9.43647 58.4465 9.51187 58.4465 9.51187 58.4465C10.072 58.4465 10.5459 58.2526 10.9336 57.8649C11.3429 57.4556 11.5584 56.9709 11.5799 56.4108H11.6768ZM11.6768 30.3393H11.5799C11.5584 29.7792 11.3429 29.3053 10.9336 28.9176C10.5459 28.5082 10.072 28.3036 9.51187 28.3036C9.51187 28.3036 9.43647 28.3036 9.28568 28.3036C9.15642 28.3036 9.0918 28.3036 9.0918 28.3036V27.9805H11.6768V30.3393ZM16.3299 30.3393V27.9805H18.915V28.3036C18.8934 28.3036 18.818 28.3036 18.6888 28.3036C18.5595 28.3036 18.4949 28.3036 18.4949 28.3036C17.9348 28.3036 17.4501 28.5082 17.0408 28.9176C16.6531 29.3053 16.4484 29.7792 16.4269 30.3393H16.3299Z" fill="#1D151F"/>
<path d="M37.9858 38.5093L47.5505 58.6081H42.0896L36.0793 44.4226L37.9858 38.5093ZM31.9109 56.637C31.674 57.2186 31.7063 57.671 32.0079 57.9941C32.3094 58.2957 32.6433 58.4465 33.0096 58.4465H33.2681V58.7696H26.8054V58.4465C26.8054 58.4465 26.8485 58.4465 26.9347 58.4465C27.0209 58.4465 27.0639 58.4465 27.0639 58.4465C27.4948 58.4465 27.9472 58.3172 28.4211 58.0587C28.895 57.7787 29.2828 57.3048 29.5844 56.637H31.9109ZM37.9858 38.5093L38.0504 42.3869L31.0385 58.6727H28.6473L36.2086 42.4192C36.2516 42.2899 36.3486 42.0637 36.4994 41.7406C36.6502 41.3959 36.8117 41.019 36.9841 40.6097C37.1564 40.1788 37.318 39.7803 37.4688 39.4141C37.6196 39.0263 37.7057 38.7247 37.7273 38.5093H37.9858ZM40.797 52.4363V53.6965H32.5572V52.4363H40.797ZM41.2817 56.637H46.6134C46.9365 57.3048 47.335 57.7787 47.809 58.0587C48.2829 58.3172 48.7353 58.4465 49.1661 58.4465C49.1661 58.4465 49.2092 58.4465 49.2954 58.4465C49.3815 58.4465 49.4246 58.4465 49.4246 58.4465V58.7696H39.9246V58.4465H40.1831C40.5493 58.4465 40.8832 58.2957 41.1848 57.9941C41.4864 57.671 41.5187 57.2186 41.2817 56.637Z" fill="#1D151F"/>
<path d="M51.4136 38.9294L70.3815 55.6029L70.7046 59.1897L51.7691 42.5161L51.4136 38.9294ZM51.5429 56.7985V58.7696H49.1517V58.4465C49.1517 58.4465 49.2379 58.4465 49.4102 58.4465C49.5826 58.4465 49.6687 58.4465 49.6687 58.4465C50.1642 58.4465 50.5843 58.2957 50.929 57.9941C51.2736 57.671 51.446 57.2725 51.446 56.7985H51.5429ZM55.8729 56.7985C55.8944 57.2725 56.0775 57.671 56.4222 57.9941C56.7669 58.2957 57.1762 58.4465 57.6501 58.4465C57.6501 58.4465 57.7362 58.4465 57.9086 58.4465C58.1025 58.4465 58.1994 58.4465 58.1994 58.4465V58.7696H55.8082V56.7985H55.8729ZM51.4136 38.9294L55.8729 43.7763V58.7696H51.446V42.6131C51.446 41.5144 51.3921 40.6312 51.2844 39.9634C51.1767 39.2741 51.1228 38.9294 51.1228 38.9294H51.4136ZM70.6723 39.3818V55.4091C70.6723 56.163 70.6938 56.8308 70.7369 57.4125C70.8015 57.9726 70.8554 58.4142 70.8985 58.7373C70.9631 59.0389 70.9954 59.1897 70.9954 59.1897H70.7046L66.2454 54.0519V39.3818H70.6723ZM70.5753 41.3529V39.3818H72.9988V39.7049C72.9988 39.7049 72.9019 39.7049 72.708 39.7049C72.5357 39.7049 72.4495 39.7049 72.4495 39.7049C71.9756 39.7049 71.5555 39.8665 71.1893 40.1896C70.8446 40.4912 70.6723 40.8789 70.6723 41.3529H70.5753ZM66.2454 41.3529C66.2238 40.8789 66.0407 40.4912 65.696 40.1896C65.3729 39.8665 64.9636 39.7049 64.4681 39.7049C64.4681 39.7049 64.3712 39.7049 64.1773 39.7049C64.005 39.7049 63.9188 39.7049 63.9188 39.7049V39.3818H66.31V41.3529H66.2454Z" fill="#1D151F"/>
<path d="M85.6428 39.3818C87.9478 39.3818 89.9297 39.7695 91.5884 40.545C93.2472 41.299 94.5182 42.4084 95.4014 43.8733C96.2846 45.3166 96.7262 47.0507 96.7262 49.0757C96.7262 51.1007 96.2846 52.8348 95.4014 54.2781C94.5182 55.7214 93.2472 56.8308 91.5884 57.6064C89.9297 58.3819 87.9478 58.7696 85.6428 58.7696H78.4693L78.4047 57.4771C80.0419 57.4771 81.356 57.4771 82.3469 57.4771C83.3594 57.4771 84.0918 57.4771 84.5442 57.4771C85.0181 57.4771 85.2551 57.4771 85.2551 57.4771C87.28 57.4771 88.8741 56.7339 90.0374 55.2475C91.2007 53.7611 91.7823 51.7038 91.7823 49.0757C91.7823 46.4476 91.2007 44.3903 90.0374 42.9039C88.8741 41.3959 87.28 40.642 85.2551 40.642C85.2551 40.642 85.0181 40.642 84.5442 40.642C84.0703 40.642 83.3055 40.642 82.25 40.642C81.1944 40.642 79.8049 40.642 78.0816 40.642V39.3818H85.6428ZM81.6037 39.3818V58.7696H76.9506V39.3818H81.6037ZM77.0475 56.7016V58.7696H74.721V58.4465C74.721 58.4465 74.7856 58.4465 74.9149 58.4465C75.0441 58.4465 75.1195 58.4465 75.1411 58.4465C75.6365 58.4465 76.0566 58.2742 76.4013 57.9295C76.7675 57.5848 76.9506 57.1755 76.9506 56.7016H77.0475ZM77.0152 41.4175H76.9506C76.9291 40.922 76.7352 40.5127 76.369 40.1896C76.0243 39.8665 75.6042 39.7049 75.1088 39.7049C75.1088 39.7049 75.0441 39.7049 74.9149 39.7049C74.7856 39.7049 74.721 39.7049 74.721 39.7049V39.3818H77.0152V41.4175Z" fill="#1D151F"/>
<path d="M109.563 39.4787V58.7696H104.877V39.4787H109.563ZM116.607 39.3494V40.642H97.8655V39.3494H116.607ZM116.607 40.545V43.9702H116.252V43.6794C116.273 42.7531 116.015 42.0207 115.476 41.4821C114.959 40.9436 114.237 40.6635 113.311 40.642V40.545H116.607ZM116.607 38.8647V39.6726L113.182 39.3494C113.591 39.3494 114.033 39.3279 114.507 39.2848C114.981 39.2202 115.412 39.1556 115.799 39.0909C116.187 39.0048 116.456 38.9294 116.607 38.8647ZM104.942 56.7339V58.7696H102.777V58.4465C102.777 58.4465 102.831 58.4465 102.939 58.4465C103.068 58.4465 103.133 58.4465 103.133 58.4465C103.606 58.4465 104.005 58.2849 104.328 57.9618C104.673 57.6171 104.856 57.2078 104.877 56.7339H104.942ZM109.466 56.7339H109.563C109.563 57.2078 109.735 57.6171 110.08 57.9618C110.425 58.2849 110.845 58.4465 111.34 58.4465C111.34 58.4465 111.394 58.4465 111.502 58.4465C111.631 58.4465 111.696 58.4465 111.696 58.4465V58.7696H109.466V56.7339ZM101.161 40.545V40.642C100.214 40.6635 99.4812 40.9436 98.9642 41.4821C98.4687 42.0207 98.221 42.7531 98.221 43.6794V43.9702H97.8655V40.545H101.161ZM97.8655 38.8647C98.0594 38.9078 98.3394 38.9725 98.7057 39.0586C99.0934 39.1448 99.5135 39.2202 99.9659 39.2848C100.44 39.3279 100.871 39.3494 101.258 39.3494L97.8655 39.6726V38.8647Z" fill="#1D151F"/>
<path d="M129.14 38.9617C130.863 38.9617 132.425 39.1987 133.825 39.6726C135.225 40.125 136.432 40.7928 137.444 41.676C138.457 42.5592 139.232 43.6255 139.771 44.875C140.331 46.1244 140.611 47.5354 140.611 49.108C140.611 50.659 140.331 52.0593 139.771 53.3087C139.232 54.5366 138.457 55.5922 137.444 56.4754C136.432 57.3586 135.225 58.0372 133.825 58.5111C132.425 58.9635 130.863 59.1897 129.14 59.1897C127.438 59.1897 125.887 58.9635 124.486 58.5111C123.086 58.0372 121.88 57.3586 120.867 56.4754C119.855 55.5922 119.079 54.5366 118.541 53.3087C118.002 52.0593 117.733 50.659 117.733 49.108C117.733 47.5354 118.002 46.1244 118.541 44.875C119.079 43.6255 119.855 42.5592 120.867 41.676C121.88 40.7928 123.086 40.125 124.486 39.6726C125.887 39.1987 127.438 38.9617 129.14 38.9617ZM129.14 57.9295C130.454 57.9295 131.595 57.574 132.565 56.8632C133.556 56.1307 134.31 55.1075 134.827 53.7934C135.365 52.4793 135.635 50.9175 135.635 49.108C135.635 47.2769 135.365 45.7044 134.827 44.3903C134.31 43.0547 133.556 42.0314 132.565 41.3205C131.595 40.5881 130.454 40.2219 129.14 40.2219C127.847 40.2219 126.716 40.5881 125.747 41.3205C124.777 42.0314 124.023 43.0547 123.485 44.3903C122.946 45.7044 122.677 47.2769 122.677 49.108C122.677 50.9175 122.946 52.4793 123.485 53.7934C124.023 55.1075 124.777 56.1307 125.747 56.8632C126.716 57.574 127.847 57.9295 129.14 57.9295Z" fill="#1D151F"/>
<path d="M149.129 39.3818H152.619C153.502 39.3818 154.364 39.4787 155.204 39.6726C156.044 39.8449 156.798 40.1357 157.466 40.545C158.134 40.9328 158.662 41.4713 159.049 42.1607C159.459 42.8285 159.663 43.6686 159.663 44.6811C159.663 45.4351 159.502 46.1891 159.179 46.943C158.877 47.6755 158.392 48.311 157.725 48.8495C157.078 49.3881 156.227 49.7435 155.172 49.9158C155.797 50.1097 156.389 50.4867 156.949 51.0468C157.531 51.6069 157.983 52.1347 158.306 52.6301C158.392 52.8025 158.543 53.0825 158.759 53.4703C158.974 53.8365 159.243 54.2673 159.566 54.7628C159.911 55.2367 160.267 55.7322 160.633 56.2492C161.064 56.8308 161.441 57.2832 161.764 57.6064C162.087 57.9079 162.421 58.1234 162.765 58.2526C163.11 58.3819 163.509 58.4465 163.961 58.4465V58.7696H161.247C160.083 58.7696 159.092 58.6835 158.274 58.5111C157.477 58.3388 156.777 58.0264 156.174 57.574C155.592 57.1001 155.053 56.4646 154.558 55.6676C154.364 55.3875 154.159 55.0536 153.944 54.6659C153.729 54.2566 153.513 53.8473 153.298 53.438C153.082 53.0287 152.888 52.6301 152.716 52.2424C152.565 51.8546 152.458 51.5315 152.393 51.273C152.113 50.5836 151.79 50.0882 151.423 49.7866C151.079 49.4635 150.756 49.3019 150.454 49.3019V49.0111C150.454 49.0111 150.529 49.0111 150.68 49.0111C150.831 49.0111 151.025 49.0111 151.262 49.0111C151.714 49.0111 152.156 48.9357 152.587 48.7849C153.039 48.6125 153.448 48.3002 153.815 47.8478C154.181 47.3739 154.45 46.6845 154.622 45.7798C154.666 45.6505 154.698 45.4674 154.719 45.2304C154.763 44.9935 154.773 44.7242 154.752 44.4226C154.709 43.6256 154.558 42.9901 154.299 42.5161C154.062 42.0207 153.761 41.6544 153.395 41.4175C153.028 41.159 152.651 40.9866 152.264 40.9005C151.897 40.7928 151.574 40.7389 151.294 40.7389C150.885 40.7174 150.508 40.7174 150.163 40.7389C149.84 40.7389 149.592 40.7281 149.42 40.7066C149.399 40.7066 149.366 40.5989 149.323 40.3835C149.28 40.1465 149.237 39.9203 149.194 39.7049C149.151 39.4895 149.129 39.3818 149.129 39.3818ZM149.452 39.3818V58.7696H144.767V39.3818H149.452ZM144.864 56.7339L144.993 58.7696H142.667V58.4465C142.688 58.4465 142.742 58.4465 142.828 58.4465C142.936 58.4465 143.011 58.4465 143.054 58.4465C143.528 58.4465 143.927 58.2849 144.25 57.9618C144.595 57.6171 144.778 57.2078 144.799 56.7339H144.864ZM144.864 41.3852H144.799C144.778 40.8897 144.595 40.4912 144.25 40.1896C143.927 39.8665 143.539 39.7049 143.087 39.7049C143.022 39.7049 142.936 39.7049 142.828 39.7049C142.742 39.7049 142.688 39.7049 142.667 39.7049V39.3818H144.993L144.864 41.3852ZM149.388 56.7339H149.452C149.452 57.2725 149.635 57.6925 150.002 57.9941C150.389 58.2957 150.799 58.4465 151.23 58.4465C151.23 58.4465 151.273 58.4465 151.359 58.4465C151.445 58.4465 151.51 58.4465 151.553 58.4465V58.7696H149.226L149.388 56.7339Z" fill="#1D151F"/>
<path d="M166.1 35.6658L186.716 55.3121L187.104 59.222L166.488 39.608L166.1 35.6658ZM166.262 56.4754V58.7696H163.58V58.4465C163.58 58.4465 163.677 58.4465 163.871 58.4465C164.064 58.4465 164.172 58.4465 164.194 58.4465C164.732 58.4465 165.195 58.2526 165.583 57.8649C165.971 57.4771 166.165 57.014 166.165 56.4754H166.262ZM170.786 56.4754C170.786 57.014 170.979 57.4771 171.367 57.8649C171.755 58.2526 172.218 58.4465 172.757 58.4465C172.778 58.4465 172.886 58.4465 173.08 58.4465C173.274 58.4465 173.371 58.4465 173.371 58.4465V58.7696H170.689V56.4754H170.786ZM166.1 35.6658L170.753 40.6097L170.786 58.7696H166.165V39.7049C166.165 38.4985 166.1 37.5291 165.971 36.7967C165.842 36.0427 165.777 35.6658 165.777 35.6658H166.1ZM187.007 27.9805V55.0859C187.007 55.883 187.039 56.6047 187.104 57.2509C187.168 57.8756 187.233 58.3603 187.298 58.705C187.362 59.0497 187.395 59.222 187.395 59.222H187.104L182.418 53.9873V27.9805H187.007ZM189.592 27.9805V28.3036C189.592 28.3036 189.495 28.3036 189.301 28.3036C189.107 28.3036 189.01 28.3036 189.01 28.3036C188.472 28.3036 188.009 28.4975 187.621 28.8852C187.233 29.2515 187.028 29.7146 187.007 30.2747H186.91V27.9805H189.592ZM179.801 27.9805H182.483V30.2747H182.418C182.397 29.7146 182.192 29.2515 181.804 28.8852C181.438 28.4975 180.975 28.3036 180.415 28.3036C180.415 28.3036 180.318 28.3036 180.124 28.3036C179.93 28.3036 179.823 28.3036 179.801 28.3036V27.9805Z" fill="#1D151F"/>
</g>
</svg>
