<svg width="160" height="56" viewBox="0 0 160 56" fill="none" xmlns="http://www.w3.org/2000/svg">
<path fill-rule="evenodd" clip-rule="evenodd" d="M10.948 38.6539C11.2442 38.765 11.633 38.8205 12.1143 38.8205C13.114 38.8205 13.9655 38.7835 14.669 38.7094C15.4095 38.6724 16.113 38.6354 16.7794 38.5984C17.1037 38.5813 17.4516 38.0941 17.8231 37.5739C18.2575 36.9656 18.7241 36.3121 19.2231 36.3121C19.6916 36.3121 20.1209 36.9931 20.511 37.6118C20.8299 38.1175 21.1226 38.5817 21.389 38.5984C21.9814 38.6354 22.5923 38.6724 23.2217 38.7094C23.8882 38.7835 24.7212 38.8205 25.7209 38.8205C26.2022 38.8205 26.591 38.765 26.8872 38.6539C27.1834 38.5798 27.3315 38.4317 27.3315 38.2096C27.3315 37.9504 27.1834 37.7468 26.8872 37.5987C26.591 37.4506 26.1282 37.321 25.4988 37.2099C24.1288 36.9507 23.0551 36.5065 22.2776 35.877C21.5001 35.2106 21.1113 34.2109 21.1113 32.878V22.9112L22.0555 15.5623L21.1113 11.0519C21.1113 9.01554 21.1669 7.55306 21.2779 6.66446C21.389 5.77587 21.6482 5.22049 22.0555 4.99835C22.4627 4.7762 23.0736 4.66512 23.8882 4.66512H29.4974C31.2746 4.66512 32.5335 4.90579 33.274 5.38711C34.0145 5.8314 34.4588 6.44231 34.6069 7.21984C34.755 7.92331 34.9031 8.47868 35.0512 8.88595C35.1993 9.29322 35.4029 9.49686 35.6621 9.49686C35.9583 9.49686 36.1804 9.29322 36.3285 8.88595C36.4766 8.44165 36.5507 8.05289 36.5507 7.71967V7.05322C36.5507 6.5719 36.5692 6.22016 36.6062 5.99802C36.6432 5.77587 36.6988 5.51669 36.7728 5.2205C36.8839 4.9243 36.995 4.44297 37.106 3.77653C37.1431 3.5914 37.1801 3.33223 37.2171 2.99901C37.2912 2.66578 37.3282 2.40661 37.3282 2.22149C37.3282 1.92529 37.2912 1.6476 37.2171 1.38843C37.1431 1.09223 37.0505 0.94413 36.9394 0.94413C36.4951 0.94413 36.1249 1.07372 35.8287 1.33289C35.5695 1.59206 35.2178 1.83273 34.7735 2.05488C34.1811 2.31405 33.4776 2.51768 32.6631 2.66578C31.8485 2.81388 30.7933 2.88793 29.4974 2.88793H9.94835C9.17083 2.88793 8.3748 2.79537 7.56025 2.61025C6.78273 2.42512 6.2829 2.14744 6.06075 1.77719C5.91265 1.48099 5.67199 1.11074 5.33876 0.666444C5.04256 0.222148 4.82042 0 4.67232 0C4.52422 0 4.3391 0.0555367 4.11695 0.16661C3.93182 0.277685 3.80224 0.647933 3.72819 1.27736C3.58009 2.42512 3.37645 3.42479 3.11728 4.27636C2.89513 5.09091 2.52488 6.03504 2.00653 7.10876C1.82141 7.47901 1.72885 7.84925 1.72885 8.2195C1.72885 8.40463 1.74736 8.57124 1.78439 8.71934C1.85843 8.86744 1.96951 8.94149 2.1176 8.94149C2.4138 8.94149 2.71 8.8119 3.0062 8.55273C3.3024 8.29355 3.58009 7.99735 3.83926 7.66413C4.09843 7.29388 4.28356 7.0162 4.39463 6.83107C4.8019 6.09058 5.43132 5.55372 6.28289 5.2205C7.17149 4.85025 8.06009 4.66512 8.94868 4.66512H11.5589C12.5216 4.66512 13.2806 4.68364 13.836 4.72066C14.4284 4.72066 14.9837 4.7762 15.5021 4.88727C15.7983 4.9243 16.0204 5.12793 16.1685 5.49818C16.3536 5.86843 16.4832 6.51636 16.5573 7.44198C16.6313 8.33058 16.6683 9.62645 16.6683 11.3296L16.7794 15.5623L17.2912 19.8852L16.7794 25.9372L16.6683 32.878C16.6683 34.2109 16.2981 35.2106 15.5576 35.877C14.8171 36.5065 13.7434 36.9507 12.3365 37.2099C11.707 37.321 11.2442 37.4506 10.948 37.5987C10.6518 37.7468 10.5037 37.9504 10.5037 38.2096C10.5037 38.4317 10.6518 38.5798 10.948 38.6539ZM56.629 37.5024C56.2192 37.5024 55.7351 38.0938 55.236 38.7037C54.6836 39.3786 54.1126 40.0762 53.603 40.0204C51.8273 39.8258 49.9959 39.4532 48.5593 38.9025C46.5227 38.0879 44.8077 36.4747 43.224 34.9851L43.2238 34.9849L43.2236 34.9847C43.08 34.8496 42.9374 34.7155 42.7958 34.5832C42.6954 34.4872 42.5958 34.3922 42.4971 34.298L42.4971 34.298C40.9205 32.7945 39.5589 31.4962 38.6182 29.4056C37.6185 27.1471 37.1187 24.6479 37.1187 21.9081C37.1187 19.3904 37.526 16.9838 38.3405 14.6883C39.155 12.3557 40.3584 10.2823 41.9504 8.46811C43.5425 6.6539 45.5233 5.20993 47.8929 4.13621C49.5671 3.37757 50.9734 2.88694 52.7384 2.66432C53.0943 2.61943 53.4648 3.11075 53.855 3.62822C54.2686 4.17667 54.7043 4.75451 55.1683 4.75451C55.5702 4.75451 55.9931 4.26829 56.4292 3.76699C56.9154 3.20799 57.418 2.63023 57.9259 2.68692C59.732 2.88851 61.6058 3.27904 63.0546 3.85852C65.276 4.71009 67.2384 5.95043 68.9415 7.57952C70.6446 9.17158 71.996 11.0969 72.9957 13.3554C73.9954 15.5769 74.4952 18.0575 74.4952 20.7974C74.4952 23.278 74.0879 25.6846 73.2734 28.0172C72.4589 30.3498 71.2555 32.4232 69.6635 34.2374C68.0714 36.0516 66.0906 37.4956 63.721 38.5693C62.0339 39.3337 60.5909 39.826 58.7905 40.0462C58.4384 40.0893 58.1285 39.4963 57.8022 38.8722C57.4536 38.2051 57.0863 37.5024 56.629 37.5024ZM57.0613 34.1456C57.6562 34.1456 58.0563 35.1066 58.4386 36.0246C58.8077 36.911 59.1602 37.7573 59.655 37.6594C61.1038 37.3728 62.385 36.88 63.4988 36.1812C65.3871 34.9594 66.7941 33.2747 67.7197 31.1273C68.6823 28.9428 69.1637 26.4066 69.1637 23.5187C69.1637 21.6542 68.5591 19.7067 68.0021 17.9125C67.7959 17.2483 67.5963 16.6051 67.4362 15.9948C67.2759 15.3835 67.1553 14.8147 67.0412 14.2766L67.0411 14.2763C66.7337 12.8264 66.4733 11.5984 65.6093 10.3564C64.4615 8.61621 63.0175 7.2648 61.2774 6.30216C60.5065 5.87574 59.6775 5.54376 58.7905 5.30623C58.2291 5.15592 57.6445 5.9576 57.0366 6.79121C56.4365 7.61411 55.8137 8.46811 55.1683 8.46811C54.5676 8.46811 53.9877 7.58557 53.4286 6.73466C52.8743 5.89106 52.3404 5.07855 51.8269 5.18801C50.4642 5.47854 49.2454 5.96098 48.1706 6.63538C46.2823 7.82018 44.8569 9.48629 43.8942 11.6337C42.9316 13.7441 42.4503 16.2433 42.4503 19.1312C42.4503 21.723 42.7279 24.1481 43.2833 26.4066C43.8757 28.6651 44.7458 30.6645 45.8936 32.4046C47.0784 34.1448 48.5408 35.5147 50.281 36.5144C51.0433 36.9361 51.8624 37.2654 52.7384 37.5024C53.3088 37.6567 54.0762 36.7895 54.865 35.8981C55.6304 35.0333 56.4159 34.1456 57.0613 34.1456ZM103.535 29.3963L99.0266 22.5258C99.7186 22.1676 101.693 21.3832 101.815 21.3527C102.852 20.8344 103.87 20.1679 104.87 19.3534C105.87 18.5389 106.703 17.5392 107.369 16.3544C108.035 15.1326 108.369 13.6886 108.369 12.0225C108.369 8.98646 107.295 6.70943 105.148 5.19141C103.037 3.6734 99.9455 2.91439 92.4168 2.91439C91.3431 2.91439 90.4545 2.93291 89.751 2.96993C89.0846 3.00695 88.4736 3.06249 87.9183 3.13654C87.6602 3.15374 87.3862 3.55059 87.0962 3.97059C86.762 4.45456 86.4067 4.96927 86.03 4.96927C85.6128 4.96927 85.2425 4.40494 84.9193 3.91229C84.6689 3.53068 84.4468 3.19208 84.2528 3.19208C83.8085 3.15505 83.3272 3.13654 82.8089 3.13654H80.5874C80.1061 3.13654 79.7173 3.19208 79.4211 3.30315C79.1249 3.3772 78.9768 3.5253 78.9768 3.74745C78.9768 4.00662 79.1249 4.24728 79.4211 4.46944C79.7173 4.65456 80.1801 4.78414 80.8095 4.85819C81.8833 4.96927 82.6423 5.17291 83.0866 5.4691C83.5679 5.7653 83.8641 6.28365 83.9751 7.02415C84.1232 7.72762 84.1973 8.78282 84.1973 10.1898L83.9751 15.9948L84.1973 22.0192L84.6416 28.0172L84.1973 33.8486C84.1973 35.2185 83.8641 36.1997 83.1976 36.7921C82.5682 37.3845 81.55 37.8103 80.1431 38.0694C78.9213 38.2916 78.3104 38.6248 78.3104 39.0691C78.3104 39.2913 78.4585 39.4394 78.7547 39.5134C79.0508 39.6245 79.4396 39.68 79.9209 39.68C80.9206 39.68 81.7722 39.643 82.4756 39.5689C83.2161 39.4949 83.9381 39.4394 84.6416 39.4023C84.9826 39.3682 85.3433 38.9625 85.7236 38.5348C86.1691 38.0337 86.6414 37.5024 87.1408 37.5024C87.5499 37.5024 87.9089 38.1199 88.2178 38.6513C88.4401 39.0336 88.6365 39.3713 88.8069 39.4023C89.2512 39.4394 89.7325 39.4949 90.2508 39.5689C90.8062 39.643 91.5837 39.68 92.5834 39.68C93.0647 39.68 93.4535 39.6245 93.7497 39.5134C94.0459 39.4394 94.194 39.2913 94.194 39.0691C94.194 38.8099 94.0459 38.6063 93.7497 38.4582C93.4535 38.3101 92.9907 38.1805 92.3613 38.0694C90.9913 37.8103 90.0287 37.2549 89.4733 36.4033C88.918 35.5147 88.6403 34.478 88.6403 33.2932V23.5187C88.6403 23.1855 88.6958 22.9078 88.8069 22.6856C88.8982 22.5486 89.0177 22.4609 89.1654 22.4225L89.0511 22.4796H89.3168C90.2713 22.4796 91.2047 22.7605 92.0007 23.2871L93.2196 24.0945C94.828 25.16 96.2036 26.5408 97.263 28.1532L97.5058 28.5226L101.203 34.1492L107.327 43.4696C108.167 44.7487 109.219 45.8756 110.437 46.8021L110.687 46.9926C111.982 47.9771 113.463 48.6875 115.041 49.0806C116.715 49.4978 118.28 50.2719 119.627 51.3499L119.794 51.4835C121.87 53.1451 124.408 54.1271 127.062 54.296L129.778 54.4689H132.474C132.993 54.4689 133.081 53.7254 132.576 53.6039L127.78 52.3064L125.933 51.5375C123.713 50.6137 121.646 49.3601 119.801 47.8191L119.643 47.6867C118.846 47.0216 118.002 46.4162 117.117 45.8754C115.179 44.6921 113.446 43.2038 111.983 41.4678L110.019 39.1373C108.444 37.2681 107.201 35.1432 106.343 32.8545L103.535 29.3963ZM91.5837 21.1306C93.2869 21.1306 98.2054 20.7418 99.4272 19.9643C100.686 19.1868 101.649 18.1686 102.315 16.9098C103.019 15.6509 103.37 14.318 103.37 12.9111C103.37 11.8693 102.926 10.8415 102.515 9.89229L102.515 9.89215C102.327 9.45828 102.147 9.04082 102.019 8.64594C101.957 8.43548 101.905 8.23505 101.854 8.04372C101.604 7.09068 101.414 6.36348 100.427 5.74679C99.2791 4.96927 94.0829 4.58051 91.7503 4.58051C90.5655 4.58051 89.788 4.96927 89.4178 5.74679C89.0475 6.48729 88.8254 7.82018 88.7513 9.74547C88.7143 10.6711 88.6773 11.9299 88.6403 13.522V19.1868C88.6403 20.1124 88.8994 20.6678 89.4178 20.8529C89.9361 21.038 90.6581 21.1306 91.5837 21.1306ZM151.669 39.5134C152.669 40.0688 153.335 40.3465 153.668 40.3465C153.964 40.3465 154.224 40.2539 154.446 40.0688C154.705 39.9207 154.835 39.5504 154.835 38.958C154.835 38.6989 154.816 38.3286 154.779 37.8473C154.742 37.3289 154.686 36.718 154.612 36.0146C154.575 35.2741 154.557 34.4595 154.557 33.5709C154.557 32.7502 154.619 31.8925 154.684 30.9861C154.757 29.9705 154.835 28.8938 154.835 27.7395C154.835 26.6288 154.765 25.5041 154.696 24.3795C154.626 23.2549 154.557 22.1303 154.557 21.0195C154.594 18.798 154.612 16.7246 154.612 14.7994V10.0232C154.649 8.76431 154.668 8.04233 154.668 7.8572C154.742 6.93158 155.001 6.26514 155.445 5.85786C155.89 5.45059 156.797 5.11737 158.167 4.85819C159.389 4.63604 159.999 4.2658 159.999 3.74745C159.999 3.5253 159.851 3.3772 159.555 3.30315C159.259 3.19208 158.87 3.13654 158.389 3.13654C157.278 3.13654 156.252 3.15505 155.623 3.19208C155.316 3.21125 154.942 3.64688 154.581 4.06778C154.244 4.4599 153.918 4.83922 153.668 4.85708C153.444 4.85708 153.136 4.5657 152.788 4.23528C152.331 3.80267 151.804 3.30315 151.3 3.30315H150.947H149.892H148.837C148.355 3.30315 147.855 3.35869 147.337 3.46976C146.819 3.54381 146.559 3.69191 146.559 3.91406C146.559 4.17323 146.819 4.39538 147.337 4.58051C147.855 4.76563 148.429 4.91373 149.059 5.02481C149.688 5.13588 150.373 5.48761 151.114 6.08001C151.854 6.67241 152.243 7.33885 152.28 8.07935V15.5769C152.28 18.0205 152.261 20.2975 152.224 22.4079C152.224 23.4788 152.334 24.4707 152.434 25.3835C152.528 26.2381 152.615 27.0234 152.597 27.7395C152.597 28.6421 152.43 29.3639 152.304 29.9048L152.304 29.905L152.304 29.9051L152.304 29.9053L152.304 29.9055C152.229 30.2296 152.169 30.4888 152.169 30.683C152.132 31.4605 151.947 31.8493 151.613 31.8493C151.391 31.8493 151.132 31.7012 150.836 31.405C150.577 31.1088 150.373 30.8866 150.225 30.7385C150.077 30.5534 149.577 29.961 148.725 28.9613C148.364 28.518 148.145 28.0017 147.903 27.4319C147.599 26.7169 147.26 25.9177 146.559 25.0729C145.939 24.3069 145.063 23.5412 144.157 22.749C143.223 21.9327 142.257 21.0883 141.506 20.1865C140.025 18.3722 138.544 16.5765 137.063 14.7994C135.582 12.9851 134.212 11.319 132.953 9.801C131.731 8.24596 130.694 6.96861 129.843 5.96894C129.028 4.93224 128.547 4.30282 128.399 4.08067C128.214 3.8215 128.029 3.59935 127.843 3.41423C127.658 3.2291 127.399 3.13654 127.066 3.13654H124.622C123.993 3.09951 123.419 3.06249 122.901 3.02547C122.382 2.98844 121.79 2.96993 121.123 2.96993C120.457 2.93291 119.587 2.89588 118.513 2.85885C118.328 2.85885 118.069 2.91439 117.736 3.02547C117.402 3.09951 117.236 3.30315 117.236 3.63637C117.236 3.9696 117.477 4.2658 117.958 4.52497C118.476 4.74712 118.809 4.89522 118.958 4.96927C120.587 5.48762 121.901 6.17258 122.901 7.02415C123.937 7.87572 124.456 9.28266 124.456 11.245C124.456 14.281 124.4 17.243 124.289 20.1309C124.233 21.5714 124.356 22.7613 124.473 23.8871C124.588 24.9894 124.696 26.0301 124.622 27.1841C124.534 28.5483 124.191 30.0105 123.896 31.2678L123.896 31.2679L123.896 31.268L123.896 31.2681C123.695 32.1263 123.516 32.8891 123.456 33.4599C123.345 34.6076 123.049 35.5888 122.567 36.4033C122.086 37.1808 121.309 37.7177 120.235 38.0139C119.605 38.162 119.143 38.3101 118.846 38.4582C118.55 38.6063 118.402 38.8099 118.402 39.0691C118.402 39.2913 118.55 39.4394 118.846 39.5134C119.143 39.6245 119.531 39.68 120.013 39.68C121.012 39.68 121.753 39.643 122.234 39.5689C122.716 39.5319 123.141 39.4949 123.512 39.4579C123.667 39.4423 123.849 39.0941 124.057 38.6957C124.344 38.1466 124.68 37.5024 125.067 37.5024C125.479 37.5024 125.834 38.1618 126.132 38.7149C126.342 39.1052 126.524 39.4426 126.677 39.4579C127.084 39.4949 127.529 39.5319 128.01 39.5689C128.528 39.643 129.287 39.68 130.287 39.68C130.768 39.68 131.157 39.6245 131.453 39.5134C131.75 39.4394 131.898 39.2913 131.898 39.0691C131.898 38.8099 131.75 38.6063 131.453 38.4582C131.157 38.3101 130.694 38.1805 130.065 38.0694C128.695 37.8103 127.751 37.2549 127.233 36.4033C126.751 35.5518 126.511 34.6261 126.511 33.6265C126.511 32.4644 126.643 31.2644 126.779 30.0361V30.036V30.0359V30.0359V30.0358C126.912 28.8378 127.048 27.6128 127.066 26.3697C127.085 25.0946 126.975 23.848 126.867 22.6202C126.762 21.4237 126.659 20.2452 126.677 19.0757C126.714 16.7061 126.751 14.6142 126.788 12.8C126.788 12.5779 126.825 12.3372 126.899 12.078C126.973 11.7818 127.103 11.6337 127.288 11.6337C127.436 11.6337 127.603 11.7078 127.788 11.8559C127.973 11.967 128.195 12.1891 128.454 12.5223C128.639 12.7445 129.121 13.3369 129.898 14.2995C130.274 14.7265 130.558 15.2809 130.871 15.8924L130.871 15.8925C131.236 16.6065 131.641 17.3984 132.279 18.1563C132.836 18.7999 133.549 19.3931 134.292 20.0101C135.129 20.7065 136.003 21.4332 136.729 22.2969L140.839 27.1841C142.209 28.8132 143.468 30.3313 144.616 31.7382C145.8 33.1081 146.763 34.2559 147.504 35.1815C148.281 36.1071 148.744 36.6625 148.892 36.8476C149.781 38.0694 150.706 38.958 151.669 39.5134ZM78.4306 54.3348L74.9732 50.156L69.9749 50.0307L64.8431 51.01L59.9783 49.78L43.2287 49.028L31.557 48.4163L1.0132 49.0084C0.456827 49.0191 0 48.5711 0 48.0146C0 47.5749 0.288973 47.1874 0.710463 47.062L7.78117 44.958L19.6691 46.1157L39.3381 44.958L59.9783 46.772L69.9749 44.958L74.9732 46.396L76.9943 46.3454C77.2966 46.3378 77.5862 46.4675 77.7818 46.6981L79.209 48.3802C79.6084 48.8509 80.3347 48.8509 80.7341 48.3802L82.1613 46.6981C82.357 46.4675 82.6465 46.3378 82.9489 46.3454L84.9699 46.396L89.9682 46.5214L99.9648 46.772L106.343 47.0227C107.492 47.9494 108.733 48.757 110.046 49.433L110.233 49.5293L99.9648 49.78L95.1032 51.01L89.9682 50.0307L84.9699 50.156L81.5125 54.3348C80.7127 55.3015 79.2305 55.3015 78.4306 54.3348ZM122.984 47.2734L140.061 45.3903L150.004 47.2734L158.712 48.1916C159.167 48.2396 159.512 48.6232 159.512 49.0807C159.512 49.5957 159.078 50.0043 158.564 49.973L140.061 48.8486L125.796 49.2787L125.343 49.0161C124.494 48.5242 123.703 47.9397 122.984 47.2734Z" fill="black"/>
</svg>
