<svg width="130" height="46" viewBox="0 0 130 46" fill="none" xmlns="http://www.w3.org/2000/svg">
<g filter="url(#filter0_i_500_5267)">
<path d="M0 12C0 5.37258 5.37258 0 12 0H16.175C16.2249 0 16.2748 0.00374413 16.3242 0.0112009L22.7257 0.977471C22.8247 0.992406 22.9253 0.992406 23.0243 0.977471L28.93 0.0860389C29.2828 0.0327869 29.6372 0.171536 29.8601 0.450143L30.8705 1.71318C31.1516 2.0645 31.7071 1.98218 31.8742 1.56445C31.9521 1.36984 32.1277 1.23149 32.3352 1.20142L40.5537 0.0103394C40.6012 0.0034554 40.6491 0 40.6971 0H48.75H65H119.452C125.277 0 130 4.7225 130 10.548V11.0166C130 11.3352 129.932 11.6501 129.8 11.9401L128.199 15.4613C127.946 16.0183 128.501 16.5995 129.069 16.3723C129.515 16.194 130 16.5223 130 17.0024V32.4576C130 39.6576 123.704 45.2368 116.556 44.3704L113.983 44.0586C113.678 44.0216 113.373 44.1269 113.156 44.3442L111.793 45.7071C111.605 45.8946 111.351 46 111.086 46H106H97H92H84H80.5H65.1231C65.0413 46 64.9599 45.99 64.8806 45.9701L57.1975 44.0494C57.0672 44.0168 56.9316 44.0108 56.799 44.0317L47.7251 45.4645C47.5769 45.4879 47.4254 45.4776 47.2818 45.4345L42.6704 44.0511C42.5577 44.0173 42.4518 43.9639 42.3577 43.8933L41.0886 42.9415C40.2682 42.3261 39.2226 43.3436 39.8154 44.1806C40.2229 44.7559 39.8398 45.5552 39.136 45.5978L32.8154 45.9809C32.6102 45.9933 32.406 45.9422 32.2309 45.8344L26.2901 42.1785C26.102 42.0628 25.8809 42.0125 25.6613 42.0357L16.5 43H8.59012C8.53048 43 8.47126 43.0101 8.41501 43.03C4.3072 44.4798 0 41.4324 0 37.0762V12Z" fill="url(#paint0_linear_500_5267)"/>
</g>
<path d="M32.4069 1.69625L32.3352 1.20142L32.4069 1.69625L40.6254 0.50517C40.6491 0.501728 40.6731 0.5 40.6971 0.5H48.75H65H119.452C125.001 0.5 129.5 4.99864 129.5 10.548V11.0166C129.5 11.2638 129.447 11.5081 129.345 11.7332L127.744 15.2544C127.305 16.2217 128.268 17.2311 129.255 16.8365C129.372 16.7896 129.5 16.876 129.5 17.0024V32.4576C129.5 39.3576 123.466 44.7043 116.616 43.8741L114.043 43.5622C113.586 43.5067 113.128 43.6647 112.802 43.9906L111.439 45.3536C111.346 45.4473 111.218 45.5 111.086 45.5H106H97H92H84H80.5H65.1231C65.0822 45.5 65.0415 45.495 65.0018 45.4851L57.3187 43.5643C57.1233 43.5154 56.92 43.5064 56.721 43.5379L47.6471 44.9706C47.573 44.9823 47.4973 44.9772 47.4254 44.9556L42.814 43.5722C42.7577 43.5553 42.7048 43.5286 42.6577 43.4933L41.3886 42.5415C40.1119 41.5839 38.4849 43.1673 39.4074 44.4696C39.5883 44.725 39.4182 45.0798 39.1058 45.0987L32.7852 45.4818C32.6826 45.488 32.5805 45.4624 32.4929 45.4085L26.5521 41.7527C26.27 41.5791 25.9384 41.5037 25.6089 41.5384L16.4738 42.5H8.59012C8.47379 42.5 8.3583 42.5198 8.24861 42.5585C4.4661 43.8935 0.5 41.0874 0.5 37.0762V12C0.5 5.64873 5.64873 0.5 12 0.5H16.175C16.1999 0.5 16.2249 0.501872 16.2496 0.5056L22.6511 1.47187C22.7995 1.49427 22.9505 1.49427 23.0989 1.47187L29.0046 0.580438C29.181 0.553812 29.3582 0.623187 29.4697 0.76249L30.4801 2.02553C31.0005 2.67601 32.0291 2.52358 32.3385 1.75015C32.35 1.72126 32.3761 1.70072 32.4069 1.69625Z" stroke="url(#paint1_linear_500_5267)"/>
<g filter="url(#filter1_i_500_5267)">
<path d="M46.9148 30.132C46.3868 30.132 45.7928 30.088 45.1328 30C45.2061 29.2813 45.2648 28.306 45.3088 27.074C45.3528 25.842 45.3748 24.676 45.3748 23.576C45.3748 21.0533 45.2575 19.4913 45.0228 18.89C45.5215 18.714 46.1888 18.5747 47.0248 18.472C47.8755 18.3547 48.7335 18.296 49.5988 18.296C51.1828 18.296 52.3928 18.6333 53.2288 19.308C54.0795 19.968 54.5048 20.9213 54.5048 22.168C54.5048 23.004 54.2848 23.752 53.8448 24.412C53.4195 25.0573 52.8181 25.5633 52.0408 25.93C51.2635 26.2967 50.3761 26.48 49.3788 26.48C48.9095 26.48 48.4988 26.4507 48.1468 26.392C48.1761 28.2693 48.2861 29.472 48.4768 30C47.9781 30.088 47.4575 30.132 46.9148 30.132ZM50.1928 24.918C50.5888 24.6833 50.9115 24.3387 51.1608 23.884C51.4101 23.4293 51.5348 22.916 51.5348 22.344C51.5348 20.892 50.7355 20.166 49.1368 20.166C48.7995 20.166 48.5061 20.1953 48.2568 20.254C48.1688 21.926 48.1248 23.3487 48.1248 24.522C49.0195 24.786 49.7088 24.918 50.1928 24.918ZM56.1328 30.066C56.2941 27.91 56.3748 25.7467 56.3748 23.576C56.3748 20.7747 56.2575 19.0513 56.0228 18.406C56.5508 18.318 57.0935 18.274 57.6508 18.274C58.1348 18.274 58.7068 18.318 59.3668 18.406C59.2935 19.154 59.2348 20.166 59.1908 21.442C59.1468 22.7033 59.1248 23.8913 59.1248 25.006C59.1248 26.15 59.1468 27.0887 59.1908 27.822C59.9535 27.91 60.5768 27.954 61.0608 27.954C61.6181 27.954 62.1755 27.9027 62.7328 27.8C63.3048 27.6973 63.7815 27.5507 64.1628 27.36C64.1628 27.844 64.1188 28.3647 64.0308 28.922C63.9428 29.4793 63.8328 29.8607 63.7008 30.066C62.8355 29.9633 61.6255 29.912 60.0708 29.912C58.3108 29.912 56.9981 29.9633 56.1328 30.066ZM74.4775 30.11C73.9935 30.11 73.4655 30.0587 72.8935 29.956L72.6515 29.252L71.9475 27.294C71.1555 27.25 70.3122 27.228 69.4175 27.228C68.4495 27.228 67.7602 27.2573 67.3495 27.316C66.9682 28.2987 66.6529 29.1787 66.4035 29.956C66.0515 30.044 65.7362 30.088 65.4575 30.088C65.0909 30.088 64.7169 30.044 64.3355 29.956C64.7462 29.2227 65.4722 27.492 66.5135 24.764C67.5549 22.036 68.3322 19.902 68.8455 18.362C69.4322 18.2887 69.9235 18.252 70.3195 18.252C70.7449 18.252 71.1995 18.2887 71.6835 18.362C72.1969 19.902 72.9742 22.036 74.0155 24.764C75.0569 27.492 75.7829 29.2227 76.1935 29.956C75.6655 30.0587 75.0935 30.11 74.4775 30.11ZM70.2535 25.578C70.5322 25.578 70.8769 25.5633 71.2875 25.534C70.6715 23.8033 70.1215 22.3733 69.6375 21.244C69.0069 22.8427 68.4642 24.2653 68.0095 25.512C68.7135 25.556 69.4615 25.578 70.2535 25.578ZM80.7113 30.132C80.1979 30.132 79.5966 30.088 78.9073 30C79.0246 28.9733 79.0979 27.602 79.1273 25.886C78.4526 24.39 77.6826 22.9013 76.8173 21.42C75.9519 19.9387 75.3653 19.044 75.0573 18.736C75.9959 18.428 77.1913 18.274 78.6433 18.274C78.7606 18.6407 79.0466 19.352 79.5013 20.408C79.9706 21.464 80.5059 22.5493 81.1073 23.664C81.7819 22.3293 82.2879 21.2147 82.6253 20.32C82.9773 19.4253 83.1679 18.7873 83.1973 18.406C84.0186 18.318 84.9279 18.274 85.9253 18.274C84.7519 19.9607 83.4099 22.4907 81.8993 25.864C81.8993 28.0933 82.0166 29.472 82.2513 30C81.7526 30.088 81.2393 30.132 80.7113 30.132Z" fill="#FFEFD7"/>
</g>
<defs>
<filter id="filter0_i_500_5267" x="0" y="0" width="130" height="46" filterUnits="userSpaceOnUse" color-interpolation-filters="sRGB">
<feFlood flood-opacity="0" result="BackgroundImageFix"/>
<feBlend mode="normal" in="SourceGraphic" in2="BackgroundImageFix" result="shape"/>
<feColorMatrix in="SourceAlpha" type="matrix" values="0 0 0 0 0 0 0 0 0 0 0 0 0 0 0 0 0 0 127 0" result="hardAlpha"/>
<feOffset dy="-1"/>
<feComposite in2="hardAlpha" operator="arithmetic" k2="-1" k3="1"/>
<feColorMatrix type="matrix" values="0 0 0 0 0.151244 0 0 0 0 0 0 0 0 0 0.343736 0 0 0 1 0"/>
<feBlend mode="normal" in2="shape" result="effect1_innerShadow_500_5267"/>
</filter>
<filter id="filter1_i_500_5267" x="45.0229" y="18.252" width="40.9023" height="11.8799" filterUnits="userSpaceOnUse" color-interpolation-filters="sRGB">
<feFlood flood-opacity="0" result="BackgroundImageFix"/>
<feBlend mode="normal" in="SourceGraphic" in2="BackgroundImageFix" result="shape"/>
<feColorMatrix in="SourceAlpha" type="matrix" values="0 0 0 0 0 0 0 0 0 0 0 0 0 0 0 0 0 0 127 0" result="hardAlpha"/>
<feOffset dy="1"/>
<feComposite in2="hardAlpha" operator="arithmetic" k2="-1" k3="1"/>
<feColorMatrix type="matrix" values="0 0 0 0 0.152941 0 0 0 0 0 0 0 0 0 0.345098 0 0 0 0.65 0"/>
<feBlend mode="normal" in2="shape" result="effect1_innerShadow_500_5267"/>
</filter>
<linearGradient id="paint0_linear_500_5267" x1="118" y1="-9.07473e-07" x2="-49.5" y2="96.5" gradientUnits="userSpaceOnUse">
<stop stop-color="#8334FF"/>
<stop offset="1" stop-color="#7BD8FF"/>
</linearGradient>
<linearGradient id="paint1_linear_500_5267" x1="54" y1="2.55835e-07" x2="54" y2="46" gradientUnits="userSpaceOnUse">
<stop stop-color="#D884FF"/>
<stop offset="0.677092" stop-color="white" stop-opacity="0"/>
</linearGradient>
</defs>
</svg>
