<svg width="52" height="70" viewBox="0 0 52 70" fill="none" xmlns="http://www.w3.org/2000/svg">
<g clip-path="url(#clip0_2782_409)">
<g filter="url(#filter0_b_2782_409)">
<path d="M52 4C52 1.79086 50.2091 1.71901e-10 48 1.64338e-10L4 0C1.79086 0 0 1.79086 0 4V17.5V26.25V35V43.75V52.5V66C0 68.2091 1.79086 70 4 70H48C50.2091 70 52 68.2091 52 66V4Z" fill="#301B1B"/>
<path d="M51.612 4C51.612 2.00517 49.9948 0.388047 48 0.388047H4C2.00517 0.388047 0.388046 2.00517 0.388046 4V17.5V26.25V35V43.75V52.5V66C0.388046 67.9948 2.00518 69.612 4 69.612H48C49.9948 69.612 51.612 67.9948 51.612 66V4Z" stroke="url(#paint0_linear_2782_409)" stroke-width="0.776093"/>
</g>
<path fill-rule="evenodd" clip-rule="evenodd" d="M18.0064 28.9203C18.8865 28.9203 19.7485 28.8423 20.586 28.6927L20.5836 28.686L24.0082 27.2598C24.081 27.3509 24.1563 27.4399 24.2338 27.5269C24.305 27.4932 24.3759 27.459 24.4465 27.4242C24.3709 27.3411 24.2975 27.256 24.2264 27.1689L25.2558 26.7402C21.273 24.0053 18.6588 19.404 18.6588 14.1889C18.6588 12.5475 18.9178 10.9669 19.3969 9.48615C13.2772 11.0319 8.00715 14.7308 4.43037 19.7357C4.50023 19.9084 4.57325 20.0795 4.64936 20.2489C4.72831 20.4089 4.80454 20.5706 4.87799 20.7338C7.2751 25.5864 12.2546 28.9203 18.0064 28.9203ZM20.5063 29.1706C20.5815 29.158 20.6564 29.1448 20.7312 29.1311C20.7445 29.1769 20.7574 29.2228 20.7697 29.2689C21.2615 29.3944 21.7766 29.461 22.3071 29.461C22.5332 29.461 22.7565 29.4489 22.9764 29.4253C23.6441 29.061 24.3917 28.826 25.186 28.7538C25.28 28.7045 25.3725 28.6529 25.4636 28.599C25.1435 28.3842 24.8436 28.1415 24.5673 27.8742C24.6397 27.8391 24.7118 27.8034 24.7836 27.7671C25.0588 28.0266 25.3576 28.2612 25.6761 28.4674C26.0519 28.2242 26.4 27.9415 26.7146 27.6251C26.7844 27.6622 26.8545 27.6987 26.9249 27.7347C26.6108 28.0575 26.2636 28.3474 25.8887 28.599C25.9756 28.6504 26.0639 28.6998 26.1534 28.7471C26.9837 28.8109 27.7646 29.0523 28.4585 29.4336C28.6517 29.4518 28.8474 29.4611 29.0452 29.4611C29.5694 29.4611 30.0786 29.396 30.5651 29.2734C30.5851 29.1983 30.6065 29.1238 30.6291 29.0498C30.7033 29.0656 30.7777 29.0808 30.8524 29.0954C30.8413 29.1312 30.8305 29.1672 30.82 29.2033C30.8953 29.1808 30.97 29.157 31.044 29.1318C31.9269 29.2933 32.8366 29.3777 33.7659 29.3777C38.8311 29.3777 43.314 26.8714 46.0549 23.0251C45.7162 24.2884 45.5356 25.6168 45.5356 26.9877C45.5356 29.9686 46.3897 32.7489 47.8652 35.0947C46.3896 37.4406 45.5356 40.2209 45.5356 43.2018C45.5356 44.2336 45.6379 45.2414 45.8329 46.2154C43.0823 42.4624 38.6555 40.0276 33.663 40.0276C32.531 40.0276 31.428 40.1528 30.3671 40.3901L30.7714 40.2218C30.6769 39.9742 30.597 39.7194 30.5329 39.4583C30.1967 39.3755 29.8499 39.3202 29.4949 39.2947C28.7161 39.9461 27.7702 40.4023 26.7313 40.5888L26.4851 40.5929C26.7835 40.8475 27.0585 41.129 27.3066 41.4334C27.236 41.4664 27.1657 41.4999 27.0957 41.534C26.8093 41.1888 26.4868 40.8751 26.1339 40.5987L25.1988 40.6141C24.8786 40.867 24.5835 41.1507 24.3182 41.4609C24.2473 41.4274 24.1761 41.3945 24.1047 41.3621C24.3282 41.0956 24.5727 40.8474 24.8356 40.6201L24.8109 40.6205C23.6955 40.4585 22.6796 39.9868 21.8524 39.2951C21.4932 39.3211 21.1424 39.3778 20.8025 39.4625C20.7385 39.7224 20.659 39.9761 20.5649 40.2226L20.7371 40.2943C19.8192 40.1192 18.8719 40.0276 17.9034 40.0276C13.0564 40.0276 8.74264 42.3225 5.97827 45.8905C6.13333 45.0178 6.21424 44.1193 6.21424 43.2018C6.21424 40.2212 5.3603 37.4411 3.88497 35.0953C5.36037 32.7495 6.21435 29.9693 6.21435 26.9886C6.21435 25.5988 6.02868 24.2525 5.68092 22.9736C8.41839 26.849 12.9187 29.3776 18.0064 29.3776C18.6703 29.3776 19.3242 29.3345 19.9655 29.251L18.5116 32.7801C19.0298 33.1881 19.4844 33.6739 19.858 34.2201C19.9047 34.1431 19.9497 34.0651 19.9931 33.986C20.068 33.134 20.327 32.3353 20.7299 31.6302C20.7529 31.4109 20.7648 31.1882 20.7648 30.9627C20.7648 30.4425 20.7018 29.9372 20.5831 29.4539C20.3747 29.3961 20.1706 29.328 19.9713 29.2502C20.133 29.2291 20.2938 29.2055 20.4538 29.1793C20.4663 29.1832 20.4787 29.187 20.4912 29.1908C20.4989 29.1932 20.5066 29.1955 20.5143 29.1978L20.5063 29.1706ZM27.243 27.3831C27.1735 27.3483 27.1044 27.313 27.0355 27.2771C27.0645 27.2433 27.0931 27.2091 27.1213 27.1746L26.3495 26.8531C30.426 24.133 33.1135 19.4764 33.1135 14.1888C33.1135 12.558 32.8579 10.9873 32.3847 9.51493C38.4939 11.0871 43.7483 14.8072 47.3042 19.8282C47.2896 19.8635 47.2749 19.8987 47.2601 19.9338C47.0705 20.2967 46.8951 20.6683 46.7345 21.0478C44.2806 25.7298 39.3928 28.9205 33.7659 28.9205C32.5871 28.9205 31.4407 28.7804 30.3423 28.516L27.3396 27.2655C27.3078 27.3051 27.2756 27.3443 27.243 27.3831ZM4.23502 19.2256C3.66654 17.6543 3.35645 15.958 3.35645 14.1888C3.35645 6.05043 9.91775 -0.54279 18.0064 -0.54279C20.7263 -0.54279 23.2736 0.202763 25.4567 1.50192C22.7771 3.27953 20.6938 5.89228 19.5737 8.97149C13.3247 10.4753 7.92643 14.1803 4.23502 19.2256ZM20.1081 8.8487C21.2428 5.9163 23.2845 3.43999 25.8862 1.76764C28.4953 3.44477 30.5412 5.93042 31.6739 8.87375C29.7941 8.4537 27.84 8.23217 25.8344 8.23217C23.869 8.23217 21.9531 8.4449 20.1081 8.8487ZM19.9213 9.35945C21.8221 8.92101 23.8014 8.68938 25.8344 8.68938C27.9075 8.68938 29.9248 8.93025 31.86 9.38568C32.376 10.891 32.6563 12.5069 32.6563 14.1888C32.6563 19.409 29.9567 23.9935 25.8861 26.61C21.8155 23.9935 19.116 19.409 19.116 14.1889C19.116 12.4972 19.3995 10.8723 19.9213 9.35945ZM47.6123 20.2728C47.4688 20.6025 47.3141 20.926 47.1485 21.2429C46.4044 23.008 45.9928 24.9494 45.9928 26.9877C45.9928 29.8038 46.7784 32.4349 48.1411 34.6718C49.1388 33.1966 50.388 31.9073 51.8267 30.8661C51.1958 26.9867 49.7266 23.3909 47.6123 20.2728ZM52.2419 30.5761C51.5665 26.6259 50.0355 22.9698 47.8477 19.8074C50.3538 15.3014 55.1455 12.2561 60.6427 12.2561C68.7313 12.2561 75.2926 18.8494 75.2926 26.9877C75.2926 29.8038 74.507 32.4349 73.1443 34.6719C70.4262 30.6528 65.8411 28.013 60.6427 28.013C57.5337 28.013 54.644 28.9573 52.2419 30.5761ZM51.9047 31.3765C50.5358 32.4009 49.3508 33.66 48.4087 35.0947C49.3553 36.5363 50.5473 37.8007 51.9246 38.8278C52.0885 37.6332 52.1733 36.4131 52.1733 35.1731C52.1733 33.884 52.0817 32.6163 51.9047 31.3765ZM52.3436 39.1291C52.5326 37.838 52.6305 36.517 52.6305 35.1731C52.6305 33.7799 52.5253 32.4113 52.3225 31.0751C54.6859 29.4323 57.5529 28.4702 60.6427 28.4702C65.754 28.4702 70.2554 31.103 72.8767 35.0948C70.2554 39.0865 65.754 41.7193 60.6427 41.7193C57.5621 41.7193 54.7031 40.7629 52.3436 39.1291ZM51.8492 39.3396C50.401 38.2956 49.144 37.0005 48.1411 35.5176C46.7784 37.7546 45.9928 40.3857 45.9928 43.2018C45.9928 44.6338 46.1959 46.018 46.5748 47.3269C47.0503 48.1118 47.457 48.9435 47.7864 49.8134C49.8323 46.7181 51.248 43.1652 51.8492 39.3396ZM47.9778 50.3491C50.1219 47.1928 51.6158 43.5546 52.2656 39.6294C54.663 41.2384 57.5439 42.1765 60.6427 42.1765C65.8411 42.1765 70.4262 39.5367 73.1443 35.5177C74.507 37.7546 75.2926 40.3857 75.2926 43.2018C75.2926 51.3401 68.7313 57.9334 60.6427 57.9334C55.3611 57.9334 50.7307 55.1223 48.153 50.9054C48.098 50.7185 48.0396 50.533 47.9778 50.3491ZM47.3586 50.441C46.8602 49.5185 46.454 48.5382 46.1527 47.5127C43.575 43.2959 38.9446 40.4848 33.663 40.4848C30.943 40.4848 28.3958 41.2303 26.2127 42.5295C30.3082 45.2464 33.0105 49.9141 33.0105 55.2164C33.0105 57.2458 32.6146 59.1823 31.8962 60.952C38.245 59.4483 43.708 55.6346 47.3586 50.441ZM31.6735 61.4726C38.1999 60.0143 43.8301 56.1631 47.6064 50.882C47.6473 50.9521 47.6888 51.0218 47.7309 51.0912C48.1097 52.4001 48.3129 53.7843 48.3129 55.2164C48.3129 63.3547 41.7516 69.9479 33.663 69.9479C30.943 69.9479 28.3958 69.2024 26.2127 67.9032C28.5854 66.3292 30.4906 64.1003 31.6735 61.4726ZM31.3489 61.0755C32.1237 59.28 32.5533 57.2987 32.5533 55.2164C32.5533 49.9962 29.8537 45.4117 25.7832 42.7952C21.7126 45.4117 19.0131 49.9962 19.0131 55.2164C19.0131 57.2893 19.4388 59.262 20.207 61.051C22.0202 61.4478 23.903 61.6569 25.8344 61.6569C27.7257 61.6569 29.5704 61.4564 31.3489 61.0755ZM20.4409 61.5682C22.1832 61.9261 23.9869 62.1141 25.8344 62.1141C27.6418 62.1141 29.4074 61.9342 31.1144 61.5912C29.9288 64.0712 28.0729 66.1657 25.7832 67.6375C23.4864 66.1612 21.6261 64.0583 20.4409 61.5682ZM19.6591 60.9249C18.9477 59.1625 18.5559 57.2355 18.5559 55.2164C18.5559 49.9141 21.2582 45.2464 25.3537 42.5295C23.1706 41.2303 20.6233 40.4848 17.9034 40.4848C12.8349 40.4848 8.36623 43.0736 5.73571 47.0091C5.41909 48.2424 4.95224 49.415 4.35597 50.5059C7.98454 55.6356 13.3851 59.4092 19.6591 60.9249ZM4.10695 50.9441C7.8608 56.1627 13.4289 59.9753 19.8813 61.4469C21.0634 64.0858 22.9732 66.324 25.3537 67.9032C23.1706 69.2024 20.6233 69.9479 17.9034 69.9479C9.81475 69.9479 3.25345 63.3547 3.25345 55.2164C3.25345 53.9674 3.40797 52.7549 3.69882 51.597C3.84017 51.3831 3.97628 51.1654 4.10695 50.9441ZM3.81763 49.715C4.21317 48.692 4.7158 47.7227 5.31166 46.8211C5.60251 45.6632 5.75703 44.4507 5.75703 43.2018C5.75703 40.3859 4.97154 37.755 3.60907 35.5182C2.5894 37.026 1.30694 38.3397 -0.172089 39.3927C0.42737 43.1576 1.81595 46.6573 3.81763 49.715ZM-0.588642 39.6789C0.058567 43.5436 1.52419 47.1288 3.62285 50.2483C3.49199 50.6286 3.37574 51.0158 3.27477 51.4091C0.644251 55.3446 -3.82448 57.9334 -8.89288 57.9334C-16.9815 57.9334 -23.5428 51.3401 -23.5428 43.2018C-23.5428 40.3859 -22.7573 37.7549 -21.3947 35.5181C-18.6767 39.5374 -14.0914 42.1774 -8.89277 42.1774C-5.82533 42.1774 -2.97142 41.2582 -0.588642 39.6789ZM-0.248152 38.8833C1.1604 37.8464 2.37799 36.5627 3.34152 35.0953C2.38256 33.6349 1.17196 32.3563 -0.228111 31.322C-0.410244 32.5792 -0.504543 33.8651 -0.504543 35.1731C-0.504543 36.4323 -0.417156 37.671 -0.248152 38.8833ZM-0.645994 31.0244C-0.853888 32.3768 -0.961754 33.7623 -0.961754 35.1731C-0.961754 36.5349 -0.861256 37.8731 -0.667315 39.1806C-3.01249 40.7836 -5.84414 41.7202 -8.89277 41.7202C-14.0043 41.7202 -18.5059 39.0872 -21.1272 35.0951C-18.5059 31.1032 -14.0043 28.4702 -8.89288 28.4702C-5.83496 28.4702 -2.99534 29.4126 -0.645994 31.0244ZM-0.564825 30.5274C-2.95242 28.9383 -5.81517 28.013 -8.89288 28.013C-14.0914 28.013 -18.6767 30.653 -21.3947 34.6722C-22.7572 32.4354 -23.5427 29.8045 -23.5427 26.9886C-23.5427 18.8503 -16.9814 12.257 -8.89277 12.257C-3.42218 12.257 1.34977 15.273 3.86573 19.743C1.66312 22.9071 0.119514 26.569 -0.564825 30.5274ZM-0.149471 30.8139C0.491497 26.922 1.97637 23.3168 4.10965 20.1946C4.15239 20.2772 4.19438 20.3602 4.2356 20.4436C4.30905 20.6068 4.38527 20.7685 4.46423 20.9285C5.29478 22.7767 5.75714 24.8282 5.75714 26.9886C5.75714 29.8046 4.97161 32.4355 3.60908 34.6724C2.59461 33.1722 1.32003 31.8642 -0.149471 30.8139ZM47.5027 19.3203C43.8319 14.2573 38.4484 10.5299 32.2086 8.99908C31.091 5.90791 29.0033 3.28486 26.3157 1.50192C28.4988 0.202832 31.046 -0.542683 33.7659 -0.542683C41.8545 -0.542683 48.4158 6.05054 48.4158 14.1889C48.4158 15.9937 48.0931 17.7225 47.5027 19.3203ZM2.79624 55.2164C2.79624 54.2988 2.87715 53.4003 3.03221 52.5276C0.267839 56.0957 -4.04596 58.3906 -8.89288 58.3906C-17.2363 58.3906 -24 51.5903 -24 43.2018C-24 40.2211 -23.146 37.4409 -21.6706 35.0951C-23.1459 32.7494 -23.9999 29.9692 -23.9999 26.9886C-23.9999 18.6001 -17.2362 11.7998 -8.89277 11.7998C-3.80508 11.7998 0.695196 14.3284 3.43267 18.2038C3.08491 16.9249 2.89923 15.5786 2.89923 14.1888C2.89923 5.80025 9.66292 -1 18.0064 -1C20.8938 -1 23.592 -0.185552 25.8862 1.22732C28.1804 -0.185486 30.8785 -0.999893 33.7659 -0.999893C42.1094 -0.999893 48.873 5.80035 48.873 14.1889C48.873 15.5598 48.6924 16.8882 48.3538 18.1515C51.0946 14.3052 55.5776 11.7989 60.6427 11.7989C68.9862 11.7989 75.7498 18.5992 75.7498 26.9877C75.7498 29.9686 74.8958 32.7489 73.4202 35.0948C74.8957 37.4407 75.7498 40.2209 75.7498 43.2018C75.7498 51.5903 68.9861 58.3906 60.6427 58.3906C55.6502 58.3906 51.2234 55.9557 48.4728 52.2027C48.6678 53.1768 48.7701 54.1846 48.7701 55.2164C48.7701 63.6049 42.0064 70.4051 33.663 70.4051C30.7756 70.4051 28.0773 69.5907 25.7832 68.1778C23.489 69.5907 20.7908 70.4051 17.9034 70.4051C9.55992 70.4051 2.79624 63.6049 2.79624 55.2164ZM20.2248 34.8243C20.2182 34.8118 20.2114 34.7994 20.2047 34.787C20.1999 34.692 20.1974 34.5965 20.1974 34.5003C20.1974 34.3495 20.2034 34.2001 20.2152 34.0524C20.5997 33.339 20.8552 32.545 20.9502 31.7022C21.4516 30.8415 22.1773 30.129 23.0464 29.6458C23.8328 29.5557 24.5762 29.3237 25.2508 28.9758L25.2798 28.9735L23.7898 35.1725L21.8299 33.7587L20.2523 34.8762C20.2432 34.8588 20.2341 34.8415 20.2248 34.8243ZM20.7648 37.8833L20.7287 38.0517L20.7616 38.0998C20.7488 38.5031 20.6981 38.8969 20.613 39.2775C20.3707 39.3435 20.1341 39.4233 19.904 39.5161L18.4937 36.0928C19.0193 35.6819 19.4801 35.1911 19.858 34.6386C19.9004 34.7085 19.9414 34.7793 19.9811 34.8509C20.0362 35.7752 20.3077 36.641 20.7454 37.3975C20.758 37.5578 20.7645 37.7198 20.7648 37.8833ZM20.282 35.473L20.2907 35.4939C20.302 35.5212 20.3131 35.5486 20.324 35.5762L20.5476 36.449C20.4308 36.1361 20.3413 35.8098 20.282 35.473ZM19.7255 34.4294C19.3667 33.887 18.9262 33.4041 18.4217 32.9984L17.8202 34.4582L18.4038 35.8747C18.9158 35.4661 19.3625 34.9781 19.7255 34.4294ZM20.5508 39.531C20.4956 39.7368 20.4303 39.9385 20.3554 40.1354L20.1185 40.0367L19.9905 39.7259C20.1731 39.6523 20.36 39.5872 20.5508 39.531ZM20.8582 39.2158C21.1063 39.1587 21.3598 39.1159 21.6179 39.0884C21.3852 38.8723 21.1697 38.6379 20.9735 38.3874C20.9525 38.6689 20.9137 38.9454 20.8582 39.2158ZM20.9916 30.9627C20.9916 30.466 20.9361 29.9823 20.8311 29.5175C21.3051 29.6289 21.7993 29.6878 22.3071 29.6878C22.3881 29.6878 22.4687 29.6863 22.5489 29.6834C21.9355 30.0911 21.4045 30.614 20.9865 31.2216C20.9899 31.1357 20.9916 31.0494 20.9916 30.9627ZM20.3403 33.2409C20.4039 32.9655 20.4879 32.698 20.5907 32.4401C20.5247 32.7145 20.4408 32.9819 20.3403 33.2409ZM33.5139 34.4582L32.9311 35.8729C32.4196 35.4644 31.9734 34.9769 31.6108 34.4286C31.9691 33.8869 32.409 33.4045 32.9128 32.999L33.5139 34.4582ZM30.9809 40.1345L31.2156 40.0367L31.3463 39.7196C31.1631 39.6464 30.9756 39.5817 30.7844 39.5259C30.8398 39.7332 30.9054 39.9363 30.9809 40.1345ZM29.7295 39.0878C29.9835 39.1147 30.2331 39.1564 30.4774 39.212C30.4231 38.9468 30.3849 38.6756 30.3638 38.3996C30.1703 38.6453 29.9582 38.8754 29.7295 39.0878ZM30.3447 37.9193L30.3446 37.9042L30.341 37.9092L30.3447 37.9193ZM30.6979 36.6328C30.6738 36.7511 30.6531 36.8707 30.6358 36.9913C30.9131 36.4379 31.1008 35.8313 31.18 35.1907L31.1778 35.1953L30.6979 36.6328ZM31.1149 34.817L29.2413 33.7587L27.7389 35.1725L26.067 28.9683L26.0899 28.9698C26.7914 29.3334 27.5677 29.5715 28.3895 29.6548C29.1954 30.1065 29.8771 30.7556 30.3696 31.5373C30.4545 32.5089 30.7521 33.4191 31.2154 34.2206C31.22 34.3132 31.2223 34.4065 31.2223 34.5003C31.2223 34.5427 31.2218 34.585 31.2209 34.6272C31.1845 34.6898 31.1492 34.7531 31.1149 34.817ZM30.5714 37.8954C30.5714 37.7808 30.5745 37.6669 30.5805 37.5539C31.0995 36.7188 31.412 35.7406 31.446 34.6917C31.4566 34.6737 31.4674 34.6557 31.4782 34.6379C31.8559 35.1899 32.3162 35.6803 32.8412 36.091L31.4327 39.5098C31.2022 39.4176 30.9651 39.3383 30.7224 39.2729C30.6236 38.8297 30.5714 38.3687 30.5714 37.8954ZM31.4595 34.1882C31.4526 34.1767 31.4457 34.1651 31.4389 34.1536C31.3809 33.1705 31.0782 32.2537 30.5911 31.4639C30.5781 31.2982 30.5714 31.1308 30.5714 30.9618C30.5714 30.4437 30.6339 29.9403 30.7517 29.4588C30.9623 29.401 31.1686 29.3327 31.3701 29.2545L32.8228 32.7807C32.3054 33.1884 31.8514 33.6738 31.4782 34.2194C31.4719 34.209 31.4657 34.1986 31.4595 34.1882ZM31.1506 33.6041C31.0636 33.0658 30.8995 32.5535 30.6701 32.0791C30.7658 32.6141 30.9291 33.1255 31.1506 33.6041ZM30.3446 30.9618C30.3446 31.0074 30.3451 31.0529 30.346 31.0983C29.9431 30.5443 29.4443 30.0651 28.8742 29.6856C28.931 29.6871 28.988 29.6879 29.0452 29.6879C29.5469 29.6879 30.0352 29.6304 30.504 29.5216C30.3997 29.9848 30.3446 30.4668 30.3446 30.9618ZM26.9473 29.0971C27.1605 29.1738 27.3792 29.239 27.6024 29.2923C27.3899 29.2141 27.1712 29.1488 26.9473 29.0971ZM24.1773 29.174C24.1346 29.1875 24.0917 29.2005 24.0486 29.2131L24.1003 29.1969C24.1259 29.1891 24.1515 29.1814 24.1773 29.174ZM26.9564 35.2831L28.8176 37.1579L27.0778 38.5368L25.7157 40.2825L24.3765 38.5368L22.6138 37.1579L24.4749 35.2831L25.7157 30.5962L26.9564 35.2831Z" fill="#FF8A8A" fill-opacity="0.5"/>
<g filter="url(#filter1_b_2782_409)">
<path d="M51.612 4C51.612 2.00517 49.9948 0.388047 48 0.388047H4C2.00517 0.388047 0.388046 2.00517 0.388046 4V17.5V26.25V35V43.75V52.5V66C0.388046 67.9948 2.00518 69.612 4 69.612H48C49.9948 69.612 51.612 67.9948 51.612 66V4Z" stroke="url(#paint1_linear_2782_409)" stroke-width="0.776093"/>
</g>
<path d="M4.17189 45.3743C4.17189 46.2622 4.62887 47.0877 5.38141 47.5591L6.78206 48.4365L9.47286 50.122L14.8545 53.4931L24.1578 59.3207C24.9949 59.8451 26.058 59.8451 26.895 59.3207L36.1984 53.4931L41.58 50.122L44.2708 48.4365L45.6714 47.5591C46.424 47.0877 46.8809 46.2622 46.8809 45.3743L46.8809 41.68C46.8809 41.3049 46.7991 40.9344 46.6412 40.5943L44.7306 36.4792C44.3683 35.6989 44.3683 34.7986 44.7306 34.0183L46.6412 29.9033C46.7991 29.5631 46.8809 29.1926 46.8809 28.8176L46.8809 25.1203C46.8809 24.2338 46.4255 23.4095 45.6751 22.9377L44.2573 22.0463L41.5534 20.3462L36.1455 16.9459L30.7375 13.5457L26.8006 11.0703C25.9582 10.5407 24.8863 10.543 24.0463 11.0764L20.1579 13.5453L14.8027 16.9455L9.4474 20.3458L6.76976 22.0459L5.36808 22.9359C4.62316 23.4088 4.17188 24.2299 4.17188 25.1123L4.17188 28.8203C4.17188 29.1937 4.25299 29.5626 4.40961 29.9016L6.31394 34.0233C6.67317 34.8008 6.67317 35.6968 6.31394 36.4743L4.40962 40.5959C4.253 40.9349 4.17189 41.3039 4.17189 41.6773L4.17189 45.3743Z" fill="url(#paint2_linear_2782_409)" stroke="url(#paint3_linear_2782_409)" stroke-width="0.34375"/>
<g filter="url(#filter2_d_2782_409)">
<path d="M5.0218 44.378C5.01735 45.3293 5.50491 46.2154 6.31092 46.7208L23.9668 57.7911C24.8601 58.3512 25.9951 58.3512 26.8885 57.7911L44.5585 46.7118C45.3568 46.2113 45.8432 45.337 45.8476 44.3948L45.9333 26.0717C45.9377 25.122 45.4519 24.2372 44.6481 23.7314L26.8996 12.5613C26.0006 11.9955 24.8562 11.9981 23.9598 12.5678L6.38242 23.7389C5.59226 24.2411 5.11188 25.1108 5.1075 26.047L5.0218 44.378Z" fill="#301B1B"/>
<path d="M5.19367 44.3788C5.1895 45.2707 5.64659 46.1014 6.40222 46.5751L24.0581 57.6454C24.8956 58.1706 25.9596 58.1706 26.7972 57.6454L44.4672 46.5662C45.2156 46.097 45.6716 45.2773 45.6758 44.394L45.7614 26.0709C45.7656 25.1805 45.3101 24.3511 44.5566 23.8769L26.808 12.7068C25.9653 12.1763 24.8924 12.1787 24.0519 12.7128L6.47461 23.884C5.73384 24.3548 5.28347 25.1701 5.27937 26.0478L5.19367 44.3788Z" stroke="url(#paint4_linear_2782_409)" stroke-width="0.34375"/>
</g>
<path d="M21.3911 39.198C20.0951 39.198 18.9611 38.922 17.9891 38.37C17.9891 37.866 18.0971 37.326 18.3131 36.75C18.6011 37.086 18.9911 37.356 19.4831 37.56C19.9871 37.752 20.5331 37.848 21.1211 37.848C21.7811 37.848 22.2911 37.698 22.6511 37.398C23.0231 37.098 23.2091 36.678 23.2091 36.138C23.2091 35.754 23.1071 35.418 22.9031 35.13C22.7111 34.83 22.4291 34.608 22.0571 34.464C21.8411 34.464 21.6131 34.542 21.3731 34.698C21.1451 34.842 20.9471 35.034 20.7791 35.274C20.5991 35.274 20.4011 35.214 20.1851 35.094C19.9691 34.974 19.8611 34.866 19.8611 34.77C19.9451 34.434 20.2091 34.11 20.6531 33.798L23.4071 31.764C22.3751 31.74 21.4931 31.728 20.7611 31.728C20.2691 31.728 19.8731 31.752 19.5731 31.8C19.2731 31.848 19.0211 31.932 18.8171 32.052C18.6611 31.716 18.5351 31.314 18.4391 30.846C18.3431 30.378 18.2951 29.934 18.2951 29.514C18.8231 29.646 19.8011 29.712 21.2291 29.712C22.1291 29.712 22.8551 29.67 23.4071 29.586C23.9591 29.502 24.4091 29.364 24.7571 29.172C24.9491 29.316 25.0991 29.508 25.2071 29.748C25.3271 29.988 25.3871 30.24 25.3871 30.504C25.3871 30.876 25.2671 31.236 25.0271 31.584C24.7871 31.92 24.4031 32.28 23.8751 32.664L22.8851 33.402C23.7011 33.51 24.3671 33.822 24.8831 34.338C25.4111 34.842 25.6751 35.442 25.6751 36.138C25.6751 37.134 25.3091 37.896 24.5771 38.424C23.8451 38.94 22.7831 39.198 21.3911 39.198ZM26.3089 39.108C27.0649 38.292 28.0309 37.092 29.2069 35.508C28.6309 34.692 28.0789 33.954 27.5509 33.294C27.0349 32.634 26.6449 32.184 26.3809 31.944C27.0529 31.692 28.0309 31.566 29.3149 31.566C29.6149 32.094 30.1009 32.85 30.7729 33.834C31.5169 32.814 31.9369 32.124 32.0329 31.764C32.7169 31.632 33.4489 31.566 34.2289 31.566C33.4009 32.502 32.5009 33.618 31.5289 34.914C32.1289 35.778 32.7109 36.57 33.2749 37.29C33.8389 37.998 34.2529 38.478 34.5169 38.73C33.8209 38.982 32.8429 39.108 31.5829 39.108C31.1389 38.364 30.6049 37.536 29.9809 36.624C29.4409 37.368 29.0689 37.908 28.8649 38.244C28.6609 38.568 28.5409 38.82 28.5049 39C27.8329 39.072 27.1009 39.108 26.3089 39.108Z" fill="#FF8A8A"/>
</g>
<defs>
<filter id="filter0_b_2782_409" x="-3.33743" y="-3.33743" width="58.6749" height="76.6749" filterUnits="userSpaceOnUse" color-interpolation-filters="sRGB">
<feFlood flood-opacity="0" result="BackgroundImageFix"/>
<feGaussianBlur in="BackgroundImageFix" stdDeviation="1.66871"/>
<feComposite in2="SourceAlpha" operator="in" result="effect1_backgroundBlur_2782_409"/>
<feBlend mode="normal" in="SourceGraphic" in2="effect1_backgroundBlur_2782_409" result="shape"/>
</filter>
<filter id="filter1_b_2782_409" x="-3.33743" y="-3.33743" width="58.6749" height="76.6749" filterUnits="userSpaceOnUse" color-interpolation-filters="sRGB">
<feFlood flood-opacity="0" result="BackgroundImageFix"/>
<feGaussianBlur in="BackgroundImageFix" stdDeviation="1.66871"/>
<feComposite in2="SourceAlpha" operator="in" result="effect1_backgroundBlur_2782_409"/>
<feBlend mode="normal" in="SourceGraphic" in2="effect1_backgroundBlur_2782_409" result="shape"/>
</filter>
<filter id="filter2_d_2782_409" x="3.36695" y="12.1387" width="44.2212" height="49.3818" filterUnits="userSpaceOnUse" color-interpolation-filters="sRGB">
<feFlood flood-opacity="0" result="BackgroundImageFix"/>
<feColorMatrix in="SourceAlpha" type="matrix" values="0 0 0 0 0 0 0 0 0 0 0 0 0 0 0 0 0 0 127 0" result="hardAlpha"/>
<feOffset dy="1.65478"/>
<feGaussianBlur stdDeviation="0.82739"/>
<feComposite in2="hardAlpha" operator="out"/>
<feColorMatrix type="matrix" values="0 0 0 0 0 0 0 0 0 0 0 0 0 0 0 0 0 0 0.25 0"/>
<feBlend mode="normal" in2="BackgroundImageFix" result="effect1_dropShadow_2782_409"/>
<feBlend mode="normal" in="SourceGraphic" in2="effect1_dropShadow_2782_409" result="shape"/>
</filter>
<linearGradient id="paint0_linear_2782_409" x1="28.165" y1="0" x2="28.165" y2="70" gradientUnits="userSpaceOnUse">
<stop stop-color="#FAFAFA"/>
<stop offset="1" stop-color="#5D5C5B"/>
</linearGradient>
<linearGradient id="paint1_linear_2782_409" x1="28.165" y1="0" x2="28.165" y2="70" gradientUnits="userSpaceOnUse">
<stop stop-color="#FAFAFA"/>
<stop offset="1" stop-color="#5D5C5B"/>
</linearGradient>
<linearGradient id="paint2_linear_2782_409" x1="25.5246" y1="70.883" x2="25.5246" y2="9.9995" gradientUnits="userSpaceOnUse">
<stop/>
<stop offset="1" stop-color="#4B4A4A"/>
</linearGradient>
<linearGradient id="paint3_linear_2782_409" x1="25.5246" y1="70.883" x2="25.5246" y2="9.9995" gradientUnits="userSpaceOnUse">
<stop stop-color="white"/>
<stop offset="0.291671" stop-color="#262626"/>
<stop offset="0.432299" stop-color="white"/>
<stop offset="0.807306" stop-color="#686868"/>
<stop offset="1" stop-color="white"/>
</linearGradient>
<linearGradient id="paint4_linear_2782_409" x1="25.5274" y1="69.0088" x2="25.5274" y2="11.2192" gradientUnits="userSpaceOnUse">
<stop stop-color="#5A5A5A"/>
<stop offset="1" stop-color="white"/>
</linearGradient>
<clipPath id="clip0_2782_409">
<rect width="52" height="70" fill="white"/>
</clipPath>
</defs>
</svg>
