<svg width="38" height="38" viewBox="0 0 38 38" fill="none" xmlns="http://www.w3.org/2000/svg">
<g clip-path="url(#clip0_1614_8145)">
<path d="M38 4.08528C38 1.82904 36.171 0 33.9147 0H4.08528C1.82904 0 0 1.82904 0 4.08528V33.9147C0 36.171 1.82904 38 4.08528 38H33.9147C36.171 38 38 36.171 38 33.9147V4.08528Z" fill="#6A4A45"/>
<path d="M10.9415 19.4308C10.357 19.1355 10.3633 18.2987 10.9521 18.0122L19.5006 13.8541L23.8726 11.3394C24.4995 10.9788 25.2418 11.5783 25.0213 12.267L23.0347 18.4727C22.9851 18.6276 22.9845 18.7941 23.0328 18.9494L25.0388 25.3945C25.2535 26.0843 24.5079 26.6776 23.8839 26.3135L19.4911 23.75L10.9415 19.4308Z" fill="#FFEFD7"/>
</g>
<path d="M37.5 9.5C37.5 4.52944 33.4706 0.5 28.5 0.5H9.5C4.52944 0.5 0.5 4.52944 0.5 9.5V28.5C0.5 33.4706 4.52944 37.5 9.5 37.5H28.5C33.4706 37.5 37.5 33.4706 37.5 28.5V9.5Z" stroke="url(#paint0_linear_1614_8145)"/>
<defs>
<linearGradient id="paint0_linear_1614_8145" x1="19" y1="0" x2="19" y2="38" gradientUnits="userSpaceOnUse">
<stop stop-color="#908694"/>
<stop offset="1" stop-color="#1F1F1F"/>
</linearGradient>
<clipPath id="clip0_1614_8145">
<path d="M38 9.5C38 4.25329 33.7467 0 28.5 0H9.5C4.2533 0 0 4.25329 0 9.5V28.5C0 33.7467 4.2533 38 9.5 38H28.5C33.7467 38 38 33.7467 38 28.5V9.5Z" fill="white"/>
</clipPath>
</defs>
</svg>
