<svg width="116" height="42" viewBox="0 0 116 42" fill="none" xmlns="http://www.w3.org/2000/svg">
<g filter="url(#filter0_i_833_33474)">
<path d="M115.629 8.91505C115.629 4.49677 112.047 0.915039 107.629 0.915039H101.175H95.2826H89.3899H87.611L86.9012 0.915039L79.4947 0.915039H72.2679H57.8142H7.99955C3.58128 0.915039 -0.000442505 4.49676 -0.000442505 8.91504V11.1176V13.2432V15.1099V33.7254C-0.000442505 38.1437 3.58128 41.7254 7.99956 41.7254H14.6756H16.4545H21.3465H29.3516H33.7989H40.9146H44.0276H47.4743H50.9209H51.7178H52.2258H52.6054H54.3676H57.8142H64.9299H65.9428L73.3797 41.2818H75.4939H77.8309H78.5422H79.3836H86.7216H92.503H100.953H102.749H104.066L107.322 41.4067C111.857 41.5807 115.629 37.9512 115.629 33.4126V8.91505Z" fill="url(#paint0_linear_833_33474)"/>
</g>
<path d="M73.35 40.7827L73.3648 40.7818H73.3797H75.4939H77.8309H78.5422H79.3836H86.7216H92.503H100.953H102.749H104.066H104.076L104.085 40.7822L107.341 40.9071C111.593 41.0702 115.129 37.6675 115.129 33.4126V8.91505C115.129 4.77291 111.771 1.41504 107.629 1.41504H101.175H95.2826H89.3899H87.611H86.9012H79.4947H72.2679H57.8142H7.99955C3.85742 1.41504 0.499557 4.7729 0.499557 8.91504V11.1176V13.2432V15.1099V33.7254C0.499557 37.8675 3.85741 41.2254 7.99956 41.2254H14.6756H16.4545H21.3465H29.3516H33.7989H40.9146H44.0276H47.4743H50.9209H51.7178H52.2258H52.6054H54.3676H57.8142H64.9299H65.928L73.35 40.7827Z" stroke="url(#paint1_linear_833_33474)"/>
<defs>
<filter id="filter0_i_833_33474" x="0" y="0.915039" width="115.629" height="40.8105" filterUnits="userSpaceOnUse" color-interpolation-filters="sRGB">
<feFlood flood-opacity="0" result="BackgroundImageFix"/>
<feBlend mode="normal" in="SourceGraphic" in2="BackgroundImageFix" result="shape"/>
<feColorMatrix in="SourceAlpha" type="matrix" values="0 0 0 0 0 0 0 0 0 0 0 0 0 0 0 0 0 0 127 0" result="hardAlpha"/>
<feOffset dy="-1"/>
<feComposite in2="hardAlpha" operator="arithmetic" k2="-1" k3="1"/>
<feColorMatrix type="matrix" values="0 0 0 0 0.151244 0 0 0 0 0 0 0 0 0 0.343736 0 0 0 1 0"/>
<feBlend mode="normal" in2="shape" result="effect1_innerShadow_833_33474"/>
</filter>
<linearGradient id="paint0_linear_833_33474" x1="10.673" y1="0.915038" x2="159.467" y2="86.8577" gradientUnits="userSpaceOnUse">
<stop stop-color="#1B1B1B"/>
<stop offset="1" stop-color="#443835"/>
</linearGradient>
<linearGradient id="paint1_linear_833_33474" x1="67.5982" y1="0.915039" x2="67.5982" y2="41.7254" gradientUnits="userSpaceOnUse">
<stop stop-color="#FFEFD7"/>
<stop offset="0.677092" stop-color="white" stop-opacity="0"/>
</linearGradient>
</defs>
</svg>
