<svg width="221" height="78" viewBox="0 0 221 78" fill="none" xmlns="http://www.w3.org/2000/svg">
<g filter="url(#filter0_i_649_4497)">
<path d="M221 12C221 5.37258 215.627 0 209 0H193.375H182.112H170.85H167.45L166.093 0L151.938 0H138.125H110.5H12C5.37259 0 0 5.37258 0 12V19.5V23.5625V27.1304V66C0 72.6274 5.37259 78 12 78H28.05H31.45H40.8H56.1H64.6H78.2H84.15H90.7375H97.325H98.848H99.819H100.544H103.912H110.5H124.1H126.036L140.25 77.1522H144.291H148.757H150.117H151.725H165.75H176.8H192.95H196.384H198.9L208.54 77.522C215.343 77.783 221 72.3386 221 65.5308V12Z" fill="url(#paint0_linear_649_4497)"/>
</g>
<path d="M140.22 76.6531L140.235 76.6522H140.25H144.291H148.757H150.117H151.725H165.75H176.8H192.95H196.384H198.9H198.91L198.919 76.6525L208.559 77.0224C215.079 77.2725 220.5 72.055 220.5 65.5308V12C220.5 5.64873 215.351 0.5 209 0.5H193.375H182.112H170.85H167.45H166.093H151.938H138.125H110.5H12C5.64873 0.5 0.5 5.64873 0.5 12V19.5V23.5625V27.1304V66C0.5 72.3513 5.64873 77.5 12 77.5H28.05H31.45H40.8H56.1H64.6H78.2H84.15H90.7375H97.325H98.848H99.819H100.544H103.912H110.5H124.1H126.021L140.22 76.6531Z" stroke="url(#paint1_linear_649_4497)"/>
<defs>
<filter id="filter0_i_649_4497" x="0" y="0" width="221" height="78" filterUnits="userSpaceOnUse" color-interpolation-filters="sRGB">
<feFlood flood-opacity="0" result="BackgroundImageFix"/>
<feBlend mode="normal" in="SourceGraphic" in2="BackgroundImageFix" result="shape"/>
<feColorMatrix in="SourceAlpha" type="matrix" values="0 0 0 0 0 0 0 0 0 0 0 0 0 0 0 0 0 0 127 0" result="hardAlpha"/>
<feOffset dy="-1"/>
<feComposite in2="hardAlpha" operator="arithmetic" k2="-1" k3="1"/>
<feColorMatrix type="matrix" values="0 0 0 0 0.151244 0 0 0 0 0 0 0 0 0 0.343736 0 0 0 1 0"/>
<feBlend mode="normal" in2="shape" result="effect1_innerShadow_649_4497"/>
</filter>
<linearGradient id="paint0_linear_649_4497" x1="20.4" y1="-1.53876e-06" x2="304.786" y2="164.26" gradientUnits="userSpaceOnUse">
<stop stop-color="#1B1B1B"/>
<stop offset="1" stop-color="#443835"/>
</linearGradient>
<linearGradient id="paint1_linear_649_4497" x1="129.2" y1="4.33798e-07" x2="129.2" y2="78" gradientUnits="userSpaceOnUse">
<stop stop-color="#FFEFD7"/>
<stop offset="0.677092" stop-color="white" stop-opacity="0"/>
</linearGradient>
</defs>
</svg>
