<svg width="140" height="46" viewBox="0 0 140 46" fill="none" xmlns="http://www.w3.org/2000/svg">
<g filter="url(#filter0_i_649_4511)">
<path d="M0 12C0 5.37258 5.37258 0 12 0H17.5L24.4958 0.980545C24.5879 0.993452 24.6813 0.993452 24.7734 0.980545L31.2289 0.0757299C31.5657 0.0285274 31.9034 0.155705 32.1253 0.41334L33.267 1.73851C33.5701 2.09035 34.137 2.0034 34.3207 1.57688V1.57688C34.4081 1.37408 34.5954 1.23198 34.8143 1.20253L43.75 0H52.5H70H129.512C135.304 0 140 4.69556 140 10.4878V10.9815C140 11.3226 139.922 11.6593 139.772 11.9657L138.11 15.3615C137.82 15.9526 138.401 16.594 139.018 16.3648V16.3648C139.494 16.188 140 16.5401 140 17.0478V32.5736C140 39.7326 133.772 45.299 126.658 44.4983L122.687 44.0513C122.397 44.0187 122.108 44.114 121.894 44.3123L120.365 45.7328C120.18 45.9045 119.937 46 119.684 46H114.154H104.462H99.0769H90.4615H86.6923H70.1145C70.0384 46 69.9626 45.9913 69.8884 45.9741L61.5688 44.0427C61.4471 44.0145 61.3212 44.0093 61.1976 44.0274L51.3633 45.4693C51.2252 45.4895 51.0844 45.4806 50.9499 45.4432L45.9329 44.0456C45.8246 44.0154 45.7221 43.9672 45.6298 43.9029L44.0883 42.8293C43.2339 42.2343 42.2095 43.3041 42.841 44.1319V44.1319C43.285 44.7139 42.8975 45.5556 42.1666 45.5967L35.2954 45.9834C35.1026 45.9942 34.9108 45.949 34.7431 45.8532L28.2765 42.158C28.0966 42.0552 27.8893 42.0108 27.6831 42.031L17.7692 43H9.24584C9.1849 43 9.12434 43.0097 9.06642 43.0287V43.0287C4.59627 44.4937 0 41.1632 0 36.4591V12Z" fill="url(#paint0_linear_649_4511)"/>
</g>
<path d="M0.5 36.4591V12C0.5 5.64873 5.64873 0.5 12 0.5H17.4651L24.4264 1.4757C24.5645 1.49507 24.7047 1.49507 24.8428 1.4757L31.2983 0.57089C31.4667 0.547289 31.6356 0.610877 31.7465 0.739695L32.8882 2.06486C33.4324 2.69653 34.4501 2.54042 34.7799 1.77469C34.7978 1.73318 34.8362 1.70409 34.881 1.69806L43.7835 0.5H52.5H70H129.512C135.028 0.5 139.5 4.9717 139.5 10.4878V10.9815C139.5 11.2465 139.439 11.5079 139.323 11.7459L137.661 15.1417C137.173 16.1384 138.152 17.2199 139.192 16.8335C139.341 16.7781 139.5 16.8885 139.5 17.0478V32.5736C139.5 39.4343 133.531 44.7688 126.714 44.0014L122.743 43.5545C122.308 43.5056 121.874 43.6485 121.554 43.9459L120.024 45.3664C119.932 45.4523 119.81 45.5 119.684 45.5H114.154H104.462H99.0769H90.4615H86.6923H70.1145C70.0765 45.5 70.0386 45.4957 70.0015 45.487L61.6818 43.5557C61.4993 43.5133 61.3104 43.5055 61.125 43.5327L51.2908 44.9746C51.2217 44.9847 51.1513 44.9803 51.0841 44.9615L46.0671 43.5639C46.0129 43.5488 45.9617 43.5247 45.9155 43.4926L44.374 42.419C43.0516 41.4981 41.4661 43.1539 42.4434 44.4351C42.6442 44.6983 42.469 45.0789 42.1385 45.0975L35.2673 45.4842C35.1709 45.4896 35.075 45.467 34.9912 45.4191L28.5246 41.7239C28.2547 41.5697 27.9437 41.5031 27.6344 41.5333L17.7449 42.5H9.24584C9.132 42.5 9.01889 42.5181 8.91071 42.5535C4.76385 43.9126 0.5 40.823 0.5 36.4591Z" stroke="url(#paint1_linear_649_4511)"/>
<g filter="url(#filter1_i_649_4511)">
<path d="M50.5427 30.132C50.2494 30.132 49.9121 30.088 49.5307 30C49.6481 28.504 49.7067 26.3627 49.7067 23.576C49.7067 21.376 49.6187 19.6527 49.4427 18.406C49.9267 18.318 50.4254 18.274 50.9387 18.274C51.5107 18.274 52.0827 18.318 52.6547 18.406C52.9921 19.2273 53.5054 20.408 54.1947 21.948C54.8987 23.488 55.5367 24.8447 56.1087 26.018C56.6807 24.8153 57.3114 23.4587 58.0007 21.948C58.6901 20.4227 59.2107 19.242 59.5627 18.406C59.9734 18.318 60.4941 18.274 61.1247 18.274C61.6381 18.274 62.2394 18.318 62.9287 18.406C62.8554 19.1393 62.7967 20.144 62.7527 21.42C62.7087 22.6813 62.6867 23.8767 62.6867 25.006C62.6867 27.69 62.8041 29.3547 63.0387 30C62.4667 30.088 61.8874 30.132 61.3007 30.132C60.8314 30.132 60.2887 30.088 59.6727 30C59.7461 29.2667 59.8047 28.2693 59.8487 27.008C59.8927 25.732 59.9147 24.5293 59.9147 23.4C59.9147 22.608 59.9074 22.0507 59.8927 21.728C59.2621 23.0333 58.5727 24.5 57.8247 26.128C57.0914 27.7413 56.5194 29.032 56.1087 30C55.8594 30.0733 55.6467 30.11 55.4707 30.11C55.3094 30.11 55.1041 30.0733 54.8547 30C54.1947 28.4013 53.0654 25.9227 51.4667 22.564C51.4521 23.1067 51.4447 23.9207 51.4447 25.006C51.4447 27.646 51.5254 29.3107 51.6867 30C51.3201 30.088 50.9387 30.132 50.5427 30.132ZM67.0183 30.132C66.4903 30.132 65.8963 30.088 65.2363 30C65.3976 27.6387 65.4783 25.4973 65.4783 23.576C65.4783 20.8333 65.361 19.11 65.1263 18.406C65.6543 18.318 66.2263 18.274 66.8423 18.274C67.3116 18.274 67.8543 18.318 68.4703 18.406C68.397 19.1687 68.3383 20.188 68.2943 21.464C68.2503 22.74 68.2283 23.9207 68.2283 25.006C68.2283 27.7193 68.3456 29.384 68.5803 30C68.0816 30.088 67.561 30.132 67.0183 30.132ZM71.8133 30.132C71.4906 30.132 71.0946 30.088 70.6253 30C70.7426 28.504 70.8013 26.3627 70.8013 23.576C70.8013 20.848 70.7206 19.1247 70.5593 18.406C70.9406 18.318 71.4613 18.274 72.1213 18.274C72.6053 18.274 73.2139 18.318 73.9473 18.406C74.4019 19.3007 75.0839 20.562 75.9933 22.19C76.9173 23.818 77.8046 25.3433 78.6553 26.766C78.6846 25.2993 78.6993 24.1773 78.6993 23.4C78.6993 20.672 78.6186 19.0073 78.4573 18.406C78.7799 18.318 79.1026 18.274 79.4253 18.274C79.7773 18.274 80.1806 18.318 80.6353 18.406C80.5179 20.2833 80.4593 22.4247 80.4593 24.83C80.4593 27.558 80.5399 29.2813 80.7013 30C80.1879 30.088 79.6673 30.132 79.1393 30.132C78.5673 30.132 77.9513 30.088 77.2913 30C76.8659 29.1347 76.1986 27.9027 75.2893 26.304C74.3799 24.6907 73.4779 23.136 72.5833 21.64C72.5539 23.1067 72.5393 24.2287 72.5393 25.006C72.5393 27.646 72.6199 29.3107 72.7813 30C72.4733 30.088 72.1506 30.132 71.8133 30.132ZM86.683 30.132C86.243 30.132 85.6784 30.088 84.989 30C85.0624 29.2373 85.121 28.218 85.165 26.942C85.209 25.6513 85.231 24.4707 85.231 23.4C85.231 22.784 85.2164 22.08 85.187 21.288L85.165 20.76C83.3904 20.7747 82.283 20.87 81.843 21.046C81.7697 20.43 81.733 19.9387 81.733 19.572C81.733 19.2493 81.7697 18.868 81.843 18.428C82.459 18.4867 83.2804 18.538 84.307 18.582C85.3337 18.6113 86.309 18.626 87.233 18.626C89.477 18.626 90.8557 18.5307 91.369 18.34C91.4424 18.8827 91.479 19.308 91.479 19.616C91.479 20.0707 91.4424 20.518 91.369 20.958C90.3864 20.87 89.2937 20.8187 88.091 20.804C88.0177 22.2707 87.981 23.6713 87.981 25.006C87.981 27.7193 88.0984 29.384 88.333 30C87.9664 30.088 87.4164 30.132 86.683 30.132Z" fill="#FFEFD7"/>
</g>
<defs>
<filter id="filter0_i_649_4511" x="0" y="0" width="140" height="46" filterUnits="userSpaceOnUse" color-interpolation-filters="sRGB">
<feFlood flood-opacity="0" result="BackgroundImageFix"/>
<feBlend mode="normal" in="SourceGraphic" in2="BackgroundImageFix" result="shape"/>
<feColorMatrix in="SourceAlpha" type="matrix" values="0 0 0 0 0 0 0 0 0 0 0 0 0 0 0 0 0 0 127 0" result="hardAlpha"/>
<feOffset dy="-1"/>
<feComposite in2="hardAlpha" operator="arithmetic" k2="-1" k3="1"/>
<feColorMatrix type="matrix" values="0 0 0 0 0.151244 0 0 0 0 0 0 0 0 0 0.343736 0 0 0 1 0"/>
<feBlend mode="normal" in2="shape" result="effect1_innerShadow_649_4511"/>
</filter>
<filter id="filter1_i_649_4511" x="49.4424" y="18.2744" width="42.0371" height="11.8574" filterUnits="userSpaceOnUse" color-interpolation-filters="sRGB">
<feFlood flood-opacity="0" result="BackgroundImageFix"/>
<feBlend mode="normal" in="SourceGraphic" in2="BackgroundImageFix" result="shape"/>
<feColorMatrix in="SourceAlpha" type="matrix" values="0 0 0 0 0 0 0 0 0 0 0 0 0 0 0 0 0 0 127 0" result="hardAlpha"/>
<feOffset dy="1"/>
<feComposite in2="hardAlpha" operator="arithmetic" k2="-1" k3="1"/>
<feColorMatrix type="matrix" values="0 0 0 0 0.152941 0 0 0 0 0 0 0 0 0 0.345098 0 0 0 0.65 0"/>
<feBlend mode="normal" in2="shape" result="effect1_innerShadow_649_4511"/>
</filter>
<linearGradient id="paint0_linear_649_4511" x1="127.077" y1="-9.07473e-07" x2="-46.401" y2="107.632" gradientUnits="userSpaceOnUse">
<stop stop-color="#8334FF"/>
<stop offset="1" stop-color="#7BD8FF"/>
</linearGradient>
<linearGradient id="paint1_linear_649_4511" x1="58.1539" y1="2.55834e-07" x2="58.1539" y2="46" gradientUnits="userSpaceOnUse">
<stop stop-color="#D884FF"/>
<stop offset="0.677092" stop-color="white" stop-opacity="0"/>
</linearGradient>
</defs>
</svg>
