<svg width="161" height="48" viewBox="0 0 161 48" fill="none" xmlns="http://www.w3.org/2000/svg">
<g filter="url(#filter0_i_397_4361)">
<path d="M160.063 7.99999C160.063 3.58171 156.482 0 152.063 0H140.063H131.91H123.756H121.294L120.312 0L110.063 0H100.063H80.0635H8.06348C3.6452 0 0.0634766 3.58172 0.0634766 8V12V14.5V16.6956V40C0.0634766 44.4182 3.6452 48 8.06348 48H20.3712H22.8327H29.6019H40.6789H46.8327H56.6789H60.9865H65.7558H70.525H71.6276H72.3306H72.8558H75.2943H80.0635H89.9096H91.3113L101.602 47.4782H104.527H107.761H108.745H109.91H120.063H128.063H139.756H142.242H144.063L151.803 47.7306C156.321 47.8779 160.063 44.2553 160.063 39.7348V7.99999Z" fill="url(#paint0_linear_397_4361)"/>
</g>
<path d="M101.577 46.9789L101.589 46.9782H101.602H104.527H107.761H108.745H109.91H120.063H128.063H139.756H142.242H144.063H144.072L144.08 46.9785L151.819 47.2308C156.055 47.369 159.563 43.9728 159.563 39.7348V7.99999C159.563 3.85786 156.206 0.5 152.063 0.5H140.063H131.91H123.756H121.294H120.312H110.063H100.063H80.0635H8.06348C3.92134 0.5 0.563477 3.85787 0.563477 8V12V14.5V16.6956V40C0.563477 44.1421 3.92134 47.5 8.06348 47.5H20.3712H22.8327H29.6019H40.6789H46.8327H56.6789H60.9865H65.7558H70.525H71.6276H72.3306H72.8558H75.2943H80.0635H89.9096H91.2986L101.577 46.9789Z" stroke="url(#paint1_linear_397_4361)"/>
<defs>
<filter id="filter0_i_397_4361" x="0.0634766" y="0" width="160" height="48" filterUnits="userSpaceOnUse" color-interpolation-filters="sRGB">
<feFlood flood-opacity="0" result="BackgroundImageFix"/>
<feBlend mode="normal" in="SourceGraphic" in2="BackgroundImageFix" result="shape"/>
<feColorMatrix in="SourceAlpha" type="matrix" values="0 0 0 0 0 0 0 0 0 0 0 0 0 0 0 0 0 0 127 0" result="hardAlpha"/>
<feOffset dy="-1"/>
<feComposite in2="hardAlpha" operator="arithmetic" k2="-1" k3="1"/>
<feColorMatrix type="matrix" values="0 0 0 0 0.151244 0 0 0 0 0 0 0 0 0 0.343736 0 0 0 1 0"/>
<feBlend mode="normal" in2="shape" result="effect1_innerShadow_397_4361"/>
</filter>
<linearGradient id="paint0_linear_397_4361" x1="14.8327" y1="-9.46928e-07" x2="202.675" y2="127.644" gradientUnits="userSpaceOnUse">
<stop stop-color="#1B1B1B"/>
<stop offset="1" stop-color="#443835"/>
</linearGradient>
<linearGradient id="paint1_linear_397_4361" x1="93.6019" y1="2.66953e-07" x2="93.6019" y2="48" gradientUnits="userSpaceOnUse">
<stop stop-color="#FFEFD7"/>
<stop offset="0.677092" stop-color="white" stop-opacity="0"/>
</linearGradient>
</defs>
</svg>
