<svg width="336" height="87" viewBox="0 0 336 87" fill="none" xmlns="http://www.w3.org/2000/svg">
<g filter="url(#filter0_i_397_3448)">
<path d="M336 12C336 5.37261 330.627 3.05176e-05 324 3.05176e-05H294.088H277H259.913H254.754L252.696 3.05176e-05L231.219 3.05176e-05H210.263H168.35H12.7005C6.07312 3.05176e-05 0.700562 5.37261 0.700562 12V21.75V26.2813V30.2609V75C0.700562 81.6274 6.07315 87 12.7006 87H43.2578H48.4163H62.602H85.815H98.7112H119.345H128.372H138.367H148.361H150.672H152.145H153.246H158.356H168.35H188.984H191.921L213.487 86.0544H219.618H226.394H228.457H230.897H252.175H268.94H293.443H298.653H302.47L323.662 86.652C330.419 86.8426 336 81.4168 336 74.6568V12Z" fill="url(#paint0_linear_397_3448)"/>
</g>
<path d="M213.465 85.5549L213.476 85.5544H213.487H219.618H226.394H228.457H230.897H252.175H268.94H293.443H298.653H302.47V85.5542L302.484 85.5546L323.676 86.1522C330.151 86.3349 335.5 81.1351 335.5 74.6568V12C335.5 5.64876 330.351 0.500031 324 0.500031H294.088H277H259.913H254.754H252.696H231.219H210.263H168.35H12.7005C6.34927 0.500031 1.20056 5.64875 1.20056 12V21.75V26.2813V30.2609V75C1.20056 81.3513 6.3493 86.5 12.7006 86.5H43.2578H48.4163H62.602H85.815H98.7112H119.345H128.372H138.367H148.361H150.672H152.145H153.246H158.356H168.35H188.984H191.91L213.465 85.5549Z" stroke="url(#paint1_linear_397_3448)"/>
<defs>
<filter id="filter0_i_397_3448" x="0.700562" y="3.05176e-05" width="335.299" height="87" filterUnits="userSpaceOnUse" color-interpolation-filters="sRGB">
<feFlood flood-opacity="0" result="BackgroundImageFix"/>
<feBlend mode="normal" in="SourceGraphic" in2="BackgroundImageFix" result="shape"/>
<feColorMatrix in="SourceAlpha" type="matrix" values="0 0 0 0 0 0 0 0 0 0 0 0 0 0 0 0 0 0 127 0" result="hardAlpha"/>
<feOffset dy="-1"/>
<feComposite in2="hardAlpha" operator="arithmetic" k2="-1" k3="1"/>
<feColorMatrix type="matrix" values="0 0 0 0 0.151244 0 0 0 0 0 0 0 0 0 0.343736 0 0 0 1 0"/>
<feBlend mode="normal" in2="shape" result="effect1_innerShadow_397_3448"/>
</filter>
<linearGradient id="paint0_linear_397_3448" x1="31.6513" y1="2.88013e-05" x2="387.443" y2="279.535" gradientUnits="userSpaceOnUse">
<stop stop-color="#1B1B1B"/>
<stop offset="1" stop-color="#443835"/>
</linearGradient>
<linearGradient id="paint1_linear_397_3448" x1="196.722" y1="3.10014e-05" x2="196.722" y2="87" gradientUnits="userSpaceOnUse">
<stop stop-color="#FFEFD7"/>
<stop offset="0.677092" stop-color="white" stop-opacity="0"/>
</linearGradient>
</defs>
</svg>
