<svg width="115" height="31" viewBox="0 0 115 31" fill="none" xmlns="http://www.w3.org/2000/svg">
<g clip-path="url(#clip0_1901_2142)">
<path d="M115 4.00491C115 1.79306 113.207 0 110.995 0H4.00491C1.79306 0 0 1.79306 0 4.00491V26.9951C0 29.2069 1.79306 31 4.00491 31H110.995C113.207 31 115 29.2069 115 26.9951V4.00491Z" fill="url(#paint0_linear_1901_2142)"/>
<path d="M36.3278 19.176C35.1545 19.176 34.2531 18.8293 33.6238 18.136C32.9945 17.4427 32.6798 16.4453 32.6798 15.144C32.6798 14.2373 32.8558 13.432 33.2078 12.728C33.5705 12.0133 34.0718 11.4587 34.7118 11.064C35.3625 10.6693 36.1038 10.472 36.9358 10.472C37.8425 10.472 38.6158 10.6 39.2558 10.856C39.2558 11.0907 39.2131 11.3573 39.1278 11.656C39.0531 11.944 38.9571 12.1787 38.8398 12.36C38.3918 12.0507 37.9118 11.7893 37.3998 11.576C36.8878 11.3627 36.4825 11.256 36.1838 11.256C35.8318 11.3413 35.5011 11.56 35.1918 11.912C34.8931 12.2533 34.6531 12.6747 34.4718 13.176C34.2905 13.6667 34.1998 14.1733 34.1998 14.696C34.1998 15.784 34.4345 16.5947 34.9038 17.128C35.3838 17.6613 36.0131 17.928 36.7918 17.928C37.8478 17.928 38.7118 17.736 39.3838 17.352L39.4958 17.752C39.1438 18.1787 38.6745 18.5253 38.0878 18.792C37.5118 19.048 36.9251 19.176 36.3278 19.176ZM41.9483 19.144C41.6283 19.144 41.4043 19.0533 41.2763 18.872C41.1483 18.68 41.0843 18.3333 41.0843 17.832C41.0843 17.5013 41.095 16.9733 41.1163 16.248C41.1376 15.4373 41.1483 14.7707 41.1483 14.248C41.1483 12.5307 41.047 11.304 40.8443 10.568C41.143 10.4507 41.4256 10.3707 41.6923 10.328C41.9696 10.2747 42.2736 10.248 42.6043 10.248C42.4763 11.5707 42.4123 13.464 42.4123 15.928C42.4123 16.504 42.4283 16.952 42.4603 17.272C42.503 17.5813 42.567 17.8267 42.6523 18.008C42.7376 18.1893 42.871 18.376 43.0523 18.568C42.8816 18.76 42.695 18.904 42.4923 19C42.2896 19.096 42.1083 19.144 41.9483 19.144ZM45.7902 19.176C45.4062 19.176 45.0809 19.0373 44.8142 18.76C44.5582 18.472 44.4302 18.1093 44.4302 17.672C44.4302 16.3813 45.6889 15.656 48.2062 15.496C48.2062 14.792 48.1049 14.3013 47.9022 14.024C47.6995 13.7467 47.3262 13.608 46.7822 13.608C46.4515 13.608 46.1155 13.6613 45.7742 13.768C45.4435 13.8747 45.1395 14.0187 44.8622 14.2L44.7342 13.896C45.0222 13.4267 45.4115 13.048 45.9022 12.76C46.3929 12.4613 46.8942 12.312 47.4062 12.312C48.0995 12.312 48.6329 12.4987 49.0062 12.872C49.3795 13.2347 49.5662 13.7627 49.5662 14.456C49.5662 14.84 49.5395 15.272 49.4862 15.752C49.4435 16.264 49.4222 16.6427 49.4222 16.888C49.4222 17.2933 49.4649 17.608 49.5502 17.832C49.6355 18.056 49.8009 18.3013 50.0462 18.568C49.6515 18.9093 49.2195 19.112 48.7502 19.176C48.4622 18.984 48.2595 18.6907 48.1422 18.296C47.7582 18.5627 47.3582 18.776 46.9422 18.936C46.5262 19.096 46.1422 19.176 45.7902 19.176ZM46.4302 18.408C46.6969 18.3867 46.9795 18.312 47.2782 18.184C47.5769 18.056 47.8435 17.9013 48.0782 17.72V17.64C48.0782 17.2987 48.0942 16.968 48.1262 16.648L48.1742 15.96C47.4489 16.0027 46.8889 16.1573 46.4942 16.424C46.0995 16.68 45.9022 17.0267 45.9022 17.464C45.9022 17.6453 45.9502 17.8267 46.0462 18.008C46.1422 18.1787 46.2702 18.312 46.4302 18.408ZM52.8226 19.144C52.5132 19.144 52.2946 19.048 52.1666 18.856C52.0386 18.664 51.9746 18.3227 51.9746 17.832C51.9746 17.4373 51.9852 16.8773 52.0066 16.152C52.0279 15.4693 52.0386 14.968 52.0386 14.648C52.0386 14.2107 52.0119 13.8107 51.9586 13.448C51.9052 13.0747 51.8252 12.808 51.7186 12.648C52.0172 12.5307 52.2999 12.4507 52.5666 12.408C52.8439 12.3547 53.1532 12.328 53.4946 12.328C53.4412 12.6373 53.3932 13.1173 53.3506 13.768C53.3186 14.408 53.3026 15.128 53.3026 15.928C53.3026 16.5147 53.3186 16.9627 53.3506 17.272C53.3932 17.5813 53.4519 17.8267 53.5266 18.008C53.6119 18.1893 53.7452 18.376 53.9266 18.568C53.7559 18.76 53.5692 18.904 53.3666 19C53.1639 19.096 52.9826 19.144 52.8226 19.144ZM52.6306 11.32C52.3426 10.968 52.0172 10.6373 51.6546 10.328C51.9746 9.93333 52.2999 9.60267 52.6306 9.336C52.9292 9.69867 53.2599 10.0293 53.6226 10.328C53.3239 10.6907 52.9932 11.0213 52.6306 11.32ZM57.0648 19.096C56.8408 19.096 56.5421 19.064 56.1688 19C56.2435 17.9333 56.2808 16.7973 56.2808 15.592C56.2808 15.0053 56.2595 14.5573 56.2168 14.248C56.1848 13.9387 56.1261 13.6933 56.0408 13.512C55.9661 13.3307 55.8381 13.144 55.6568 12.952C55.8275 12.7493 56.0088 12.6053 56.2008 12.52C56.3928 12.424 56.5688 12.376 56.7288 12.376C57.2835 12.376 57.6035 12.6907 57.6888 13.32C57.9661 13.0107 58.2915 12.7653 58.6648 12.584C59.0381 12.4027 59.4115 12.312 59.7848 12.312C60.6915 12.312 61.2621 12.696 61.4968 13.464C61.7741 13.1013 62.1101 12.8187 62.5048 12.616C62.8995 12.4133 63.2995 12.312 63.7048 12.312C64.9421 12.312 65.5608 13.048 65.5608 14.52L65.5288 15.528C65.4968 15.9227 65.4808 16.28 65.4808 16.6C65.4808 17.6987 65.5928 18.4987 65.8168 19C65.5181 19.064 65.2355 19.096 64.9688 19.096C64.7021 19.096 64.3821 19.064 64.0088 19C64.0835 17.7093 64.1208 16.312 64.1208 14.808C64.1208 14.3813 64.0355 14.0773 63.8648 13.896C63.6941 13.704 63.4115 13.608 63.0168 13.608C62.4835 13.608 62.0141 13.7307 61.6088 13.976C61.6195 14.3707 61.6141 14.9573 61.5928 15.736C61.5821 15.96 61.5768 16.248 61.5768 16.6C61.5768 17.7093 61.6781 18.5093 61.8808 19C61.5928 19.064 61.3155 19.096 61.0488 19.096C60.7821 19.096 60.4621 19.064 60.0888 19C60.1635 17.7093 60.2008 16.312 60.2008 14.808C60.2008 14.3813 60.1155 14.0773 59.9448 13.896C59.7741 13.704 59.4915 13.608 59.0968 13.608C58.5528 13.608 58.0941 13.7307 57.7208 13.976L57.7048 14.664C57.6728 15.208 57.6568 15.8533 57.6568 16.6C57.6568 17.72 57.7635 18.52 57.9768 19C57.6568 19.064 57.3528 19.096 57.0648 19.096ZM74.3061 19.176C73.2394 19.176 72.3114 18.984 71.5221 18.6C71.5221 18.376 71.5434 18.1787 71.5861 18.008C71.6287 17.8373 71.6981 17.6613 71.7941 17.48C72.0394 17.736 72.3754 17.9387 72.8021 18.088C73.2287 18.2267 73.6927 18.296 74.1941 18.296C74.7701 18.296 75.2074 18.184 75.5061 17.96C75.8154 17.736 75.9701 17.416 75.9701 17C75.9701 16.648 75.8207 16.3547 75.5221 16.12C75.2234 15.8853 74.7594 15.6133 74.1301 15.304C73.5754 15.016 73.1327 14.7707 72.8021 14.568C72.4821 14.3547 72.2047 14.0827 71.9701 13.752C71.7354 13.4107 71.6181 13.0107 71.6181 12.552C71.6181 11.9333 71.9061 11.432 72.4821 11.048C73.0687 10.664 73.8527 10.472 74.8341 10.472C75.7194 10.472 76.4714 10.6 77.0901 10.856C77.0901 11.0907 77.0474 11.3573 76.9621 11.656C76.8767 11.9547 76.7754 12.1893 76.6581 12.36C76.2101 12.04 75.7461 11.7733 75.2661 11.56C74.7967 11.3467 74.4127 11.24 74.1141 11.24C73.8901 11.2827 73.6714 11.4107 73.4581 11.624C73.2447 11.8373 73.1381 12.0933 73.1381 12.392C73.1381 12.776 73.2927 13.0907 73.6021 13.336C73.9114 13.5813 74.3861 13.864 75.0261 14.184C75.5594 14.4507 75.9861 14.6853 76.3061 14.888C76.6261 15.0907 76.8981 15.352 77.1221 15.672C77.3567 15.992 77.4741 16.3707 77.4741 16.808C77.4741 17.5653 77.2074 18.152 76.6741 18.568C76.1514 18.9733 75.3621 19.176 74.3061 19.176ZM79.3659 21.88C79.4193 21.2613 79.4619 20.3813 79.4939 19.24C79.5366 18.0987 79.5579 16.8827 79.5579 15.592C79.5579 15.0053 79.5366 14.5573 79.4939 14.248C79.4619 13.9387 79.4033 13.6933 79.3179 13.512C79.2433 13.3307 79.1153 13.144 78.9339 12.952C79.1046 12.76 79.2913 12.616 79.4939 12.52C79.6966 12.424 79.8779 12.376 80.0379 12.376C80.5073 12.376 80.7899 12.6533 80.8859 13.208C81.1739 12.952 81.4939 12.7547 81.8459 12.616C82.1979 12.4667 82.5499 12.392 82.9019 12.392C83.7766 12.392 84.4379 12.664 84.8859 13.208C85.3339 13.752 85.5579 14.552 85.5579 15.608C85.5579 16.7173 85.2646 17.5867 84.6779 18.216C84.1019 18.8347 83.2913 19.144 82.2459 19.144C81.7019 19.144 81.2433 19.0427 80.8699 18.84C80.9019 20.0027 80.9926 20.9093 81.1419 21.56C80.6193 21.7733 80.0273 21.88 79.3659 21.88ZM82.1979 18.424C82.7739 18.424 83.2219 18.2267 83.5419 17.832C83.8619 17.4373 84.0219 16.8827 84.0219 16.168C84.0219 15.5067 83.8886 14.936 83.6219 14.456C83.3553 13.9653 82.9926 13.6347 82.5339 13.464C82.2673 13.464 81.9899 13.5013 81.7019 13.576C81.4139 13.6507 81.1526 13.7467 80.9179 13.864C80.9179 14.0453 80.9073 14.36 80.8859 14.808C80.8539 16.184 80.8379 16.984 80.8379 17.208V17.752C81.0086 17.9653 81.2113 18.1307 81.4459 18.248C81.6913 18.3653 81.9419 18.424 82.1979 18.424ZM89.9047 19.176C89.03 19.176 88.326 18.8773 87.7927 18.28C87.2594 17.6827 86.9927 16.8987 86.9927 15.928C86.9927 15.224 87.1367 14.6 87.4247 14.056C87.7234 13.5013 88.134 13.0747 88.6567 12.776C89.19 12.4667 89.7927 12.312 90.4647 12.312C91.062 12.312 91.59 12.4507 92.0487 12.728C92.5074 12.9947 92.8594 13.3733 93.1047 13.864C93.3607 14.3547 93.4887 14.92 93.4887 15.56C93.4887 16.264 93.334 16.8933 93.0247 17.448C92.726 17.992 92.3047 18.4187 91.7607 18.728C91.2167 19.0267 90.598 19.176 89.9047 19.176ZM90.1927 18.504C90.8007 18.504 91.2754 18.3013 91.6167 17.896C91.958 17.48 92.1287 16.8987 92.1287 16.152C92.1287 15.4907 91.974 14.92 91.6647 14.44C91.3554 13.96 90.9287 13.6347 90.3847 13.464C89.766 13.464 89.27 13.6773 88.8967 14.104C88.534 14.52 88.3527 15.0853 88.3527 15.8C88.3527 16.632 88.5234 17.2933 88.8647 17.784C89.2167 18.264 89.6594 18.504 90.1927 18.504ZM96.2601 19.144C95.9507 19.144 95.7321 19.048 95.6041 18.856C95.4761 18.664 95.4121 18.3227 95.4121 17.832C95.4121 17.4373 95.4227 16.8773 95.4441 16.152C95.4654 15.4693 95.4761 14.968 95.4761 14.648C95.4761 14.2107 95.4494 13.8107 95.3961 13.448C95.3427 13.0747 95.2627 12.808 95.1561 12.648C95.4547 12.5307 95.7374 12.4507 96.0041 12.408C96.2814 12.3547 96.5907 12.328 96.9321 12.328C96.8787 12.6373 96.8307 13.1173 96.7881 13.768C96.7561 14.408 96.7401 15.128 96.7401 15.928C96.7401 16.5147 96.7561 16.9627 96.7881 17.272C96.8307 17.5813 96.8894 17.8267 96.9641 18.008C97.0494 18.1893 97.1827 18.376 97.3641 18.568C97.1934 18.76 97.0067 18.904 96.8041 19C96.6014 19.096 96.4201 19.144 96.2601 19.144ZM96.0681 11.32C95.7801 10.968 95.4547 10.6373 95.0921 10.328C95.4121 9.93333 95.7374 9.60267 96.0681 9.336C96.3667 9.69867 96.6974 10.0293 97.0601 10.328C96.7614 10.6907 96.4307 11.0213 96.0681 11.32ZM100.198 19.144C99.8783 19.144 99.6543 19.0533 99.5263 18.872C99.3983 18.68 99.3343 18.3333 99.3343 17.832C99.3343 17.5013 99.345 16.9733 99.3663 16.248C99.3876 15.4373 99.3983 14.7707 99.3983 14.248C99.3983 12.5307 99.297 11.304 99.0943 10.568C99.393 10.4507 99.6756 10.3707 99.9423 10.328C100.22 10.2747 100.524 10.248 100.854 10.248C100.726 11.5707 100.662 13.464 100.662 15.928C100.662 16.504 100.678 16.952 100.71 17.272C100.753 17.5813 100.817 17.8267 100.902 18.008C100.988 18.1893 101.121 18.376 101.302 18.568C101.132 18.76 100.945 18.904 100.742 19C100.54 19.096 100.358 19.144 100.198 19.144Z" fill="#FFEFD7"/>
<path fill-rule="evenodd" clip-rule="evenodd" d="M20 8.33204C20.4682 8.33198 20.9281 8.45519 21.3336 8.68928C21.7391 8.92337 22.0758 9.26008 22.3098 9.66556C22.5439 10.071 22.6671 10.531 22.667 10.9992C22.6669 11.4674 22.5435 11.9273 22.3093 12.3327L22.9996 12.3324C23.552 12.3322 24 12.78 24 13.3324V13.6654V16.1423H19.1429V12.7137H16.8571V16.1423H12V13.6654V13.3324C12 12.78 12.448 12.3322 13.0004 12.3324L13.6907 12.3327C13.3599 11.76 13.2538 11.0847 13.3929 10.4382C13.5321 9.79156 13.9065 9.21975 14.4436 8.83374C14.9806 8.44773 15.642 8.27507 16.2992 8.34929C16.9564 8.42351 17.5626 8.73931 18 9.23537C18.2497 8.95096 18.5574 8.72322 18.9023 8.56742C19.2473 8.41162 19.6215 8.33137 20 8.33204ZM16.8571 18.428H12V21.1899C12 21.3667 12.0702 21.5363 12.1953 21.6613C12.3203 21.7863 12.4899 21.8566 12.6667 21.8566L16.8571 21.8566V18.428ZM19.1429 21.8566L23.3333 21.8566C23.5101 21.8566 23.6797 21.7863 23.8047 21.6613C23.9298 21.5363 24 21.3667 24 21.1899V18.428H19.1429V21.8566ZM16 9.66537C15.654 9.66382 15.321 9.79683 15.0712 10.0363C14.8215 10.2757 14.6746 10.6029 14.6616 10.9487C14.6487 11.2944 14.7706 11.6317 15.0017 11.8892C15.2327 12.1467 15.5549 12.3043 15.9 12.3287L16 12.332H17.3333V10.9987C17.3333 10.6801 17.2193 10.372 17.0117 10.1302C16.8042 9.88844 16.5169 9.72897 16.202 9.6807L16.0993 9.6687L16 9.66537ZM20 9.66537C19.6636 9.66526 19.3396 9.79231 19.093 10.021C18.8463 10.2498 18.6952 10.5633 18.67 10.8987L18.6667 10.9987V12.332H20C20.3364 12.3321 20.6604 12.2051 20.907 11.9764C21.1537 11.7476 21.3048 11.4341 21.33 11.0987L21.3333 10.9987C21.3333 10.6451 21.1929 10.3059 20.9428 10.0559C20.6928 9.80584 20.3536 9.66537 20 9.66537Z" fill="#FFEFD7"/>
</g>
<path d="M105.687 0.388047H9.31312C4.38393 0.388047 0.388046 4.38394 0.388046 9.31312V21.6869C0.388046 26.6161 4.38394 30.612 9.31312 30.612H105.687C110.616 30.612 114.612 26.6161 114.612 21.6869V9.31312C114.612 4.38394 110.616 0.388047 105.687 0.388047Z" stroke="url(#paint1_linear_1901_2142)" stroke-width="0.776093"/>
<defs>
<linearGradient id="paint0_linear_1901_2142" x1="115" y1="0" x2="0" y2="0" gradientUnits="userSpaceOnUse">
<stop stop-color="#8334FF"/>
<stop offset="1" stop-color="#4D297D"/>
</linearGradient>
<linearGradient id="paint1_linear_1901_2142" x1="60.8542" y1="0" x2="60.8542" y2="31" gradientUnits="userSpaceOnUse">
<stop stop-color="#908694"/>
<stop offset="1" stop-color="#1F1F1F"/>
</linearGradient>
<clipPath id="clip0_1901_2142">
<path d="M115 9.31312C115 4.16963 110.83 0 105.687 0H9.31312C4.16962 0 0 4.16963 0 9.31312V21.6869C0 26.8304 4.16963 31 9.31312 31H105.687C110.83 31 115 26.8304 115 21.6869V9.31312Z" fill="white"/>
</clipPath>
</defs>
</svg>
