<svg width="1256" height="254" viewBox="0 0 1256 254" fill="none" xmlns="http://www.w3.org/2000/svg">
<mask id="mask0_494_3496" style="mask-type:alpha" maskUnits="userSpaceOnUse" x="-5" y="23" width="1257" height="195">
<path d="M544.55 144.045L571.943 134.251L599.154 129.969L621.899 150.202L605.433 117.571L595.851 26.5268L619.38 97.4254L652.118 111.373L640.097 150.202L705.303 165.102L736.017 148.102L777.316 161.92L873.194 160.737L837.789 149.024L874.314 135.964L1020.11 168.832C1020.11 168.832 1105.9 186.274 1098.69 185.948L1162.3 168.832L1250.24 183.885L1149.21 189.968L1042.42 193.209L1014.5 193.209L1003.81 185.948L1057.94 181.039L909.346 155.936C917.135 160.272 933.876 169.732 938.525 172.884C943.174 176.036 961.907 185.586 970.693 189.968L907.355 199.976L907.936 187.131L848.872 168.832L806.122 187.127L767.272 185.371L791.843 171.771L735.478 160.03L735.063 169.205L734.607 179.297L734.4 183.885L719.25 187.797L655.912 197.806L656.493 184.961L681.271 166.774L645.928 176.081L630.96 162.985L615.993 168.598L599.154 148.017L571.363 147.096C580.038 153.924 602.909 177.942 602.909 177.942C602.909 177.942 582.502 187.746 569.538 187.467L500.514 190.783L537.619 164.878L469.508 148.009C460.404 150.662 439.001 160.421 439.001 160.421C439.001 160.421 457.555 169.534 468.429 171.864L389.942 185.785L366.325 178.282L339.095 181.694L335.353 170.468L327.869 172.474L316.644 168.598L310.25 160.118L301.676 170.468L292.322 172.474L286.709 166.727L267.417 180.248L237.823 172.474L215.286 207.312L129.552 187.467L60.3276 177.141L0.457185 187.466L71.424 143.808L82.9216 154.441L215.614 179.823L148.874 152.825L238.32 161.464L298.877 146.733L391.186 158.26L422.398 130.25L502.712 142.154L544.55 144.045ZM544.55 144.045L570.492 166.364L560.863 180.639" stroke="white" stroke-width="18.2123"/>
</mask>
<g mask="url(#mask0_494_3496)">
<path d="M31 162.826L608.471 162.826L1123.5 166.477L902.207 156.278L755.339 153.004L681.905 151.367L645.188 150.548L608.471 127L571.754 150.548L535.037 151.367L461.603 153.004L314.736 156.278L31 162.826Z" fill="#1D151F"/>
</g>
</svg>
