<svg width="306" height="38" viewBox="0 0 306 38" fill="none" xmlns="http://www.w3.org/2000/svg">
<g filter="url(#filter0_i_1400_898)">
<path d="M306 9.31312C306 4.16963 301.83 0 296.687 0H267.751H252.157H236.563H231.855L229.977 0L210.376 0H191.252H153.002H9.31747C4.17398 0 0.00436401 4.16963 0.00436401 9.31312V9.5V11.4792V13.2174V28.6869C0.00436401 33.8304 4.17401 38 9.3175 38H38.8423H43.5499H56.4959H77.6802H89.4492H108.28H116.518H125.639H134.76H136.869H138.213H139.218H143.881H153.002H171.833H174.513L194.194 37.587H199.789H205.973H207.856H210.082H229.501H244.801H267.162H271.917H275.4L296.561 37.8726C301.753 37.9427 306 33.753 306 28.5603V9.31312Z" fill="url(#paint0_linear_1400_898)"/>
</g>
<path d="M194.186 37.199V37.1989H194.194H199.789H205.973H207.856H210.082H229.501H244.801H267.162H271.917L275.4 37.1989L275.406 37.1989L296.566 37.4846C301.542 37.5517 305.612 33.5366 305.612 28.5603V9.31312C305.612 4.38394 301.616 0.388047 296.687 0.388047H267.751H252.157H236.563H231.855H229.977H210.376H191.252H153.002H9.31747C4.38831 0.388047 0.392426 4.38394 0.392426 9.31312V9.5V11.4792V13.2174V28.6869C0.392426 33.6161 4.38834 37.612 9.3175 37.612H38.8423H43.5499H56.4959H77.6802H89.4492H108.28H116.518H125.639H134.76H136.869H138.213H139.218H143.881H153.002H171.833H174.509H174.513L194.186 37.199Z" stroke="url(#paint1_linear_1400_898)" stroke-width="0.776093"/>
<g filter="url(#filter1_i_1400_898)">
<path d="M115.885 23.907C114.505 23.907 113.443 23.517 112.699 22.737C111.967 21.957 111.601 20.835 111.601 19.371C111.601 18.351 111.817 17.445 112.249 16.653C112.681 15.849 113.287 15.225 114.067 14.781C114.859 14.337 115.753 14.115 116.749 14.115C117.997 14.115 118.963 14.259 119.647 14.547C119.647 14.943 119.557 15.399 119.377 15.915C119.197 16.419 119.005 16.767 118.801 16.959C118.333 16.563 117.817 16.227 117.253 15.951C116.689 15.675 116.239 15.537 115.903 15.537C115.387 15.705 114.943 16.113 114.571 16.761C114.211 17.409 114.031 18.111 114.031 18.867C114.031 19.971 114.241 20.793 114.661 21.333C115.093 21.873 115.747 22.143 116.623 22.143C116.983 22.143 117.283 22.113 117.523 22.053C117.511 20.577 117.415 19.641 117.235 19.245C117.619 19.173 118.039 19.137 118.495 19.137C118.855 19.137 119.323 19.173 119.899 19.245C119.803 20.229 119.743 21.369 119.719 22.665C119.299 23.037 118.735 23.337 118.027 23.565C117.319 23.793 116.605 23.907 115.885 23.907ZM123.035 23.817C122.603 23.817 122.117 23.781 121.577 23.709C121.637 23.121 121.685 22.323 121.721 21.315C121.757 20.295 121.775 19.341 121.775 18.453C121.775 16.389 121.679 15.111 121.487 14.619C121.895 14.475 122.441 14.361 123.125 14.277C123.821 14.181 124.523 14.133 125.231 14.133C126.527 14.133 127.517 14.409 128.201 14.961C128.897 15.501 129.245 16.281 129.245 17.301C129.245 17.877 129.089 18.393 128.777 18.849C128.465 19.305 128.027 19.677 127.463 19.965C128.375 21.777 129.125 22.935 129.713 23.439C128.921 23.691 127.967 23.817 126.851 23.817C126.515 23.013 125.963 21.897 125.195 20.469C124.739 20.469 124.349 20.445 124.025 20.397C124.061 22.161 124.157 23.265 124.313 23.709C123.905 23.781 123.479 23.817 123.035 23.817ZM125.717 19.191C126.053 18.999 126.317 18.759 126.509 18.471C126.713 18.171 126.815 17.829 126.815 17.445C126.815 16.257 126.161 15.663 124.853 15.663C124.577 15.663 124.337 15.687 124.133 15.735C124.085 16.611 124.049 17.649 124.025 18.849C124.733 19.077 125.297 19.191 125.717 19.191ZM138.291 23.799C137.895 23.799 137.463 23.757 136.995 23.673L136.797 23.097L136.221 21.495C135.573 21.459 134.883 21.441 134.151 21.441C133.359 21.441 132.795 21.465 132.459 21.513C132.147 22.317 131.889 23.037 131.685 23.673C131.397 23.745 131.139 23.781 130.911 23.781C130.611 23.781 130.305 23.745 129.993 23.673C130.329 23.073 130.923 21.657 131.775 19.425C132.627 17.193 133.263 15.447 133.683 14.187C134.163 14.127 134.565 14.097 134.889 14.097C135.237 14.097 135.609 14.127 136.005 14.187C136.425 15.447 137.061 17.193 137.913 19.425C138.765 21.657 139.359 23.073 139.695 23.673C139.263 23.757 138.795 23.799 138.291 23.799ZM134.835 20.091C135.063 20.091 135.345 20.079 135.681 20.055C135.177 18.639 134.727 17.469 134.331 16.545C133.815 17.853 133.371 19.017 132.999 20.037C133.575 20.073 134.187 20.091 134.835 20.091ZM143.846 23.871C143.486 23.871 143.168 23.709 142.892 23.385C142.616 23.049 142.37 22.617 142.154 22.089C141.95 21.549 141.686 20.781 141.362 19.785C141.014 18.729 140.69 17.793 140.39 16.977C140.09 16.161 139.736 15.333 139.328 14.493C140.216 14.241 141.188 14.115 142.244 14.115C142.34 14.715 142.508 15.495 142.748 16.455C142.988 17.403 143.234 18.261 143.486 19.029C143.942 20.349 144.362 21.357 144.746 22.053C145.442 19.953 145.952 18.309 146.276 17.121C146.6 15.921 146.762 15.093 146.762 14.637C146.762 14.469 146.75 14.361 146.726 14.313C147.302 14.181 147.962 14.115 148.706 14.115C148.298 15.255 147.794 16.749 147.194 18.597C146.606 20.433 146.132 21.975 145.772 23.223L143.846 23.871ZM149.755 23.763C149.887 22.095 149.953 20.277 149.953 18.309C149.953 17.193 149.929 16.347 149.881 15.771C149.845 15.195 149.773 14.679 149.665 14.223C150.337 14.307 151.387 14.349 152.815 14.349C154.495 14.349 155.791 14.307 156.703 14.223C156.703 14.655 156.667 15.117 156.595 15.609C156.523 16.089 156.433 16.413 156.325 16.581C156.013 16.425 155.611 16.305 155.119 16.221C154.627 16.137 154.129 16.095 153.625 16.095C153.193 16.095 152.749 16.125 152.293 16.185C152.245 17.049 152.221 17.733 152.221 18.237C152.677 18.261 153.019 18.273 153.247 18.273C153.859 18.273 154.327 18.261 154.651 18.237C154.987 18.201 155.359 18.147 155.767 18.075C155.815 18.435 155.839 18.717 155.839 18.921C155.839 19.113 155.815 19.401 155.767 19.785C154.255 19.701 153.067 19.659 152.203 19.659C152.203 20.463 152.221 21.165 152.257 21.765C152.677 21.849 153.163 21.891 153.715 21.891C154.279 21.891 154.837 21.849 155.389 21.765C155.953 21.681 156.415 21.561 156.775 21.405C156.775 21.825 156.739 22.281 156.667 22.773C156.595 23.253 156.505 23.583 156.397 23.763C155.569 23.679 154.405 23.637 152.905 23.637C151.477 23.637 150.427 23.679 149.755 23.763ZM161.989 23.817C161.569 23.817 161.077 23.781 160.513 23.709C160.609 22.869 160.669 21.747 160.693 20.343C160.141 19.119 159.511 17.901 158.803 16.689C158.095 15.477 157.615 14.745 157.363 14.493C158.131 14.241 159.109 14.115 160.297 14.115C160.393 14.415 160.627 14.997 160.999 15.861C161.383 16.725 161.821 17.613 162.313 18.525C162.865 17.433 163.279 16.521 163.555 15.789C163.843 15.057 163.999 14.535 164.023 14.223C164.695 14.151 165.439 14.115 166.255 14.115C165.295 15.495 164.197 17.565 162.961 20.325C162.961 22.149 163.057 23.277 163.249 23.709C162.841 23.781 162.421 23.817 161.989 23.817ZM173.623 23.799C173.227 23.799 172.795 23.757 172.327 23.673L172.129 23.097L171.553 21.495C170.905 21.459 170.215 21.441 169.483 21.441C168.691 21.441 168.127 21.465 167.791 21.513C167.479 22.317 167.221 23.037 167.017 23.673C166.729 23.745 166.471 23.781 166.243 23.781C165.943 23.781 165.637 23.745 165.325 23.673C165.661 23.073 166.255 21.657 167.107 19.425C167.959 17.193 168.595 15.447 169.015 14.187C169.495 14.127 169.897 14.097 170.221 14.097C170.569 14.097 170.941 14.127 171.337 14.187C171.757 15.447 172.393 17.193 173.245 19.425C174.097 21.657 174.691 23.073 175.027 23.673C174.595 23.757 174.127 23.799 173.623 23.799ZM170.167 20.091C170.395 20.091 170.677 20.079 171.013 20.055C170.509 18.639 170.059 17.469 169.663 16.545C169.147 17.853 168.703 19.017 168.331 20.037C168.907 20.073 169.519 20.091 170.167 20.091ZM177.492 23.817C177.06 23.817 176.574 23.781 176.034 23.709C176.094 23.121 176.142 22.323 176.178 21.315C176.214 20.295 176.232 19.341 176.232 18.453C176.232 16.389 176.136 15.111 175.944 14.619C176.352 14.475 176.898 14.361 177.582 14.277C178.278 14.181 178.98 14.133 179.688 14.133C180.984 14.133 181.974 14.409 182.658 14.961C183.354 15.501 183.702 16.281 183.702 17.301C183.702 17.877 183.546 18.393 183.234 18.849C182.922 19.305 182.484 19.677 181.92 19.965C182.832 21.777 183.582 22.935 184.17 23.439C183.378 23.691 182.424 23.817 181.308 23.817C180.972 23.013 180.42 21.897 179.652 20.469C179.196 20.469 178.806 20.445 178.482 20.397C178.518 22.161 178.614 23.265 178.77 23.709C178.362 23.781 177.936 23.817 177.492 23.817ZM180.174 19.191C180.51 18.999 180.774 18.759 180.966 18.471C181.17 18.171 181.272 17.829 181.272 17.445C181.272 16.257 180.618 15.663 179.31 15.663C179.034 15.663 178.794 15.687 178.59 15.735C178.542 16.611 178.506 17.649 178.482 18.849C179.19 19.077 179.754 19.191 180.174 19.191ZM188.824 23.817C188.236 23.817 187.624 23.787 186.988 23.727C186.352 23.679 185.806 23.613 185.35 23.529C185.41 22.953 185.458 22.167 185.494 21.171C185.53 20.163 185.548 19.209 185.548 18.309C185.548 16.317 185.452 15.087 185.26 14.619C185.692 14.475 186.268 14.361 186.988 14.277C187.708 14.181 188.44 14.133 189.184 14.133C190.864 14.133 192.154 14.547 193.054 15.375C193.954 16.203 194.404 17.385 194.404 18.921C194.404 19.881 194.17 20.733 193.702 21.477C193.234 22.209 192.574 22.785 191.722 23.205C190.882 23.613 189.916 23.817 188.824 23.817ZM189.67 22.539C190.09 22.467 190.474 22.269 190.822 21.945C191.182 21.609 191.464 21.201 191.668 20.721C191.872 20.241 191.974 19.749 191.974 19.245C191.974 16.857 190.918 15.663 188.806 15.663C188.47 15.663 188.17 15.705 187.906 15.789C187.834 16.905 187.798 18.183 187.798 19.623C187.798 20.667 187.816 21.525 187.852 22.197C188.608 22.425 189.214 22.539 189.67 22.539Z" fill="#FFEFD7"/>
</g>
<defs>
<filter id="filter0_i_1400_898" x="0.00390625" y="0" width="305.996" height="38" filterUnits="userSpaceOnUse" color-interpolation-filters="sRGB">
<feFlood flood-opacity="0" result="BackgroundImageFix"/>
<feBlend mode="normal" in="SourceGraphic" in2="BackgroundImageFix" result="shape"/>
<feColorMatrix in="SourceAlpha" type="matrix" values="0 0 0 0 0 0 0 0 0 0 0 0 0 0 0 0 0 0 127 0" result="hardAlpha"/>
<feOffset dy="-0.776093"/>
<feComposite in2="hardAlpha" operator="arithmetic" k2="-1" k3="1"/>
<feColorMatrix type="matrix" values="0 0 0 0 0.129412 0 0 0 0 0.129412 0 0 0 0 0.129412 0 0 0 1 0"/>
<feBlend mode="normal" in2="shape" result="effect1_innerShadow_1400_898"/>
</filter>
<filter id="filter1_i_1400_898" x="111.602" y="14.0967" width="82.8027" height="9.81055" filterUnits="userSpaceOnUse" color-interpolation-filters="sRGB">
<feFlood flood-opacity="0" result="BackgroundImageFix"/>
<feBlend mode="normal" in="SourceGraphic" in2="BackgroundImageFix" result="shape"/>
<feColorMatrix in="SourceAlpha" type="matrix" values="0 0 0 0 0 0 0 0 0 0 0 0 0 0 0 0 0 0 127 0" result="hardAlpha"/>
<feOffset dy="0.776093"/>
<feComposite in2="hardAlpha" operator="arithmetic" k2="-1" k3="1"/>
<feColorMatrix type="matrix" values="0 0 0 0 0 0 0 0 0 0 0 0 0 0 0 0 0 0 1 0"/>
<feBlend mode="normal" in2="shape" result="effect1_innerShadow_1400_898"/>
</filter>
<linearGradient id="paint0_linear_1400_898" x1="28.2501" y1="2.56475e-06" x2="89.0798" y2="204.313" gradientUnits="userSpaceOnUse">
<stop stop-color="#1B1B1B"/>
<stop offset="1" stop-color="#6B534C"/>
</linearGradient>
<linearGradient id="paint1_linear_1400_898" x1="178.894" y1="2.11339e-07" x2="178.894" y2="38" gradientUnits="userSpaceOnUse">
<stop stop-color="#908694"/>
<stop offset="0.677092" stop-color="white" stop-opacity="0"/>
</linearGradient>
</defs>
</svg>
