<svg width="61" height="26" viewBox="0 0 61 26" fill="none" xmlns="http://www.w3.org/2000/svg">
<g filter="url(#filter0_i_1042_1295)">
<path d="M0 7.51057C0 3.36259 3.3626 0 7.51058 0H10.5856H13.6346H14.4621H14.8348H18.7765H22.5317H30.0423H53.6388C57.1987 0 60.0846 2.88592 60.0846 6.44589L60.0847 7.78878L60.0846 8.96819V18.1574C60.0846 22.3692 56.6703 25.7835 52.4585 25.7835H51.5341H48.9921H44.8324H42.5214H38.8239H37.2063H35.4153H33.6243H33.3224H33.0987H32.749H31.8333H30.0423H26.3448H26.0168H21.9913H19.6803H19.3076H18.7765H15.0212H11.9275H7.60376H6.63466H5.96374C2.67006 25.7835 0 23.1135 0 19.8198V7.51057Z" fill="url(#paint0_linear_1042_1295)"/>
</g>
<path d="M0.388047 7.51057C0.388047 3.57691 3.57692 0.388047 7.51058 0.388047H10.5856H13.6346H14.4621H14.8348H18.7765H22.5317H30.0423H53.6388C56.9844 0.388047 59.6966 3.10023 59.6966 6.44589L59.6966 7.78878L59.6966 8.96819V18.1574C59.6966 22.1549 56.456 25.3955 52.4585 25.3955H51.5341H48.9921H44.8324H42.5214H38.8239H37.2063H35.4153H33.6243H33.3224H33.0987H32.749H31.8333H30.0423H26.3448H26.0168H21.9913H19.6803H19.3076H18.7765H15.0212H11.9275H7.60376H6.63466H5.96374C2.88437 25.3955 0.388047 22.8992 0.388047 19.8198V7.51057Z" stroke="url(#paint1_linear_1042_1295)" stroke-width="0.776093"/>
<g filter="url(#filter1_i_1042_1295)">
<path d="M17.7064 15.9922C17.3704 15.9922 16.9924 15.9642 16.5724 15.9082C16.6191 15.3855 16.6564 14.7369 16.6844 13.9622C16.7124 13.1875 16.7264 12.4735 16.7264 11.8202C16.7264 10.0749 16.6517 8.9782 16.5024 8.5302C16.8384 8.4742 17.2024 8.4462 17.5944 8.4462C17.8931 8.4462 18.2384 8.4742 18.6304 8.5302C18.5651 9.3422 18.5184 10.3782 18.4904 11.6382C19.0224 11.6662 19.6057 11.6802 20.2404 11.6802C20.4924 11.6802 20.8051 11.6709 21.1784 11.6522C21.1784 9.96287 21.1037 8.9222 20.9544 8.5302C21.2904 8.4742 21.6591 8.4462 22.0604 8.4462C22.3497 8.4462 22.6904 8.4742 23.0824 8.5302C23.0357 9.05287 22.9984 9.70154 22.9704 10.4762C22.9424 11.2509 22.9284 11.9649 22.9284 12.6182C22.9284 14.3635 23.0031 15.4602 23.1524 15.9082C22.8351 15.9642 22.5084 15.9922 22.1724 15.9922C21.8271 15.9922 21.4444 15.9642 21.0244 15.9082C21.0897 15.0869 21.1364 14.0462 21.1644 12.7862C20.4737 12.7675 19.9417 12.7582 19.5684 12.7582C19.2511 12.7582 18.8871 12.7675 18.4764 12.7862C18.4764 14.4755 18.5511 15.5162 18.7004 15.9082C18.3831 15.9642 18.0517 15.9922 17.7064 15.9922ZM24.5705 15.9502C24.6731 14.6529 24.7245 13.2389 24.7245 11.7082C24.7245 10.8402 24.7058 10.1822 24.6685 9.7342C24.6405 9.2862 24.5845 8.88487 24.5005 8.5302C25.0231 8.59554 25.8398 8.6282 26.9505 8.6282C28.2571 8.6282 29.2651 8.59554 29.9745 8.5302C29.9745 8.8662 29.9465 9.22554 29.8905 9.6082C29.8345 9.98154 29.7645 10.2335 29.6805 10.3642C29.4378 10.2429 29.1251 10.1495 28.7425 10.0842C28.3598 10.0189 27.9725 9.9862 27.5805 9.9862C27.2445 9.9862 26.8991 10.0095 26.5445 10.0562C26.5071 10.7282 26.4885 11.2602 26.4885 11.6522C26.8431 11.6709 27.1091 11.6802 27.2865 11.6802C27.7625 11.6802 28.1265 11.6709 28.3785 11.6522C28.6398 11.6242 28.9291 11.5822 29.2465 11.5262C29.2838 11.8062 29.3025 12.0255 29.3025 12.1842C29.3025 12.3335 29.2838 12.5575 29.2465 12.8562C28.0705 12.7909 27.1465 12.7582 26.4745 12.7582C26.4745 13.3835 26.4885 13.9295 26.5165 14.3962C26.8431 14.4615 27.2211 14.4942 27.6505 14.4942C28.0891 14.4942 28.5231 14.4615 28.9525 14.3962C29.3911 14.3309 29.7505 14.2375 30.0305 14.1162C30.0305 14.4429 30.0025 14.7975 29.9465 15.1802C29.8905 15.5535 29.8205 15.8102 29.7365 15.9502C29.0925 15.8849 28.1871 15.8522 27.0205 15.8522C25.9098 15.8522 25.0931 15.8849 24.5705 15.9502ZM32.2943 15.9922C31.9583 15.9922 31.5803 15.9642 31.1603 15.9082C31.207 15.4509 31.2443 14.8302 31.2723 14.0462C31.3003 13.2529 31.3143 12.5109 31.3143 11.8202C31.3143 10.2149 31.2396 9.22087 31.0903 8.8382C31.4076 8.7262 31.8323 8.63754 32.3643 8.5722C32.9056 8.49754 33.4516 8.4602 34.0023 8.4602C35.0103 8.4602 35.7803 8.67487 36.3123 9.1042C36.8536 9.5242 37.1243 10.1309 37.1243 10.9242C37.1243 11.3722 37.003 11.7735 36.7603 12.1282C36.5176 12.4829 36.177 12.7722 35.7383 12.9962C36.4476 14.4055 37.031 15.3062 37.4883 15.6982C36.8723 15.8942 36.1303 15.9922 35.2623 15.9922C35.001 15.3669 34.5716 14.4989 33.9743 13.3882C33.6196 13.3882 33.3163 13.3695 33.0643 13.3322C33.0923 14.7042 33.167 15.5629 33.2883 15.9082C32.971 15.9642 32.6396 15.9922 32.2943 15.9922ZM34.3803 12.3942C34.6416 12.2449 34.847 12.0582 34.9963 11.8342C35.155 11.6009 35.2343 11.3349 35.2343 11.0362C35.2343 10.1122 34.7256 9.6502 33.7083 9.6502C33.4936 9.6502 33.307 9.66887 33.1483 9.7062C33.111 10.3875 33.083 11.1949 33.0643 12.1282C33.615 12.3055 34.0536 12.3942 34.3803 12.3942ZM38.4064 15.9502C38.5091 14.6529 38.5604 13.2389 38.5604 11.7082C38.5604 10.8402 38.5417 10.1822 38.5044 9.7342C38.4764 9.2862 38.4204 8.88487 38.3364 8.5302C38.8591 8.59554 39.6757 8.6282 40.7864 8.6282C42.0931 8.6282 43.1011 8.59554 43.8104 8.5302C43.8104 8.8662 43.7824 9.22554 43.7264 9.6082C43.6704 9.98154 43.6004 10.2335 43.5164 10.3642C43.2737 10.2429 42.9611 10.1495 42.5784 10.0842C42.1957 10.0189 41.8084 9.9862 41.4164 9.9862C41.0804 9.9862 40.7351 10.0095 40.3804 10.0562C40.3431 10.7282 40.3244 11.2602 40.3244 11.6522C40.6791 11.6709 40.9451 11.6802 41.1224 11.6802C41.5984 11.6802 41.9624 11.6709 42.2144 11.6522C42.4757 11.6242 42.7651 11.5822 43.0824 11.5262C43.1197 11.8062 43.1384 12.0255 43.1384 12.1842C43.1384 12.3335 43.1197 12.5575 43.0824 12.8562C41.9064 12.7909 40.9824 12.7582 40.3104 12.7582C40.3104 13.3835 40.3244 13.9295 40.3524 14.3962C40.6791 14.4615 41.0571 14.4942 41.4864 14.4942C41.9251 14.4942 42.3591 14.4615 42.7884 14.3962C43.2271 14.3309 43.5864 14.2375 43.8664 14.1162C43.8664 14.4429 43.8384 14.7975 43.7824 15.1802C43.7264 15.5535 43.6564 15.8102 43.5724 15.9502C42.9284 15.8849 42.0231 15.8522 40.8564 15.8522C39.7457 15.8522 38.9291 15.8849 38.4064 15.9502Z" fill="#FFEFD7"/>
</g>
<defs>
<filter id="filter0_i_1042_1295" x="0" y="0" width="60.085" height="25.7832" filterUnits="userSpaceOnUse" color-interpolation-filters="sRGB">
<feFlood flood-opacity="0" result="BackgroundImageFix"/>
<feBlend mode="normal" in="SourceGraphic" in2="BackgroundImageFix" result="shape"/>
<feColorMatrix in="SourceAlpha" type="matrix" values="0 0 0 0 0 0 0 0 0 0 0 0 0 0 0 0 0 0 127 0" result="hardAlpha"/>
<feOffset dy="-0.776093"/>
<feComposite in2="hardAlpha" operator="arithmetic" k2="-1" k3="1"/>
<feColorMatrix type="matrix" values="0 0 0 0 0.151244 0 0 0 0 0 0 0 0 0 0.343736 0 0 0 1 0"/>
<feBlend mode="normal" in2="shape" result="effect1_innerShadow_1042_1295"/>
</filter>
<filter id="filter1_i_1042_1295" x="16.502" y="8.44531" width="27.3643" height="7.54688" filterUnits="userSpaceOnUse" color-interpolation-filters="sRGB">
<feFlood flood-opacity="0" result="BackgroundImageFix"/>
<feBlend mode="normal" in="SourceGraphic" in2="BackgroundImageFix" result="shape"/>
<feColorMatrix in="SourceAlpha" type="matrix" values="0 0 0 0 0 0 0 0 0 0 0 0 0 0 0 0 0 0 127 0" result="hardAlpha"/>
<feOffset dy="0.776093"/>
<feComposite in2="hardAlpha" operator="arithmetic" k2="-1" k3="1"/>
<feColorMatrix type="matrix" values="0 0 0 0 0.152941 0 0 0 0 0 0 0 0 0 0.345098 0 0 0 0.65 0"/>
<feBlend mode="normal" in2="shape" result="effect1_innerShadow_1042_1295"/>
</filter>
<linearGradient id="paint0_linear_1042_1295" x1="54.5384" y1="6.23354e-07" x2="-29.5882" y2="39.9651" gradientUnits="userSpaceOnUse">
<stop stop-color="#6D6B68"/>
<stop offset="1" stop-color="#281D2B"/>
</linearGradient>
<linearGradient id="paint1_linear_1042_1295" x1="24.9582" y1="1.43397e-07" x2="24.9582" y2="25.7835" gradientUnits="userSpaceOnUse">
<stop stop-color="#FFEFD7"/>
<stop offset="0.677092" stop-color="white" stop-opacity="0"/>
</linearGradient>
</defs>
</svg>
