<svg width="140" height="45" viewBox="0 0 140 45" fill="none" xmlns="http://www.w3.org/2000/svg">
<path d="M2.52698 38.5198L70.1883 37.0114L137.85 38.5198L104.019 39.274L87.1036 39.6511L78.646 39.8396L74.4171 39.9339L70.1883 44.4781L65.9595 39.9339L61.7306 39.8396L53.273 39.6511L36.3576 39.274L2.52698 38.5198Z" fill="#FFEFD7"/>
<path d="M13.4254 6.55034L70.5382 8.05872L127.651 6.55034L99.0946 5.79616L84.8164 5.41906L77.6773 5.23052L75.0546 5.13624L70.5382 0.592014L65.9519 5.13624L63.3991 5.23052L56.26 5.41906L41.9818 5.79616L13.4254 6.55034Z" fill="#FFEFD7"/>
<path d="M6.62616 6.50555V30.1697H2.90085V6.50555H6.62616ZM13.1827 29.1017L13.7788 30.1697H6.55165V29.1017H13.1827ZM14.9957 25.0784L13.8533 30.1697H8.98552L9.8796 29.1017C10.7074 29.1017 11.4359 28.9444 12.0651 28.6299C12.6943 28.2987 13.2324 27.8351 13.6794 27.2391C14.1264 26.6265 14.4824 25.9063 14.7473 25.0784H14.9957ZM2.97536 28.3567V30.1697H0.988525V29.9213C0.988525 29.9213 1.0382 29.9213 1.13754 29.9213C1.25344 29.9213 1.31139 29.9213 1.31139 29.9213C1.74187 29.9213 2.10612 29.7723 2.40414 29.4743C2.71872 29.1597 2.88429 28.7872 2.90085 28.3567H2.97536ZM2.97536 8.31854H2.90085C2.88429 7.88806 2.71872 7.52381 2.40414 7.22578C2.10612 6.9112 1.74187 6.75391 1.31139 6.75391C1.31139 6.75391 1.25344 6.75391 1.13754 6.75391C1.0382 6.75391 0.988525 6.75391 0.988525 6.75391V6.50555H2.97536V8.31854ZM6.55165 8.31854V6.50555H8.53849V6.75391C8.52193 6.75391 8.46398 6.75391 8.36464 6.75391C8.2653 6.75391 8.21563 6.75391 8.21563 6.75391C7.78515 6.75391 7.41261 6.9112 7.09803 7.22578C6.80001 7.52381 6.64272 7.88806 6.62616 8.31854H6.55165Z" fill="#FFEFD7"/>
<path d="M23.196 14.5979L30.5473 30.0455H26.3501L21.7307 19.1427L23.196 14.5979ZM18.527 28.5305C18.3448 28.9776 18.3697 29.3253 18.6015 29.5736C18.8333 29.8054 19.0899 29.9213 19.3714 29.9213H19.5701V30.1697H14.603V29.9213C14.603 29.9213 14.6361 29.9213 14.7023 29.9213C14.7685 29.9213 14.8017 29.9213 14.8017 29.9213C15.1328 29.9213 15.4805 29.822 15.8447 29.6233C16.209 29.408 16.507 29.0438 16.7388 28.5305H18.527ZM23.196 14.5979L23.2457 17.5781L17.8564 30.0952H16.0186L21.8301 17.6029C21.8632 17.5036 21.9377 17.3298 22.0536 17.0814C22.1695 16.8165 22.2937 16.5267 22.4261 16.2122C22.5586 15.881 22.6828 15.5747 22.7987 15.2933C22.9146 14.9952 22.9808 14.7634 22.9973 14.5979H23.196ZM25.3567 25.3019V26.2705H19.0237V25.3019H25.3567ZM25.7292 28.5305H29.8271C30.0754 29.0438 30.3817 29.408 30.746 29.6233C31.1102 29.822 31.4579 29.9213 31.7891 29.9213C31.7891 29.9213 31.8222 29.9213 31.8884 29.9213C31.9546 29.9213 31.9878 29.9213 31.9878 29.9213V30.1697H24.6861V29.9213H24.8848C25.1663 29.9213 25.4229 29.8054 25.6547 29.5736C25.8865 29.3253 25.9114 28.9776 25.7292 28.5305Z" fill="#FFEFD7"/>
<path d="M33.5165 14.9207L48.0949 27.7358L48.3432 30.4925L33.7897 17.6775L33.5165 14.9207ZM33.6158 28.6547V30.1697H31.778V29.9213C31.778 29.9213 31.8442 29.9213 31.9767 29.9213C32.1091 29.9213 32.1754 29.9213 32.1754 29.9213C32.5562 29.9213 32.879 29.8054 33.144 29.5736C33.4089 29.3253 33.5413 29.019 33.5413 28.6547H33.6158ZM36.9438 28.6547C36.9603 29.019 37.1011 29.3253 37.366 29.5736C37.6309 29.8054 37.9455 29.9213 38.3097 29.9213C38.3097 29.9213 38.3759 29.9213 38.5084 29.9213C38.6574 29.9213 38.7319 29.9213 38.7319 29.9213V30.1697H36.8941V28.6547H36.9438ZM33.5165 14.9207L36.9438 18.646V30.1697H33.5413V17.752C33.5413 16.9076 33.4999 16.2287 33.4171 15.7155C33.3344 15.1856 33.293 14.9207 33.293 14.9207H33.5165ZM48.3184 15.2684V27.5868C48.3184 28.1663 48.3349 28.6795 48.3681 29.1266C48.4177 29.5571 48.4591 29.8965 48.4922 30.1448C48.5419 30.3766 48.5667 30.4925 48.5667 30.4925H48.3432L44.9159 26.5437V15.2684H48.3184ZM48.2439 16.7834V15.2684H50.1065V15.5168C50.1065 15.5168 50.032 15.5168 49.883 15.5168C49.7506 15.5168 49.6843 15.5168 49.6843 15.5168C49.3201 15.5168 48.9972 15.641 48.7158 15.8893C48.4508 16.1211 48.3184 16.4191 48.3184 16.7834H48.2439ZM44.9159 16.7834C44.8994 16.4191 44.7586 16.1211 44.4937 15.8893C44.2454 15.641 43.9308 15.5168 43.55 15.5168C43.55 15.5168 43.4755 15.5168 43.3265 15.5168C43.194 15.5168 43.1278 15.5168 43.1278 15.5168V15.2684H44.9656V16.7834H44.9159Z" fill="#FFEFD7"/>
<path d="M59.8246 15.2684C61.5961 15.2684 63.1194 15.5664 64.3943 16.1625C65.6691 16.742 66.646 17.5947 67.3248 18.7205C68.0037 19.8299 68.3431 21.1627 68.3431 22.719C68.3431 24.2754 68.0037 25.6082 67.3248 26.7175C66.646 27.8269 65.6691 28.6795 64.3943 29.2756C63.1194 29.8716 61.5961 30.1697 59.8246 30.1697H54.3111L54.2614 29.1762C55.5197 29.1762 56.5297 29.1762 57.2913 29.1762C58.0695 29.1762 58.6325 29.1762 58.9801 29.1762C59.3444 29.1762 59.5265 29.1762 59.5265 29.1762C61.0829 29.1762 62.3081 28.605 63.2022 27.4626C64.0962 26.3202 64.5433 24.739 64.5433 22.719C64.5433 20.6991 64.0962 19.1179 63.2022 17.9755C62.3081 16.8165 61.0829 16.237 59.5265 16.237C59.5265 16.237 59.3444 16.237 58.9801 16.237C58.6159 16.237 58.0281 16.237 57.2168 16.237C56.4055 16.237 55.3376 16.237 54.0131 16.237V15.2684H59.8246ZM56.7201 15.2684V30.1697H53.1438V15.2684H56.7201ZM53.2183 28.5802V30.1697H51.4302V29.9213C51.4302 29.9213 51.4799 29.9213 51.5792 29.9213C51.6785 29.9213 51.7365 29.9213 51.753 29.9213C52.1339 29.9213 52.4567 29.7889 52.7216 29.5239C53.0031 29.259 53.1438 28.9444 53.1438 28.5802H53.2183ZM53.1935 16.8331H53.1438C53.1273 16.4522 52.9783 16.1377 52.6968 15.8893C52.4319 15.641 52.109 15.5168 51.7282 15.5168C51.7282 15.5168 51.6785 15.5168 51.5792 15.5168C51.4799 15.5168 51.4302 15.5168 51.4302 15.5168V15.2684H53.1935V16.8331Z" fill="#FFEFD7"/>
<path d="M78.2091 15.3429V30.1697H74.608V15.3429H78.2091ZM83.6233 15.2436V16.237H69.2187V15.2436H83.6233ZM83.6233 16.1625V18.795H83.3501V18.5715C83.3666 17.8596 83.1679 17.2966 82.754 16.8827C82.3567 16.4688 81.802 16.2536 81.09 16.237V16.1625H83.6233ZM83.6233 14.8711V15.4919L80.9907 15.2436C81.3053 15.2436 81.6447 15.227 82.009 15.1939C82.3732 15.1442 82.7043 15.0946 83.0024 15.0449C83.3004 14.9787 83.5074 14.9207 83.6233 14.8711ZM74.6577 28.605V30.1697H72.9937V29.9213C72.9937 29.9213 73.0351 29.9213 73.1179 29.9213C73.2172 29.9213 73.2669 29.9213 73.2669 29.9213C73.6311 29.9213 73.9375 29.7971 74.1858 29.5488C74.4507 29.2839 74.5915 28.9693 74.608 28.605H74.6577ZM78.1346 28.605H78.2091C78.2091 28.9693 78.3416 29.2839 78.6065 29.5488C78.8714 29.7971 79.1943 29.9213 79.5751 29.9213C79.5751 29.9213 79.6165 29.9213 79.6993 29.9213C79.7986 29.9213 79.8483 29.9213 79.8483 29.9213V30.1697H78.1346V28.605ZM71.7519 16.1625V16.237C71.0234 16.2536 70.4605 16.4688 70.0631 16.8827C69.6823 17.2966 69.4919 17.8596 69.4919 18.5715V18.795H69.2187V16.1625H71.7519ZM69.2187 14.8711C69.3677 14.9042 69.583 14.9538 69.8644 15.0201C70.1625 15.0863 70.4853 15.1442 70.833 15.1939C71.1973 15.227 71.5284 15.2436 71.8264 15.2436L69.2187 15.4919V14.8711Z" fill="#FFEFD7"/>
<path d="M93.2555 14.9456C94.5801 14.9456 95.7804 15.1277 96.8567 15.4919C97.9329 15.8396 98.86 16.3529 99.6382 17.0317C100.416 17.7106 101.012 18.5301 101.426 19.4904C101.857 20.4507 102.072 21.5352 102.072 22.7439C102.072 23.936 101.857 25.0122 101.426 25.9725C101.012 26.9162 100.416 27.7275 99.6382 28.4063C98.86 29.0852 97.9329 29.6067 96.8567 29.971C95.7804 30.3187 94.5801 30.4925 93.2555 30.4925C91.9475 30.4925 90.7554 30.3187 89.6792 29.971C88.603 29.6067 87.6758 29.0852 86.8977 28.4063C86.1195 27.7275 85.5234 26.9162 85.1095 25.9725C84.6956 25.0122 84.4886 23.936 84.4886 22.7439C84.4886 21.5352 84.6956 20.4507 85.1095 19.4904C85.5234 18.5301 86.1195 17.7106 86.8977 17.0317C87.6758 16.3529 88.603 15.8396 89.6792 15.4919C90.7554 15.1277 91.9475 14.9456 93.2555 14.9456ZM93.2555 29.5239C94.2655 29.5239 95.143 29.2508 95.8881 28.7044C96.6497 28.1414 97.2292 27.355 97.6265 26.345C98.0405 25.335 98.2474 24.1347 98.2474 22.7439C98.2474 21.3365 98.0405 20.1279 97.6265 19.1179C97.2292 18.0914 96.6497 17.3049 95.8881 16.7585C95.143 16.1956 94.2655 15.9141 93.2555 15.9141C92.2621 15.9141 91.3929 16.1956 90.6478 16.7585C89.9027 17.3049 89.3232 18.0914 88.9093 19.1179C88.4954 20.1279 88.2884 21.3365 88.2884 22.7439C88.2884 24.1347 88.4954 25.335 88.9093 26.345C89.3232 27.355 89.9027 28.1414 90.6478 28.7044C91.3929 29.2508 92.2621 29.5239 93.2555 29.5239Z" fill="#FFEFD7"/>
<path d="M108.619 15.2684H111.302C111.98 15.2684 112.643 15.3429 113.288 15.4919C113.934 15.6244 114.514 15.8479 115.027 16.1625C115.54 16.4605 115.946 16.8744 116.244 17.4043C116.558 17.9175 116.716 18.5633 116.716 19.3414C116.716 19.9209 116.591 20.5004 116.343 21.0799C116.111 21.6428 115.739 22.1313 115.226 22.5452C114.729 22.9591 114.075 23.2323 113.264 23.3648C113.744 23.5138 114.199 23.8035 114.629 24.234C115.076 24.6645 115.424 25.0701 115.673 25.4509C115.739 25.5834 115.855 25.7986 116.02 26.0967C116.186 26.3781 116.393 26.7093 116.641 27.0901C116.906 27.4543 117.179 27.8351 117.461 28.2325C117.792 28.6795 118.082 29.0272 118.33 29.2756C118.578 29.5074 118.835 29.673 119.1 29.7723C119.365 29.8716 119.671 29.9213 120.019 29.9213V30.1697H117.933C117.038 30.1697 116.277 30.1034 115.648 29.971C115.035 29.8385 114.497 29.5984 114.033 29.2507C113.586 28.8865 113.172 28.3981 112.792 27.7855C112.643 27.5702 112.485 27.3136 112.32 27.0156C112.154 26.701 111.989 26.3864 111.823 26.0718C111.658 25.7572 111.508 25.4509 111.376 25.1529C111.26 24.8549 111.177 24.6065 111.128 24.4078C110.912 23.878 110.664 23.4972 110.383 23.2654C110.118 23.0171 109.869 22.8929 109.638 22.8929V22.6694C109.638 22.6694 109.695 22.6694 109.811 22.6694C109.927 22.6694 110.076 22.6694 110.258 22.6694C110.606 22.6694 110.946 22.6114 111.277 22.4955C111.624 22.3631 111.939 22.123 112.22 21.7753C112.502 21.411 112.709 20.8812 112.841 20.1858C112.874 20.0865 112.899 19.9458 112.916 19.7636C112.949 19.5815 112.957 19.3745 112.941 19.1427C112.908 18.5301 112.792 18.0417 112.593 17.6775C112.411 17.2966 112.179 17.0152 111.898 16.8331C111.616 16.6344 111.326 16.5019 111.028 16.4357C110.747 16.3529 110.499 16.3115 110.283 16.3115C109.969 16.295 109.679 16.295 109.414 16.3115C109.166 16.3115 108.975 16.3032 108.843 16.2867C108.826 16.2867 108.801 16.2039 108.768 16.0383C108.735 15.8562 108.702 15.6823 108.669 15.5168C108.636 15.3512 108.619 15.2684 108.619 15.2684ZM108.868 15.2684V30.1697H105.267V15.2684H108.868ZM105.341 28.605L105.44 30.1697H103.652V29.9213C103.669 29.9213 103.71 29.9213 103.776 29.9213C103.859 29.9213 103.917 29.9213 103.95 29.9213C104.314 29.9213 104.621 29.7971 104.869 29.5488C105.134 29.2839 105.275 28.9693 105.291 28.605H105.341ZM105.341 16.8082H105.291C105.275 16.4274 105.134 16.1211 104.869 15.8893C104.621 15.641 104.323 15.5168 103.975 15.5168C103.925 15.5168 103.859 15.5168 103.776 15.5168C103.71 15.5168 103.669 15.5168 103.652 15.5168V15.2684H105.44L105.341 16.8082ZM108.818 28.605H108.868C108.868 29.019 109.008 29.3418 109.29 29.5736C109.588 29.8054 109.902 29.9213 110.234 29.9213C110.234 29.9213 110.267 29.9213 110.333 29.9213C110.399 29.9213 110.449 29.9213 110.482 29.9213V30.1697H108.694L108.818 28.605Z" fill="#FFEFD7"/>
<path d="M121.663 12.4124L137.508 27.5123L137.806 30.5174L121.961 15.4423L121.663 12.4124ZM121.787 28.4063V30.1697H119.726V29.9213C119.726 29.9213 119.8 29.9213 119.949 29.9213C120.098 29.9213 120.181 29.9213 120.198 29.9213C120.612 29.9213 120.968 29.7723 121.266 29.4743C121.564 29.1762 121.713 28.8203 121.713 28.4063H121.787ZM125.264 28.4063C125.264 28.8203 125.413 29.1762 125.711 29.4743C126.009 29.7723 126.365 29.9213 126.779 29.9213C126.796 29.9213 126.878 29.9213 127.027 29.9213C127.176 29.9213 127.251 29.9213 127.251 29.9213V30.1697H125.19V28.4063H125.264ZM121.663 12.4124L125.239 16.2122L125.264 30.1697H121.713V15.5168C121.713 14.5896 121.663 13.8445 121.564 13.2816C121.464 12.7021 121.415 12.4124 121.415 12.4124H121.663ZM137.731 6.50555V27.3384C137.731 27.951 137.756 28.5057 137.806 29.0024C137.856 29.4825 137.905 29.8551 137.955 30.12C138.005 30.3849 138.029 30.5174 138.029 30.5174H137.806L134.205 26.494V6.50555H137.731ZM139.718 6.50555V6.75391C139.718 6.75391 139.644 6.75391 139.495 6.75391C139.346 6.75391 139.271 6.75391 139.271 6.75391C138.857 6.75391 138.501 6.90292 138.203 7.20095C137.905 7.48241 137.748 7.83839 137.731 8.26887H137.657V6.50555H139.718ZM132.193 6.50555H134.254V8.26887H134.205C134.188 7.83839 134.031 7.48241 133.733 7.20095C133.451 6.90292 133.095 6.75391 132.665 6.75391C132.665 6.75391 132.591 6.75391 132.441 6.75391C132.292 6.75391 132.21 6.75391 132.193 6.75391V6.50555Z" fill="#FFEFD7"/>
</svg>
