<svg width="403" height="48" viewBox="0 0 403 48" fill="none" xmlns="http://www.w3.org/2000/svg">
<g filter="url(#filter0_i_397_3442)">
<path d="M0 12C0 5.37258 5.37258 0 12 0H50.375H71H91.45H97H99.5H125.938H151.125H201.5H391C397.627 0 403 5.37258 403 12L403 14.5L403 16.6957V36C403 42.6274 397.627 48 391 48H351.85H345.65H328.6H300.7H285.2H260.4H249.55H237.537H225.525H223.5H222H219.654H213.512H201.5H176.7H174.5H147.5H132H129.5H125.938H100.75H80H51H44.5H40H12C5.37258 48 0 42.6274 0 36V12Z" fill="url(#paint0_linear_397_3442)"/>
</g>
<path d="M0.5 12C0.5 5.64873 5.64873 0.5 12 0.5H50.375H71H91.45H97H99.5H125.938H151.125H201.5H391C397.351 0.5 402.5 5.64873 402.5 12L402.5 14.5L402.5 16.6956V36C402.5 42.3513 397.351 47.5 391 47.5H351.85H345.65H328.6H300.7H285.2H260.4H249.55H237.537H225.525H223.5H222H219.654H213.512H201.5H176.7H174.5H147.5H132H129.5H125.938H100.75H80H51H44.5H40H12C5.64873 47.5 0.5 42.3513 0.5 36V12Z" stroke="url(#paint1_linear_397_3442)"/>
<defs>
<filter id="filter0_i_397_3442" x="0" y="0" width="403" height="48" filterUnits="userSpaceOnUse" color-interpolation-filters="sRGB">
<feFlood flood-opacity="0" result="BackgroundImageFix"/>
<feBlend mode="normal" in="SourceGraphic" in2="BackgroundImageFix" result="shape"/>
<feColorMatrix in="SourceAlpha" type="matrix" values="0 0 0 0 0 0 0 0 0 0 0 0 0 0 0 0 0 0 127 0" result="hardAlpha"/>
<feOffset dy="-1"/>
<feComposite in2="hardAlpha" operator="arithmetic" k2="-1" k3="1"/>
<feColorMatrix type="matrix" values="0 0 0 0 0.151244 0 0 0 0 0 0 0 0 0 0.343736 0 0 0 1 0"/>
<feBlend mode="normal" in2="shape" result="effect1_innerShadow_397_3442"/>
</filter>
<linearGradient id="paint0_linear_397_3442" x1="365.8" y1="1.16047e-06" x2="189.795" y2="301.242" gradientUnits="userSpaceOnUse">
<stop stop-color="#883CFF"/>
<stop offset="1" stop-color="#281D2B"/>
</linearGradient>
<linearGradient id="paint1_linear_397_3442" x1="167.4" y1="2.66956e-07" x2="167.4" y2="48" gradientUnits="userSpaceOnUse">
<stop stop-color="#D884FF"/>
<stop offset="0.677092" stop-color="white" stop-opacity="0"/>
</linearGradient>
</defs>
</svg>
