<svg width="42" height="42" viewBox="0 0 42 42" fill="none" xmlns="http://www.w3.org/2000/svg">
<path fill-rule="evenodd" clip-rule="evenodd" d="M7.08821 11.6987C7.08821 10.2119 6.88397 8.77282 6.502 7.40796C6.24657 7.32209 5.9938 7.23043 5.74385 7.13311L1.85032 16.5329C3.01111 17.4417 4.05279 18.4957 4.94802 19.6675C6.30891 17.3251 7.08821 14.6029 7.08821 11.6987ZM6.33818 25.3154C6.38452 25.4788 6.43349 25.6411 6.48505 25.8023C6.87792 27.1849 7.08821 28.6445 7.08821 30.1531C7.08821 31.5139 6.91711 32.8348 6.59524 34.0954C6.2513 34.2088 5.91213 34.3327 5.57812 34.4668L1.80392 25.3551C2.98337 24.4381 4.04088 23.3717 4.94802 22.1843C5.51844 23.1661 5.98668 24.2147 6.33818 25.3154ZM4.1353 20.9259C3.32401 19.7908 2.36701 18.767 1.29163 17.8817L0 21L1.2458 24.0076C2.33984 23.1139 3.31251 22.0771 4.1353 20.9259ZM8.13255 33.6666C8.28073 32.9488 8.38441 32.2148 8.44059 31.4676C8.96427 32.132 9.53949 32.754 10.1602 33.3273C9.47144 33.4008 8.79474 33.5146 8.13255 33.6666ZM7.34787 36.3451C7.49039 35.9737 7.62046 35.5961 7.73758 35.2129C9.02335 34.8544 10.3749 34.6536 11.77 34.6326C13.7892 36.0643 16.1549 37.0396 18.7166 37.408L18.7756 37.407C17.857 38.1974 17.0223 39.0828 16.2869 40.0478L7.34787 36.3451ZM8.48981 11.6987C8.48981 10.3762 8.34132 9.08839 8.06008 7.85102C9.3299 8.14812 10.6536 8.30524 12.014 8.30524C12.2301 8.30524 12.4454 8.30128 12.6596 8.29341C11.0171 9.37882 9.59543 10.7713 8.47628 12.3892C8.48528 12.1601 8.48981 11.9299 8.48981 11.6987ZM7.62692 6.29015C7.55438 6.0697 7.47751 5.85121 7.39643 5.63478L16.5621 1.83824C17.4869 2.98908 18.556 4.01902 19.7419 4.90061C17.4545 6.17658 14.8191 6.90364 12.014 6.90364C10.4921 6.90364 9.02033 6.68966 7.62692 6.29015ZM42 21L40.7581 23.9982C39.6686 23.1065 38.6997 22.0729 37.8797 20.9256C38.6881 19.7945 39.6413 18.7739 40.7121 17.8908L42 21ZM34.273 35.1994C34.3906 35.5855 34.5214 35.9658 34.6648 36.3399L25.7582 40.0291C25.0036 39.0417 24.1451 38.138 23.1988 37.3344L23.8352 37.3239C26.1963 36.904 28.3784 35.9662 30.2597 34.6321C31.6477 34.6505 32.9927 34.8468 34.273 35.1994ZM31.8719 33.3245C32.5539 33.3961 33.224 33.5073 33.8799 33.6559C33.734 32.9468 33.6316 32.222 33.5754 31.4842C33.0561 32.1413 32.4863 32.7566 31.8719 33.3245ZM33.5252 30.2514L33.5249 30.1715L33.5057 30.1978L33.5252 30.2514ZM35.0638 21.6732L30.5601 19.1432L26.5395 22.9064L22.2859 7.20728C27.5789 7.64621 32.0336 11.0384 33.998 15.7319C34.1918 16.5427 34.4428 17.3314 34.7464 18.0934C34.9614 19.067 35.0747 20.0787 35.0747 21.1169C35.0747 21.3032 35.0711 21.4887 35.0638 21.6732ZM19.7604 7.22408L15.9707 22.9064L10.7256 19.1432L7.16887 21.6488C7.16226 21.4723 7.15892 21.295 7.15892 21.1169C7.15892 13.8658 12.6882 7.90612 19.7604 7.22408ZM34.9265 30.1532C34.9265 29.1778 35.0144 28.223 35.1827 27.2962C35.6656 26.1986 36.0238 25.0336 36.2393 23.8194C36.4843 23.2565 36.7609 22.7106 37.0669 22.1839C37.9712 23.3676 39.0249 24.4309 40.1999 25.3459L36.4303 34.4464C36.097 34.3139 35.7585 34.1914 35.4154 34.0794C35.0962 32.8236 34.9265 31.5082 34.9265 30.1532ZM35.3366 15.3C35.649 16.0628 35.9017 16.8563 36.0891 17.6748C36.3693 18.3644 36.6966 19.0299 37.0669 19.6673C37.9593 18.4993 38.9971 17.4484 40.1533 16.5417L36.2644 7.15294C36.015 7.24913 35.7628 7.33971 35.5079 7.42451C35.129 8.78426 34.9265 10.2175 34.9265 11.6981C34.9265 12.9369 35.0683 14.1427 35.3366 15.3ZM29.5827 8.29917C31.1117 9.31108 32.4491 10.5893 33.5288 12.0676C33.5262 11.9447 33.5249 11.8215 33.5249 11.6981C33.5249 10.3797 33.6725 9.09582 33.952 7.86202C32.6966 8.15199 31.3889 8.30524 30.0454 8.30524C29.8907 8.30524 29.7365 8.30321 29.5827 8.29917ZM34.3829 6.30427C34.4563 6.08079 34.534 5.85933 34.6161 5.63997L25.4825 1.85669C24.5611 3.00009 23.4971 4.02374 22.3175 4.90061C24.6049 6.17658 27.2403 6.90364 30.0454 6.90364C31.5492 6.90364 33.0042 6.6947 34.3829 6.30427ZM24.4141 40.5858L21 42L17.6305 40.6043C18.6017 39.3896 19.7474 38.3205 21.0297 37.4351C22.3055 38.316 23.4461 39.3787 24.4141 40.5858ZM24.1277 1.29554C23.2237 2.36001 22.1818 3.30378 21.0297 4.09928C19.871 3.29924 18.8239 2.34925 17.9162 1.27733L21 0L24.1277 1.29554Z" fill="#FFEFD7"/>
<path d="M29.4349 28.2212L24.4541 23.0152L21.1335 10L17.8129 23.0152L12.832 28.2212L17.5495 32.0503L21.1335 36.898L24.7788 32.0503L29.4349 28.2212Z" fill="#883CFF"/>
<path d="M29.4306 28.2212L24.4498 23.0152L21.1292 10L17.8086 23.0152L21.1292 28.2212V36.898L24.7744 32.0823L29.4306 28.2212Z" fill="#6723E2"/>
<path d="M24.4534 23.0413L21.1328 28.2211H29.4343L24.4534 23.0413Z" fill="#883CFF"/>
<path d="M12.832 28.2212L21.1335 28.2212V36.9998L17.5801 32.0822L12.832 28.2212Z" fill="#FDA0FF"/>
<path d="M17.8122 23.0415L21.1328 10L21.1328 28.2377L17.8122 23.0415Z" fill="#FDA0FF"/>
<path d="M17.8116 23.0415L21.0345 27.932L21.1321 10L21.2298 27.932L24.4527 23.0415L21.4251 27.932L29.4336 28.2377H21.4251L24.7774 32.0503L21.2298 28.4415L21.1321 36.9999L21.0345 28.4415L17.5481 32.0503L20.8391 28.2377H12.9283L20.8391 27.932L17.8116 23.0415Z" fill="#FFDCFF"/>
<g filter="url(#filter0_f_397_5757)">
<path d="M17.8116 23.0415L21.0345 27.932L21.1321 10L21.2298 27.932L24.4527 23.0415L21.4251 27.932L29.4336 28.2377H21.4251L24.8081 32.0503L21.2298 28.4415L21.1321 36.9999L21.0345 28.4415L17.5481 32.0503L20.8391 28.2377H12.9283L20.8391 27.932L17.8116 23.0415Z" fill="white"/>
</g>
<defs>
<filter id="filter0_f_397_5757" x="12.2795" y="9.35126" width="17.8029" height="28.2974" filterUnits="userSpaceOnUse" color-interpolation-filters="sRGB">
<feFlood flood-opacity="0" result="BackgroundImageFix"/>
<feBlend mode="normal" in="SourceGraphic" in2="BackgroundImageFix" result="shape"/>
<feGaussianBlur stdDeviation="0.32437" result="effect1_foregroundBlur_397_5757"/>
</filter>
</defs>
</svg>
