<svg width="30" height="30" viewBox="0 0 30 30" fill="none" xmlns="http://www.w3.org/2000/svg">
<path fill-rule="evenodd" clip-rule="evenodd" d="M9.52174 11C9.23359 11 9 11.2239 9 11.5C9 11.7761 9.23359 12 9.52174 12H14.9988H20.4783C20.7664 12 21 11.7761 21 11.5C21 11.2239 20.7664 11 20.4783 11H14.9988H9.52174ZM9 14.9999C9 14.7238 9.23359 14.4999 9.52174 14.4999H15H20.4783C20.7664 14.4999 21 14.7238 21 14.9999C21 15.2761 20.7664 15.4999 20.4783 15.4999H15H9.52174C9.23359 15.4999 9 15.2761 9 14.9999ZM9 18.5C9 18.2239 9.23359 18 9.52174 18H15H20.4783C20.7664 18 21 18.2239 21 18.5C21 18.7761 20.7664 19 20.4783 19H15H9.52174C9.23359 19 9 18.7761 9 18.5Z" fill="#FFF7EB"/>
<rect x="0.5" y="0.5" width="29" height="28.583" rx="8.5" stroke="#FFF7EB"/>
</svg>
