<svg width="306" height="38" viewBox="0 0 306 38" fill="none" xmlns="http://www.w3.org/2000/svg">
<g filter="url(#filter0_i_1400_899)">
<path d="M306 9.31312C306 4.16963 301.83 0 296.687 0H267.751H252.157H236.563H231.855L229.977 0L210.376 0H191.252H153.002H9.31747C4.17398 0 0.00436401 4.16963 0.00436401 9.31312V9.5V11.4792V13.2174V28.6869C0.00436401 33.8304 4.17401 38 9.3175 38H38.8423H43.5499H56.4959H77.6802H89.4492H108.28H116.518H125.639H134.76H136.869H138.213H139.218H143.881H153.002H171.833H174.513L194.194 37.587H199.789H205.973H207.856H210.082H229.501H244.801H267.162H271.917H275.4L296.561 37.8726C301.753 37.9427 306 33.753 306 28.5603V9.31312Z" fill="url(#paint0_linear_1400_899)"/>
</g>
<path d="M194.186 37.199V37.1989H194.194H199.789H205.973H207.856H210.082H229.501H244.801H267.162H271.917L275.4 37.1989L275.406 37.1989L296.566 37.4846C301.542 37.5517 305.612 33.5366 305.612 28.5603V9.31312C305.612 4.38394 301.616 0.388047 296.687 0.388047H267.751H252.157H236.563H231.855H229.977H210.376H191.252H153.002H9.31747C4.38831 0.388047 0.392426 4.38394 0.392426 9.31312V9.5V11.4792V13.2174V28.6869C0.392426 33.6161 4.38834 37.612 9.3175 37.612H38.8423H43.5499H56.4959H77.6802H89.4492H108.28H116.518H125.639H134.76H136.869H138.213H139.218H143.881H153.002H171.833H174.509H174.513L194.186 37.199Z" stroke="url(#paint1_linear_1400_899)" stroke-width="0.776093"/>
<defs>
<filter id="filter0_i_1400_899" x="0.00390625" y="0" width="305.996" height="38" filterUnits="userSpaceOnUse" color-interpolation-filters="sRGB">
<feFlood flood-opacity="0" result="BackgroundImageFix"/>
<feBlend mode="normal" in="SourceGraphic" in2="BackgroundImageFix" result="shape"/>
<feColorMatrix in="SourceAlpha" type="matrix" values="0 0 0 0 0 0 0 0 0 0 0 0 0 0 0 0 0 0 127 0" result="hardAlpha"/>
<feOffset dy="-0.776093"/>
<feComposite in2="hardAlpha" operator="arithmetic" k2="-1" k3="1"/>
<feColorMatrix type="matrix" values="0 0 0 0 0.129412 0 0 0 0 0.129412 0 0 0 0 0.129412 0 0 0 1 0"/>
<feBlend mode="normal" in2="shape" result="effect1_innerShadow_1400_899"/>
</filter>
<linearGradient id="paint0_linear_1400_899" x1="28.2501" y1="2.56475e-06" x2="89.0798" y2="204.313" gradientUnits="userSpaceOnUse">
<stop stop-color="#1B1B1B"/>
<stop offset="1" stop-color="#6B534C"/>
</linearGradient>
<linearGradient id="paint1_linear_1400_899" x1="178.894" y1="2.11339e-07" x2="178.894" y2="38" gradientUnits="userSpaceOnUse">
<stop stop-color="#908694"/>
<stop offset="0.677092" stop-color="white" stop-opacity="0"/>
</linearGradient>
</defs>
</svg>
