<svg width="308" height="39" viewBox="0 0 308 39" fill="none" xmlns="http://www.w3.org/2000/svg">
<g style="mix-blend-mode:luminosity">
<g filter="url(#filter0_i_1400_901)">
<path d="M307.023 9.31605C307.023 4.17255 302.854 0.00292969 297.71 0.00292969H268.646H252.999H237.353H232.629L230.745 0.00292969L211.079 0.00292969H191.89H153.512H9.3139C4.17041 0.00292969 0.000762939 4.17256 0.000762939 9.31605V9.50293V11.4821V13.2203V28.6898C0.000762939 33.8333 4.17038 38.0029 9.31387 38.0029H38.969H43.6924H56.6819H77.9373H89.7458H108.64H116.906H126.057H135.209H137.325H138.674H139.681H144.36H153.512H172.406H175.095L194.842 37.5899H200.456H206.661H208.55H210.784H230.268H245.619H268.055H272.826H276.321L297.585 37.876C302.777 37.9458 307.023 33.7562 307.023 28.5637V9.31605Z" fill="url(#paint0_linear_1400_901)"/>
</g>
<path d="M194.834 37.2019V37.2018H194.842H200.456H206.661H208.55H210.784H230.268H245.619H268.055H272.826L276.321 37.2018L276.326 37.2019L297.59 37.4879C302.566 37.5549 306.635 33.5398 306.635 28.5637V9.31605C306.635 4.38687 302.639 0.390976 297.71 0.390976H268.646H252.999H237.353H232.629H230.745H211.079H191.89H153.512H9.3139C4.38474 0.390976 0.388824 4.38687 0.388824 9.31605V9.50293V11.4821V13.2203V28.6898C0.388824 33.619 4.3847 37.6149 9.31387 37.6149H38.969H43.6924H56.6819H77.9373H89.7458H108.64H116.906H126.057H135.209H137.325H138.674H139.681H144.36H153.512H172.406H175.091H175.095L194.834 37.2019Z" stroke="url(#paint1_linear_1400_901)" stroke-width="0.776093"/>
<g filter="url(#filter1_i_1400_901)">
<path d="M119.234 23.8189C118.874 23.8189 118.412 23.7829 117.848 23.7109C117.908 23.0869 117.956 22.2529 117.992 21.2089C118.028 20.1529 118.046 19.1869 118.046 18.3109C118.046 17.8069 118.034 17.2309 118.01 16.5829L117.992 16.1509C116.54 16.1629 115.634 16.2409 115.274 16.3849C115.214 15.8809 115.184 15.4789 115.184 15.1789C115.184 14.9149 115.214 14.6029 115.274 14.2429C115.778 14.2909 116.45 14.3329 117.29 14.3689C118.13 14.3929 118.928 14.4049 119.684 14.4049C121.52 14.4049 122.648 14.3269 123.068 14.1709C123.128 14.6149 123.158 14.9629 123.158 15.2149C123.158 15.5869 123.128 15.9529 123.068 16.3129C122.264 16.2409 121.37 16.1989 120.386 16.1869C120.326 17.3869 120.296 18.5329 120.296 19.6249C120.296 21.8449 120.392 23.2069 120.584 23.7109C120.284 23.7829 119.834 23.8189 119.234 23.8189ZM128.272 23.9449C127.396 23.9449 126.622 23.7529 125.95 23.3689C125.278 22.9729 124.756 22.4269 124.384 21.7309C124.012 21.0349 123.826 20.2309 123.826 19.3189C123.826 18.2989 124.048 17.3929 124.492 16.6009C124.936 15.8089 125.554 15.1909 126.346 14.7469C127.15 14.3029 128.062 14.0809 129.082 14.0809C129.994 14.0809 130.792 14.2789 131.476 14.6749C132.172 15.0709 132.712 15.6289 133.096 16.3489C133.48 17.0569 133.672 17.8789 133.672 18.8149C133.672 19.8109 133.444 20.6989 132.988 21.4789C132.532 22.2469 131.89 22.8529 131.062 23.2969C130.246 23.7289 129.316 23.9449 128.272 23.9449ZM128.686 22.6489C129.466 22.6489 130.084 22.3789 130.54 21.8389C131.008 21.2869 131.242 20.5489 131.242 19.6249C131.242 18.7369 131.038 17.9749 130.63 17.3389C130.222 16.7029 129.676 16.3009 128.992 16.1329C128.476 16.1329 128.008 16.2769 127.588 16.5649C127.168 16.8409 126.838 17.2309 126.598 17.7349C126.37 18.2389 126.256 18.8089 126.256 19.4449C126.256 20.4049 126.478 21.1789 126.922 21.7669C127.366 22.3549 127.954 22.6489 128.686 22.6489ZM136.684 23.8189C136.252 23.8189 135.766 23.7829 135.226 23.7109C135.286 23.1229 135.334 22.3249 135.37 21.3169C135.406 20.2969 135.424 19.3429 135.424 18.4549C135.424 16.3909 135.328 15.1129 135.136 14.6209C135.544 14.4769 136.09 14.3629 136.774 14.2789C137.47 14.1829 138.172 14.1349 138.88 14.1349C140.176 14.1349 141.166 14.4109 141.85 14.9629C142.546 15.5029 142.894 16.2829 142.894 17.3029C142.894 17.8789 142.738 18.3949 142.426 18.8509C142.114 19.3069 141.676 19.6789 141.112 19.9669C142.024 21.7789 142.774 22.9369 143.362 23.4409C142.57 23.6929 141.616 23.8189 140.5 23.8189C140.164 23.0149 139.612 21.8989 138.844 20.4709C138.388 20.4709 137.998 20.4469 137.674 20.3989C137.71 22.1629 137.806 23.2669 137.962 23.7109C137.554 23.7829 137.128 23.8189 136.684 23.8189ZM139.366 19.1929C139.702 19.0009 139.966 18.7609 140.158 18.4729C140.362 18.1729 140.464 17.8309 140.464 17.4469C140.464 16.2589 139.81 15.6649 138.502 15.6649C138.226 15.6649 137.986 15.6889 137.782 15.7369C137.734 16.6129 137.698 17.6509 137.674 18.8509C138.382 19.0789 138.946 19.1929 139.366 19.1929ZM145.388 23.8189C145.124 23.8189 144.8 23.7829 144.416 23.7109C144.512 22.4869 144.56 20.7349 144.56 18.4549C144.56 16.2229 144.494 14.8129 144.362 14.2249C144.674 14.1529 145.1 14.1169 145.64 14.1169C146.036 14.1169 146.534 14.1529 147.134 14.2249C147.506 14.9569 148.064 15.9889 148.808 17.3209C149.564 18.6529 150.29 19.9009 150.986 21.0649C151.01 19.8649 151.022 18.9469 151.022 18.3109C151.022 16.0789 150.956 14.7169 150.824 14.2249C151.088 14.1529 151.352 14.1169 151.616 14.1169C151.904 14.1169 152.234 14.1529 152.606 14.2249C152.51 15.7609 152.462 17.5129 152.462 19.4809C152.462 21.7129 152.528 23.1229 152.66 23.7109C152.24 23.7829 151.814 23.8189 151.382 23.8189C150.914 23.8189 150.41 23.7829 149.87 23.7109C149.522 23.0029 148.976 21.9949 148.232 20.6869C147.488 19.3669 146.75 18.0949 146.018 16.8709C145.994 18.0709 145.982 18.9889 145.982 19.6249C145.982 21.7849 146.048 23.1469 146.18 23.7109C145.928 23.7829 145.664 23.8189 145.388 23.8189ZM154.369 23.7649C154.501 22.0009 154.567 20.2309 154.567 18.4549C154.567 16.1629 154.471 14.7529 154.279 14.2249C154.711 14.1529 155.155 14.1169 155.611 14.1169C156.007 14.1169 156.475 14.1529 157.015 14.2249C156.955 14.8369 156.907 15.6649 156.871 16.7089C156.835 17.7409 156.817 18.7129 156.817 19.6249C156.817 20.5609 156.835 21.3289 156.871 21.9289C157.495 22.0009 158.005 22.0369 158.401 22.0369C158.857 22.0369 159.313 21.9949 159.769 21.9109C160.237 21.8269 160.627 21.7069 160.939 21.5509C160.939 21.9469 160.903 22.3729 160.831 22.8289C160.759 23.2849 160.669 23.5969 160.561 23.7649C159.853 23.6809 158.863 23.6389 157.591 23.6389C156.151 23.6389 155.077 23.6809 154.369 23.7649ZM166.03 23.9449C165.154 23.9449 164.38 23.7529 163.708 23.3689C163.036 22.9729 162.514 22.4269 162.142 21.7309C161.77 21.0349 161.584 20.2309 161.584 19.3189C161.584 18.2989 161.806 17.3929 162.25 16.6009C162.694 15.8089 163.312 15.1909 164.104 14.7469C164.908 14.3029 165.82 14.0809 166.84 14.0809C167.752 14.0809 168.55 14.2789 169.234 14.6749C169.93 15.0709 170.47 15.6289 170.854 16.3489C171.238 17.0569 171.43 17.8789 171.43 18.8149C171.43 19.8109 171.202 20.6989 170.746 21.4789C170.29 22.2469 169.648 22.8529 168.82 23.2969C168.004 23.7289 167.074 23.9449 166.03 23.9449ZM166.444 22.6489C167.224 22.6489 167.842 22.3789 168.298 21.8389C168.766 21.2869 169 20.5489 169 19.6249C169 18.7369 168.796 17.9749 168.388 17.3389C167.98 16.7029 167.434 16.3009 166.75 16.1329C166.234 16.1329 165.766 16.2769 165.346 16.5649C164.926 16.8409 164.596 17.2309 164.356 17.7349C164.128 18.2389 164.014 18.8089 164.014 19.4449C164.014 20.4049 164.236 21.1789 164.68 21.7669C165.124 22.3549 165.712 22.6489 166.444 22.6489ZM174.442 23.8189C174.01 23.8189 173.524 23.7829 172.984 23.7109C173.044 23.1229 173.092 22.3249 173.128 21.3169C173.164 20.2969 173.182 19.3429 173.182 18.4549C173.182 16.3909 173.086 15.1129 172.894 14.6209C173.302 14.4769 173.848 14.3629 174.532 14.2789C175.228 14.1829 175.93 14.1349 176.638 14.1349C177.934 14.1349 178.924 14.4109 179.608 14.9629C180.304 15.5029 180.652 16.2829 180.652 17.3029C180.652 17.8789 180.496 18.3949 180.184 18.8509C179.872 19.3069 179.434 19.6789 178.87 19.9669C179.782 21.7789 180.532 22.9369 181.12 23.4409C180.328 23.6929 179.374 23.8189 178.258 23.8189C177.922 23.0149 177.37 21.8989 176.602 20.4709C176.146 20.4709 175.756 20.4469 175.432 20.3989C175.468 22.1629 175.564 23.2669 175.72 23.7109C175.312 23.7829 174.886 23.8189 174.442 23.8189ZM177.124 19.1929C177.46 19.0009 177.724 18.7609 177.916 18.4729C178.12 18.1729 178.222 17.8309 178.222 17.4469C178.222 16.2589 177.568 15.6649 176.26 15.6649C175.984 15.6649 175.744 15.6889 175.54 15.7369C175.492 16.6129 175.456 17.6509 175.432 18.8509C176.14 19.0789 176.704 19.1929 177.124 19.1929ZM185.774 23.8189C185.186 23.8189 184.574 23.7889 183.938 23.7289C183.302 23.6809 182.756 23.6149 182.3 23.5309C182.36 22.9549 182.408 22.1689 182.444 21.1729C182.48 20.1649 182.498 19.2109 182.498 18.3109C182.498 16.3189 182.402 15.0889 182.21 14.6209C182.642 14.4769 183.218 14.3629 183.938 14.2789C184.658 14.1829 185.39 14.1349 186.134 14.1349C187.814 14.1349 189.104 14.5489 190.004 15.3769C190.904 16.2049 191.354 17.3869 191.354 18.9229C191.354 19.8829 191.12 20.7349 190.652 21.4789C190.184 22.2109 189.524 22.7869 188.672 23.2069C187.832 23.6149 186.866 23.8189 185.774 23.8189ZM186.62 22.5409C187.04 22.4689 187.424 22.2709 187.772 21.9469C188.132 21.6109 188.414 21.2029 188.618 20.7229C188.822 20.2429 188.924 19.7509 188.924 19.2469C188.924 16.8589 187.868 15.6649 185.756 15.6649C185.42 15.6649 185.12 15.7069 184.856 15.7909C184.784 16.9069 184.748 18.1849 184.748 19.6249C184.748 20.6689 184.766 21.5269 184.802 22.1989C185.558 22.4269 186.164 22.5409 186.62 22.5409Z" fill="#FFEFD7"/>
</g>
</g>
<defs>
<filter id="filter0_i_1400_901" x="0.000976562" y="0.00292969" width="307.022" height="38" filterUnits="userSpaceOnUse" color-interpolation-filters="sRGB">
<feFlood flood-opacity="0" result="BackgroundImageFix"/>
<feBlend mode="normal" in="SourceGraphic" in2="BackgroundImageFix" result="shape"/>
<feColorMatrix in="SourceAlpha" type="matrix" values="0 0 0 0 0 0 0 0 0 0 0 0 0 0 0 0 0 0 127 0" result="hardAlpha"/>
<feOffset dy="-0.776093"/>
<feComposite in2="hardAlpha" operator="arithmetic" k2="-1" k3="1"/>
<feColorMatrix type="matrix" values="0 0 0 0 0.129412 0 0 0 0 0.129412 0 0 0 0 0.129412 0 0 0 1 0"/>
<feBlend mode="normal" in2="shape" result="effect1_innerShadow_1400_901"/>
</filter>
<filter id="filter1_i_1400_901" x="115.185" y="14.0811" width="76.1699" height="9.86426" filterUnits="userSpaceOnUse" color-interpolation-filters="sRGB">
<feFlood flood-opacity="0" result="BackgroundImageFix"/>
<feBlend mode="normal" in="SourceGraphic" in2="BackgroundImageFix" result="shape"/>
<feColorMatrix in="SourceAlpha" type="matrix" values="0 0 0 0 0 0 0 0 0 0 0 0 0 0 0 0 0 0 127 0" result="hardAlpha"/>
<feOffset dy="0.776093"/>
<feComposite in2="hardAlpha" operator="arithmetic" k2="-1" k3="1"/>
<feColorMatrix type="matrix" values="0 0 0 0 0 0 0 0 0 0 0 0 0 0 0 0 0 0 0.65 0"/>
<feBlend mode="normal" in2="shape" result="effect1_innerShadow_1400_901"/>
</filter>
<linearGradient id="paint0_linear_1400_901" x1="28.3413" y1="0.00293225" x2="89.0005" y2="204.427" gradientUnits="userSpaceOnUse">
<stop stop-color="#1B1B1B"/>
<stop offset="1" stop-color="#6B534C"/>
</linearGradient>
<linearGradient id="paint1_linear_1400_901" x1="179.491" y1="0.0029299" x2="179.491" y2="38.0029" gradientUnits="userSpaceOnUse">
<stop stop-color="#908694"/>
<stop offset="0.677092" stop-color="white" stop-opacity="0"/>
</linearGradient>
</defs>
</svg>
