<svg width="220" height="88" viewBox="0 0 220 88" fill="none" xmlns="http://www.w3.org/2000/svg">
<g filter="url(#filter0_d_397_3426)">
<g clip-path="url(#clip0_397_3426)">
<rect x="20" y="16" width="440" height="170" rx="5.16035" fill="#644C46"/>
<path d="M55.7254 49.288C55.0427 49.288 54.456 48.968 53.9654 48.328C53.4747 47.6667 53.048 46.8347 52.6854 45.832C52.344 44.8293 51.9067 43.4 51.3734 41.544C50.7974 39.5173 50.2854 37.8427 49.8374 36.52C49.4107 35.176 48.888 33.8747 48.2694 32.616C49.4854 32.168 50.7974 31.944 52.2054 31.944C52.312 32.8827 52.5467 34.184 52.9094 35.848C53.272 37.4907 53.6667 39.1013 54.0934 40.68C54.7974 42.9413 55.4374 44.7227 56.0134 46.024C57.848 40.4773 59.0107 36.6373 59.5014 34.504L58.6694 32.616C59.8427 32.168 61.1547 31.944 62.6054 31.944C62.7334 32.8613 62.9787 34.152 63.3414 35.816C63.704 37.48 64.088 39.1013 64.4934 40.68C65.2614 43.112 65.8907 44.8933 66.3814 46.024C67.7894 41.7787 68.7707 38.6853 69.3254 36.744C69.9014 34.7813 70.1894 33.4373 70.1894 32.712C70.1894 32.5627 70.168 32.424 70.1254 32.296C70.9787 32.0613 71.928 31.944 72.9734 31.944C72.2267 33.864 71.2987 36.456 70.1894 39.72C69.1014 42.984 68.1947 45.7893 67.4694 48.136L66.1254 49.288C65.4427 49.288 64.856 48.968 64.3654 48.328C63.8747 47.688 63.448 46.8667 63.0854 45.864C62.7227 44.84 62.2854 43.4 61.7734 41.544C61.3894 40.0933 60.9947 38.7387 60.5894 37.48C59.7787 39.8693 58.6054 43.4213 57.0694 48.136L55.7254 49.288ZM77.2366 49.352C76.4686 49.352 75.818 49.0747 75.2846 48.52C74.7726 47.944 74.5166 47.2187 74.5166 46.344C74.5166 43.7627 77.034 42.312 82.0686 41.992C82.0686 40.584 81.866 39.6027 81.4606 39.048C81.0553 38.4933 80.3086 38.216 79.2206 38.216C78.5593 38.216 77.8873 38.3227 77.2046 38.536C76.5433 38.7493 75.9353 39.0373 75.3806 39.4L75.1246 38.792C75.7006 37.8533 76.4793 37.096 77.4606 36.52C78.442 35.9227 79.4446 35.624 80.4686 35.624C81.8553 35.624 82.922 35.9973 83.6686 36.744C84.4153 37.4693 84.7886 38.5253 84.7886 39.912C84.7886 40.68 84.7353 41.544 84.6286 42.504C84.5433 43.528 84.5006 44.2853 84.5006 44.776C84.5006 45.5867 84.586 46.216 84.7566 46.664C84.9273 47.112 85.258 47.6027 85.7486 48.136C84.9593 48.8187 84.0953 49.224 83.1566 49.352C82.5806 48.968 82.1753 48.3813 81.9406 47.592C81.1726 48.1253 80.3726 48.552 79.5406 48.872C78.7086 49.192 77.9406 49.352 77.2366 49.352ZM78.5166 47.816C79.05 47.7733 79.6153 47.624 80.2126 47.368C80.81 47.112 81.3433 46.8027 81.8126 46.44V46.28C81.8126 45.5973 81.8446 44.936 81.9086 44.296L82.0046 42.92C80.554 43.0053 79.434 43.3147 78.6446 43.848C77.8553 44.36 77.4606 45.0533 77.4606 45.928C77.4606 46.2907 77.5566 46.6533 77.7486 47.016C77.9406 47.3573 78.1966 47.624 78.5166 47.816ZM91.3654 49.288C90.7254 49.288 90.2774 49.1067 90.0214 48.744C89.7654 48.36 89.6374 47.6667 89.6374 46.664C89.6374 46.0027 89.6587 44.9467 89.7014 43.496C89.744 41.8747 89.7654 40.5413 89.7654 39.496C89.7654 36.0613 89.5627 33.608 89.1574 32.136C89.7547 31.9013 90.32 31.7413 90.8534 31.656C91.408 31.5493 92.016 31.496 92.6774 31.496C92.4214 34.1413 92.2934 37.928 92.2934 42.856C92.2934 44.008 92.3254 44.904 92.3894 45.544C92.4747 46.1627 92.6027 46.6533 92.7734 47.016C92.944 47.3787 93.2107 47.752 93.5734 48.136C93.232 48.52 92.8587 48.808 92.4534 49C92.048 49.192 91.6854 49.288 91.3654 49.288ZM99.2091 49.288C98.5691 49.288 98.1211 49.1067 97.8651 48.744C97.6091 48.36 97.4811 47.6667 97.4811 46.664C97.4811 46.0027 97.5025 44.9467 97.5451 43.496C97.5878 41.8747 97.6091 40.5413 97.6091 39.496C97.6091 36.0613 97.4065 33.608 97.0011 32.136C97.5985 31.9013 98.1638 31.7413 98.6971 31.656C99.2518 31.5493 99.8598 31.496 100.521 31.496C100.265 34.1413 100.137 37.928 100.137 42.856C100.137 44.008 100.169 44.904 100.233 45.544C100.318 46.1627 100.446 46.6533 100.617 47.016C100.788 47.3787 101.054 47.752 101.417 48.136C101.076 48.52 100.702 48.808 100.297 49C99.8918 49.192 99.5291 49.288 99.2091 49.288ZM109.453 49.352C107.746 49.352 106.434 48.7973 105.517 47.688C104.621 46.5573 104.173 44.9573 104.173 42.888C104.173 41.48 104.45 40.232 105.005 39.144C105.56 38.0347 106.328 37.1707 107.309 36.552C108.312 35.9333 109.453 35.624 110.733 35.624C112.44 35.624 113.73 36.1893 114.605 37.32C115.501 38.4293 115.949 40.072 115.949 42.248C114.818 42.5253 113.453 42.7707 111.853 42.984C110.253 43.176 108.674 43.2933 107.117 43.336C107.245 44.6373 107.597 45.5867 108.173 46.184C108.77 46.76 109.634 47.048 110.765 47.048C111.64 47.048 112.461 46.952 113.229 46.76C114.018 46.5467 114.69 46.2587 115.245 45.896L115.469 46.504C114.808 47.3573 113.922 48.0507 112.813 48.584C111.725 49.096 110.605 49.352 109.453 49.352ZM107.053 42.312C108.12 42.2053 109.165 42.0347 110.189 41.8C111.213 41.544 112.024 41.2667 112.621 40.968C112.6 39.8373 112.269 38.9093 111.629 38.184C111.01 37.4587 110.21 37.096 109.229 37.096C108.568 37.48 108.034 38.1413 107.629 39.08C107.245 40.0187 107.053 41.096 107.053 42.312ZM122.293 49.288C121.546 49.288 121.023 49.1067 120.725 48.744C120.426 48.36 120.277 47.6987 120.277 46.76C120.277 46.0987 120.298 45.0213 120.341 43.528C120.383 41.9067 120.405 40.5627 120.405 39.496C120.405 38.984 120.383 38.4933 120.341 38.024C119.487 38.024 118.911 37.9707 118.613 37.864C118.335 37.736 118.197 37.5227 118.197 37.224C119.583 36.4347 120.895 35.3573 122.133 33.992L122.901 34.088C122.986 34.8133 123.039 35.56 123.061 36.328C124.49 36.3067 125.535 36.2213 126.197 36.072C126.197 36.52 126.154 36.9147 126.069 37.256C125.983 37.5973 125.845 37.9493 125.653 38.312C125.034 38.0773 124.149 37.9493 122.997 37.928C122.933 38.888 122.901 39.8907 122.901 40.936C122.901 43.56 123.061 45.5547 123.381 46.92C124.362 46.856 125.151 46.7387 125.749 46.568L125.941 47.304C125.557 47.9013 125.023 48.3813 124.341 48.744C123.658 49.1067 122.975 49.288 122.293 49.288Z" fill="#FFEFD7"/>
</g>
<path d="M20.5 28C20.5 21.6487 25.6487 16.5 32 16.5H188C194.351 16.5 199.5 21.6487 199.5 28V52C199.5 58.3513 194.351 63.5 188 63.5H32C25.6487 63.5 20.5 58.3513 20.5 52V28Z" stroke="url(#paint0_linear_397_3426)" shape-rendering="crispEdges"/>
</g>
<path d="M160.218 30.3041L160.758 29.7639C161.247 29.2748 161.911 29 162.602 29H179.127C181.287 29 183.039 30.7515 183.039 32.9121L183.039 45.5242C183.039 46.2159 182.764 46.8793 182.275 47.3684L181.735 47.9085V33.5641C181.735 31.7636 180.275 30.3041 178.475 30.3041H160.218Z" fill="#FFEFD7"/>
<path fill-rule="evenodd" clip-rule="evenodd" d="M159.556 31.6066C158.115 31.6066 156.948 32.7743 156.948 34.2147V36.1705L166.58 36.1704C167.38 36.1704 168.029 36.7932 168.029 37.5614V45.2118C168.029 45.98 167.38 46.6027 166.58 46.6027H156.948V48.5591C156.948 49.9995 158.115 51.1671 159.556 51.1671H177.812C179.253 51.1671 180.42 49.9995 180.42 48.5591V34.2146C180.42 32.7742 179.253 31.6065 177.812 31.6065L159.556 31.6066Z" fill="#FFEFD7"/>
<path fill-rule="evenodd" clip-rule="evenodd" d="M156.159 37.4724C155.519 37.4724 155 37.9395 155 38.5157V44.2534C155 44.8296 155.519 45.2966 156.159 45.2966H165.577C166.217 45.2966 166.736 44.8296 166.736 44.2534V38.5156C166.736 37.9395 166.217 37.4724 165.577 37.4724L156.159 37.4724ZM162.821 42.6894C163.541 42.6894 164.125 42.1056 164.125 41.3854C164.125 40.6652 163.541 40.0814 162.821 40.0814C162.101 40.0814 161.517 40.6652 161.517 41.3854C161.517 42.1056 162.101 42.6894 162.821 42.6894Z" fill="#FFEFD7"/>
<defs>
<filter id="filter0_d_397_3426" x="0" y="0" width="220" height="88" filterUnits="userSpaceOnUse" color-interpolation-filters="sRGB">
<feFlood flood-opacity="0" result="BackgroundImageFix"/>
<feColorMatrix in="SourceAlpha" type="matrix" values="0 0 0 0 0 0 0 0 0 0 0 0 0 0 0 0 0 0 127 0" result="hardAlpha"/>
<feOffset dy="4"/>
<feGaussianBlur stdDeviation="10"/>
<feComposite in2="hardAlpha" operator="out"/>
<feColorMatrix type="matrix" values="0 0 0 0 0 0 0 0 0 0 0 0 0 0 0 0 0 0 0.25 0"/>
<feBlend mode="normal" in2="BackgroundImageFix" result="effect1_dropShadow_397_3426"/>
<feBlend mode="normal" in="SourceGraphic" in2="effect1_dropShadow_397_3426" result="shape"/>
</filter>
<linearGradient id="paint0_linear_397_3426" x1="116.5" y1="63.5" x2="116.5" y2="16" gradientUnits="userSpaceOnUse">
<stop stop-color="#1F1F1F"/>
<stop offset="1" stop-color="#908694"/>
</linearGradient>
<clipPath id="clip0_397_3426">
<path d="M20 28C20 21.3726 25.3726 16 32 16H188C194.627 16 200 21.3726 200 28V52C200 58.6274 194.627 64 188 64H32C25.3726 64 20 58.6274 20 52V28Z" fill="white"/>
</clipPath>
</defs>
</svg>
