<svg width="32" height="32" viewBox="0 0 32 32" fill="none" xmlns="http://www.w3.org/2000/svg">
<path fill-rule="evenodd" clip-rule="evenodd" d="M3.71053 7.63706C3.71053 7.44659 3.70688 7.25696 3.69965 7.06825L0.829894 13.9965C1.1303 14.3382 1.416 14.6932 1.68601 15.0604C2.97232 12.8851 3.71053 10.3473 3.71053 7.63706ZM1.10437 15.9661C0.881779 15.6461 0.646713 15.3353 0.399875 15.0346L0 16L0.381208 16.9203C0.634869 16.6126 0.876174 16.2942 1.10437 15.9661ZM3.69716 24.9257L0.810804 17.9575C1.1182 17.6091 1.41029 17.2469 1.68601 16.8719C2.19339 17.7299 2.61549 18.6443 2.94065 19.6035C3.01391 19.8709 3.09515 20.1349 3.1841 20.3954C3.52721 21.6368 3.71053 22.9446 3.71053 24.2952C3.71053 24.5064 3.70604 24.7167 3.69716 24.9257ZM4.50008 26.8642L4.68629 27.3137L4.82761 27.3722C5.81942 27.1745 6.84514 27.0709 7.89507 27.0709C7.98982 27.0709 8.08438 27.0717 8.17873 27.0734C6.80334 26.0976 5.61789 24.8717 4.68866 23.462C4.70318 23.7379 4.71053 24.0157 4.71053 24.2952C4.71053 25.1702 4.63851 26.0284 4.50008 26.8642ZM4.1399 20.099C5.22336 23.2483 7.52479 25.8309 10.4815 27.2842C11.8283 27.5089 13.1167 27.906 14.3233 28.4521C14.8751 28.5263 15.4383 28.5646 16.0104 28.5646C16.6058 28.5646 17.1915 28.5231 17.7648 28.4429C18.9441 27.9112 20.2013 27.5217 21.5146 27.2963C24.4419 25.8655 26.7299 23.329 27.8348 20.2308C27.9305 19.875 28.0385 19.5241 28.1583 19.1788C28.4209 18.1679 28.5607 17.1074 28.5607 16.0143C28.5607 9.08302 22.9417 3.46409 16.0104 3.46409C9.07912 3.46409 3.46019 9.08302 3.46019 16.0143C3.46019 17.1552 3.61243 18.2606 3.89771 19.3112C3.98515 19.5708 4.06595 19.8335 4.1399 20.099ZM2.46173 16.2205C2.46071 16.1519 2.46019 16.0832 2.46019 16.0143C2.46019 15.9122 2.46133 15.8103 2.46357 15.7087C2.41129 15.7951 2.35818 15.8809 2.30428 15.9661C2.35755 16.0504 2.41004 16.1351 2.46173 16.2205ZM8.78734 4.5477C7.14866 5.58211 5.74714 6.95809 4.68277 8.57564C4.70118 8.26514 4.71053 7.95219 4.71053 7.63706C4.71053 6.77898 4.64127 5.93707 4.50804 5.11663L4.68629 4.68629L5.42834 4.37892C6.23181 4.50651 7.0557 4.57278 7.89507 4.57278C8.19454 4.57278 8.49203 4.56435 8.78734 4.5477ZM32 16L31.6224 16.9116C31.3714 16.6066 31.1325 16.2912 30.9064 15.9661C31.1268 15.6492 31.3595 15.3413 31.6037 15.0434L32 16ZM27.5076 26.8456L27.3137 27.3137L27.1943 27.3632C26.2167 27.1714 25.2064 27.0709 24.1726 27.0709C24.0617 27.0709 23.9511 27.072 23.8408 27.0743C25.2114 26.1022 26.3934 24.8818 27.3212 23.4786C27.3073 23.749 27.3002 24.0213 27.3002 24.2952C27.3002 25.1638 27.3712 26.0157 27.5076 26.8456ZM28.3002 24.2952C28.3002 22.9927 28.4707 21.73 28.7907 20.5282C28.913 20.1819 29.0216 19.8292 29.1159 19.4706C29.4345 18.5598 29.8409 17.6902 30.3248 16.8719C30.5983 17.2439 30.8879 17.6033 31.1926 17.9491L28.3126 24.9022C28.3044 24.7009 28.3002 24.4985 28.3002 24.2952ZM16.0104 2.46409C15.9164 2.46409 15.8225 2.46505 15.7289 2.46696C15.8313 2.40742 15.933 2.34675 16.0338 2.28497C16.1353 2.34712 16.2376 2.40815 16.3406 2.46804C16.2309 2.46541 16.1208 2.46409 16.0104 2.46409ZM27.327 8.5588C26.263 6.94698 24.8638 5.57587 23.2288 4.54471C23.541 4.56334 23.8557 4.57278 24.1726 4.57278C24.9949 4.57278 25.8023 4.50918 26.5903 4.38663L27.3137 4.68629L27.4997 5.13528C27.3684 5.94982 27.3002 6.78546 27.3002 7.63703C27.3002 7.94648 27.3092 8.25382 27.327 8.5588ZM29.5607 16.0143C29.5607 15.918 29.5597 15.8218 29.5577 15.726C29.6066 15.8065 29.6562 15.8866 29.7065 15.9661C29.6568 16.0448 29.6077 16.1239 29.5594 16.2035C29.5602 16.1405 29.5607 16.0775 29.5607 16.0143ZM30.3248 15.0604C29.0384 12.8851 28.3002 10.3473 28.3002 7.63703C28.3002 7.45457 28.3036 7.27288 28.3102 7.09204L31.1736 14.0048C30.8758 14.344 30.5926 14.6962 30.3248 15.0604ZM15.107 1.67091C12.9794 2.88139 10.518 3.57278 7.89507 3.57278C7.72765 3.57278 7.56089 3.56997 7.39483 3.56438L14.0209 0.819774C14.3699 1.11897 14.7323 1.40303 15.107 1.67091ZM15.107 29.9727C14.7597 29.7751 14.4035 29.5914 14.0391 29.4222C12.6753 29.2234 11.3773 28.8215 10.1769 28.2481C9.43343 28.1314 8.67132 28.0709 7.89507 28.0709C7.47301 28.0709 7.05513 28.0888 6.64215 28.1239L13.7451 31.066C14.1779 30.677 14.6325 30.3119 15.107 29.9727ZM17.2681 31.4748L16 32L14.7772 31.4935C15.1783 31.1562 15.5977 30.8401 16.0338 30.5469C16.4619 30.8347 16.8738 31.1445 17.2681 31.4748ZM18.3012 31.0468C17.8748 30.665 17.4273 30.3063 16.9607 29.9727C17.315 29.7712 17.6786 29.584 18.0506 29.412C19.3804 29.2112 20.6468 28.8171 21.8204 28.2593C22.5861 28.1353 23.3718 28.0709 24.1726 28.0709C24.5755 28.0709 24.9745 28.0872 25.3692 28.1192L18.3012 31.0468ZM16.9607 1.67091C17.3275 1.40867 17.6825 1.13093 18.0247 0.838661L24.61 3.56636C24.4647 3.57063 24.3189 3.57278 24.1726 3.57278C21.5497 3.57278 19.0883 2.88139 16.9607 1.67091ZM16.9784 0.405287C16.6733 0.647966 16.3582 0.87869 16.0338 1.09675C15.7013 0.873172 15.3785 0.636283 15.0661 0.386844L16 0L16.9784 0.405287ZM21.5504 10.8199C20.5011 10.3266 19.3911 9.97608 18.2495 9.77763C18.1074 10.0359 17.9412 10.3833 17.8267 10.6597C16.5959 10.4737 15.3765 10.4737 14.1684 10.6597C14.0539 10.3834 13.884 10.0359 13.7405 9.77763C12.5979 9.97617 11.4868 10.3276 10.4371 10.8224C8.34805 13.9943 7.78174 17.0872 8.06486 20.1364C9.45043 21.176 10.7932 21.8075 12.1133 22.2208C12.4414 21.7675 12.7314 21.2876 12.9804 20.786C12.5064 20.6047 12.0494 20.3812 11.615 20.1183C11.7293 20.0332 11.841 19.9444 11.9497 19.8522C14.5824 21.0895 17.4429 21.0895 20.0441 19.8522C20.1534 19.9438 20.265 20.0325 20.3788 20.1183C19.9436 20.3819 19.4859 20.6058 19.0109 20.7873C19.2613 21.2909 19.5508 21.7713 19.878 22.2221C21.1994 21.8089 22.5434 21.1773 23.9289 20.1364C24.2612 16.6017 23.3614 13.5371 21.5504 10.8199ZM17.2252 16.578C17.2252 17.4807 17.8733 18.2221 18.6636 18.2221C19.4678 18.2221 20.1033 17.4807 20.102 16.578C20.1158 15.674 19.4678 14.9327 18.6636 14.9327C17.8595 14.9327 17.2252 15.6753 17.2252 16.578ZM11.9006 16.6172C11.9006 17.5199 12.5487 18.2612 13.3391 18.2612C14.1432 18.2612 14.7787 17.5199 14.7775 16.6172C14.7913 15.7131 14.1432 14.9719 13.3391 14.9719C12.5349 14.9719 11.9006 15.7144 11.9006 16.6172Z" fill="#883CFF"/>
</svg>
