<svg width="42" height="42" viewBox="0 0 42 42" fill="none" xmlns="http://www.w3.org/2000/svg">
<path fill-rule="evenodd" clip-rule="evenodd" d="M4.58258 10.0237L4.58238 9.93715L1.08991 18.3687C1.41569 18.7394 1.7283 19.1219 2.027 19.5155C3.65182 16.7268 4.58258 13.4839 4.58258 10.0237ZM1.09885 20.9544C0.875305 20.64 0.642377 20.3328 0.400473 20.0332L0 21L0.375472 21.9065C0.626337 21.597 0.867613 21.2795 1.09885 20.9544ZM4.58177 32.0614L1.0642 23.5692C1.39926 23.1895 1.72045 22.7972 2.027 22.3932C3.65182 25.182 4.58258 28.4248 4.58258 31.885C4.58258 31.9439 4.58231 32.0027 4.58177 32.0614ZM5.90608 35.2585L6.15076 35.8492L6.33291 35.9247C7.63404 35.6655 8.9796 35.5295 10.3569 35.5295C10.4837 35.5295 10.6102 35.5307 10.7364 35.533C8.93027 34.2516 7.37368 32.6415 6.1538 30.79C6.1729 31.1526 6.18258 31.5177 6.18258 31.885C6.18258 33.0341 6.08795 34.161 5.90608 35.2585ZM3.233 21.2902C3.16477 21.1776 3.09548 21.0656 3.02515 20.9544C3.09632 20.8418 3.16643 20.7285 3.23545 20.6145C3.23246 20.7486 3.23096 20.8832 3.23096 21.0181C3.23096 21.1089 3.23164 21.1997 3.233 21.2902ZM11.5358 5.96782C9.38375 7.32619 7.54334 9.13339 6.146 11.2579C6.17027 10.8496 6.18258 10.4381 6.18258 10.0237C6.18258 8.89745 6.09167 7.79243 5.9168 6.71557L6.15076 6.15076L7.12426 5.74752C8.17725 5.91447 9.25696 6.00118 10.3569 6.00118C10.7526 6.00118 11.1456 5.98996 11.5358 5.96782ZM41.6316 21.8893L42 21L41.6066 20.0503C41.3697 20.3446 41.1414 20.646 40.9221 20.9544C41.1491 21.2735 41.3857 21.5853 41.6316 21.8893ZM35.8492 35.8492L36.1089 35.2223C35.9309 34.1363 35.8384 33.0215 35.8384 31.885C35.8384 31.5234 35.8477 31.164 35.8663 30.807C34.6477 32.6519 33.0947 34.2563 31.2935 35.534C31.4367 35.531 31.5804 35.5295 31.7243 35.5295C33.0823 35.5295 34.4093 35.6617 35.6933 35.9138L35.8492 35.8492ZM24.5872 36.8073C25.3358 36.529 26.1051 36.2932 26.8922 36.1028C32.9254 33.7508 37.2003 27.8836 37.2003 21.0181C37.2003 12.0795 29.9542 4.83337 21.0156 4.83337C12.0771 4.83337 4.83096 12.0795 4.83096 21.0181C4.83096 27.8543 9.06945 33.7007 15.0619 36.0725C15.9187 36.2739 16.7548 36.5291 17.5664 36.8344C18.6778 37.0756 19.8319 37.2027 21.0156 37.2027C22.2429 37.2027 23.4382 37.0661 24.5872 36.8073ZM20.6389 3.23728C20.7641 3.23468 20.8897 3.23337 21.0156 3.23337C21.159 3.23337 21.3019 3.23507 21.4444 3.23844C21.3088 3.15961 21.1742 3.07927 21.0406 2.99745C20.9077 3.07887 20.7738 3.15883 20.6389 3.23728ZM31.7243 6.00118C31.31 6.00118 30.8986 5.98888 30.4904 5.96462C32.6388 7.31969 34.4769 9.12195 35.8739 11.2407C35.8503 10.8381 35.8384 10.4323 35.8384 10.0237C35.8384 8.91014 35.9272 7.81733 36.0983 6.75198L35.8492 6.15076L34.8981 5.75677C33.8637 5.91767 32.8038 6.00118 31.7243 6.00118ZM38.7962 20.6321C38.7989 20.7604 38.8003 20.8891 38.8003 21.0181C38.8003 21.1031 38.7997 21.188 38.7985 21.2728C38.8633 21.166 38.9291 21.0599 38.9958 20.9544C38.9283 20.8476 38.8618 20.7402 38.7962 20.6321ZM40.9425 23.553L37.4388 32.0117C37.4385 31.9695 37.4384 31.9273 37.4384 31.885C37.4384 28.4248 38.3691 25.182 39.994 22.3932C40.2962 22.7915 40.6126 23.1783 40.9425 23.553ZM37.4384 10.0237C37.4384 13.4839 38.3691 16.7268 39.994 19.5155C40.2883 19.1276 40.5961 18.7505 40.9168 18.3849L37.4384 9.98736L37.4384 10.0237ZM21 0L21.9758 0.404177C21.6714 0.642096 21.3596 0.870883 21.0406 1.09013C20.7119 0.864128 20.3906 0.627991 20.0774 0.382162L21 0ZM18.4014 1.07637C18.7788 1.39987 19.1681 1.70987 19.5686 2.00563C16.8485 3.52869 13.713 4.39811 10.3746 4.40117L18.4014 1.07637ZM32.6987 37.1542L24.0174 40.7501C23.5358 40.3188 23.0337 39.9099 22.5127 39.5251C23.3231 39.0713 24.1705 38.6755 25.0491 38.3434C25.8441 38.159 26.6188 37.9213 27.3691 37.6343C28.7672 37.3042 30.2254 37.1295 31.7243 37.1295C32.0511 37.1295 32.376 37.1378 32.6987 37.1542ZM14.5862 37.605C15.3992 37.9204 16.2412 38.1777 17.107 38.3718C17.9589 38.698 18.7811 39.0842 19.5686 39.5251C19.0383 39.9167 18.5276 40.3333 18.0382 40.7732L9.31048 37.158C9.65689 37.1391 10.0058 37.1295 10.3569 37.1295C11.8109 37.1295 13.2265 37.2939 14.5862 37.605ZM22.3613 41.4361C21.9363 41.0856 21.4957 40.7534 21.0406 40.4406C20.5759 40.7601 20.1262 41.0998 19.6928 41.4585L21 42L22.3613 41.4361ZM23.6533 1.09905C23.2842 1.41436 22.9038 1.71679 22.5127 2.00563C25.2105 3.51624 28.317 4.38384 31.6248 4.40092L23.6533 1.09905Z" fill="#FFEFD7"/>
</svg>
