<svg width="58" height="58" viewBox="0 0 58 58" fill="none" xmlns="http://www.w3.org/2000/svg">
<path fill-rule="evenodd" clip-rule="evenodd" d="M6.60455 13.8409C6.60455 13.5868 6.60095 13.3335 6.5938 13.0811L1.50551 25.3654C2.0211 25.9519 2.51278 26.5601 2.97904 27.1882C5.28305 23.2737 6.60455 18.7116 6.60455 13.8409ZM1.85554 28.9356C1.48063 28.4001 1.08632 27.8791 0.673612 27.3738L0 29L0.638191 30.5407C1.06377 30.0219 1.46992 29.4864 1.85554 28.9356ZM6.59014 44.91L1.46923 32.547C1.99804 31.9477 2.50186 31.3259 2.97904 30.683C5.28305 34.5975 6.60455 39.1596 6.60455 44.0303C6.60455 44.3247 6.59972 44.618 6.59014 44.91ZM8.15588 48.69L8.4939 49.5061L8.74174 49.6087C10.54 49.2502 12.3998 49.0621 14.3035 49.0621C14.478 49.0621 14.6521 49.0637 14.8258 49.0668C12.3318 47.2971 10.1825 45.0736 8.49807 42.5166C8.5245 43.0178 8.53788 43.5225 8.53788 44.0303C8.53788 45.6175 8.40715 47.1741 8.15588 48.69ZM4.4656 29.401C4.37107 29.2449 4.27507 29.0897 4.17763 28.9356C4.27624 28.7796 4.37337 28.6226 4.469 28.4646C4.46485 28.6504 4.46276 28.8367 4.46276 29.0235C4.46276 29.1496 4.46371 29.2754 4.4656 29.401ZM15.9343 8.23798C12.9607 10.1144 10.4177 12.6113 8.48728 15.5468C8.52085 14.9825 8.53788 14.4137 8.53788 13.8409C8.53788 12.2859 8.4124 10.7602 8.17101 9.27343L8.4939 8.4939L9.84401 7.93467C11.2967 8.16474 12.7861 8.28422 14.3035 8.28422C14.8509 8.28422 15.3946 8.26867 15.9343 8.23798ZM57.3719 30.5165L58 29L57.3365 27.3981C56.931 27.8958 56.5433 28.4087 56.1744 28.9356C56.554 29.4779 56.9535 30.0052 57.3719 30.5165ZM49.5061 49.5061L49.8655 48.6383C49.6198 47.1387 49.492 45.5994 49.492 44.0303C49.492 43.531 49.505 43.0346 49.5306 42.5416C47.8482 45.0888 45.704 47.304 43.2173 49.0682C43.4147 49.0641 43.6125 49.0621 43.8109 49.0621C45.6873 49.0621 47.521 49.2448 49.2952 49.5934L49.5061 49.5061ZM32.6077 51.3675C34.4934 50.5533 36.4852 49.9384 38.5566 49.5492C46.2887 45.9516 51.649 38.1136 51.649 29.0235C51.649 16.5273 41.5188 6.39708 29.0226 6.39708C16.5263 6.39708 6.39609 16.5273 6.39609 29.0235C6.39609 38.0956 11.7353 45.9207 19.4427 49.5279C21.5699 49.9183 23.6138 50.5468 25.5459 51.3845C26.6792 51.5593 27.8403 51.65 29.0226 51.65C30.2426 51.65 31.4401 51.5534 32.6077 51.3675ZM28.4993 4.46921C28.6732 4.46557 28.8477 4.46375 29.0226 4.46375C29.2215 4.46375 29.42 4.46611 29.6178 4.47082C29.4296 4.36138 29.2427 4.24983 29.0572 4.13621C28.8726 4.24928 28.6866 4.36029 28.4993 4.46921ZM43.8109 8.28422C43.2377 8.28422 42.6685 8.26717 42.1037 8.23355C45.0719 10.105 47.6112 12.5946 49.5411 15.5215C49.5086 14.9655 49.492 14.4051 49.492 13.8409C49.492 12.304 49.6146 10.7958 49.8505 9.32543L49.5061 8.4939L48.1874 7.94768C46.761 8.16924 45.2994 8.28422 43.8109 8.28422ZM53.5767 28.4906C53.5805 28.6678 53.5823 28.8454 53.5823 29.0235C53.5823 29.141 53.5815 29.2583 53.5799 29.3753C53.6694 29.2279 53.7602 29.0813 53.8523 28.9356C53.7591 28.7882 53.6672 28.6399 53.5767 28.4906ZM56.5403 32.5239L51.4377 44.8428C51.4295 44.573 51.4254 44.3021 51.4254 44.0303C51.4254 39.1596 52.7469 34.5975 55.0509 30.683C55.5219 31.3176 56.0189 31.9318 56.5403 32.5239ZM51.4254 13.8409C51.4254 18.7116 52.7469 23.2737 55.0509 27.1882C55.511 26.5683 55.9959 25.968 56.5041 25.3885L51.4343 13.149C51.4284 13.3789 51.4254 13.6095 51.4254 13.8409ZM14.3035 6.35088C19.0169 6.35088 23.4412 5.11338 27.2694 2.94556C26.6306 2.48424 26.0118 1.99691 25.4146 1.4851L13.6848 6.34376C13.8904 6.3485 14.0967 6.35088 14.3035 6.35088ZM24.9951 53.2547C25.7738 53.6008 26.5327 53.9836 27.2694 54.4008C26.4483 54.9937 25.6603 55.6297 24.9087 56.3053L12.2752 51.0723C12.9446 51.0214 13.621 50.9954 14.3035 50.9954C15.8564 50.9954 17.378 51.1298 18.8573 51.3875C20.783 52.2642 22.8418 52.8995 24.9951 53.2547ZM29 58L31.1712 57.1007C30.4944 56.5362 29.7889 56.005 29.0572 55.5097C28.3118 56.0143 27.5936 56.556 26.9052 57.1323L29 58ZM30.8449 54.4008C31.6529 54.9842 32.4288 55.6093 33.1695 56.2729L45.7422 51.0651C45.1045 51.0189 44.4604 50.9954 43.8109 50.9954C42.2182 50.9954 40.6586 51.1367 39.1438 51.4075C37.264 52.2588 35.2578 52.8803 33.1611 53.2361C32.3677 53.5871 31.5949 53.9761 30.8449 54.4008ZM32.6624 1.51701C32.0767 2.01717 31.4704 2.49384 30.8449 2.94556C34.6731 5.11338 39.0974 6.35088 43.8109 6.35088C43.9812 6.35088 44.1511 6.34927 44.3207 6.34605L32.6624 1.51701ZM29.0572 1.83665C29.5989 1.46992 30.1263 1.08356 30.6382 0.678585L29 0L27.4368 0.647484C27.9611 1.06379 28.5016 1.46054 29.0572 1.83665Z" fill="#FFA012"/>
</svg>
