<svg width="28" height="28" viewBox="0 0 28 28" fill="none" xmlns="http://www.w3.org/2000/svg">
<path fill-rule="evenodd" clip-rule="evenodd" d="M3.04384 6.68488L3.04379 6.65163L0.72592 12.2475C0.940684 12.4918 1.14686 12.7438 1.34398 13.0031C2.42478 11.1465 3.04384 8.98798 3.04384 6.68488ZM0.718802 13.972C0.572298 13.7663 0.419757 13.5651 0.261435 13.3688L0 14L0.246095 14.5941C0.409909 14.3918 0.567572 14.1844 0.718802 13.972ZM3.04353 21.3477L0.71014 15.7144C0.930589 15.4645 1.14204 15.2065 1.34398 14.9409C2.42478 16.7975 3.04384 18.956 3.04384 21.2591C3.04384 21.2887 3.04373 21.3182 3.04353 21.3477ZM3.93766 23.5063L4.10051 23.8995L4.2224 23.95C5.08972 23.7772 5.98667 23.6866 6.90477 23.6866C6.98811 23.6866 7.07128 23.6874 7.15427 23.6888C5.95168 22.8352 4.91513 21.7629 4.10256 20.53C4.11526 20.7714 4.1217 21.0145 4.1217 21.2591C4.1217 22.0245 4.05872 22.7752 3.93766 23.5063ZM2.15439 14.1944C2.1092 14.1198 2.06331 14.0457 2.01674 13.972C2.06386 13.8975 2.11028 13.8225 2.15599 13.747C2.15403 13.8357 2.15304 13.9247 2.15304 14.0139C2.15304 14.0742 2.15349 14.1343 2.15439 14.1944ZM7.69063 3.97979C6.25603 4.88511 5.02909 6.08959 4.09744 7.50562C4.11353 7.2341 4.1217 6.96045 4.1217 6.68488C4.1217 5.93346 4.061 5.1962 3.94424 4.47777L4.10051 4.10051L4.74739 3.83256C5.45011 3.94409 6.17068 4.00202 6.90477 4.00202C7.16854 4.00202 7.43056 3.99454 7.69063 3.97979ZM27.7583 14.5835L28 14L27.743 13.3795C27.5877 13.5724 27.4381 13.77 27.2942 13.972C27.4428 14.1806 27.5976 14.3846 27.7583 14.5835ZM23.8995 23.8995L24.0717 23.4839C23.953 22.7598 23.8913 22.0167 23.8913 21.2591C23.8913 21.0178 23.8976 20.778 23.9099 20.5399C23.0981 21.769 22.0636 22.838 20.8638 23.6895C20.9584 23.6876 21.0533 23.6866 21.1484 23.6866C22.0538 23.6866 22.9386 23.7747 23.7948 23.9429L23.8995 23.8995ZM16.4602 24.5127C16.9141 24.3468 17.3793 24.2043 17.8543 24.0866C21.9085 22.5382 24.7881 18.6123 24.7881 14.0139C24.7881 8.06108 19.9624 3.23533 14.0095 3.23533C8.05665 3.23533 3.2309 8.06108 3.2309 14.0139C3.2309 18.59 6.08259 22.5 10.1058 24.0639C10.6326 24.1904 11.1475 24.3475 11.6485 24.5331C12.4083 24.7029 13.1985 24.7925 14.0095 24.7925C14.8525 24.7925 15.6729 24.6957 16.4602 24.5127ZM13.7583 2.16008C13.8418 2.15835 13.9256 2.15747 14.0095 2.15747C14.1053 2.15747 14.2009 2.15861 14.2962 2.16087C14.2057 2.10824 14.1158 2.05459 14.0266 1.99995C13.9378 2.05432 13.8484 2.1077 13.7583 2.16008ZM21.1484 4.00202C20.8719 4.00202 20.5973 3.99381 20.3249 3.9776C21.7576 4.88105 22.9834 6.08281 23.915 7.49566C23.8993 7.22741 23.8913 6.95708 23.8913 6.68488C23.8913 5.94134 23.9508 5.21167 24.0651 4.50038L23.8995 4.10051L23.2672 3.83861C22.5767 3.94619 21.8691 4.00202 21.1484 4.00202ZM25.8632 13.7572C25.865 13.8425 25.866 13.9281 25.866 14.0139C25.866 14.0708 25.8656 14.1276 25.8648 14.1843C25.908 14.1131 25.9518 14.0423 25.9963 13.972C25.9513 13.9008 25.9069 13.8292 25.8632 13.7572ZM27.294 15.7044L24.9693 21.3167L24.9692 21.2591C24.9692 18.956 25.5882 16.7975 26.669 14.9409C26.8683 15.203 27.0768 15.4576 27.294 15.7044ZM24.9692 6.68488C24.9692 8.98798 25.5882 11.1465 26.669 13.0031C26.8635 12.7474 27.0667 12.4987 27.2783 12.2576L24.9692 6.68297V6.68488ZM14 0L14.6398 0.265002C14.4401 0.42094 14.2356 0.570981 14.0266 0.714863C13.8111 0.566559 13.6005 0.411711 13.395 0.250606L14 0ZM12.2658 0.718313C12.5147 0.931655 12.7713 1.13619 13.0352 1.33145C11.2312 2.34048 9.15307 2.91795 6.94057 2.92411L12.2658 0.718313ZM21.7743 24.7798L16.0115 27.1668C15.6934 26.8819 15.3619 26.6116 15.0179 26.3572C15.5775 26.0442 16.1635 25.7727 16.7717 25.5469C17.2514 25.4325 17.7198 25.2888 18.1749 25.118C19.1282 24.8869 20.124 24.7645 21.1484 24.7645C21.3583 24.7645 21.567 24.7696 21.7743 24.7798ZM9.78588 25.096C10.288 25.2875 10.8066 25.4459 11.3388 25.5684C11.9265 25.7898 12.4932 26.054 13.0352 26.3572C12.6852 26.6161 12.3481 26.8914 12.0248 27.1819L6.23149 24.7822C6.45443 24.7704 6.67891 24.7645 6.90477 24.7645C7.89612 24.7645 8.86067 24.8792 9.78588 25.096ZM14.8958 27.629C14.6159 27.3985 14.3259 27.1798 14.0266 26.9738C13.7209 27.1842 13.425 27.4077 13.1396 27.6436L14 28L14.8958 27.629ZM15.77 0.733149C15.5265 0.941141 15.2757 1.14072 15.0179 1.33145C16.8073 2.3323 18.8664 2.90856 21.0588 2.92385L15.77 0.733149Z" fill="#FFEFD7"/>
<path d="M19.8467 14.0976L10.0481 22.3161L13.9748 15.9479L8.72538 14.5237L17.2402 5.68359L13.7584 12.9377L19.8467 14.0976Z" fill="#1B1B1B"/>
</svg>
