<svg width="1256" height="233" viewBox="0 0 1256 233" fill="none" xmlns="http://www.w3.org/2000/svg">
<mask id="mask0_494_3147" style="mask-type:alpha" maskUnits="userSpaceOnUse" x="-5" y="15" width="1257" height="195">
<path d="M544.55 88.8991L571.943 98.6938L599.154 102.975L621.899 82.742L605.433 115.373L595.851 206.418L619.38 135.519L652.118 121.572L640.097 82.742L705.303 67.8428L736.017 84.8426L777.316 71.0239L873.194 72.2069L837.789 83.9204L874.314 96.9799L1020.11 64.1123C1020.11 64.1123 1105.9 46.6703 1098.69 46.9961L1162.3 64.1122L1250.24 49.0596L1149.21 42.9768L1042.42 39.7352L1014.5 39.7352L1003.81 46.9961L1057.94 51.9051L909.346 77.0088C917.135 72.6727 933.876 63.2124 938.525 60.0603C943.174 56.9081 961.907 47.3579 970.693 42.9767L907.355 32.9679L907.936 45.8131L848.872 64.1123L806.122 45.8178L767.272 47.5736L791.843 61.1734L735.478 72.9148L735.063 63.7396L734.607 53.6469L734.4 49.0593L719.25 45.1471L655.912 35.1382L656.493 47.9834L681.271 66.1708L645.928 56.8631L630.96 69.9595L615.993 64.3468L599.154 84.927L571.363 85.8485C580.038 79.0207 602.909 55.0022 602.909 55.0022C602.909 55.0022 582.502 45.1983 569.538 45.4777L500.514 42.1616L537.619 68.0664L469.508 84.9356C460.404 82.2824 439.001 72.5235 439.001 72.5235C439.001 72.5235 457.555 63.4104 468.429 61.0801L389.942 47.159L366.325 54.6622L339.095 51.2503L335.353 62.4759L327.869 60.47L316.644 64.3468L310.25 72.8262L301.676 62.4759L292.322 60.47L286.709 66.2178L267.417 52.6967L237.823 60.47L215.286 25.6322L129.552 45.4777L60.3276 55.8032L0.457185 45.4779L71.424 89.1366L82.9216 78.5036L215.614 53.1213L148.874 80.1197L238.32 71.4802L298.877 86.2117L391.186 74.6846L422.398 102.694L502.712 90.7901L544.55 88.8991ZM544.55 88.8991L570.492 66.5806L560.863 52.3055" stroke="white" stroke-width="18.2123"/>
</mask>
<g mask="url(#mask0_494_3147)">
<path d="M31 71.095L608.471 71.095L1123.5 67.4443L902.207 77.6432L755.339 80.9173L681.905 82.5544L645.188 83.3729L608.471 106.921L571.754 83.3729L535.037 82.5544L461.603 80.9173L314.736 77.6432L31 71.095Z" fill="#1D151F"/>
</g>
</svg>
