<svg width="24" height="24" viewBox="0 0 24 24" fill="none" xmlns="http://www.w3.org/2000/svg">
<mask id="path-1-inside-1_1350_1015" fill="white">
<path d="M24 12C24 18.6274 18.6274 24 12 24C5.37258 24 0 18.6274 0 12C0 5.37258 5.37258 0 12 0C18.6274 0 24 5.37258 24 12Z"/>
</mask>
<path d="M24 12C24 18.6274 18.6274 24 12 24C5.37258 24 0 18.6274 0 12C0 5.37258 5.37258 0 12 0C18.6274 0 24 5.37258 24 12Z" fill="#FFA012"/>
<path d="M23 12C23 18.0751 18.0751 23 12 23V25C19.1797 25 25 19.1797 25 12H23ZM12 23C5.92487 23 1 18.0751 1 12H-1C-1 19.1797 4.8203 25 12 25V23ZM1 12C1 5.92487 5.92487 1 12 1V-1C4.8203 -1 -1 4.8203 -1 12H1ZM12 1C18.0751 1 23 5.92487 23 12H25C25 4.8203 19.1797 -1 12 -1V1Z" fill="white" mask="url(#path-1-inside-1_1350_1015)"/>
<path d="M11.3386 15.7628L8.6957 13.1146L7.59225 13.1038L5.33072 10.8423C5.26888 10.7804 5.185 10.7457 5.09754 10.7457C5.01008 10.7457 4.92621 10.7804 4.86436 10.8423L3.06894 12.6156C3.0071 12.6775 2.97235 12.7614 2.97235 12.8488C2.97235 12.9363 3.0071 13.0201 3.06894 13.082L5.36614 15.3792L5.63313 16.1772L7.99934 18.5434C8.04553 18.5896 8.10441 18.6211 8.16851 18.6338C8.23261 18.6465 8.29905 18.6399 8.35937 18.6148L9.80904 18.1258L11.289 16.6459C11.4127 16.5222 11.4821 16.3544 11.4821 16.1795C11.4821 16.0046 11.4623 15.8865 11.3386 15.7628Z" fill="#1E1E1E"/>
<path d="M4.93457 16.7441L7.16189 18.9715" stroke="#1E1E1E" stroke-width="1.00747" stroke-linecap="round"/>
<mask id="path-5-inside-2_1350_1015" fill="white">
<path d="M15.7145 6.9445C16.3274 6.33161 17.0881 5.88722 17.923 5.65433L18.9782 5.35999L18.7571 6.3126C18.5442 7.23029 18.0782 8.06988 17.4121 8.73603L16.9795 9.16855L14.076 12.0721L12.5032 13.6449L12.0875 14.0606L13.5328 15.5059C13.776 15.7491 13.776 16.1434 13.5328 16.3867C13.2896 16.6299 12.8952 16.6299 12.652 16.3867L11.1136 14.8482C11.1131 14.8472 11.1124 14.8463 11.1116 14.8455L9.48916 13.2238L7.94727 11.6819C7.70638 11.441 7.70638 11.0505 7.94727 10.8096C8.19143 10.5654 8.58845 10.5692 8.82789 10.818L10.3056 12.3534L12.2941 10.365L15.1976 7.46138L15.7145 6.9445Z"/>
</mask>
<path d="M18.9782 5.35999L22.3478 6.14183L23.6659 0.461105L18.0487 2.02801L18.9782 5.35999ZM9.48916 13.2238L7.04314 15.6698L7.04372 15.6704L9.48916 13.2238ZM10.3056 12.3534L7.8132 14.7522L10.2583 17.2927L12.7516 14.7994L10.3056 12.3534ZM12.0875 14.0606L9.64149 11.6146L7.19547 14.0606L9.64149 16.5066L12.0875 14.0606ZM11.1116 14.8455L8.66616 17.2921L11.1116 14.8455ZM11.1136 14.8482L8.019 16.3941L8.27016 16.8968L8.66756 17.2942L11.1136 14.8482ZM8.82789 10.818L11.3203 8.41927L8.82789 10.818ZM18.7571 6.3126L15.3875 5.53076L18.7571 6.3126ZM18.8524 8.98632L19.9076 8.69198L18.0487 2.02801L16.9935 2.32235L18.8524 8.98632ZM15.6085 4.57816L15.3875 5.53076L22.1268 7.09443L22.3478 6.14183L15.6085 4.57816ZM14.7401 12.811L17.6437 9.9074L12.7516 5.01536L9.84804 7.91894L14.7401 12.811ZM14.5335 6.72253L11.6299 9.62612L16.522 14.5182L19.4256 11.6146L14.5335 6.72253ZM14.9661 6.29001L14.5335 6.72253L19.4256 11.6146L19.8581 11.182L14.9661 6.29001ZM17.6437 9.9074L18.1605 9.39052L13.2685 4.49848L12.7516 5.01536L17.6437 9.9074ZM12.7516 14.7994L14.7401 12.811L9.84804 7.91894L7.85958 9.9074L12.7516 14.7994ZM6.33548 13.2167L7.8132 14.7522L12.798 9.95469L11.3203 8.41927L6.33548 13.2167ZM11.6299 9.62612L10.0572 11.1989L14.9492 16.0909L16.522 14.5182L11.6299 9.62612ZM10.0572 11.1989L9.64149 11.6146L14.5335 16.5066L14.9492 16.0909L10.0572 11.1989ZM9.64149 16.5066L11.0868 17.9519L15.9788 13.0599L14.5335 11.6146L9.64149 16.5066ZM11.9352 10.7778L10.3933 9.2359L5.50125 14.1279L7.04314 15.6698L11.9352 10.7778ZM15.098 13.9406L13.5596 12.4022L8.66756 17.2942L10.206 18.8327L15.098 13.9406ZM13.557 12.3989L11.9346 10.7772L7.04372 15.6704L8.66616 17.2921L13.557 12.3989ZM8.66616 17.2921C8.40349 17.0295 8.18496 16.7263 8.019 16.3941L14.2082 13.3024C14.0412 12.9681 13.8213 12.663 13.557 12.3989L8.66616 17.2921ZM11.0868 17.9519C9.9791 16.8442 9.97911 15.0483 11.0868 13.9406L15.9788 18.8327C17.5729 17.2386 17.5729 14.654 15.9788 13.0599L11.0868 17.9519ZM10.206 18.8327C11.8001 20.4268 14.3847 20.4268 15.9788 18.8327L11.0868 13.9406C12.1945 12.833 13.9904 12.833 15.098 13.9406L10.206 18.8327ZM5.50125 8.36355C3.90946 9.95534 3.90946 12.5361 5.50125 14.1279L10.3933 9.2359C11.5033 10.3459 11.5033 12.1456 10.3933 13.2556L5.50125 8.36355ZM16.9935 2.32235C15.5853 2.71517 14.3023 3.46471 13.2685 4.49848L18.1605 9.39052C18.3526 9.1985 18.5909 9.05928 18.8524 8.98632L16.9935 2.32235ZM10.3933 13.2556C9.26822 14.3807 7.4388 14.3631 6.33548 13.2167L11.3203 8.41927C9.73809 6.77528 7.11464 6.75016 5.50125 8.36355L10.3933 13.2556ZM15.3875 5.53076C15.3207 5.81827 15.1748 6.08131 14.9661 6.29001L19.8581 11.182C20.9817 10.0585 21.7677 8.64231 22.1268 7.09443L15.3875 5.53076Z" fill="#1E1E1E" mask="url(#path-5-inside-2_1350_1015)"/>
</svg>
