<svg width="24" height="24" viewBox="0 0 24 24" fill="none" xmlns="http://www.w3.org/2000/svg">
<mask id="path-1-inside-1_1174_2141" fill="white">
<path d="M24 12C24 18.6274 18.6274 24 12 24C5.37258 24 0 18.6274 0 12C0 5.37258 5.37258 0 12 0C18.6274 0 24 5.37258 24 12Z"/>
</mask>
<path d="M24 12C24 18.6274 18.6274 24 12 24C5.37258 24 0 18.6274 0 12C0 5.37258 5.37258 0 12 0C18.6274 0 24 5.37258 24 12Z" fill="#1E1E1E"/>
<path d="M23 12C23 18.0751 18.0751 23 12 23V25C19.1797 25 25 19.1797 25 12H23ZM12 23C5.92487 23 1 18.0751 1 12H-1C-1 19.1797 4.8203 25 12 25V23ZM1 12C1 5.92487 5.92487 1 12 1V-1C4.8203 -1 -1 4.8203 -1 12H1ZM12 1C18.0751 1 23 5.92487 23 12H25C25 4.8203 19.1797 -1 12 -1V1Z" fill="#FFEFD7" mask="url(#path-1-inside-1_1174_2141)"/>
<path d="M11.3386 15.7638L8.6957 13.1156L7.59225 13.1048L5.33072 10.8432C5.26888 10.7814 5.185 10.7467 5.09754 10.7467C5.01008 10.7467 4.92621 10.7814 4.86436 10.8432L3.06894 12.6166C3.0071 12.6785 2.97235 12.7623 2.97235 12.8498C2.97235 12.9372 3.0071 13.0211 3.06894 13.083L5.36614 15.3802L5.63313 16.1782L7.99934 18.5444C8.04553 18.5906 8.10441 18.6221 8.16851 18.6348C8.23261 18.6475 8.29905 18.6409 8.35937 18.6158L9.80904 18.1268L11.289 16.6468C11.4127 16.5232 11.4821 16.3554 11.4821 16.1805C11.4821 16.0056 11.4623 15.8875 11.3386 15.7638Z" fill="#FFEFD7"/>
<path d="M4.93359 16.7441L7.16092 18.9715" stroke="#7E7E7E" stroke-width="1.00747" stroke-linecap="round"/>
<mask id="path-5-inside-2_1174_2141" fill="white">
<path d="M15.7145 6.94548C16.3274 6.33258 17.0881 5.8882 17.923 5.65531L18.9782 5.36097L18.7571 6.31357C18.5442 7.23126 18.0782 8.07086 17.4121 8.737L16.9795 9.16953L14.076 12.0731L12.5032 13.6459L12.0875 14.0616L13.5328 15.5069C13.776 15.7501 13.776 16.1444 13.5328 16.3876C13.2896 16.6309 12.8952 16.6309 12.652 16.3876L11.1136 14.8492C11.1131 14.8482 11.1124 14.8473 11.1116 14.8464L9.48916 13.2248L7.94727 11.6829C7.70638 11.442 7.70638 11.0514 7.94727 10.8105C8.19143 10.5664 8.58845 10.5702 8.82789 10.819L10.3056 12.3544L12.2941 10.3659L15.1976 7.46236L15.7145 6.94548Z"/>
</mask>
<path d="M18.9782 5.36097L22.3478 6.1428L23.6659 0.462081L18.0487 2.02899L18.9782 5.36097ZM9.48916 13.2248L7.04314 15.6708L7.04372 15.6714L9.48916 13.2248ZM10.3056 12.3544L7.8132 14.7531L10.2583 17.2937L12.7516 14.8004L10.3056 12.3544ZM12.0875 14.0616L9.64149 11.6156L7.19547 14.0616L9.64149 16.5076L12.0875 14.0616ZM11.1116 14.8464L8.66616 17.293L11.1116 14.8464ZM11.1136 14.8492L8.019 16.395L8.27016 16.8978L8.66756 17.2952L11.1136 14.8492ZM8.82789 10.819L11.3203 8.42024L8.82789 10.819ZM18.7571 6.31357L15.3875 5.53174L18.7571 6.31357ZM18.8524 8.98729L19.9076 8.69295L18.0487 2.02899L16.9935 2.32332L18.8524 8.98729ZM15.6085 4.57913L15.3875 5.53174L22.1268 7.09541L22.3478 6.1428L15.6085 4.57913ZM14.7401 12.812L17.6437 9.90837L12.7516 5.01634L9.84804 7.91992L14.7401 12.812ZM14.5335 6.72351L11.6299 9.62709L16.522 14.5191L19.4256 11.6155L14.5335 6.72351ZM14.9661 6.29098L14.5335 6.72351L19.4256 11.6155L19.8581 11.183L14.9661 6.29098ZM17.6437 9.90837L18.1605 9.3915L13.2685 4.49946L12.7516 5.01634L17.6437 9.90837ZM12.7516 14.8004L14.7401 12.812L9.84804 7.91992L7.85958 9.90838L12.7516 14.8004ZM6.33548 13.2177L7.8132 14.7531L12.798 9.95566L11.3203 8.42024L6.33548 13.2177ZM11.6299 9.62709L10.0572 11.1999L14.9492 16.0919L16.522 14.5191L11.6299 9.62709ZM10.0572 11.1999L9.64149 11.6156L14.5335 16.5076L14.9492 16.0919L10.0572 11.1999ZM9.64149 16.5076L11.0868 17.9529L15.9788 13.0608L14.5335 11.6156L9.64149 16.5076ZM11.9352 10.7788L10.3933 9.23687L5.50125 14.1289L7.04314 15.6708L11.9352 10.7788ZM15.098 13.9416L13.5596 12.4032L8.66756 17.2952L10.206 18.8337L15.098 13.9416ZM13.557 12.3999L11.9346 10.7782L7.04372 15.6714L8.66616 17.293L13.557 12.3999ZM8.66616 17.293C8.40349 17.0305 8.18496 16.7273 8.019 16.395L14.2082 13.3034C14.0412 12.9691 13.8213 12.664 13.557 12.3999L8.66616 17.293ZM11.0868 17.9529C9.9791 16.8452 9.97911 15.0493 11.0868 13.9416L15.9788 18.8337C17.5729 17.2395 17.5729 14.655 15.9788 13.0608L11.0868 17.9529ZM10.206 18.8337C11.8001 20.4278 14.3847 20.4278 15.9788 18.8337L11.0868 13.9416C12.1945 12.8339 13.9904 12.8339 15.098 13.9416L10.206 18.8337ZM5.50125 8.36453C3.90946 9.95632 3.90946 12.5371 5.50125 14.1289L10.3933 9.23687C11.5033 10.3469 11.5033 12.1466 10.3933 13.2566L5.50125 8.36453ZM16.9935 2.32332C15.5853 2.71615 14.3023 3.46569 13.2685 4.49946L18.1605 9.3915C18.3526 9.19948 18.5909 9.06026 18.8524 8.98729L16.9935 2.32332ZM10.3933 13.2566C9.26822 14.3816 7.4388 14.3641 6.33548 13.2177L11.3203 8.42024C9.73809 6.77626 7.11464 6.75114 5.50125 8.36453L10.3933 13.2566ZM15.3875 5.53174C15.3207 5.81925 15.1748 6.08229 14.9661 6.29098L19.8581 11.183C20.9817 10.0594 21.7677 8.64328 22.1268 7.09541L15.3875 5.53174Z" fill="#7E7E7E" mask="url(#path-5-inside-2_1174_2141)"/>
</svg>
