<svg width="24" height="24" viewBox="0 0 24 24" fill="none" xmlns="http://www.w3.org/2000/svg">
<mask id="path-1-inside-1_1350_1035" fill="white">
<path d="M24 12C24 18.6274 18.6274 24 12 24C5.37258 24 0 18.6274 0 12C0 5.37258 5.37258 0 12 0C18.6274 0 24 5.37258 24 12Z"/>
</mask>
<path d="M24 12C24 18.6274 18.6274 24 12 24C5.37258 24 0 18.6274 0 12C0 5.37258 5.37258 0 12 0C18.6274 0 24 5.37258 24 12Z" fill="#FFA012"/>
<path d="M23 12C23 18.0751 18.0751 23 12 23V25C19.1797 25 25 19.1797 25 12H23ZM12 23C5.92487 23 1 18.0751 1 12H-1C-1 19.1797 4.8203 25 12 25V23ZM1 12C1 5.92487 5.92487 1 12 1V-1C4.8203 -1 -1 4.8203 -1 12H1ZM12 1C18.0751 1 23 5.92487 23 12H25C25 4.8203 19.1797 -1 12 -1V1Z" fill="white" mask="url(#path-1-inside-1_1350_1035)"/>
<path d="M14.8854 6.5H18.7192L17.6818 7.89376L17.5828 8.02665V8.19231V10.2644L11.9991 11.4884L6.26965 10.2623V8.19231V8.03903L6.18375 7.91209L5.2282 6.5H9.11542C9.36678 6.92143 9.76331 7.22586 10.1976 7.42979C10.7386 7.68387 11.3777 7.80294 12.0004 7.80294C12.6231 7.80294 13.2622 7.68387 13.8033 7.42979C14.2375 7.22586 14.6341 6.92143 14.8854 6.5Z" fill="#1E1E1E" stroke="#FFA012"/>
<path d="M14.994 6.5H19.0494L17.6026 11.4983L17.5828 11.5665V11.6374V14.9278L17.4261 15.2309C16.2026 17.5962 14.3161 19.551 12.0003 20.8577C9.67382 19.5479 7.75627 17.6152 6.46481 15.2744L6.26965 14.9207V11.6374V11.5727L6.25319 11.5101L4.93474 6.5H9.00681C9.41894 8.57229 10.5882 9.85043 12.0004 9.85043C13.4127 9.85043 14.5819 8.57229 14.994 6.5Z" fill="#1E1E1E" stroke="#FFA012"/>
<path d="M6.42871 11.5717L12.0001 13.286M17.5716 11.5717L12.0001 13.286M12.0001 9.85742V13.286" stroke="#FFA012"/>
<path d="M6 15.4286H12M18 15.4286H12M12 12V15.4286" stroke="#FFA012"/>
<path d="M6 17.9999H12M18 17.9999H12M12 14.5713V17.9999" stroke="#FFA012"/>
</svg>
