<svg width="24" height="24" viewBox="0 0 24 24" fill="none" xmlns="http://www.w3.org/2000/svg">
<mask id="path-1-inside-1_1174_2161" fill="white">
<path d="M24 12C24 18.6274 18.6274 24 12 24C5.37258 24 0 18.6274 0 12C0 5.37258 5.37258 0 12 0C18.6274 0 24 5.37258 24 12Z"/>
</mask>
<path d="M24 12C24 18.6274 18.6274 24 12 24C5.37258 24 0 18.6274 0 12C0 5.37258 5.37258 0 12 0C18.6274 0 24 5.37258 24 12Z" fill="#1E1E1E"/>
<path d="M23 12C23 18.0751 18.0751 23 12 23V25C19.1797 25 25 19.1797 25 12H23ZM12 23C5.92487 23 1 18.0751 1 12H-1C-1 19.1797 4.8203 25 12 25V23ZM1 12C1 5.92487 5.92487 1 12 1V-1C4.8203 -1 -1 4.8203 -1 12H1ZM12 1C18.0751 1 23 5.92487 23 12H25C25 4.8203 19.1797 -1 12 -1V1Z" fill="#FFEFD7" mask="url(#path-1-inside-1_1174_2161)"/>
<path d="M14.8844 6.5H18.7182L17.6808 7.89376L17.5819 8.02665V8.19231V10.2644L11.9982 11.4884L6.26867 10.2623V8.19231V8.03903L6.18277 7.91209L5.22722 6.5H9.11444C9.3658 6.92143 9.76233 7.22586 10.1966 7.42979C10.7376 7.68387 11.3767 7.80294 11.9994 7.80294C12.6222 7.80294 13.2612 7.68387 13.8023 7.42979C14.2366 7.22586 14.6331 6.92143 14.8844 6.5Z" fill="#7E7E7E" stroke="#1E1E1E"/>
<path d="M14.993 6.5H19.0485L17.6016 11.4983L17.5819 11.5665V11.6374V14.9278L17.4251 15.2309C16.2017 17.5962 14.3152 19.551 11.9993 20.8577C9.67284 19.5479 7.75529 17.6152 6.46384 15.2744L6.26867 14.9207V11.6374V11.5727L6.25221 11.5101L4.93376 6.5H9.00584C9.41797 8.57229 10.5872 9.85043 11.9994 9.85043C13.4117 9.85043 14.5809 8.57229 14.993 6.5Z" fill="#FFEFD7" stroke="#1E1E1E"/>
<path d="M6.42773 11.5717L11.9992 13.286M17.5706 11.5717L11.9992 13.286M11.9992 9.85742V13.286" stroke="#1E1E1E"/>
<path d="M6 15.4286H12M18 15.4286H12M12 12V15.4286" stroke="#1E1E1E"/>
<path d="M6 18.0008H12M18 18.0008H12M12 14.5723V18.0008" stroke="#1E1E1E"/>
</svg>
