<svg width="24" height="24" viewBox="0 0 24 24" fill="none" xmlns="http://www.w3.org/2000/svg">
<mask id="path-1-inside-1_1174_2156" fill="white">
<path d="M24 12C24 18.6274 18.6274 24 12 24C5.37258 24 0 18.6274 0 12C0 5.37258 5.37258 0 12 0C18.6274 0 24 5.37258 24 12Z"/>
</mask>
<path d="M24 12C24 18.6274 18.6274 24 12 24C5.37258 24 0 18.6274 0 12C0 5.37258 5.37258 0 12 0C18.6274 0 24 5.37258 24 12Z" fill="#1E1E1E"/>
<path d="M23 12C23 18.0751 18.0751 23 12 23V25C19.1797 25 25 19.1797 25 12H23ZM12 23C5.92487 23 1 18.0751 1 12H-1C-1 19.1797 4.8203 25 12 25V23ZM1 12C1 5.92487 5.92487 1 12 1V-1C4.8203 -1 -1 4.8203 -1 12H1ZM12 1C18.0751 1 23 5.92487 23 12H25C25 4.8203 19.1797 -1 12 -1V1Z" fill="#FFEFD7" mask="url(#path-1-inside-1_1174_2156)"/>
<path d="M6.5 12.9563V9.07171H8H8.18496L8.3254 8.95134L10.185 7.35742H13.815L15.6746 8.95134L15.815 9.07171H16H17.5V12.9563V15.4844C17.0244 16.3375 16.1159 17.2212 15.0468 18.0384C14.0346 18.8121 12.9209 19.4946 12.0002 20.0022C11.0821 19.4942 9.98042 18.8068 8.97403 18.03C7.91469 17.2124 7.00254 16.3271 6.5 15.4775V12.9563Z" fill="#7E7E7E" stroke="#1E1E1E"/>
<path d="M6.5 11.2415V7.35686H8H8.18496L8.3254 7.23649L10.185 5.64258H13.815L15.6746 7.23649L15.815 7.35686H16H17.5V11.2415V13.7696C17.0244 14.6227 16.1159 15.5064 15.0468 16.3236C14.0346 17.0973 12.9209 17.7797 12.0002 18.2873C11.0821 17.7793 9.98042 17.0919 8.97403 16.3152C7.91469 15.4975 7.00254 14.6123 6.5 13.7626V11.2415Z" fill="#FFEFD7" stroke="#1E1E1E"/>
</svg>
