<svg width="24" height="24" viewBox="0 0 24 24" fill="none" xmlns="http://www.w3.org/2000/svg">
<mask id="path-1-inside-1_1350_1276" fill="white">
<path d="M24 12C24 18.6274 18.6274 24 12 24C5.37258 24 0 18.6274 0 12C0 5.37258 5.37258 0 12 0C18.6274 0 24 5.37258 24 12Z"/>
</mask>
<path d="M24 12C24 18.6274 18.6274 24 12 24C5.37258 24 0 18.6274 0 12C0 5.37258 5.37258 0 12 0C18.6274 0 24 5.37258 24 12Z" fill="#1E1E1E"/>
<path d="M23 12C23 18.0751 18.0751 23 12 23V25C19.1797 25 25 19.1797 25 12H23ZM12 23C5.92487 23 1 18.0751 1 12H-1C-1 19.1797 4.8203 25 12 25V23ZM1 12C1 5.92487 5.92487 1 12 1V-1C4.8203 -1 -1 4.8203 -1 12H1ZM12 1C18.0751 1 23 5.92487 23 12H25C25 4.8203 19.1797 -1 12 -1V1Z" fill="#8D8579" mask="url(#path-1-inside-1_1350_1276)"/>
<path d="M20 10L12 19L4 10L8 6H16L20 10Z" fill="#7E7E7E"/>
<path d="M12 6.5L15 9.5H9L12 6.5Z" fill="#FFEFD7"/>
<path d="M16 9.5H19L16 6.5H13L16 9.5Z" fill="#FFEFD7"/>
<path d="M8 9.5H5L8 6.5H11L8 9.5Z" fill="#FFEFD7"/>
<path d="M12.0005 18.5293L9 10.5293H5.07227L12.0005 18.5293Z" fill="#FFEFD7"/>
<path d="M11.9995 18.5293L15 10.5293H18.9277L11.9995 18.5293Z" fill="#FFEFD7"/>
<path d="M11.9995 18.5293L10 10.5293H14L11.9995 18.5293Z" fill="#FFEFD7"/>
</svg>
