<svg width="24" height="24" viewBox="0 0 24 24" fill="none" xmlns="http://www.w3.org/2000/svg">
<mask id="path-1-inside-1_1493_3478" fill="white">
<path d="M24 12C24 18.6274 18.6274 24 12 24C5.37258 24 0 18.6274 0 12C0 5.37258 5.37258 0 12 0C18.6274 0 24 5.37258 24 12Z"/>
</mask>
<path d="M24 12C24 18.6274 18.6274 24 12 24C5.37258 24 0 18.6274 0 12C0 5.37258 5.37258 0 12 0C18.6274 0 24 5.37258 24 12Z" fill="#1E1E1E"/>
<path d="M23 12C23 18.0751 18.0751 23 12 23V25C19.1797 25 25 19.1797 25 12H23ZM12 23C5.92487 23 1 18.0751 1 12H-1C-1 19.1797 4.8203 25 12 25V23ZM1 12C1 5.92487 5.92487 1 12 1V-1C4.8203 -1 -1 4.8203 -1 12H1ZM12 1C18.0751 1 23 5.92487 23 12H25C25 4.8203 19.1797 -1 12 -1V1Z" fill="#8D8579" mask="url(#path-1-inside-1_1493_3478)"/>
<path d="M6.57722 12.2622C6.4459 12.2196 6.30488 12.2915 6.26223 12.4228C6.21958 12.5541 6.29146 12.6951 6.42278 12.7378L6.57722 12.2622ZM17.0841 12.7354C17.2141 12.689 17.2819 12.5459 17.2354 12.4159C17.189 12.2859 17.0459 12.2181 16.9159 12.2646L17.0841 12.7354ZM11.9992 14.286L11.9219 14.5238L12.003 14.5501L12.0832 14.5214L11.9992 14.286ZM6.42278 12.7378L11.9219 14.5238L12.0764 14.0482L6.57722 12.2622L6.42278 12.7378ZM12.2492 14.286V10.8574H11.7492V14.286H12.2492ZM12.0832 14.5214L17.0841 12.7354L16.9159 12.2646L11.9151 14.0506L12.0832 14.5214Z" fill="#1E1E1E"/>
<path d="M18 12C18 15.866 15.3137 19 12 19C8.68629 19 6 15.866 6 12C6 8.13401 8.68629 6 12 6C15.3137 6 18 8.13401 18 12Z" fill="#FFEFD7"/>
<mask id="path-5-outside-2_1493_3478" maskUnits="userSpaceOnUse" x="4" y="2.42188" width="16" height="18" fill="black">
<rect fill="white" x="4" y="2.42188" width="16" height="18"/>
<path fill-rule="evenodd" clip-rule="evenodd" d="M13.7219 5.97377C14.5581 6.2424 15.3269 6.70545 15.9598 7.33467C17.01 8.37873 17.6 9.79478 17.6 11.2713V13.1799C17.6 13.6632 17.2082 14.0549 16.725 14.0549H15.5C15.3143 14.0549 15.1363 14.1282 15.005 14.2587C14.8737 14.3893 14.8 14.5663 14.8 14.7508V16.2575C14.8 16.5784 14.5399 16.8385 14.2189 16.8385C13.898 16.8385 13.6379 16.5784 13.6379 16.2575V15.9717C13.6379 15.6818 13.4028 15.4467 13.1129 15.4467C12.8229 15.4467 12.5879 15.6818 12.5879 15.9717V16.9466C12.5879 17.2712 12.3247 17.5345 12 17.5344C11.6598 17.5344 11.384 17.2587 11.384 16.9184V15.9368C11.384 15.6661 11.1646 15.4467 10.8939 15.4467C10.6233 15.4467 10.4039 15.6661 10.4039 15.9368V16.2366C10.4039 16.569 10.1344 16.8385 9.80194 16.8385C9.4695 16.8385 9.2 16.569 9.2 16.2366V14.7508C9.2 14.5663 9.12625 14.3893 8.99497 14.2587C8.8637 14.1282 8.68565 14.0549 8.5 14.0549H7.275C6.79175 14.0549 6.4 13.6632 6.4 13.1799V11.2713C6.4 9.79478 6.99 8.37873 8.0402 7.33467C8.67248 6.70609 9.44037 6.24335 10.2755 5.97459L10.7531 4.42231C7.48195 5.00695 5 7.85088 5 11.2713V14.7508C5 14.9354 5.07375 15.1124 5.20503 15.2429C5.3363 15.3734 5.51435 15.4467 5.7 15.4467H6.925C7.40825 15.4467 7.8 15.8385 7.8 16.3217V17.5344C7.8 17.719 7.87375 17.896 8.00503 18.0265C8.10841 18.1293 8.24081 18.1966 8.38308 18.2206C8.40614 18.2245 8.42931 18.2278 8.45248 18.2312C8.50656 18.2391 8.56065 18.2469 8.6133 18.2613L11.7692 19.1242C11.9203 19.1655 12.0797 19.1655 12.2308 19.1242L15.3867 18.2613C15.4393 18.2469 15.4934 18.2391 15.5475 18.2312C15.5707 18.2278 15.5939 18.2245 15.6169 18.2206C15.7592 18.1966 15.8916 18.1293 15.995 18.0265C16.1263 17.896 16.2 17.719 16.2 17.5344V16.3217C16.2 15.8385 16.5918 15.4467 17.075 15.4467H18.3C18.4857 15.4467 18.6637 15.3734 18.795 15.2429C18.9263 15.1124 19 14.9354 19 14.7508V11.2713C19 7.85003 16.5168 5.00554 13.2444 4.42187L13.7219 5.97377Z"/>
</mask>
<path fill-rule="evenodd" clip-rule="evenodd" d="M13.7219 5.97377C14.5581 6.2424 15.3269 6.70545 15.9598 7.33467C17.01 8.37873 17.6 9.79478 17.6 11.2713V13.1799C17.6 13.6632 17.2082 14.0549 16.725 14.0549H15.5C15.3143 14.0549 15.1363 14.1282 15.005 14.2587C14.8737 14.3893 14.8 14.5663 14.8 14.7508V16.2575C14.8 16.5784 14.5399 16.8385 14.2189 16.8385C13.898 16.8385 13.6379 16.5784 13.6379 16.2575V15.9717C13.6379 15.6818 13.4028 15.4467 13.1129 15.4467C12.8229 15.4467 12.5879 15.6818 12.5879 15.9717V16.9466C12.5879 17.2712 12.3247 17.5345 12 17.5344C11.6598 17.5344 11.384 17.2587 11.384 16.9184V15.9368C11.384 15.6661 11.1646 15.4467 10.8939 15.4467C10.6233 15.4467 10.4039 15.6661 10.4039 15.9368V16.2366C10.4039 16.569 10.1344 16.8385 9.80194 16.8385C9.4695 16.8385 9.2 16.569 9.2 16.2366V14.7508C9.2 14.5663 9.12625 14.3893 8.99497 14.2587C8.8637 14.1282 8.68565 14.0549 8.5 14.0549H7.275C6.79175 14.0549 6.4 13.6632 6.4 13.1799V11.2713C6.4 9.79478 6.99 8.37873 8.0402 7.33467C8.67248 6.70609 9.44037 6.24335 10.2755 5.97459L10.7531 4.42231C7.48195 5.00695 5 7.85088 5 11.2713V14.7508C5 14.9354 5.07375 15.1124 5.20503 15.2429C5.3363 15.3734 5.51435 15.4467 5.7 15.4467H6.925C7.40825 15.4467 7.8 15.8385 7.8 16.3217V17.5344C7.8 17.719 7.87375 17.896 8.00503 18.0265C8.10841 18.1293 8.24081 18.1966 8.38308 18.2206C8.40614 18.2245 8.42931 18.2278 8.45248 18.2312C8.50656 18.2391 8.56065 18.2469 8.6133 18.2613L11.7692 19.1242C11.9203 19.1655 12.0797 19.1655 12.2308 19.1242L15.3867 18.2613C15.4393 18.2469 15.4934 18.2391 15.5475 18.2312C15.5707 18.2278 15.5939 18.2245 15.6169 18.2206C15.7592 18.1966 15.8916 18.1293 15.995 18.0265C16.1263 17.896 16.2 17.719 16.2 17.5344V16.3217C16.2 15.8385 16.5918 15.4467 17.075 15.4467H18.3C18.4857 15.4467 18.6637 15.3734 18.795 15.2429C18.9263 15.1124 19 14.9354 19 14.7508V11.2713C19 7.85003 16.5168 5.00554 13.2444 4.42187L13.7219 5.97377Z" fill="#1E1E1E"/>
<path d="M15.9598 7.33467L16.6648 6.62549V6.62549L15.9598 7.33467ZM13.7219 5.97377L12.7661 6.26786L12.9195 6.76632L13.416 6.92584L13.7219 5.97377ZM14.2189 16.8385V17.8385H14.2189L14.2189 16.8385ZM12 17.5344L12 16.5344H12V17.5344ZM10.8939 15.4467L10.8939 14.4467L10.8939 15.4467ZM9.80194 16.8385L9.80194 17.8385H9.80194V16.8385ZM8.99497 14.2587L8.28995 14.9679L8.28995 14.9679L8.99497 14.2587ZM8.0402 7.33467L8.74523 8.04384L8.74523 8.04384L8.0402 7.33467ZM10.2755 5.97459L10.5819 6.92652L11.078 6.76685L11.2313 6.26868L10.2755 5.97459ZM10.7531 4.42231L11.7089 4.7164L12.1911 3.14947L10.5772 3.43791L10.7531 4.42231ZM5.20503 15.2429L5.91005 14.5337H5.91005L5.20503 15.2429ZM8.00503 18.0265L7.3 18.7357L7.3 18.7357L8.00503 18.0265ZM8.38308 18.2206L8.21701 19.2067L8.21702 19.2067L8.38308 18.2206ZM8.45248 18.2312L8.30853 19.2208L8.30856 19.2208L8.45248 18.2312ZM8.6133 18.2613L8.34957 19.2259L8.34958 19.2259L8.6133 18.2613ZM11.7692 19.1242L12.033 18.1596H12.033L11.7692 19.1242ZM12.2308 19.1242L11.967 18.1596H11.967L12.2308 19.1242ZM15.3867 18.2613L15.6504 19.2259L15.6504 19.2259L15.3867 18.2613ZM15.5475 18.2312L15.6915 19.2208L15.6915 19.2208L15.5475 18.2312ZM15.6169 18.2206L15.783 19.2067L15.783 19.2067L15.6169 18.2206ZM15.995 18.0265L16.7 18.7357L16.7 18.7357L15.995 18.0265ZM13.2444 4.42187L13.42 3.43741L11.8067 3.14966L12.2886 4.71596L13.2444 4.42187ZM16.6648 6.62549C15.9186 5.88359 15.0125 5.33806 14.0278 5.0217L13.416 6.92584C14.1036 7.14675 14.7352 7.52731 15.2548 8.04384L16.6648 6.62549ZM18.6 11.2713C18.6 9.52766 17.9032 7.85663 16.6648 6.62549L15.2548 8.04384C16.1168 8.90083 16.6 10.0619 16.6 11.2713H18.6ZM18.6 13.1799V11.2713H16.6V13.1799H18.6ZM16.725 15.0549C17.7605 15.0549 18.6 14.2155 18.6 13.1799H16.6C16.6 13.1109 16.656 13.0549 16.725 13.0549V15.0549ZM15.5 15.0549H16.725V13.0549H15.5V15.0549ZM15.7101 14.9679C15.6533 15.0243 15.5777 15.0549 15.5 15.0549V13.0549C15.051 13.0549 14.6193 13.2322 14.3 13.5496L15.7101 14.9679ZM15.8 14.7508C15.8 14.8334 15.767 14.9114 15.7101 14.9679L14.3 13.5496C13.9805 13.8672 13.8 14.2991 13.8 14.7508H15.8ZM15.8 16.2575V14.7508H13.8V16.2575H15.8ZM14.2189 17.8385C15.0921 17.8385 15.8 17.1307 15.8 16.2575H13.8C13.8 16.0261 13.9876 15.8385 14.2189 15.8385L14.2189 17.8385ZM12.6379 16.2575C12.6379 17.1307 13.3458 17.8385 14.2189 17.8385V15.8385C14.4503 15.8385 14.6379 16.0261 14.6379 16.2575H12.6379ZM12.6379 15.9717V16.2575H14.6379V15.9717H12.6379ZM13.1129 16.4467C12.8506 16.4467 12.6379 16.2341 12.6379 15.9717H14.6379C14.6379 15.1295 13.9551 14.4467 13.1129 14.4467V16.4467ZM13.5879 15.9717C13.5879 16.2341 13.3752 16.4467 13.1129 16.4467V14.4467C12.2707 14.4467 11.5879 15.1295 11.5879 15.9717H13.5879ZM13.5879 16.9466V15.9717H11.5879V16.9466H13.5879ZM12 18.5344C12.877 18.5345 13.5879 17.8235 13.5879 16.9466H11.5879C11.5879 16.719 11.7724 16.5344 12 16.5344L12 18.5344ZM10.384 16.9184C10.384 17.8109 11.1075 18.5344 12 18.5344V16.5344C12.2121 16.5344 12.384 16.7064 12.384 16.9184H10.384ZM10.384 15.9368V16.9184H12.384V15.9368H10.384ZM10.8939 16.4467C10.6123 16.4467 10.384 16.2184 10.384 15.9368H12.384C12.384 15.1139 11.7169 14.4467 10.8939 14.4467L10.8939 16.4467ZM11.4039 15.9368C11.4039 16.2184 11.1756 16.4467 10.8939 16.4467L10.8939 14.4467C10.071 14.4467 9.40389 15.1139 9.40389 15.9368H11.4039ZM11.4039 16.2366V15.9368H9.40389V16.2366H11.4039ZM9.80194 17.8385C10.6867 17.8385 11.4039 17.1213 11.4039 16.2366H9.40389C9.40389 16.0168 9.58211 15.8385 9.80194 15.8385V17.8385ZM8.2 16.2366C8.2 17.1213 8.91721 17.8385 9.80194 17.8385L9.80195 15.8385C10.0218 15.8385 10.2 16.0168 10.2 16.2366H8.2ZM8.2 14.7508V16.2366H10.2V14.7508H8.2ZM8.28995 14.9679C8.23304 14.9114 8.2 14.8334 8.2 14.7508H10.2C10.2 14.2991 10.0195 13.8672 9.7 13.5496L8.28995 14.9679ZM8.5 15.0549C8.42232 15.0549 8.34665 15.0243 8.28995 14.9679L9.7 13.5496C9.38075 13.2322 8.94898 13.0549 8.5 13.0549V15.0549ZM7.275 15.0549H8.5V13.0549H7.275V15.0549ZM5.4 13.1799C5.4 14.2155 6.23947 15.0549 7.275 15.0549V13.0549C7.34404 13.0549 7.4 13.1109 7.4 13.1799H5.4ZM5.4 11.2713V13.1799H7.4V11.2713H5.4ZM7.33517 6.62549C6.09679 7.85663 5.4 9.52766 5.4 11.2713H7.4C7.4 10.0619 7.88321 8.90083 8.74523 8.04384L7.33517 6.62549ZM9.96918 5.02267C8.98566 5.33917 8.08068 5.88434 7.33517 6.62549L8.74523 8.04384C9.26427 7.52784 9.89508 7.14752 10.5819 6.92652L9.96918 5.02267ZM11.2313 6.26868L11.7089 4.7164L9.79737 4.12822L9.31974 5.68051L11.2313 6.26868ZM6 11.2713C6 8.34792 8.12221 5.90837 10.9291 5.40671L10.5772 3.43791C6.84169 4.10554 4 7.35384 4 11.2713H6ZM6 14.7508V11.2713H4V14.7508H6ZM5.91005 14.5337C5.96696 14.5903 6 14.6683 6 14.7508H4C4 15.2025 4.18054 15.6345 4.5 15.9521L5.91005 14.5337ZM5.7 14.4467C5.77767 14.4467 5.85335 14.4774 5.91005 14.5337L4.5 15.9521C4.81926 16.2695 5.25102 16.4467 5.7 16.4467V14.4467ZM6.925 14.4467H5.7V16.4467H6.925V14.4467ZM8.8 16.3217C8.8 15.2862 7.96053 14.4467 6.925 14.4467V16.4467C6.85596 16.4467 6.8 16.3908 6.8 16.3217H8.8ZM8.8 17.5344V16.3217H6.8V17.5344H8.8ZM8.71005 17.3174C8.76696 17.3739 8.8 17.4519 8.8 17.5344H6.8C6.8 17.9861 6.98054 18.4181 7.3 18.7357L8.71005 17.3174ZM8.54915 17.2345C8.60887 17.2445 8.66533 17.2729 8.71005 17.3173L7.3 18.7357C7.55149 18.9857 7.87275 19.1487 8.21701 19.2067L8.54915 17.2345ZM8.59642 17.2416C8.57139 17.238 8.55932 17.2362 8.54914 17.2345L8.21702 19.2067C8.25296 19.2127 8.28722 19.2177 8.30853 19.2208L8.59642 17.2416ZM8.87702 17.2967C8.75536 17.2635 8.6402 17.248 8.59639 17.2416L8.30856 19.2208C8.32271 19.2229 8.33246 19.2243 8.34156 19.2257C8.35024 19.227 8.35575 19.2279 8.35935 19.2286C8.36694 19.2299 8.36185 19.2293 8.34957 19.2259L8.87702 17.2967ZM12.033 18.1596L8.87702 17.2967L8.34958 19.2259L11.5055 20.0888L12.033 18.1596ZM11.967 18.1596C11.9886 18.1537 12.0114 18.1537 12.033 18.1596L11.5055 20.0888C11.8292 20.1773 12.1708 20.1773 12.4945 20.0888L11.967 18.1596ZM15.123 17.2967L11.967 18.1596L12.4945 20.0888L15.6504 19.2259L15.123 17.2967ZM15.4036 17.2416C15.3598 17.248 15.2446 17.2635 15.123 17.2967L15.6504 19.2259C15.6382 19.2293 15.6331 19.2299 15.6407 19.2286C15.6443 19.2279 15.6498 19.227 15.6585 19.2257C15.6676 19.2243 15.6773 19.2228 15.6915 19.2208L15.4036 17.2416ZM15.4509 17.2345C15.4407 17.2362 15.4286 17.238 15.4036 17.2416L15.6915 19.2208C15.7127 19.2177 15.747 19.2128 15.783 19.2067L15.4509 17.2345ZM15.2899 17.3173C15.3347 17.2729 15.3911 17.2445 15.4508 17.2345L15.783 19.2067C16.1272 19.1487 16.4485 18.9857 16.7 18.7357L15.2899 17.3173ZM15.2 17.5344C15.2 17.4519 15.233 17.3739 15.2899 17.3174L16.7 18.7357C17.0195 18.4181 17.2 17.9861 17.2 17.5344H15.2ZM15.2 16.3217V17.5344H17.2V16.3217H15.2ZM17.075 14.4467C16.0395 14.4467 15.2 15.2862 15.2 16.3217H17.2C17.2 16.3908 17.144 16.4467 17.075 16.4467V14.4467ZM18.3 14.4467H17.075V16.4467H18.3V14.4467ZM18.0899 14.5337C18.1467 14.4774 18.2223 14.4467 18.3 14.4467V16.4467C18.749 16.4467 19.1807 16.2695 19.5 15.9521L18.0899 14.5337ZM18 14.7508C18 14.6683 18.033 14.5903 18.0899 14.5337L19.5 15.9521C19.8195 15.6345 20 15.2025 20 14.7508H18ZM18 11.2713V14.7508H20V11.2713H18ZM13.0688 5.40634C15.8767 5.90716 18 8.3472 18 11.2713H20C20 7.35287 17.1569 4.10393 13.42 3.43741L13.0688 5.40634ZM12.2886 4.71596L12.7661 6.26786L14.6777 5.67968L14.2002 4.12779L12.2886 4.71596Z" fill="#FFEFD7" mask="url(#path-5-outside-2_1493_3478)"/>
<path d="M14.1895 7.59375L12.877 6.28125L12.002 3L11.127 6.28125L9.81445 7.59375L11.127 8.90625L12.002 9.78125L12.877 8.90625L14.1895 7.59375Z" fill="#7E7E7E"/>
<path d="M8.44896 12.5844C8.57636 12.6369 8.71289 12.6639 8.85078 12.6639C9.12926 12.6639 9.39633 12.5539 9.59324 12.3581C9.79016 12.1624 9.90078 11.8969 9.90078 11.62C9.90078 11.3432 9.79016 11.0777 9.59324 10.8819C9.39633 10.6861 9.12926 10.5762 8.85078 10.5762C8.71289 10.5762 8.57636 10.6032 8.44896 10.6556C8.32157 10.7081 8.20582 10.785 8.10832 10.8819C8.01082 10.9788 7.93347 11.0939 7.88071 11.2206C7.82794 11.3472 7.80078 11.4829 7.80078 11.62C7.80078 11.7571 7.82794 11.8929 7.88071 12.0195C7.93347 12.1461 8.01082 12.2612 8.10832 12.3581C8.20582 12.4551 8.32157 12.532 8.44896 12.5844Z" fill="#1E1E1E"/>
<path d="M14.749 12.5844C14.8764 12.6369 15.0129 12.6639 15.1508 12.6639C15.4293 12.6639 15.6963 12.5539 15.8932 12.3581C16.0902 12.1624 16.2008 11.8969 16.2008 11.62C16.2008 11.3432 16.0902 11.0777 15.8932 10.8819C15.6963 10.6861 15.4293 10.5762 15.1508 10.5762C15.0129 10.5762 14.8764 10.6032 14.749 10.6556C14.6216 10.7081 14.5058 10.785 14.4083 10.8819C14.3108 10.9788 14.2335 11.0939 14.1807 11.2206C14.1279 11.3472 14.1008 11.4829 14.1008 11.62C14.1008 11.7571 14.1279 11.8929 14.1807 12.0195C14.2335 12.1461 14.3108 12.2612 14.4083 12.3581C14.5058 12.4551 14.6216 12.532 14.749 12.5844Z" fill="#1E1E1E"/>
</svg>
