<svg width="24" height="24" viewBox="0 0 24 24" fill="none" xmlns="http://www.w3.org/2000/svg">
<mask id="path-1-inside-1_1174_2135" fill="white">
<path d="M24 12C24 18.6274 18.6274 24 12 24C5.37258 24 0 18.6274 0 12C0 5.37258 5.37258 0 12 0C18.6274 0 24 5.37258 24 12Z"/>
</mask>
<path d="M24 12C24 18.6274 18.6274 24 12 24C5.37258 24 0 18.6274 0 12C0 5.37258 5.37258 0 12 0C18.6274 0 24 5.37258 24 12Z" fill="#1E1E1E"/>
<path d="M23 12C23 18.0751 18.0751 23 12 23V25C19.1797 25 25 19.1797 25 12H23ZM12 23C5.92487 23 1 18.0751 1 12H-1C-1 19.1797 4.8203 25 12 25V23ZM1 12C1 5.92487 5.92487 1 12 1V-1C4.8203 -1 -1 4.8203 -1 12H1ZM12 1C18.0751 1 23 5.92487 23 12H25C25 4.8203 19.1797 -1 12 -1V1Z" fill="#FFEFD7" mask="url(#path-1-inside-1_1174_2135)"/>
<path d="M9.24316 21.5629C11.0509 22.0364 12.9501 22.0365 14.7578 21.5631L15.1306 21.4655C15.9201 21.2587 16.6748 20.9365 17.3703 20.5094C19.1534 19.4141 20.4566 17.6852 21.0185 15.6694L21.4294 14.195L12.0014 12.8566L2.57227 14.195L2.98363 15.6701C3.5457 17.6855 4.84871 19.414 6.63151 20.5092C7.32702 20.9365 8.08179 21.2587 8.87141 21.4656L9.24316 21.5629Z" fill="#7E7E7E"/>
<path d="M12.294 3.88074C12.1187 3.75328 11.8812 3.7533 11.7059 3.88079L10.5044 4.75465C9.46881 5.50784 8.57857 6.44278 7.87699 7.514C7.50793 8.0775 7.19353 8.67496 6.93808 9.29824L5.53735 12.716C5.47089 12.8781 5.49418 13.0632 5.59873 13.2039L5.83675 13.524C7.39435 15.6193 9.43362 17.3086 11.7821 18.4492C11.92 18.5162 12.0811 18.5162 12.219 18.4492C14.5671 17.3086 16.606 15.6193 18.1632 13.5242L18.4013 13.2038C18.5058 13.0632 18.5291 12.8782 18.4627 12.716L17.063 9.29876C16.8076 8.67517 16.4931 8.07743 16.1239 7.51369C15.4224 6.44266 14.5322 5.50795 13.4967 4.75509L12.294 3.88074Z" fill="#FFEFD7" stroke="#1E1E1E" stroke-linejoin="round"/>
<path d="M12.0006 5.14258L12.786 5.79216C13.5395 6.41529 14.1753 7.16838 14.6632 8.01574C14.904 8.43403 15.1074 8.87279 15.2709 9.32691L16.2863 12.1467L16.0216 12.5518C15.0062 14.1058 13.6258 15.3877 12.0009 16.2854C10.3758 15.3877 8.99518 14.1058 7.9795 12.5516L7.71484 12.1467L8.73092 9.32662C8.89447 8.87269 9.0978 8.43411 9.33855 8.01597C9.82653 7.16845 10.4623 6.41516 11.2159 5.79177L12.0006 5.14258Z" fill="#1E1E1E"/>
</svg>
