<svg width="24" height="24" viewBox="0 0 24 24" fill="none" xmlns="http://www.w3.org/2000/svg">
<mask id="path-1-inside-1_1350_949" fill="white">
<path d="M24 12C24 18.6274 18.6274 24 12 24C5.37258 24 0 18.6274 0 12C0 5.37258 5.37258 0 12 0C18.6274 0 24 5.37258 24 12Z"/>
</mask>
<path d="M24 12C24 18.6274 18.6274 24 12 24C5.37258 24 0 18.6274 0 12C0 5.37258 5.37258 0 12 0C18.6274 0 24 5.37258 24 12Z" fill="#FFA012"/>
<path d="M23 12C23 18.0751 18.0751 23 12 23V25C19.1797 25 25 19.1797 25 12H23ZM12 23C5.92487 23 1 18.0751 1 12H-1C-1 19.1797 4.8203 25 12 25V23ZM1 12C1 5.92487 5.92487 1 12 1V-1C4.8203 -1 -1 4.8203 -1 12H1ZM12 1C18.0751 1 23 5.92487 23 12H25C25 4.8203 19.1797 -1 12 -1V1Z" fill="#FFEFD7" mask="url(#path-1-inside-1_1350_949)"/>
<line x1="10.1109" y1="14.7447" x2="18.4813" y2="6.37427" stroke="#1E1E1E" stroke-width="0.653088"/>
<path d="M19.3257 5.65183L18.4629 8.58192L17.7563 7.22134L16.3956 6.51459L19.3257 5.65183Z" fill="#1E1E1E"/>
<path d="M12.7866 12.1909L12.7085 14.3363L10.4197 16.6251L10.1709 14.8067L8.35236 14.5578L10.6411 12.269L12.7866 12.1909Z" fill="#1E1E1E"/>
<line x1="9.28277" y1="19.6666" x2="17.6532" y2="11.2961" stroke="#1E1E1E" stroke-width="0.653088"/>
<path d="M18.4956 10.5737L17.6328 13.5038L16.9262 12.1432L15.5655 11.4365L18.4956 10.5737Z" fill="#1E1E1E"/>
<path d="M11.9565 17.1128L11.8784 19.2582L9.58962 21.547L9.34082 19.7286L7.52229 19.4797L9.81107 17.1909L11.9565 17.1128Z" fill="#1E1E1E"/>
<line x1="5.18804" y1="15.5757" x2="13.5585" y2="7.20533" stroke="#1E1E1E" stroke-width="0.653088"/>
<path d="M14.4009 6.48289L13.5381 9.41298L12.8315 8.05239L11.4708 7.34564L14.4009 6.48289Z" fill="#1E1E1E"/>
<path d="M7.86179 13.0219L7.78368 15.1674L5.4949 17.4562L5.24609 15.6378L3.42756 15.3888L5.71635 13.1001L7.86179 13.0219Z" fill="#1E1E1E"/>
</svg>
