<svg width="24" height="24" viewBox="0 0 24 24" fill="none" xmlns="http://www.w3.org/2000/svg">
<mask id="path-1-inside-1_1174_2075" fill="white">
<path d="M24 12C24 18.6274 18.6274 24 12 24C5.37258 24 0 18.6274 0 12C0 5.37258 5.37258 0 12 0C18.6274 0 24 5.37258 24 12Z"/>
</mask>
<path d="M24 12C24 18.6274 18.6274 24 12 24C5.37258 24 0 18.6274 0 12C0 5.37258 5.37258 0 12 0C18.6274 0 24 5.37258 24 12Z" fill="#1E1E1E"/>
<path d="M23 12C23 18.0751 18.0751 23 12 23V25C19.1797 25 25 19.1797 25 12H23ZM12 23C5.92487 23 1 18.0751 1 12H-1C-1 19.1797 4.8203 25 12 25V23ZM1 12C1 5.92487 5.92487 1 12 1V-1C4.8203 -1 -1 4.8203 -1 12H1ZM12 1C18.0751 1 23 5.92487 23 12H25C25 4.8203 19.1797 -1 12 -1V1Z" fill="#FFEFD7" mask="url(#path-1-inside-1_1174_2075)"/>
<line x1="10.1109" y1="14.7437" x2="18.4813" y2="6.3733" stroke="#FFEFD7" stroke-width="0.653088"/>
<path d="M19.3266 5.65086L18.4639 8.58095L17.7572 7.22036L16.3965 6.51361L19.3266 5.65086Z" fill="#FFEFD7"/>
<path d="M12.7876 12.1899L12.7095 14.3354L10.4207 16.6242L10.1719 14.8057L8.35334 14.5568L10.6421 12.268L12.7876 12.1899Z" fill="#7E7E7E"/>
<line x1="9.28277" y1="19.6656" x2="17.6532" y2="11.2952" stroke="#FFEFD7" stroke-width="0.653088"/>
<path d="M18.4966 10.5727L17.6338 13.5028L16.9272 12.1422L15.5665 11.4355L18.4966 10.5727Z" fill="#FFEFD7"/>
<path d="M11.9575 17.1118L11.8794 19.2572L9.5906 21.546L9.3418 19.7276L7.52326 19.4787L9.81205 17.1899L11.9575 17.1118Z" fill="#7E7E7E"/>
<line x1="5.18902" y1="15.5738" x2="13.5594" y2="7.20337" stroke="#FFEFD7" stroke-width="0.653088"/>
<path d="M14.4028 6.48093L13.5401 9.41102L12.8334 8.05044L11.4727 7.34369L14.4028 6.48093Z" fill="#FFEFD7"/>
<path d="M7.86375 13.02L7.78564 15.1654L5.49685 17.4542L5.24805 15.6358L3.42951 15.3869L5.7183 13.0981L7.86375 13.02Z" fill="#7E7E7E"/>
</svg>
