<svg width="25" height="26" viewBox="0 0 25 26" fill="none" xmlns="http://www.w3.org/2000/svg">
<mask id="path-1-inside-1_1350_965" fill="white">
<path d="M24 13.0615C24 19.6889 18.6274 25.0615 12 25.0615C5.37258 25.0615 0 19.6889 0 13.0615C0 6.43411 5.37258 1.06152 12 1.06152C18.6274 1.06152 24 6.43411 24 13.0615Z"/>
</mask>
<path d="M24 13.0615C24 19.6889 18.6274 25.0615 12 25.0615C5.37258 25.0615 0 19.6889 0 13.0615C0 6.43411 5.37258 1.06152 12 1.06152C18.6274 1.06152 24 6.43411 24 13.0615Z" fill="#FFA012"/>
<path d="M23 13.0615C23 19.1367 18.0751 24.0615 12 24.0615V26.0615C19.1797 26.0615 25 20.2412 25 13.0615H23ZM12 24.0615C5.92487 24.0615 1 19.1367 1 13.0615H-1C-1 20.2412 4.8203 26.0615 12 26.0615V24.0615ZM1 13.0615C1 6.98639 5.92487 2.06152 12 2.06152V0.0615234C4.8203 0.0615234 -1 5.88182 -1 13.0615H1ZM12 2.06152C18.0751 2.06152 23 6.98639 23 13.0615H25C25 5.88182 19.1797 0.0615234 12 0.0615234V2.06152Z" fill="white" mask="url(#path-1-inside-1_1350_965)"/>
<line y1="-0.5" x2="10.1806" y2="-0.5" transform="matrix(0.707107 -0.707107 -0.707107 -0.707107 8.84961 15.3125)" stroke="#1E1E1E"/>
<path d="M17.5356 7.31492L14.2724 8.22168L15.81 9.04038L16.6289 10.5782L17.5356 7.31492Z" fill="#1E1E1E"/>
<path d="M11.2685 13.5752L8.89882 13.5913L6.44298 16.0472L8.4618 16.3818L8.79655 18.4007L11.2524 15.9449L11.2685 13.5752Z" fill="#1E1E1E"/>
<path d="M15.3398 19.7246L5.05417 9.43894" stroke="#1E1E1E"/>
<path d="M4.48145 9.8623C7.97358 7.51828 10.8665 7.80428 13.2027 9.30948C12.9352 10.8839 13.9154 11.8641 15.5441 11.5424C17.2777 13.8787 17.373 16.6171 14.9083 20.2891" stroke="#1E1E1E"/>
</svg>
