<svg width="25" height="26" viewBox="0 0 25 26" fill="none" xmlns="http://www.w3.org/2000/svg">
<mask id="path-1-inside-1_1174_2091" fill="white">
<path d="M24 13.0625C24 19.6899 18.6274 25.0625 12 25.0625C5.37258 25.0625 0 19.6899 0 13.0625C0 6.43508 5.37258 1.0625 12 1.0625C18.6274 1.0625 24 6.43508 24 13.0625Z"/>
</mask>
<path d="M24 13.0625C24 19.6899 18.6274 25.0625 12 25.0625C5.37258 25.0625 0 19.6899 0 13.0625C0 6.43508 5.37258 1.0625 12 1.0625C18.6274 1.0625 24 6.43508 24 13.0625Z" fill="#1E1E1E"/>
<path d="M23 13.0625C23 19.1376 18.0751 24.0625 12 24.0625V26.0625C19.1797 26.0625 25 20.2422 25 13.0625H23ZM12 24.0625C5.92487 24.0625 1 19.1376 1 13.0625H-1C-1 20.2422 4.8203 26.0625 12 26.0625V24.0625ZM1 13.0625C1 6.98737 5.92487 2.0625 12 2.0625V0.0625C4.8203 0.0625 -1 5.8828 -1 13.0625H1ZM12 2.0625C18.0751 2.0625 23 6.98737 23 13.0625H25C25 5.8828 19.1797 0.0625 12 0.0625V2.0625Z" fill="#FFEFD7" mask="url(#path-1-inside-1_1174_2091)"/>
<line y1="-0.5" x2="10.1806" y2="-0.5" transform="matrix(0.707107 -0.707107 -0.707107 -0.707107 8.84766 15.3164)" stroke="#7E7E7E"/>
<path d="M17.5346 7.31785L14.2714 8.22461L15.8091 9.04331L16.6279 10.5811L17.5346 7.31785Z" fill="#7E7E7E"/>
<path d="M11.2685 13.5771L8.89882 13.5933L6.44298 16.0491L8.4618 16.3837L8.79655 18.4027L11.2524 15.9468L11.2685 13.5771Z" fill="#7E7E7E"/>
<path d="M15.3379 19.7246L5.05222 9.43894" stroke="#FFEFD7"/>
<path d="M4.48047 9.86328C7.9726 7.51926 10.8655 7.80526 13.2017 9.31046C12.9342 10.8849 13.9144 11.8651 15.5431 11.5434C17.2767 13.8797 17.3721 16.6181 14.9073 20.2901" stroke="#FFEFD7"/>
</svg>
