<svg width="24" height="24" viewBox="0 0 24 24" fill="none" xmlns="http://www.w3.org/2000/svg">
<mask id="path-1-inside-1_1350_978" fill="white">
<path d="M24 12C24 18.6274 18.6274 24 12 24C5.37258 24 0 18.6274 0 12C0 5.37258 5.37258 0 12 0C18.6274 0 24 5.37258 24 12Z"/>
</mask>
<path d="M24 12C24 18.6274 18.6274 24 12 24C5.37258 24 0 18.6274 0 12C0 5.37258 5.37258 0 12 0C18.6274 0 24 5.37258 24 12Z" fill="#FFA012"/>
<path d="M23 12C23 18.0751 18.0751 23 12 23V25C19.1797 25 25 19.1797 25 12H23ZM12 23C5.92487 23 1 18.0751 1 12H-1C-1 19.1797 4.8203 25 12 25V23ZM1 12C1 5.92487 5.92487 1 12 1V-1C4.8203 -1 -1 4.8203 -1 12H1ZM12 1C18.0751 1 23 5.92487 23 12H25C25 4.8203 19.1797 -1 12 -1V1Z" fill="white" mask="url(#path-1-inside-1_1350_978)"/>
<path fill-rule="evenodd" clip-rule="evenodd" d="M12.8583 8.57143V6H17.1443V8.57143H12.8583ZM11.0371 17.9976H16.0101L15.9762 17.3585C15.8481 14.9436 13.9311 13.0077 11.5176 12.8557L12.1363 9.42718H12.8583V9.4269H16.2875L15.5375 13.4987C18.0229 13.4987 20.0378 15.5135 20.0378 17.999H16.2875H11.0371V17.9976Z" fill="#1E1E1E"/>
<path fill-rule="evenodd" clip-rule="evenodd" d="M12.0007 5.99902H5.14355V8.57045H12.0007V5.99902ZM11.1155 9.42759H5.86509V17.9997H11.1155H14.8658C14.8658 15.5142 12.8509 13.4994 10.3654 13.4994L11.1155 9.42759Z" fill="#1E1E1E"/>
<rect x="12.8574" y="6" width="4.28571" height="2.57143" fill="#1E1E1E"/>
<rect x="5.14258" y="6" width="6.85714" height="2.57143" fill="#1E1E1E"/>
</svg>
