<svg width="24" height="24" viewBox="0 0 24 24" fill="none" xmlns="http://www.w3.org/2000/svg">
<mask id="path-1-inside-1_1174_2104" fill="white">
<path d="M24 12C24 18.6274 18.6274 24 12 24C5.37258 24 0 18.6274 0 12C0 5.37258 5.37258 0 12 0C18.6274 0 24 5.37258 24 12Z"/>
</mask>
<path d="M24 12C24 18.6274 18.6274 24 12 24C5.37258 24 0 18.6274 0 12C0 5.37258 5.37258 0 12 0C18.6274 0 24 5.37258 24 12Z" fill="#1E1E1E"/>
<path d="M23 12C23 18.0751 18.0751 23 12 23V25C19.1797 25 25 19.1797 25 12H23ZM12 23C5.92487 23 1 18.0751 1 12H-1C-1 19.1797 4.8203 25 12 25V23ZM1 12C1 5.92487 5.92487 1 12 1V-1C4.8203 -1 -1 4.8203 -1 12H1ZM12 1C18.0751 1 23 5.92487 23 12H25C25 4.8203 19.1797 -1 12 -1V1Z" fill="#FFEFD7" mask="url(#path-1-inside-1_1174_2104)"/>
<path fill-rule="evenodd" clip-rule="evenodd" d="M12.8583 8.57143V6H17.1443V8.57143H12.8583ZM11.0371 17.9976H16.0101L15.9762 17.3585C15.8481 14.9436 13.9311 13.0077 11.5176 12.8557L12.1363 9.42718H12.8583V9.4269H16.2875L15.5375 13.4987C18.0229 13.4987 20.0378 15.5135 20.0378 17.999H16.2875H11.0371V17.9976Z" fill="#FFEFD7"/>
<path fill-rule="evenodd" clip-rule="evenodd" d="M11.9997 5.99805H5.14258V8.56948H11.9997V5.99805ZM11.1145 9.42662H5.86412V17.9987H11.1145H14.8648C14.8648 15.5133 12.8499 13.4984 10.3645 13.4984L11.1145 9.42662Z" fill="#FFEFD7"/>
<rect x="12.8574" y="6" width="4.28571" height="2.57143" fill="#7E7E7E"/>
<rect x="5.14258" y="6" width="6.85714" height="2.57143" fill="#7E7E7E"/>
</svg>
