<svg width="24" height="24" viewBox="0 0 24 24" fill="none" xmlns="http://www.w3.org/2000/svg">
<mask id="path-1-inside-1_1350_994" fill="white">
<path d="M24 12C24 18.6274 18.6274 24 12 24C5.37258 24 0 18.6274 0 12C0 5.37258 5.37258 0 12 0C18.6274 0 24 5.37258 24 12Z"/>
</mask>
<path d="M24 12C24 18.6274 18.6274 24 12 24C5.37258 24 0 18.6274 0 12C0 5.37258 5.37258 0 12 0C18.6274 0 24 5.37258 24 12Z" fill="#FFA012"/>
<path d="M23 12C23 18.0751 18.0751 23 12 23V25C19.1797 25 25 19.1797 25 12H23ZM12 23C5.92487 23 1 18.0751 1 12H-1C-1 19.1797 4.8203 25 12 25V23ZM1 12C1 5.92487 5.92487 1 12 1V-1C4.8203 -1 -1 4.8203 -1 12H1ZM12 1C18.0751 1 23 5.92487 23 12H25C25 4.8203 19.1797 -1 12 -1V1Z" fill="#FFEFD7" mask="url(#path-1-inside-1_1350_994)"/>
<path d="M6.85645 7.71387H17.1422L17.1422 19.2853L17.091 19.2981C15.9864 19.5742 14.8521 19.7135 13.7136 19.7127L12.5136 10.7136H11.485L10.285 19.7127C9.20304 19.7135 8.12471 19.5873 7.07216 19.3367L6.85645 19.2853L6.85645 7.71387Z" fill="#1E1E1E"/>
<rect x="6.85742" y="5.14258" width="10.2857" height="1.71429" fill="#1E1E1E"/>
</svg>
