<svg width="24" height="24" viewBox="0 0 24 24" fill="none" xmlns="http://www.w3.org/2000/svg">
<mask id="path-1-inside-1_1174_2120" fill="white">
<path d="M24 12C24 18.6274 18.6274 24 12 24C5.37258 24 0 18.6274 0 12C0 5.37258 5.37258 0 12 0C18.6274 0 24 5.37258 24 12Z"/>
</mask>
<path d="M24 12C24 18.6274 18.6274 24 12 24C5.37258 24 0 18.6274 0 12C0 5.37258 5.37258 0 12 0C18.6274 0 24 5.37258 24 12Z" fill="#1E1E1E"/>
<path d="M23 12C23 18.0751 18.0751 23 12 23V25C19.1797 25 25 19.1797 25 12H23ZM12 23C5.92487 23 1 18.0751 1 12H-1C-1 19.1797 4.8203 25 12 25V23ZM1 12C1 5.92487 5.92487 1 12 1V-1C4.8203 -1 -1 4.8203 -1 12H1ZM12 1C18.0751 1 23 5.92487 23 12H25C25 4.8203 19.1797 -1 12 -1V1Z" fill="#FFEFD7" mask="url(#path-1-inside-1_1174_2120)"/>
<path d="M6.85742 7.71289H17.1431L17.1431 19.2843L17.092 19.2971C15.9874 19.5733 14.8531 19.7125 13.7146 19.7117L12.5146 10.7126H11.486L10.286 19.7117C9.20402 19.7125 8.12569 19.5863 7.07314 19.3357L6.85742 19.2843L6.85742 7.71289Z" fill="#FFEFD7"/>
<rect x="6.85742" y="5.14258" width="10.2857" height="1.71429" fill="#7E7E7E"/>
</svg>
