<svg width="24" height="24" viewBox="0 0 24 24" fill="none" xmlns="http://www.w3.org/2000/svg">
<mask id="path-1-inside-1_1350_1000" fill="white">
<path d="M24 12C24 18.6274 18.6274 24 12 24C5.37258 24 0 18.6274 0 12C0 5.37258 5.37258 0 12 0C18.6274 0 24 5.37258 24 12Z"/>
</mask>
<path d="M24 12C24 18.6274 18.6274 24 12 24C5.37258 24 0 18.6274 0 12C0 5.37258 5.37258 0 12 0C18.6274 0 24 5.37258 24 12Z" fill="#FFA012"/>
<path d="M23 12C23 18.0751 18.0751 23 12 23V25C19.1797 25 25 19.1797 25 12H23ZM12 23C5.92487 23 1 18.0751 1 12H-1C-1 19.1797 4.8203 25 12 25V23ZM1 12C1 5.92487 5.92487 1 12 1V-1C4.8203 -1 -1 4.8203 -1 12H1ZM12 1C18.0751 1 23 5.92487 23 12H25C25 4.8203 19.1797 -1 12 -1V1Z" fill="white" mask="url(#path-1-inside-1_1350_1000)"/>
<path d="M3.42969 12.8567C8.44084 8.8478 15.5614 8.8478 20.5725 12.8567V11.1424C15.5614 7.13351 8.44084 7.13351 3.42969 11.1424V12.8567Z" fill="#1E1E1E"/>
<path d="M3.74204 10.7521L2.92969 10.1023V11.1426V12.8569V13.0972L3.11734 13.2473C8.31111 17.4023 15.6911 17.4023 20.8849 13.2473L21.0725 13.0972V12.8569V11.1426V10.1023L20.2602 10.7521C15.4316 14.615 8.57058 14.615 3.74204 10.7521Z" fill="#1E1E1E" stroke="#FFA012"/>
<mask id="path-5-outside-2_1350_1000" maskUnits="userSpaceOnUse" x="8.55078" y="11.8564" width="7" height="7" fill="black">
<rect fill="white" x="8.55078" y="11.8564" width="7" height="7"/>
<path fill-rule="evenodd" clip-rule="evenodd" d="M14.4487 12.8564H9.55078V17.1422H14.4487V12.8564ZM13.837 13.4692H10.1635V16.5304H13.837V13.4692Z"/>
</mask>
<path fill-rule="evenodd" clip-rule="evenodd" d="M14.4487 12.8564H9.55078V17.1422H14.4487V12.8564ZM13.837 13.4692H10.1635V16.5304H13.837V13.4692Z" fill="#1E1E1E"/>
<path d="M9.55078 12.8564V11.8564H8.55078V12.8564H9.55078ZM14.4487 12.8564H15.4487V11.8564H14.4487V12.8564ZM9.55078 17.1422H8.55078V18.1422H9.55078V17.1422ZM14.4487 17.1422V18.1422H15.4487V17.1422H14.4487ZM10.1635 13.4692V12.4692H9.1635V13.4692H10.1635ZM13.837 13.4692H14.837V12.4692H13.837V13.4692ZM10.1635 16.5304H9.1635V17.5304H10.1635V16.5304ZM13.837 16.5304V17.5304H14.837V16.5304H13.837ZM9.55078 13.8564H14.4487V11.8564H9.55078V13.8564ZM10.5508 17.1422V12.8564H8.55078V17.1422H10.5508ZM14.4487 16.1422H9.55078V18.1422H14.4487V16.1422ZM13.4487 12.8564V17.1422H15.4487V12.8564H13.4487ZM10.1635 14.4692H13.837V12.4692H10.1635V14.4692ZM11.1635 16.5304V13.4692H9.1635V16.5304H11.1635ZM13.837 15.5304H10.1635V17.5304H13.837V15.5304ZM12.837 13.4692V16.5304H14.837V13.4692H12.837Z" fill="#FFA012" mask="url(#path-5-outside-2_1350_1000)"/>
</svg>
