<svg width="24" height="24" viewBox="0 0 24 24" fill="none" xmlns="http://www.w3.org/2000/svg">
<mask id="path-1-inside-1_1174_2126" fill="white">
<path d="M24 12C24 18.6274 18.6274 24 12 24C5.37258 24 0 18.6274 0 12C0 5.37258 5.37258 0 12 0C18.6274 0 24 5.37258 24 12Z"/>
</mask>
<path d="M24 12C24 18.6274 18.6274 24 12 24C5.37258 24 0 18.6274 0 12C0 5.37258 5.37258 0 12 0C18.6274 0 24 5.37258 24 12Z" fill="#1E1E1E"/>
<path d="M23 12C23 18.0751 18.0751 23 12 23V25C19.1797 25 25 19.1797 25 12H23ZM12 23C5.92487 23 1 18.0751 1 12H-1C-1 19.1797 4.8203 25 12 25V23ZM1 12C1 5.92487 5.92487 1 12 1V-1C4.8203 -1 -1 4.8203 -1 12H1ZM12 1C18.0751 1 23 5.92487 23 12H25C25 4.8203 19.1797 -1 12 -1V1Z" fill="#FFEFD7" mask="url(#path-1-inside-1_1174_2126)"/>
<path d="M3.42969 12.8557C8.44084 8.84682 15.5614 8.84682 20.5725 12.8557V11.1415C15.5614 7.13253 8.44084 7.13253 3.42969 11.1415V12.8557Z" fill="#7E7E7E"/>
<path d="M3.74204 10.7502L2.92969 10.1003V11.1406V12.8549V13.0952L3.11734 13.2453C8.31111 17.4004 15.6911 17.4004 20.8849 13.2453L21.0725 13.0952V12.8549V11.1406V10.1003L20.2602 10.7502C15.4316 14.613 8.57058 14.613 3.74204 10.7502Z" fill="#FFEFD7" stroke="#1E1E1E"/>
<mask id="path-5-outside-2_1174_2126" maskUnits="userSpaceOnUse" x="8.55078" y="11.8574" width="7" height="7" fill="black">
<rect fill="white" x="8.55078" y="11.8574" width="7" height="7"/>
<path fill-rule="evenodd" clip-rule="evenodd" d="M14.4487 12.8574H9.55078V17.1431H14.4487V12.8574ZM13.837 13.4701H10.1635V16.5314H13.837V13.4701Z"/>
</mask>
<path fill-rule="evenodd" clip-rule="evenodd" d="M14.4487 12.8574H9.55078V17.1431H14.4487V12.8574ZM13.837 13.4701H10.1635V16.5314H13.837V13.4701Z" fill="#FFEFD7"/>
<path d="M9.55078 12.8574V11.8574H8.55078V12.8574H9.55078ZM14.4487 12.8574H15.4487V11.8574H14.4487V12.8574ZM9.55078 17.1431H8.55078V18.1431H9.55078V17.1431ZM14.4487 17.1431V18.1431H15.4487V17.1431H14.4487ZM10.1635 13.4701V12.4701H9.1635V13.4701H10.1635ZM13.837 13.4701H14.837V12.4701H13.837V13.4701ZM10.1635 16.5314H9.1635V17.5314H10.1635V16.5314ZM13.837 16.5314V17.5314H14.837V16.5314H13.837ZM9.55078 13.8574H14.4487V11.8574H9.55078V13.8574ZM10.5508 17.1431V12.8574H8.55078V17.1431H10.5508ZM14.4487 16.1431H9.55078V18.1431H14.4487V16.1431ZM13.4487 12.8574V17.1431H15.4487V12.8574H13.4487ZM10.1635 14.4701H13.837V12.4701H10.1635V14.4701ZM11.1635 16.5314V13.4701H9.1635V16.5314H11.1635ZM13.837 15.5314H10.1635V17.5314H13.837V15.5314ZM12.837 13.4701V16.5314H14.837V13.4701H12.837Z" fill="#1E1E1E" mask="url(#path-5-outside-2_1174_2126)"/>
</svg>
