<svg width="24" height="24" viewBox="0 0 24 24" fill="none" xmlns="http://www.w3.org/2000/svg">
<mask id="path-1-inside-1_1350_1009" fill="white">
<path d="M24 12C24 18.6274 18.6274 24 12 24C5.37258 24 0 18.6274 0 12C0 5.37258 5.37258 0 12 0C18.6274 0 24 5.37258 24 12Z"/>
</mask>
<path d="M24 12C24 18.6274 18.6274 24 12 24C5.37258 24 0 18.6274 0 12C0 5.37258 5.37258 0 12 0C18.6274 0 24 5.37258 24 12Z" fill="#FFA012"/>
<path d="M23 12C23 18.0751 18.0751 23 12 23V25C19.1797 25 25 19.1797 25 12H23ZM12 23C5.92487 23 1 18.0751 1 12H-1C-1 19.1797 4.8203 25 12 25V23ZM1 12C1 5.92487 5.92487 1 12 1V-1C4.8203 -1 -1 4.8203 -1 12H1ZM12 1C18.0751 1 23 5.92487 23 12H25C25 4.8203 19.1797 -1 12 -1V1Z" fill="white" mask="url(#path-1-inside-1_1350_1009)"/>
<path d="M9.24219 21.5639C11.0499 22.0374 12.9491 22.0375 14.7569 21.5641L15.1296 21.4664C15.9192 21.2597 16.6738 20.9375 17.3693 20.5104C19.1524 19.4151 20.4556 17.6862 21.0175 15.6703L21.4284 14.196L12.0004 12.8576L2.57129 14.196L2.98266 15.6711C3.54472 17.6865 4.84773 19.415 6.63053 20.5102C7.32604 20.9375 8.08081 21.2597 8.87044 21.4665L9.24219 21.5639Z" fill="#1E1E1E"/>
<path d="M12.294 3.88172C12.1187 3.75425 11.8812 3.75427 11.7059 3.88177L10.5044 4.75563C9.46881 5.50881 8.57857 6.44376 7.87699 7.51498C7.50793 8.07848 7.19353 8.67594 6.93808 9.29922L5.53735 12.7169C5.47089 12.8791 5.49418 13.0642 5.59873 13.2048L5.83675 13.525C7.39435 15.6203 9.43362 17.3096 11.7821 18.4502C11.92 18.5172 12.0811 18.5172 12.219 18.4502C14.5671 17.3096 16.606 15.6203 18.1632 13.5251L18.4013 13.2048C18.5058 13.0642 18.5291 12.8791 18.4627 12.717L17.063 9.29974C16.8076 8.67615 16.4931 8.0784 16.1239 7.51467C15.4224 6.44364 14.5322 5.50893 13.4967 4.75607L12.294 3.88172Z" fill="#1E1E1E" stroke="#FFA012" stroke-linejoin="round"/>
<path d="M11.9996 5.14258L12.7851 5.79216C13.5386 6.41529 14.1743 7.16838 14.6622 8.01574C14.9031 8.43403 15.1064 8.87279 15.2699 9.32691L16.2853 12.1467L16.0206 12.5518C15.0052 14.1058 13.6248 15.3877 12 16.2854C10.3749 15.3877 8.9942 14.1058 7.97852 12.5516L7.71387 12.1467L8.72994 9.32662C8.89349 8.87269 9.09683 8.43411 9.33758 8.01597C9.82556 7.16845 10.4614 6.41516 11.2149 5.79177L11.9996 5.14258Z" fill="#1E1E1E"/>
</svg>
