<svg width="24" height="24" viewBox="0 0 24 24" fill="none" xmlns="http://www.w3.org/2000/svg">
<mask id="path-1-inside-1_1350_1043" fill="white">
<path d="M24 12C24 18.6274 18.6274 24 12 24C5.37258 24 0 18.6274 0 12C0 5.37258 5.37258 0 12 0C18.6274 0 24 5.37258 24 12Z"/>
</mask>
<path d="M24 12C24 18.6274 18.6274 24 12 24C5.37258 24 0 18.6274 0 12C0 5.37258 5.37258 0 12 0C18.6274 0 24 5.37258 24 12Z" fill="#FFA012"/>
<path d="M23 12C23 18.0751 18.0751 23 12 23V25C19.1797 25 25 19.1797 25 12H23ZM12 23C5.92487 23 1 18.0751 1 12H-1C-1 19.1797 4.8203 25 12 25V23ZM1 12C1 5.92487 5.92487 1 12 1V-1C4.8203 -1 -1 4.8203 -1 12H1ZM12 1C18.0751 1 23 5.92487 23 12H25C25 4.8203 19.1797 -1 12 -1V1Z" fill="white" mask="url(#path-1-inside-1_1350_1043)"/>
<path d="M17.1431 12.1935C17.1431 15.6142 15.5059 19.7143 12.4289 19.7143C9.35184 19.7143 6.85742 15.6142 6.85742 12.1935C6.85742 8.77295 9.35184 6 12.4289 6C15.5059 6 17.1431 8.77295 17.1431 12.1935Z" fill="#1E1E1E"/>
<path d="M12.1714 5.14355C13.3463 5.14351 14.4967 5.47881 15.4876 6.11006C16.4785 6.74131 17.2686 7.64228 17.765 8.70708C18.2615 9.77188 18.4437 10.9563 18.2902 12.1211C18.1368 13.2859 17.654 14.3826 16.8987 15.2825C17.7593 15.8517 18.2928 16.5785 18.3394 17.3733L18.3429 17.4864L12.1714 20.5721L6.00001 17.4864L6.00344 17.3733C6.04938 16.5778 6.58355 15.851 7.44344 15.2818C6.50915 14.1714 5.99784 12.7662 6.00001 11.315C6.00001 9.67822 6.65021 8.10849 7.80758 6.95112C8.96494 5.79376 10.5347 5.14355 12.1714 5.14355ZM12.1714 6.51498C10.8984 6.51498 9.6775 7.0207 8.77732 7.92087C7.87715 8.82105 7.37144 10.0419 7.37144 11.315C7.37144 12.3895 7.72389 13.4064 8.36229 14.2368L8.49395 14.4007L9.48344 15.5781L8.13806 16.4688L8.04412 16.5353L12.1714 19.1671L16.2981 16.5353L16.2645 16.5106L16.1424 16.4263L14.8594 15.5781L15.8489 14.4C16.576 13.5367 16.9737 12.4437 16.9714 11.315C16.9714 10.0419 16.4657 8.82105 15.5655 7.92087C14.6654 7.0207 13.4445 6.51498 12.1714 6.51498Z" fill="#1E1E1E"/>
<path d="M13.885 13.7159C13.885 13.1482 13.117 12.6874 12.1708 12.6874C11.2245 12.6874 10.4565 13.1482 10.4565 13.7159C10.4565 14.2837 11.2245 14.7445 12.1708 14.7445C13.117 14.7445 13.885 14.2837 13.885 13.7159Z" fill="#FFA012"/>
<path d="M11.485 10.2874C11.485 9.71959 10.8713 9.25879 10.1136 9.25879C9.3559 9.25879 8.74219 9.71959 8.74219 10.2874C8.74219 10.8551 9.3559 11.3159 10.1136 11.3159C10.8713 11.3159 11.485 10.8551 11.485 10.2874Z" fill="#FFA012"/>
<path d="M15.5993 10.2874C15.5993 9.71959 14.9856 9.25879 14.2279 9.25879C13.4702 9.25879 12.8565 9.71959 12.8565 10.2874C12.8565 10.8551 13.4702 11.3159 14.2279 11.3159C14.9856 11.3159 15.5993 10.8551 15.5993 10.2874Z" fill="#FFA012"/>
</svg>
