<svg width="24" height="24" viewBox="0 0 24 24" fill="none" xmlns="http://www.w3.org/2000/svg">
<mask id="path-1-inside-1_1174_2169" fill="white">
<path d="M24 12C24 18.6274 18.6274 24 12 24C5.37258 24 0 18.6274 0 12C0 5.37258 5.37258 0 12 0C18.6274 0 24 5.37258 24 12Z"/>
</mask>
<path d="M24 12C24 18.6274 18.6274 24 12 24C5.37258 24 0 18.6274 0 12C0 5.37258 5.37258 0 12 0C18.6274 0 24 5.37258 24 12Z" fill="#1E1E1E"/>
<path d="M23 12C23 18.0751 18.0751 23 12 23V25C19.1797 25 25 19.1797 25 12H23ZM12 23C5.92487 23 1 18.0751 1 12H-1C-1 19.1797 4.8203 25 12 25V23ZM1 12C1 5.92487 5.92487 1 12 1V-1C4.8203 -1 -1 4.8203 -1 12H1ZM12 1C18.0751 1 23 5.92487 23 12H25C25 4.8203 19.1797 -1 12 -1V1Z" fill="#FFEFD7" mask="url(#path-1-inside-1_1174_2169)"/>
<path d="M17.1431 12.1935C17.1431 15.6142 15.5059 19.7143 12.4289 19.7143C9.35184 19.7143 6.85742 15.6142 6.85742 12.1935C6.85742 8.77295 9.35184 6 12.4289 6C15.5059 6 17.1431 8.77295 17.1431 12.1935Z" fill="#FFEFD7"/>
<path d="M12.1714 5.14258C13.3463 5.14253 14.4967 5.47783 15.4876 6.10909C16.4785 6.74034 17.2686 7.6413 17.765 8.7061C18.2615 9.77091 18.4437 10.9553 18.2902 12.1201C18.1368 13.2849 17.654 14.3817 16.8987 15.2815C17.7593 15.8507 18.2928 16.5775 18.3394 17.3723L18.3429 17.4854L12.1714 20.5711L6.00001 17.4854L6.00344 17.3723C6.04938 16.5769 6.58355 15.85 7.44344 15.2809C6.50915 14.1704 5.99784 12.7652 6.00001 11.314C6.00001 9.67724 6.65021 8.10752 7.80758 6.95015C8.96494 5.79278 10.5347 5.14258 12.1714 5.14258ZM12.1714 6.51401C10.8984 6.51401 9.6775 7.01972 8.77732 7.91989C7.87715 8.82007 7.37144 10.041 7.37144 11.314C7.37144 12.3885 7.72389 13.4054 8.36229 14.2358L8.49395 14.3997L9.48344 15.5771L8.13806 16.4678L8.04412 16.5344L12.1714 19.1661L16.2981 16.5344L16.2645 16.5097L16.1424 16.4253L14.8594 15.5771L15.8489 14.399C16.576 13.5357 16.9737 12.4427 16.9714 11.314C16.9714 10.041 16.4657 8.82007 15.5655 7.91989C14.6654 7.01972 13.4445 6.51401 12.1714 6.51401Z" fill="#7E7E7E"/>
<path d="M13.885 13.715C13.885 13.1472 13.117 12.6864 12.1708 12.6864C11.2245 12.6864 10.4565 13.1472 10.4565 13.715C10.4565 14.2827 11.2245 14.7435 12.1708 14.7435C13.117 14.7435 13.885 14.2827 13.885 13.715Z" fill="#1E1E1E"/>
<path d="M11.485 10.2864C11.485 9.71861 10.8713 9.25781 10.1136 9.25781C9.3559 9.25781 8.74219 9.71861 8.74219 10.2864C8.74219 10.8542 9.3559 11.315 10.1136 11.315C10.8713 11.315 11.485 10.8542 11.485 10.2864Z" fill="#1E1E1E"/>
<path d="M15.5993 10.2864C15.5993 9.71861 14.9856 9.25781 14.2279 9.25781C13.4702 9.25781 12.8565 9.71861 12.8565 10.2864C12.8565 10.8542 13.4702 11.315 14.2279 11.315C14.9856 11.315 15.5993 10.8542 15.5993 10.2864Z" fill="#1E1E1E"/>
</svg>
