<svg width="24" height="24" viewBox="0 0 24 24" fill="none" xmlns="http://www.w3.org/2000/svg">
<mask id="path-1-inside-1_1350_1023" fill="white">
<path d="M24 12C24 18.6274 18.6274 24 12 24C5.37258 24 0 18.6274 0 12C0 5.37258 5.37258 0 12 0C18.6274 0 24 5.37258 24 12Z"/>
</mask>
<path d="M24 12C24 18.6274 18.6274 24 12 24C5.37258 24 0 18.6274 0 12C0 5.37258 5.37258 0 12 0C18.6274 0 24 5.37258 24 12Z" fill="#FFA012"/>
<path d="M23 12C23 18.0751 18.0751 23 12 23V25C19.1797 25 25 19.1797 25 12H23ZM12 23C5.92487 23 1 18.0751 1 12H-1C-1 19.1797 4.8203 25 12 25V23ZM1 12C1 5.92487 5.92487 1 12 1V-1C4.8203 -1 -1 4.8203 -1 12H1ZM12 1C18.0751 1 23 5.92487 23 12H25C25 4.8203 19.1797 -1 12 -1V1Z" fill="white" mask="url(#path-1-inside-1_1350_1023)"/>
<path fill-rule="evenodd" clip-rule="evenodd" d="M14.9722 9H13.7132L12.856 9.7013V9H8.57031V17.1429V21.4286L8.61193 21.4369C10.0093 21.7164 11.4309 21.8571 12.856 21.8571V17.1429V16.7143L13.7132 17.5714V21.8571C15.3696 21.8571 16.9685 21.2493 18.2065 20.1488L18.8449 19.5813C19.7016 18.8198 20.4051 17.9018 20.9177 16.8766L21.049 16.614C21.5831 15.5458 21.9317 14.3945 22.0798 13.2094L22.1634 12.5411C22.2439 11.8969 22.2484 11.2455 22.1767 10.6002L22.1238 10.1238C21.9504 8.56405 21.2515 7.10971 20.1417 6C19.0817 7.85512 17.1088 9 14.9722 9Z" fill="#1E1E1E"/>
<path d="M12.5356 6.78613H12.5353C9.59635 6.78613 7.21387 9.16862 7.21387 12.1076V12.8576V18.429V18.929H7.71387C9.88356 18.929 11.6424 17.1701 11.6424 15.0004V11.2147H14.5744C16.7422 11.2147 18.4996 9.45732 18.4996 7.28948V6.78979L17.9999 6.78948L12.5356 6.78613Z" fill="#1E1E1E" stroke="#FFA012"/>
</svg>
