<svg width="69" height="89" viewBox="0 0 69 89" fill="none" xmlns="http://www.w3.org/2000/svg">
<path d="M65.2012 59.364C65.2012 61.9596 63.828 64.3614 61.5912 65.6782L57.7349 67.9483L50.0222 72.4886L38.6554 79.18C36.3072 80.5623 33.394 80.5623 31.0458 79.18L19.679 72.4886L11.9664 67.9483L8.11006 65.6782C5.87329 64.3614 4.50009 61.9596 4.50009 59.364V52.4588V48.9114C4.50009 47.6151 4.88883 46.3486 5.61607 45.2755C7.33366 42.7412 7.33366 39.4161 5.61607 36.8817C4.88883 35.8087 4.50009 34.5422 4.50009 33.2459V29.6985V22.8195C4.50009 20.2067 5.88018 17.7882 8.12963 16.459L12.0048 14.1692L19.7552 9.58963L27.5056 5.01005L31.1662 2.84701C33.5297 1.45049 36.4672 1.4568 38.8246 2.86346L42.4203 5.00896L50.0952 9.58854L57.7701 14.1681L61.6075 16.4579L61.8637 16.0285L61.6075 16.4579C63.8362 17.7878 65.2012 20.1917 65.2012 22.787V29.6985V33.2459C65.2012 34.5422 64.8124 35.8087 64.0852 36.8817C62.3676 39.4161 62.3676 42.7412 64.0852 45.2755C64.8124 46.3486 65.2012 47.6151 65.2012 48.9114V52.4588V59.364Z" fill="url(#paint0_linear_575_9037)" stroke="url(#paint1_linear_575_9037)"/>
<g filter="url(#filter0_d_575_9037)">
<path d="M64.1035 58.2278C64.1035 61.0606 62.6054 63.6821 60.1648 65.1202L38.91 77.6445C36.4038 79.1212 33.2936 79.1212 30.7874 77.6445L9.53255 65.1202C7.09196 63.6821 5.59387 61.0606 5.59387 58.2278V24.1548C5.59387 21.3267 7.08706 18.7088 9.52127 17.2691L30.8992 4.62503C33.4217 3.13313 36.558 3.13987 39.074 4.6426L60.2057 17.2639C62.6231 18.7078 64.1035 21.3162 64.1035 24.1321V58.2278Z" fill="black"/>
<path d="M63.6035 58.2278C63.6035 60.8835 62.1991 63.3412 59.911 64.6894L38.6562 77.2137C36.3066 78.5982 33.3908 78.5982 31.0412 77.2137L9.78638 64.6894C7.49833 63.3412 6.09387 60.8835 6.09387 58.2278V24.1548C6.09387 21.5035 7.49374 19.0492 9.77581 17.6994L31.1538 5.05539C33.5186 3.65673 36.4588 3.66306 38.8176 5.07186L59.9493 17.6931C62.2157 19.0468 63.6035 21.4922 63.6035 24.1321V58.2278Z" stroke="url(#paint2_linear_575_9037)"/>
</g>
<defs>
<filter id="filter0_d_575_9037" x="0.779846" y="3.5108" width="68.1376" height="84.8691" filterUnits="userSpaceOnUse" color-interpolation-filters="sRGB">
<feFlood flood-opacity="0" result="BackgroundImageFix"/>
<feColorMatrix in="SourceAlpha" type="matrix" values="0 0 0 0 0 0 0 0 0 0 0 0 0 0 0 0 0 0 127 0" result="hardAlpha"/>
<feOffset dy="4.8139"/>
<feGaussianBlur stdDeviation="2.40695"/>
<feComposite in2="hardAlpha" operator="out"/>
<feColorMatrix type="matrix" values="0 0 0 0 0 0 0 0 0 0 0 0 0 0 0 0 0 0 0.25 0"/>
<feBlend mode="normal" in2="BackgroundImageFix" result="effect1_dropShadow_575_9037"/>
<feBlend mode="normal" in="SourceGraphic" in2="effect1_dropShadow_575_9037" result="shape"/>
</filter>
<linearGradient id="paint0_linear_575_9037" x1="34.8506" y1="82" x2="34.8506" y2="0" gradientUnits="userSpaceOnUse">
<stop/>
<stop offset="1" stop-color="#4B4A4A"/>
</linearGradient>
<linearGradient id="paint1_linear_575_9037" x1="34.8506" y1="82" x2="34.8506" y2="0" gradientUnits="userSpaceOnUse">
<stop stop-color="white"/>
<stop offset="0.291671" stop-color="#262626"/>
<stop offset="0.432299" stop-color="white"/>
<stop offset="0.807306" stop-color="#686868"/>
<stop offset="1" stop-color="white"/>
</linearGradient>
<linearGradient id="paint2_linear_575_9037" x1="34.8487" y1="79.4779" x2="34.8487" y2="1.64477" gradientUnits="userSpaceOnUse">
<stop stop-color="#5A5A5A"/>
<stop offset="1" stop-color="white"/>
</linearGradient>
</defs>
</svg>
