<svg width="136" height="38" viewBox="0 0 136 38" fill="none" xmlns="http://www.w3.org/2000/svg">
<g filter="url(#filter0_b_833_27716)">
<path d="M0 9.31218C0 4.16869 4.16962 -0.000938416 9.31312 -0.000938416H16.9643H33.0064C33.6197 -0.000938416 34.2315 0.0596392 34.8328 0.179912L49.0664 3.0266C50.2721 3.26773 51.5136 3.26773 52.7193 3.02659L66.9529 0.179879C67.5543 0.059603 68.166 -0.000976215 68.7793 -0.000975526L101.786 -0.000938416H118.75H126.401C131.545 -0.000938416 135.714 4.16869 135.714 9.31218V9.49906V14.2491V18.9991V23.7491V28.4991V29.5169C135.714 34.2015 131.917 37.9991 127.232 37.9991H118.75H101.786L68.7793 37.999C68.166 37.999 67.5543 37.9384 66.9529 37.8182L52.7193 34.9715C51.5136 34.7303 50.2721 34.7303 49.0664 34.9715L34.8329 37.8182C34.2315 37.9385 33.6197 37.9991 33.0064 37.9991H9.31312C4.16962 37.9991 0 33.8294 0 28.6859V28.4991V23.7491V18.9991V14.2491V9.49906V9.31218Z" fill="url(#paint0_radial_833_27716)"/>
<path d="M0.388047 9.31218C0.388047 4.383 4.38394 0.387108 9.31312 0.387108H16.9643H33.0064C33.5941 0.387108 34.1804 0.445162 34.7567 0.560423L48.9903 3.40711C50.2462 3.65829 51.5395 3.65829 52.7954 3.4071L67.029 0.56039C67.6053 0.445125 68.1916 0.38707 68.7793 0.387071L101.786 0.387108H118.75H126.401C131.33 0.387108 135.326 4.383 135.326 9.31218V9.49906V14.2491V18.9991V23.7491V28.4991V29.5169C135.326 33.9872 131.702 37.611 127.232 37.611H118.75H101.786L68.7793 37.611C68.1916 37.611 67.6053 37.5529 67.029 37.4377L52.7954 34.5909C51.5395 34.3398 50.2462 34.3398 48.9903 34.591L34.7568 37.4377C34.1804 37.553 33.5941 37.611 33.0064 37.611H9.31312C4.38393 37.611 0.388047 33.6151 0.388047 28.6859V28.4991V23.7491V18.9991V14.2491V9.49906V9.31218Z" stroke="url(#paint1_linear_833_27716)" stroke-width="0.776093" stroke-linecap="round" stroke-linejoin="round"/>
</g>
<defs>
<filter id="filter0_b_833_27716" x="-3.33743" y="-3.3384" width="142.39" height="44.6749" filterUnits="userSpaceOnUse" color-interpolation-filters="sRGB">
<feFlood flood-opacity="0" result="BackgroundImageFix"/>
<feGaussianBlur in="BackgroundImageFix" stdDeviation="1.66871"/>
<feComposite in2="SourceAlpha" operator="in" result="effect1_backgroundBlur_833_27716"/>
<feBlend mode="normal" in="SourceGraphic" in2="effect1_backgroundBlur_833_27716" result="shape"/>
</filter>
<radialGradient id="paint0_radial_833_27716" cx="0" cy="0" r="1" gradientUnits="userSpaceOnUse" gradientTransform="translate(15 18.999) rotate(90) scale(29 89.2007)">
<stop stop-color="#FF5912"/>
<stop offset="1" stop-color="#1A151F"/>
</radialGradient>
<linearGradient id="paint1_linear_833_27716" x1="69.5678" y1="-0.000976442" x2="69.5678" y2="37.999" gradientUnits="userSpaceOnUse">
<stop stop-color="#FAFAFA"/>
<stop offset="1" stop-color="#5D5C5B"/>
</linearGradient>
</defs>
</svg>
