<svg width="160" height="42" viewBox="0 0 160 42" fill="none" xmlns="http://www.w3.org/2000/svg">
<g filter="url(#filter0_b_397_5891)">
<path d="M0 12C0 5.37258 5.37258 1.03233e-10 12 0L149.5 0C155.299 0 160 4.70101 160 10.5V15.75V21V26.25V31.5C160 37.299 155.299 42 149.5 42H12C5.37258 42 0 36.6274 0 30V12Z" fill="#1D151F"/>
<path d="M0.5 12C0.5 5.64873 5.64873 0.5 12 0.5H149.5C155.023 0.5 159.5 4.97715 159.5 10.5V15.75V21V26.25V31.5C159.5 37.0228 155.023 41.5 149.5 41.5H12C5.64872 41.5 0.5 36.3513 0.5 30V12Z" stroke="url(#paint0_linear_397_5891)"/>
</g>
<defs>
<filter id="filter0_b_397_5891" x="-4.30029" y="-4.30029" width="168.601" height="50.6006" filterUnits="userSpaceOnUse" color-interpolation-filters="sRGB">
<feFlood flood-opacity="0" result="BackgroundImageFix"/>
<feGaussianBlur in="BackgroundImageFix" stdDeviation="2.15015"/>
<feComposite in2="SourceAlpha" operator="in" result="effect1_backgroundBlur_397_5891"/>
<feBlend mode="normal" in="SourceGraphic" in2="effect1_backgroundBlur_397_5891" result="shape"/>
</filter>
<linearGradient id="paint0_linear_397_5891" x1="73.3386" y1="0" x2="73.3386" y2="42" gradientUnits="userSpaceOnUse">
<stop stop-color="#FAFAFA"/>
<stop offset="1" stop-color="#5D5C5B"/>
</linearGradient>
</defs>
</svg>
