<svg width="32" height="32" viewBox="0 0 32 32" fill="none" xmlns="http://www.w3.org/2000/svg">
<mask id="path-1-inside-1_1500_1001" fill="white">
<path d="M27.5586 15.5605C27.5586 22.188 22.186 27.5605 15.5586 27.5605C8.93118 27.5605 3.55859 22.188 3.55859 15.5605C3.55859 8.93313 8.93118 3.56055 15.5586 3.56055C22.186 3.56055 27.5586 8.93313 27.5586 15.5605Z"/>
</mask>
<path d="M27.5586 15.5605C27.5586 22.188 22.186 27.5605 15.5586 27.5605C8.93118 27.5605 3.55859 22.188 3.55859 15.5605C3.55859 8.93313 8.93118 3.56055 15.5586 3.56055C22.186 3.56055 27.5586 8.93313 27.5586 15.5605Z" fill="#1E1E1E"/>
<path d="M26.5586 15.5605C26.5586 21.6357 21.6337 26.5605 15.5586 26.5605V28.5605C22.7383 28.5605 28.5586 22.7402 28.5586 15.5605H26.5586ZM15.5586 26.5605C9.48346 26.5605 4.55859 21.6357 4.55859 15.5605H2.55859C2.55859 22.7402 8.37889 28.5605 15.5586 28.5605V26.5605ZM4.55859 15.5605C4.55859 9.48541 9.48346 4.56055 15.5586 4.56055V2.56055C8.37889 2.56055 2.55859 8.38085 2.55859 15.5605H4.55859ZM15.5586 4.56055C21.6337 4.56055 26.5586 9.48541 26.5586 15.5605H28.5586C28.5586 8.38085 22.7383 2.56055 15.5586 2.56055V4.56055Z" fill="#8D8579" mask="url(#path-1-inside-1_1500_1001)"/>
<path d="M9.19404 9.19463L14.2425 12.3826L15.558 6.55859L16.8735 12.3826L21.922 9.19463L18.734 14.243L24.558 15.5586L18.734 16.8741L21.922 21.9226L16.8735 18.7346L15.558 24.5586L14.2425 18.7346L9.19404 21.9226L12.382 16.8741L6.558 15.5586L12.382 14.243L9.19404 9.19463Z" fill="#FF3B3B"/>
<path d="M7.7793 15.5588L12.6883 14.7897L8.8215 11.6692L13.4574 13.4577L11.6689 8.82183L14.7894 12.6886L15.5584 7.77962L16.3275 12.6886L19.448 8.82183L17.6595 13.4577L22.2954 11.6692L18.4286 14.7897L23.3376 15.5588L18.4286 16.3278L22.2954 19.4483L17.6595 17.6598L19.448 22.2957L16.3275 18.4289L15.5584 23.3379L14.7894 18.4289L11.6689 22.2957L13.4574 17.6598L8.8215 19.4483L12.6883 16.3278L7.7793 15.5588Z" fill="#FF3B3B"/>
<path d="M9.06681 15.4703L9.05023 15.5606L9.06683 15.6509C9.30286 16.9352 10.3994 17.9727 11.6145 18.6693C12.8466 19.3756 14.3335 19.8105 15.5587 19.8105C16.7839 19.8105 18.2709 19.3756 19.5029 18.6693C20.718 17.9727 21.8146 16.9351 22.0504 15.6508L22.067 15.5605L22.0504 15.4702C21.8143 14.1859 20.7179 13.1484 19.5028 12.4518C18.2708 11.7455 16.7839 11.3105 15.5587 11.3105C14.3335 11.3105 12.8465 11.7455 11.6144 12.4518C10.3992 13.1483 9.30261 14.1859 9.06681 15.4703Z" fill="#FF3B3B" stroke="#1E1E1E"/>
<circle cx="15.5586" cy="15.5605" r="3.75" stroke="#1E1E1E" stroke-width="0.5"/>
</svg>
