<svg width="135" height="36" viewBox="0 0 135 36" fill="none" xmlns="http://www.w3.org/2000/svg">
<g filter="url(#filter0_i_1855_1520)">
<path d="M0 8C0 3.58172 3.58172 0 8 0H16.875H23.7841H30.6346H32.4938H33.3313H42.1875H50.625H67.5H127C131.418 0 135 3.58172 135 8V27.9989C135 32.4172 131.418 35.9989 127 35.9989H117.865H115.788H110.077H100.731H95.5385H87.2308H83.5962H79.5721H75.5481H74.8697H74.3673H73.5815H71.524H67.5H59.1923H58.4553H49.4107H44.2184H43.3809H42.1875H33.75H26.799H17.0844H14.9069H13.3995H8C3.58172 35.9989 0 32.4172 0 27.9989V8Z" fill="url(#paint0_linear_1855_1520)"/>
</g>
<path d="M0.5 8C0.5 3.85786 3.85786 0.5 8 0.5H16.875H23.7841H30.6346H32.4938H33.3313H42.1875H50.625H67.5H127C131.142 0.5 134.5 3.85787 134.5 8V27.9989C134.5 32.141 131.142 35.4989 127 35.4989H117.865H115.788H110.077H100.731H95.5385H87.2308H83.5962H79.5721H75.5481H74.8697H74.3673H73.5815H71.524H67.5H59.1923H58.4553H49.4107H44.2184H43.3809H42.1875H33.75H26.799H17.0844H14.9069H13.3995H8C3.85786 35.4989 0.5 32.141 0.5 27.9989V8Z" stroke="url(#paint1_linear_1855_1520)"/>
<g filter="url(#filter1_i_1855_1520)">
<path d="M22.762 21.5865C22.174 21.5865 21.562 21.5565 20.926 21.4965C20.29 21.4485 19.744 21.3825 19.288 21.2985C19.348 20.7225 19.396 19.9365 19.432 18.9405C19.468 17.9325 19.486 16.9785 19.486 16.0785C19.486 14.0865 19.39 12.8565 19.198 12.3885C19.63 12.2445 20.206 12.1305 20.926 12.0465C21.646 11.9505 22.378 11.9025 23.122 11.9025C24.802 11.9025 26.092 12.3165 26.992 13.1445C27.892 13.9725 28.342 15.1545 28.342 16.6905C28.342 17.6505 28.108 18.5025 27.64 19.2465C27.172 19.9785 26.512 20.5545 25.66 20.9745C24.82 21.3825 23.854 21.5865 22.762 21.5865ZM23.608 20.3085C24.028 20.2365 24.412 20.0385 24.76 19.7145C25.12 19.3785 25.402 18.9705 25.606 18.4905C25.81 18.0105 25.912 17.5185 25.912 17.0145C25.912 14.6265 24.856 13.4325 22.744 13.4325C22.408 13.4325 22.108 13.4745 21.844 13.5585C21.772 14.6745 21.736 15.9525 21.736 17.3925C21.736 18.4365 21.754 19.2945 21.79 19.9665C22.546 20.1945 23.152 20.3085 23.608 20.3085ZM31.328 21.5865C30.896 21.5865 30.41 21.5505 29.87 21.4785C30.002 19.5465 30.068 17.7945 30.068 16.2225C30.068 13.9785 29.972 12.5685 29.78 11.9925C30.212 11.9205 30.68 11.8845 31.184 11.8845C31.568 11.8845 32.012 11.9205 32.516 11.9925C32.456 12.6165 32.408 13.4505 32.372 14.4945C32.336 15.5385 32.318 16.5045 32.318 17.3925C32.318 19.6125 32.414 20.9745 32.606 21.4785C32.198 21.5505 31.772 21.5865 31.328 21.5865ZM37.4112 21.6765C36.0792 21.6765 34.9332 21.4605 33.9732 21.0285C33.9732 20.7045 33.9972 20.4165 34.0452 20.1645C34.0932 19.9125 34.1712 19.6605 34.2792 19.4085C34.5792 19.6965 34.9992 19.9245 35.5392 20.0925C36.0792 20.2485 36.6612 20.3265 37.2852 20.3265C37.8012 20.3265 38.1972 20.2425 38.4732 20.0745C38.7612 19.8945 38.9052 19.6425 38.9052 19.3185C38.9052 19.0425 38.7612 18.8025 38.4732 18.5985C38.1852 18.3945 37.7292 18.1485 37.1052 17.8605C36.4812 17.5725 35.9592 17.3025 35.5392 17.0505C35.1312 16.7985 34.7772 16.4745 34.4772 16.0785C34.1772 15.6705 34.0272 15.1845 34.0272 14.6205C34.0272 14.0805 34.1892 13.6065 34.5132 13.1985C34.8372 12.7785 35.2992 12.4545 35.8992 12.2265C36.4992 11.9985 37.2012 11.8845 38.0052 11.8845C39.1932 11.8845 40.2012 12.0285 41.0292 12.3165C41.0292 12.6885 40.9512 13.1205 40.7952 13.6125C40.6392 14.0925 40.4532 14.4645 40.2372 14.7285C39.7092 14.3085 39.1632 13.9665 38.5992 13.7025C38.0472 13.4265 37.5792 13.2885 37.1952 13.2885C37.0032 13.3245 36.8292 13.4265 36.6732 13.5945C36.5292 13.7505 36.4572 13.9425 36.4572 14.1705C36.4572 14.4825 36.6072 14.7465 36.9072 14.9625C37.2072 15.1665 37.6752 15.4125 38.3112 15.7005C38.9472 15.9885 39.4632 16.2525 39.8592 16.4925C40.2672 16.7325 40.6152 17.0565 40.9032 17.4645C41.1912 17.8605 41.3352 18.3465 41.3352 18.9225C41.3352 19.7985 41.0052 20.4765 40.3452 20.9565C39.6852 21.4365 38.7072 21.6765 37.4112 21.6765ZM45.9935 21.5865C45.6335 21.5865 45.1715 21.5505 44.6075 21.4785C44.6675 20.8545 44.7155 20.0205 44.7515 18.9765C44.7875 17.9205 44.8055 16.9545 44.8055 16.0785C44.8055 15.5745 44.7935 14.9985 44.7695 14.3505L44.7515 13.9185C43.2995 13.9305 42.3935 14.0085 42.0335 14.1525C41.9735 13.6485 41.9435 13.2465 41.9435 12.9465C41.9435 12.6825 41.9735 12.3705 42.0335 12.0105C42.5375 12.0585 43.2095 12.1005 44.0495 12.1365C44.8895 12.1605 45.6875 12.1725 46.4435 12.1725C48.2795 12.1725 49.4075 12.0945 49.8275 11.9385C49.8875 12.3825 49.9175 12.7305 49.9175 12.9825C49.9175 13.3545 49.8875 13.7205 49.8275 14.0805C49.0235 14.0085 48.1295 13.9665 47.1455 13.9545C47.0855 15.1545 47.0555 16.3005 47.0555 17.3925C47.0555 19.6125 47.1515 20.9745 47.3435 21.4785C47.0435 21.5505 46.5935 21.5865 45.9935 21.5865ZM52.4393 21.5865C52.0073 21.5865 51.5213 21.5505 50.9813 21.4785C51.0413 20.8905 51.0893 20.0925 51.1253 19.0845C51.1613 18.0645 51.1793 17.1105 51.1793 16.2225C51.1793 14.1585 51.0833 12.8805 50.8913 12.3885C51.2993 12.2445 51.8453 12.1305 52.5293 12.0465C53.2253 11.9505 53.9273 11.9025 54.6353 11.9025C55.9313 11.9025 56.9213 12.1785 57.6053 12.7305C58.3013 13.2705 58.6493 14.0505 58.6493 15.0705C58.6493 15.6465 58.4933 16.1625 58.1813 16.6185C57.8693 17.0745 57.4313 17.4465 56.8673 17.7345C57.7793 19.5465 58.5293 20.7045 59.1173 21.2085C58.3253 21.4605 57.3713 21.5865 56.2553 21.5865C55.9193 20.7825 55.3673 19.6665 54.5993 18.2385C54.1433 18.2385 53.7533 18.2145 53.4293 18.1665C53.4653 19.9305 53.5613 21.0345 53.7173 21.4785C53.3093 21.5505 52.8833 21.5865 52.4393 21.5865ZM55.1213 16.9605C55.4573 16.7685 55.7213 16.5285 55.9133 16.2405C56.1173 15.9405 56.2193 15.5985 56.2193 15.2145C56.2193 14.0265 55.5653 13.4325 54.2573 13.4325C53.9813 13.4325 53.7413 13.4565 53.5373 13.5045C53.4893 14.3805 53.4533 15.4185 53.4293 16.6185C54.1373 16.8465 54.7013 16.9605 55.1213 16.9605ZM61.7557 21.5865C61.3237 21.5865 60.8377 21.5505 60.2977 21.4785C60.4297 19.5465 60.4957 17.7945 60.4957 16.2225C60.4957 13.9785 60.3997 12.5685 60.2077 11.9925C60.6397 11.9205 61.1077 11.8845 61.6117 11.8845C61.9957 11.8845 62.4397 11.9205 62.9437 11.9925C62.8837 12.6165 62.8357 13.4505 62.7997 14.4945C62.7637 15.5385 62.7457 16.5045 62.7457 17.3925C62.7457 19.6125 62.8417 20.9745 63.0337 21.4785C62.6257 21.5505 62.1997 21.5865 61.7557 21.5865ZM68.7569 21.6945C68.0609 21.6945 67.3529 21.6465 66.6329 21.5505C65.9249 21.4665 65.3369 21.3525 64.8689 21.2085C64.9169 20.7045 64.9529 19.9545 64.9769 18.9585C65.0129 17.9505 65.0309 16.9785 65.0309 16.0425C65.0309 14.0625 64.9349 12.8445 64.7429 12.3885C65.2229 12.2445 65.8229 12.1305 66.5429 12.0465C67.2629 11.9505 67.9769 11.9025 68.6849 11.9025C69.9209 11.9025 70.8629 12.1245 71.5109 12.5685C72.1709 13.0005 72.5009 13.6245 72.5009 14.4405C72.5009 14.8485 72.3689 15.2265 72.1049 15.5745C71.8529 15.9225 71.4989 16.2105 71.0429 16.4385C71.6429 16.6785 72.1109 17.0145 72.4469 17.4465C72.7829 17.8665 72.9509 18.3465 72.9509 18.8865C72.9509 19.7865 72.5849 20.4825 71.8529 20.9745C71.1329 21.4545 70.1009 21.6945 68.7569 21.6945ZM67.2989 16.2045C67.7669 16.0725 68.3909 16.0185 69.1709 16.0425C69.4469 15.8745 69.6629 15.6645 69.8189 15.4125C69.9869 15.1605 70.0709 14.9025 70.0709 14.6385C70.0709 13.8345 69.5429 13.4325 68.4869 13.4325C68.1149 13.4325 67.7489 13.4865 67.3889 13.5945C67.3409 14.5665 67.3109 15.4365 67.2989 16.2045ZM68.5589 20.5245C69.8669 20.5245 70.5209 19.9785 70.5209 18.8865C70.5209 18.4905 70.3949 18.1425 70.1429 17.8425C69.8909 17.5425 69.5309 17.3025 69.0629 17.1225C68.6549 17.1225 68.0609 17.2725 67.2809 17.5725C67.2809 18.5205 67.3049 19.4385 67.3529 20.3265C67.7729 20.4585 68.1749 20.5245 68.5589 20.5245ZM78.3537 21.5685C77.1297 21.5685 76.1757 21.2505 75.4917 20.6145C74.8197 19.9665 74.4837 19.0545 74.4837 17.8785C74.4837 16.6425 74.4597 15.4425 74.4117 14.2785C74.3637 13.1145 74.2917 12.3525 74.1957 11.9925C74.6517 11.9205 75.1197 11.8845 75.5997 11.8845C75.9837 11.8845 76.4277 11.9205 76.9317 11.9925C76.8597 13.6485 76.8237 15.5085 76.8237 17.5725C76.8237 19.0965 77.4537 19.8585 78.7137 19.8585C80.1177 19.8585 80.8197 19.1745 80.8197 17.8065C80.8197 14.6025 80.7717 12.6645 80.6757 11.9925C80.9637 11.9205 81.2517 11.8845 81.5397 11.8845C81.7917 11.8845 82.0977 11.9205 82.4577 11.9925C82.4217 12.6765 82.3857 13.5945 82.3497 14.7465C82.3257 15.8985 82.3137 16.9125 82.3137 17.7885C82.3137 18.8925 82.0137 19.7985 81.4137 20.5065C80.8137 21.2145 79.7937 21.5685 78.3537 21.5685ZM87.2669 21.5865C86.9069 21.5865 86.4449 21.5505 85.8809 21.4785C85.9409 20.8545 85.9889 20.0205 86.0249 18.9765C86.0609 17.9205 86.0789 16.9545 86.0789 16.0785C86.0789 15.5745 86.0669 14.9985 86.0429 14.3505L86.0249 13.9185C84.5729 13.9305 83.6669 14.0085 83.3069 14.1525C83.2469 13.6485 83.2169 13.2465 83.2169 12.9465C83.2169 12.6825 83.2469 12.3705 83.3069 12.0105C83.8109 12.0585 84.4829 12.1005 85.3229 12.1365C86.1629 12.1605 86.9609 12.1725 87.7169 12.1725C89.5529 12.1725 90.6809 12.0945 91.1009 11.9385C91.1609 12.3825 91.1909 12.7305 91.1909 12.9825C91.1909 13.3545 91.1609 13.7205 91.1009 14.0805C90.2969 14.0085 89.4029 13.9665 88.4189 13.9545C88.3589 15.1545 88.3289 16.3005 88.3289 17.3925C88.3289 19.6125 88.4249 20.9745 88.6169 21.4785C88.3169 21.5505 87.8669 21.5865 87.2669 21.5865ZM93.7128 21.5865C93.2808 21.5865 92.7948 21.5505 92.2548 21.4785C92.3868 19.5465 92.4528 17.7945 92.4528 16.2225C92.4528 13.9785 92.3568 12.5685 92.1648 11.9925C92.5968 11.9205 93.0648 11.8845 93.5688 11.8845C93.9528 11.8845 94.3968 11.9205 94.9008 11.9925C94.8408 12.6165 94.7928 13.4505 94.7568 14.4945C94.7208 15.5385 94.7028 16.5045 94.7028 17.3925C94.7028 19.6125 94.7988 20.9745 94.9908 21.4785C94.5828 21.5505 94.1568 21.5865 93.7128 21.5865ZM100.84 21.7125C99.9639 21.7125 99.1899 21.5205 98.5179 21.1365C97.8459 20.7405 97.3239 20.1945 96.9519 19.4985C96.5799 18.8025 96.3939 17.9985 96.3939 17.0865C96.3939 16.0665 96.6159 15.1605 97.0599 14.3685C97.5039 13.5765 98.1219 12.9585 98.9139 12.5145C99.7179 12.0705 100.63 11.8485 101.65 11.8485C102.562 11.8485 103.36 12.0465 104.044 12.4425C104.74 12.8385 105.28 13.3965 105.664 14.1165C106.048 14.8245 106.24 15.6465 106.24 16.5825C106.24 17.5785 106.012 18.4665 105.556 19.2465C105.1 20.0145 104.458 20.6205 103.63 21.0645C102.814 21.4965 101.884 21.7125 100.84 21.7125ZM101.254 20.4165C102.034 20.4165 102.652 20.1465 103.108 19.6065C103.576 19.0545 103.81 18.3165 103.81 17.3925C103.81 16.5045 103.606 15.7425 103.198 15.1065C102.79 14.4705 102.244 14.0685 101.56 13.9005C101.044 13.9005 100.576 14.0445 100.156 14.3325C99.7359 14.6085 99.4059 14.9985 99.1659 15.5025C98.9379 16.0065 98.8239 16.5765 98.8239 17.2125C98.8239 18.1725 99.0459 18.9465 99.4899 19.5345C99.9339 20.1225 100.522 20.4165 101.254 20.4165ZM108.64 21.5865C108.376 21.5865 108.052 21.5505 107.668 21.4785C107.764 20.2545 107.812 18.5025 107.812 16.2225C107.812 13.9905 107.746 12.5805 107.614 11.9925C107.926 11.9205 108.352 11.8845 108.892 11.8845C109.288 11.8845 109.786 11.9205 110.386 11.9925C110.758 12.7245 111.316 13.7565 112.06 15.0885C112.816 16.4205 113.542 17.6685 114.238 18.8325C114.262 17.6325 114.274 16.7145 114.274 16.0785C114.274 13.8465 114.208 12.4845 114.076 11.9925C114.34 11.9205 114.604 11.8845 114.868 11.8845C115.156 11.8845 115.486 11.9205 115.858 11.9925C115.762 13.5285 115.714 15.2805 115.714 17.2485C115.714 19.4805 115.78 20.8905 115.912 21.4785C115.492 21.5505 115.066 21.5865 114.634 21.5865C114.166 21.5865 113.662 21.5505 113.122 21.4785C112.774 20.7705 112.228 19.7625 111.484 18.4545C110.74 17.1345 110.002 15.8625 109.27 14.6385C109.246 15.8385 109.234 16.7565 109.234 17.3925C109.234 19.5525 109.3 20.9145 109.432 21.4785C109.18 21.5505 108.916 21.5865 108.64 21.5865Z" fill="#FFEFD7"/>
</g>
<defs>
<filter id="filter0_i_1855_1520" x="0" y="0" width="135" height="35.998" filterUnits="userSpaceOnUse" color-interpolation-filters="sRGB">
<feFlood flood-opacity="0" result="BackgroundImageFix"/>
<feBlend mode="normal" in="SourceGraphic" in2="BackgroundImageFix" result="shape"/>
<feColorMatrix in="SourceAlpha" type="matrix" values="0 0 0 0 0 0 0 0 0 0 0 0 0 0 0 0 0 0 127 0" result="hardAlpha"/>
<feOffset dy="-1"/>
<feComposite in2="hardAlpha" operator="arithmetic" k2="-1" k3="1"/>
<feColorMatrix type="matrix" values="0 0 0 0 0.151244 0 0 0 0 0 0 0 0 0 0.343736 0 0 0 1 0"/>
<feBlend mode="normal" in2="shape" result="effect1_innerShadow_1855_1520"/>
</filter>
<filter id="filter1_i_1855_1520" x="19.1982" y="11.8477" width="96.7139" height="9.86523" filterUnits="userSpaceOnUse" color-interpolation-filters="sRGB">
<feFlood flood-opacity="0" result="BackgroundImageFix"/>
<feBlend mode="normal" in="SourceGraphic" in2="BackgroundImageFix" result="shape"/>
<feColorMatrix in="SourceAlpha" type="matrix" values="0 0 0 0 0 0 0 0 0 0 0 0 0 0 0 0 0 0 127 0" result="hardAlpha"/>
<feOffset dy="1"/>
<feComposite in2="hardAlpha" operator="arithmetic" k2="-1" k3="1"/>
<feColorMatrix type="matrix" values="0 0 0 0 0.152941 0 0 0 0 0 0 0 0 0 0.345098 0 0 0 0.65 0"/>
<feBlend mode="normal" in2="shape" result="effect1_innerShadow_1855_1520"/>
</filter>
<linearGradient id="paint0_linear_1855_1520" x1="122.538" y1="8.70325e-07" x2="-23.6807" y2="111.783" gradientUnits="userSpaceOnUse">
<stop stop-color="#6D6B68"/>
<stop offset="1" stop-color="#281D2B"/>
</linearGradient>
<linearGradient id="paint1_linear_1855_1520" x1="56.0769" y1="2.00209e-07" x2="56.0769" y2="35.9989" gradientUnits="userSpaceOnUse">
<stop stop-color="#FFEFD7"/>
<stop offset="0.677092" stop-color="white" stop-opacity="0"/>
</linearGradient>
</defs>
</svg>
