<svg width="125" height="38" viewBox="0 0 125 38" fill="none" xmlns="http://www.w3.org/2000/svg">
<g filter="url(#filter0_i_833_28925)">
<path d="M0 9.31312C0 4.16962 4.16962 0 9.31312 0H15.5219H21.877H28.1782H29.8883H30.6586H38.8047H46.5656H62.0875H115.25C120.179 0 124.175 3.99589 124.175 8.92507L124.175 10.7845L124.175 12.4175V26.3872C124.175 31.5307 120.005 35.7003 114.862 35.7003H108.414H106.504H101.25H92.6536H87.8776H80.2361H76.8929H73.1916H69.4902H68.8662H68.4041H67.6813H65.7888H62.0875H54.4459H53.7681H45.4486H40.6727H39.9024H38.8047H31.0437H24.6501H15.7144H13.7116H12.3251H9.31312C4.16963 35.7003 0 31.5307 0 26.3872V9.31312Z" fill="url(#paint0_linear_833_28925)"/>
</g>
<path d="M0.388047 9.31312C0.388047 4.38393 4.38394 0.388047 9.31312 0.388047H15.5219H21.877H28.1782H29.8883H30.6586H38.8047H46.5656H62.0875H115.25C119.965 0.388047 123.787 4.2102 123.787 8.92507L123.787 10.7845L123.787 12.4175V26.3872C123.787 31.3163 119.791 35.3122 114.862 35.3122H108.414H106.504H101.25H92.6536H87.8776H80.2361H76.8929H73.1916H69.4902H68.8662H68.4041H67.6813H65.7888H62.0875H54.4459H53.7681H45.4486H40.6727H39.9024H38.8047H31.0437H24.6501H15.7144H13.7116H12.3251H9.31312C4.38394 35.3122 0.388047 31.3164 0.388047 26.3872V9.31312Z" stroke="url(#paint1_linear_833_28925)" stroke-width="0.776093"/>
<g filter="url(#filter1_i_833_28925)">
<path d="M17.3494 22.2896C16.7614 22.2896 16.1494 22.2596 15.5134 22.1996C14.8774 22.1516 14.3314 22.0856 13.8754 22.0016C13.9354 21.4256 13.9834 20.6396 14.0194 19.6436C14.0554 18.6356 14.0734 17.6816 14.0734 16.7816C14.0734 14.7896 13.9774 13.5596 13.7854 13.0916C14.2174 12.9476 14.7934 12.8336 15.5134 12.7496C16.2334 12.6536 16.9654 12.6056 17.7094 12.6056C19.3894 12.6056 20.6794 13.0196 21.5794 13.8476C22.4794 14.6756 22.9294 15.8576 22.9294 17.3936C22.9294 18.3536 22.6954 19.2056 22.2274 19.9496C21.7594 20.6816 21.0994 21.2576 20.2474 21.6776C19.4074 22.0856 18.4414 22.2896 17.3494 22.2896ZM18.1954 21.0116C18.6154 20.9396 18.9994 20.7416 19.3474 20.4176C19.7074 20.0816 19.9894 19.6736 20.1934 19.1936C20.3974 18.7136 20.4994 18.2216 20.4994 17.7176C20.4994 15.3296 19.4434 14.1356 17.3314 14.1356C16.9954 14.1356 16.6954 14.1776 16.4314 14.2616C16.3594 15.3776 16.3234 16.6556 16.3234 18.0956C16.3234 19.1396 16.3414 19.9976 16.3774 20.6696C17.1334 20.8976 17.7394 21.0116 18.1954 21.0116ZM25.9155 22.2896C25.4835 22.2896 24.9975 22.2536 24.4575 22.1816C24.5895 20.2496 24.6555 18.4976 24.6555 16.9256C24.6555 14.6816 24.5595 13.2716 24.3675 12.6956C24.7995 12.6236 25.2675 12.5876 25.7715 12.5876C26.1555 12.5876 26.5995 12.6236 27.1035 12.6956C27.0435 13.3196 26.9955 14.1536 26.9595 15.1976C26.9235 16.2416 26.9055 17.2076 26.9055 18.0956C26.9055 20.3156 27.0015 21.6776 27.1935 22.1816C26.7855 22.2536 26.3595 22.2896 25.9155 22.2896ZM31.9986 22.3796C30.6666 22.3796 29.5206 22.1636 28.5606 21.7316C28.5606 21.4076 28.5846 21.1196 28.6326 20.8676C28.6806 20.6156 28.7586 20.3636 28.8666 20.1116C29.1666 20.3996 29.5866 20.6276 30.1266 20.7956C30.6666 20.9516 31.2486 21.0296 31.8726 21.0296C32.3886 21.0296 32.7846 20.9456 33.0606 20.7776C33.3486 20.5976 33.4926 20.3456 33.4926 20.0216C33.4926 19.7456 33.3486 19.5056 33.0606 19.3016C32.7726 19.0976 32.3166 18.8516 31.6926 18.5636C31.0686 18.2756 30.5466 18.0056 30.1266 17.7536C29.7186 17.5016 29.3646 17.1776 29.0646 16.7816C28.7646 16.3736 28.6146 15.8876 28.6146 15.3236C28.6146 14.7836 28.7766 14.3096 29.1006 13.9016C29.4246 13.4816 29.8866 13.1576 30.4866 12.9296C31.0866 12.7016 31.7886 12.5876 32.5926 12.5876C33.7806 12.5876 34.7886 12.7316 35.6166 13.0196C35.6166 13.3916 35.5386 13.8236 35.3826 14.3156C35.2266 14.7956 35.0406 15.1676 34.8246 15.4316C34.2966 15.0116 33.7506 14.6696 33.1866 14.4056C32.6346 14.1296 32.1666 13.9916 31.7826 13.9916C31.5906 14.0276 31.4166 14.1296 31.2606 14.2976C31.1166 14.4536 31.0446 14.6456 31.0446 14.8736C31.0446 15.1856 31.1946 15.4496 31.4946 15.6656C31.7946 15.8696 32.2626 16.1156 32.8986 16.4036C33.5346 16.6916 34.0506 16.9556 34.4466 17.1956C34.8546 17.4356 35.2026 17.7596 35.4906 18.1676C35.7786 18.5636 35.9226 19.0496 35.9226 19.6256C35.9226 20.5016 35.5926 21.1796 34.9326 21.6596C34.2726 22.1396 33.2946 22.3796 31.9986 22.3796ZM40.581 22.2896C40.221 22.2896 39.759 22.2536 39.195 22.1816C39.255 21.5576 39.303 20.7236 39.339 19.6796C39.375 18.6236 39.393 17.6576 39.393 16.7816C39.393 16.2776 39.381 15.7016 39.357 15.0536L39.339 14.6216C37.887 14.6336 36.981 14.7116 36.621 14.8556C36.561 14.3516 36.531 13.9496 36.531 13.6496C36.531 13.3856 36.561 13.0736 36.621 12.7136C37.125 12.7616 37.797 12.8036 38.637 12.8396C39.477 12.8636 40.275 12.8756 41.031 12.8756C42.867 12.8756 43.995 12.7976 44.415 12.6416C44.475 13.0856 44.505 13.4336 44.505 13.6856C44.505 14.0576 44.475 14.4236 44.415 14.7836C43.611 14.7116 42.717 14.6696 41.733 14.6576C41.673 15.8576 41.643 17.0036 41.643 18.0956C41.643 20.3156 41.739 21.6776 41.931 22.1816C41.631 22.2536 41.181 22.2896 40.581 22.2896ZM47.0268 22.2896C46.5948 22.2896 46.1088 22.2536 45.5688 22.1816C45.6288 21.5936 45.6768 20.7956 45.7128 19.7876C45.7488 18.7676 45.7668 17.8136 45.7668 16.9256C45.7668 14.8616 45.6708 13.5836 45.4788 13.0916C45.8868 12.9476 46.4328 12.8336 47.1168 12.7496C47.8128 12.6536 48.5148 12.6056 49.2228 12.6056C50.5188 12.6056 51.5088 12.8816 52.1928 13.4336C52.8888 13.9736 53.2368 14.7536 53.2368 15.7736C53.2368 16.3496 53.0808 16.8656 52.7688 17.3216C52.4568 17.7776 52.0188 18.1496 51.4548 18.4376C52.3668 20.2496 53.1168 21.4076 53.7048 21.9116C52.9128 22.1636 51.9588 22.2896 50.8428 22.2896C50.5068 21.4856 49.9548 20.3696 49.1868 18.9416C48.7308 18.9416 48.3408 18.9176 48.0168 18.8696C48.0528 20.6336 48.1488 21.7376 48.3048 22.1816C47.8968 22.2536 47.4708 22.2896 47.0268 22.2896ZM49.7088 17.6636C50.0448 17.4716 50.3088 17.2316 50.5008 16.9436C50.7048 16.6436 50.8068 16.3016 50.8068 15.9176C50.8068 14.7296 50.1528 14.1356 48.8448 14.1356C48.5688 14.1356 48.3288 14.1596 48.1248 14.2076C48.0768 15.0836 48.0408 16.1216 48.0168 17.3216C48.7248 17.5496 49.2888 17.6636 49.7088 17.6636ZM56.3432 22.2896C55.9112 22.2896 55.4252 22.2536 54.8852 22.1816C55.0172 20.2496 55.0832 18.4976 55.0832 16.9256C55.0832 14.6816 54.9872 13.2716 54.7952 12.6956C55.2272 12.6236 55.6952 12.5876 56.1992 12.5876C56.5832 12.5876 57.0272 12.6236 57.5312 12.6956C57.4712 13.3196 57.4232 14.1536 57.3872 15.1976C57.3512 16.2416 57.3332 17.2076 57.3332 18.0956C57.3332 20.3156 57.4292 21.6776 57.6212 22.1816C57.2132 22.2536 56.7872 22.2896 56.3432 22.2896ZM63.3444 22.3976C62.6484 22.3976 61.9404 22.3496 61.2204 22.2536C60.5124 22.1696 59.9244 22.0556 59.4564 21.9116C59.5044 21.4076 59.5404 20.6576 59.5644 19.6616C59.6004 18.6536 59.6184 17.6816 59.6184 16.7456C59.6184 14.7656 59.5224 13.5476 59.3304 13.0916C59.8104 12.9476 60.4104 12.8336 61.1304 12.7496C61.8504 12.6536 62.5644 12.6056 63.2724 12.6056C64.5084 12.6056 65.4504 12.8276 66.0984 13.2716C66.7584 13.7036 67.0884 14.3276 67.0884 15.1436C67.0884 15.5516 66.9564 15.9296 66.6924 16.2776C66.4404 16.6256 66.0864 16.9136 65.6304 17.1416C66.2304 17.3816 66.6984 17.7176 67.0344 18.1496C67.3704 18.5696 67.5384 19.0496 67.5384 19.5896C67.5384 20.4896 67.1724 21.1856 66.4404 21.6776C65.7204 22.1576 64.6884 22.3976 63.3444 22.3976ZM61.8864 16.9076C62.3544 16.7756 62.9784 16.7216 63.7584 16.7456C64.0344 16.5776 64.2504 16.3676 64.4064 16.1156C64.5744 15.8636 64.6584 15.6056 64.6584 15.3416C64.6584 14.5376 64.1304 14.1356 63.0744 14.1356C62.7024 14.1356 62.3364 14.1896 61.9764 14.2976C61.9284 15.2696 61.8984 16.1396 61.8864 16.9076ZM63.1464 21.2276C64.4544 21.2276 65.1084 20.6816 65.1084 19.5896C65.1084 19.1936 64.9824 18.8456 64.7304 18.5456C64.4784 18.2456 64.1184 18.0056 63.6504 17.8256C63.2424 17.8256 62.6484 17.9756 61.8684 18.2756C61.8684 19.2236 61.8924 20.1416 61.9404 21.0296C62.3604 21.1616 62.7624 21.2276 63.1464 21.2276ZM72.9412 22.2716C71.7172 22.2716 70.7632 21.9536 70.0792 21.3176C69.4072 20.6696 69.0712 19.7576 69.0712 18.5816C69.0712 17.3456 69.0472 16.1456 68.9992 14.9816C68.9512 13.8176 68.8792 13.0556 68.7832 12.6956C69.2392 12.6236 69.7072 12.5876 70.1872 12.5876C70.5712 12.5876 71.0152 12.6236 71.5192 12.6956C71.4472 14.3516 71.4112 16.2116 71.4112 18.2756C71.4112 19.7996 72.0412 20.5616 73.3012 20.5616C74.7052 20.5616 75.4072 19.8776 75.4072 18.5096C75.4072 15.3056 75.3592 13.3676 75.2632 12.6956C75.5512 12.6236 75.8392 12.5876 76.1272 12.5876C76.3792 12.5876 76.6852 12.6236 77.0452 12.6956C77.0092 13.3796 76.9732 14.2976 76.9372 15.4496C76.9132 16.6016 76.9012 17.6156 76.9012 18.4916C76.9012 19.5956 76.6012 20.5016 76.0012 21.2096C75.4012 21.9176 74.3812 22.2716 72.9412 22.2716ZM81.8544 22.2896C81.4944 22.2896 81.0324 22.2536 80.4684 22.1816C80.5284 21.5576 80.5764 20.7236 80.6124 19.6796C80.6484 18.6236 80.6664 17.6576 80.6664 16.7816C80.6664 16.2776 80.6544 15.7016 80.6304 15.0536L80.6124 14.6216C79.1604 14.6336 78.2544 14.7116 77.8944 14.8556C77.8344 14.3516 77.8044 13.9496 77.8044 13.6496C77.8044 13.3856 77.8344 13.0736 77.8944 12.7136C78.3984 12.7616 79.0704 12.8036 79.9104 12.8396C80.7504 12.8636 81.5484 12.8756 82.3044 12.8756C84.1404 12.8756 85.2684 12.7976 85.6884 12.6416C85.7484 13.0856 85.7784 13.4336 85.7784 13.6856C85.7784 14.0576 85.7484 14.4236 85.6884 14.7836C84.8844 14.7116 83.9904 14.6696 83.0064 14.6576C82.9464 15.8576 82.9164 17.0036 82.9164 18.0956C82.9164 20.3156 83.0124 21.6776 83.2044 22.1816C82.9044 22.2536 82.4544 22.2896 81.8544 22.2896ZM88.3002 22.2896C87.8682 22.2896 87.3822 22.2536 86.8422 22.1816C86.9742 20.2496 87.0402 18.4976 87.0402 16.9256C87.0402 14.6816 86.9442 13.2716 86.7522 12.6956C87.1842 12.6236 87.6522 12.5876 88.1562 12.5876C88.5402 12.5876 88.9842 12.6236 89.4882 12.6956C89.4282 13.3196 89.3802 14.1536 89.3442 15.1976C89.3082 16.2416 89.2902 17.2076 89.2902 18.0956C89.2902 20.3156 89.3862 21.6776 89.5782 22.1816C89.1702 22.2536 88.7442 22.2896 88.3002 22.2896ZM95.4274 22.4156C94.5514 22.4156 93.7774 22.2236 93.1054 21.8396C92.4334 21.4436 91.9114 20.8976 91.5394 20.2016C91.1674 19.5056 90.9814 18.7016 90.9814 17.7896C90.9814 16.7696 91.2034 15.8636 91.6474 15.0716C92.0914 14.2796 92.7094 13.6616 93.5014 13.2176C94.3054 12.7736 95.2174 12.5516 96.2374 12.5516C97.1494 12.5516 97.9474 12.7496 98.6314 13.1456C99.3274 13.5416 99.8674 14.0996 100.251 14.8196C100.635 15.5276 100.827 16.3496 100.827 17.2856C100.827 18.2816 100.599 19.1696 100.143 19.9496C99.6874 20.7176 99.0454 21.3236 98.2174 21.7676C97.4014 22.1996 96.4714 22.4156 95.4274 22.4156ZM95.8414 21.1196C96.6214 21.1196 97.2394 20.8496 97.6954 20.3096C98.1634 19.7576 98.3974 19.0196 98.3974 18.0956C98.3974 17.2076 98.1934 16.4456 97.7854 15.8096C97.3774 15.1736 96.8314 14.7716 96.1474 14.6036C95.6314 14.6036 95.1634 14.7476 94.7434 15.0356C94.3234 15.3116 93.9934 15.7016 93.7534 16.2056C93.5254 16.7096 93.4114 17.2796 93.4114 17.9156C93.4114 18.8756 93.6334 19.6496 94.0774 20.2376C94.5214 20.8256 95.1094 21.1196 95.8414 21.1196ZM103.227 22.2896C102.963 22.2896 102.639 22.2536 102.255 22.1816C102.351 20.9576 102.399 19.2056 102.399 16.9256C102.399 14.6936 102.333 13.2836 102.201 12.6956C102.513 12.6236 102.939 12.5876 103.479 12.5876C103.875 12.5876 104.373 12.6236 104.973 12.6956C105.345 13.4276 105.903 14.4596 106.647 15.7916C107.403 17.1236 108.129 18.3716 108.825 19.5356C108.849 18.3356 108.861 17.4176 108.861 16.7816C108.861 14.5496 108.795 13.1876 108.663 12.6956C108.927 12.6236 109.191 12.5876 109.455 12.5876C109.743 12.5876 110.073 12.6236 110.445 12.6956C110.349 14.2316 110.301 15.9836 110.301 17.9516C110.301 20.1836 110.367 21.5936 110.499 22.1816C110.079 22.2536 109.653 22.2896 109.221 22.2896C108.753 22.2896 108.249 22.2536 107.709 22.1816C107.361 21.4736 106.815 20.4656 106.071 19.1576C105.327 17.8376 104.589 16.5656 103.857 15.3416C103.833 16.5416 103.821 17.4596 103.821 18.0956C103.821 20.2556 103.887 21.6176 104.019 22.1816C103.767 22.2536 103.503 22.2896 103.227 22.2896Z" fill="#FFEFD7"/>
</g>
<defs>
<filter id="filter0_i_833_28925" x="0" y="0" width="124.175" height="35.7002" filterUnits="userSpaceOnUse" color-interpolation-filters="sRGB">
<feFlood flood-opacity="0" result="BackgroundImageFix"/>
<feBlend mode="normal" in="SourceGraphic" in2="BackgroundImageFix" result="shape"/>
<feColorMatrix in="SourceAlpha" type="matrix" values="0 0 0 0 0 0 0 0 0 0 0 0 0 0 0 0 0 0 127 0" result="hardAlpha"/>
<feOffset dy="-0.776093"/>
<feComposite in2="hardAlpha" operator="arithmetic" k2="-1" k3="1"/>
<feColorMatrix type="matrix" values="0 0 0 0 0.151244 0 0 0 0 0 0 0 0 0 0.343736 0 0 0 1 0"/>
<feBlend mode="normal" in2="shape" result="effect1_innerShadow_833_28925"/>
</filter>
<filter id="filter1_i_833_28925" x="13.7852" y="12.5518" width="96.7139" height="9.86426" filterUnits="userSpaceOnUse" color-interpolation-filters="sRGB">
<feFlood flood-opacity="0" result="BackgroundImageFix"/>
<feBlend mode="normal" in="SourceGraphic" in2="BackgroundImageFix" result="shape"/>
<feColorMatrix in="SourceAlpha" type="matrix" values="0 0 0 0 0 0 0 0 0 0 0 0 0 0 0 0 0 0 127 0" result="hardAlpha"/>
<feOffset dy="0.776093"/>
<feComposite in2="hardAlpha" operator="arithmetic" k2="-1" k3="1"/>
<feColorMatrix type="matrix" values="0 0 0 0 0.152941 0 0 0 0 0 0 0 0 0 0.345098 0 0 0 0.65 0"/>
<feBlend mode="normal" in2="shape" result="effect1_innerShadow_833_28925"/>
</filter>
<linearGradient id="paint0_linear_833_28925" x1="112.713" y1="8.63105e-07" x2="-29.0905" y2="100.548" gradientUnits="userSpaceOnUse">
<stop stop-color="#6D6B68"/>
<stop offset="1" stop-color="#281D2B"/>
</linearGradient>
<linearGradient id="paint1_linear_833_28925" x1="51.5804" y1="1.9855e-07" x2="51.5804" y2="35.7003" gradientUnits="userSpaceOnUse">
<stop stop-color="#FFEFD7"/>
<stop offset="0.677092" stop-color="white" stop-opacity="0"/>
</linearGradient>
</defs>
</svg>
