<svg width="960" height="65" viewBox="0 0 960 65" fill="none" xmlns="http://www.w3.org/2000/svg">
<path d="M-1 1.15385H29.0312L44.8016 3.46154V5.76923L49.2429 1.73077L59.0625 1.15385H89.0938L90.8807 5.76923L98.0979 4.61538L102.262 6.53846L112.255 5.76923L120.305 8.46154L118.362 18.4615L125.579 26.5385L110.312 34.6154L126.412 26.5385L119.472 18.2692L123.636 8.46154L135.017 3.46154L143.899 4.61538L149.156 1.15385H179.188H239.25H299.312H314.328L330.714 4.61538L344.359 1.15385H359.375H389.406H396.914L410.368 9.80769L404.274 20.1923L407.741 27.3077L404.274 31.9231L408.161 27.3077L405.114 20.1923L412.047 9.80769L403.442 1.15385H419.438H479.5L488.383 10.7692L493.657 12.6923L493.102 17.3077L497.821 24.2308L528.077 26.3462L531.686 37.3077L548.619 42.1154L532.796 36.7308L529.465 25.7692L499.209 23.0769L495.322 17.5L495.878 12.6923L490.048 9.80769L485.607 2.11538L501.984 1.15385L514.476 4.42308L529.465 3.46154L542.616 1.63462L570.27 4.42308L586.093 1.63462L599.625 1.15385L660.486 3.46154L719.75 1.15385L749.868 4.80769L763.192 4.23077L766.801 8.07692V4.23077H775.683L779.812 1.15385L797.335 0L809.271 4.80769L839.875 1.15385L847.856 6.53846L861.735 8.07692L878.39 4.80769L891.159 10L887.55 19.6154L896.711 29.2308L885.885 43.8462L860.347 49.0385L887.55 43.8462L899.938 29.2308L891.159 18.6538L896.711 10L899.938 1.15385L915.864 3.46154L929.969 1.15385H960V65L931.964 63.6538L917.529 65H900.874L887.55 62.5H871.45L861.735 58.0769L860.347 53.4615L858.959 58.0769L850.631 61.3462L830.368 60.3846H813.435L782.346 63.6538L751.534 60.3846L719.75 65H699.07L702.401 61.6346L706.842 60L701.429 61.6346L697.127 65L660.486 60.3846L642.72 56.1538L648.549 60.3846L640.499 63.6538L630.055 62.6923L599.625 65H570.27L576.1 61.9231L569.16 52.8846L554.17 45.3846L569.16 53.4615L573.046 61.5385L567.495 65L558.334 63.6538L543.067 65L553.06 61.5385L539.562 65L510.867 63.6538L479.5 65H449.729L434.531 63.4615L425.371 65L423.705 61.7308L416.627 59.0385L405.072 65H390.187H360.416L330.714 63.0769L323.775 65H316.557L320.444 63.0769L323.775 56.5385L319.611 63.0769L315.447 64.6154L308.785 63.4615L300.735 63.0769L293.518 64.0385L284.913 63.0769L270.756 65L241.054 61.1538L120.305 65L113.365 64.0385L114.475 62.1154L110.312 63.8462L106.425 62.1154L95.5997 64.0385L84.7738 62.5961V52.3077L102.262 47.5L107.813 38.8462L102.262 46.5385L83.1083 51.3462L82.1368 62.5961L74.5032 62.1154L59.236 61.1538L-1 65V1.15385Z" fill="#6D4E46" fill-opacity="0.2"/>
</svg>
