<svg width="355" height="127" viewBox="0 0 355 127" fill="none" xmlns="http://www.w3.org/2000/svg">
<path d="M0 2.25444H11.0938L16.9194 6.76331V11.2722L18.5601 3.38166L22.1875 2.25444H33.2812L33.9414 11.2722L36.6075 9.01775L38.1456 12.7751L41.8371 11.2722L44.8108 16.5325L44.093 36.071L46.7591 51.8521L41.1193 67.6331L47.0667 51.8521L44.5032 35.6953L46.0413 16.5325L50.2455 6.76331L53.5269 9.01775L55.4688 2.25444H66.5625H88.75H110.938H116.484L122.538 9.01775L127.578 2.25444H133.125H144.219H146.992L151.962 19.1627L149.711 39.4527L150.992 53.355L149.711 62.3728L151.147 53.355L150.021 39.4527L152.582 19.1627L149.404 2.25444H155.312H177.5L180.781 21.0414L182.73 24.7988L182.525 33.8166L184.268 47.3432L195.445 51.4763L196.778 72.8935L203.033 82.287L197.188 71.7663L195.958 50.3491L184.78 45.0888L183.345 34.1923L183.55 24.7988L181.397 19.1627L179.756 4.13314L185.806 2.25444L190.42 8.64201L195.958 6.76331L200.815 3.19379L211.031 8.64201L216.876 3.19379L221.875 2.25444L244.357 6.76331L266.25 2.25444L277.376 9.39349L282.298 8.26627L283.631 15.7811V8.26627H286.912L288.438 2.25444L294.91 0L299.32 9.39349L310.625 2.25444L313.573 12.7751L318.7 15.7811L324.853 9.39349L329.57 19.5385L328.237 38.3254L331.62 57.1124L327.621 85.6686L318.187 95.8136L328.237 85.6686L332.812 57.1124L329.57 36.4467L331.62 19.5385L332.812 2.25444L338.696 6.76331L343.906 2.25444H355V127L344.643 124.37L339.311 127H333.159L328.237 122.115H322.289L318.7 113.473L318.187 104.456L317.675 113.473L314.599 119.861L307.113 117.982H300.858L289.373 124.37L277.991 117.982L266.25 127H258.611L259.841 120.425L261.482 117.231L259.482 120.425L257.893 127L244.357 117.982L237.795 109.716L239.948 117.982L236.974 124.37L233.116 122.491L221.875 127H211.031L213.185 120.988L210.621 103.328L205.084 88.6746L210.621 104.456L212.057 120.237L210.006 127L206.622 124.37L200.982 127L204.674 120.237L199.688 127L189.087 124.37L177.5 127H166.502L160.888 123.994L157.504 127L156.889 120.612L154.274 115.352L150.006 127H144.507H133.51L122.538 123.243L119.974 127H117.308L118.743 123.243L119.974 110.467L118.436 123.243L116.898 126.249L114.437 123.994L111.463 123.243L108.797 125.121L105.618 123.243L100.388 127L89.4165 119.485L44.8108 127L42.2473 125.121L42.6574 121.364L41.1193 124.746L39.6837 121.364L35.6846 125.121L31.6854 122.303V102.201L38.1456 92.8077L40.1964 75.8994L38.1456 90.929L31.0702 100.322L30.7113 122.303L27.8914 121.364L22.2516 119.485L0 127V2.25444Z" fill="#6D4E46" fill-opacity="0.5"/>
</svg>
