<svg width="355" height="84" viewBox="0 0 355 84" fill="none" xmlns="http://www.w3.org/2000/svg">
<g filter="url(#filter0_d_397_4477)">
<g filter="url(#filter1_i_397_4477)">
<path d="M16 27C16 20.3726 21.3726 15 28 15H56.5L73.0115 16L89.2547 15.0163C89.4305 15.0056 89.606 15.0416 89.7634 15.1206L93.8615 17.1759C94.2472 17.3694 94.7134 17.2936 95.0181 16.9881L95.4845 16.5202C95.658 16.3462 95.8894 16.2421 96.1347 16.2279L117.25 15H137.5H178H330.32C335.666 15 340 19.334 340 24.6803V25.5392C340 26.1501 339.738 26.7316 339.28 27.1358L337.3 28.8834C336.275 29.7881 337.069 31.4703 338.419 31.2537C339.249 31.1206 340 31.7611 340 32.601V48.4022C340 55.2585 334.265 60.7211 327.417 60.388L299.095 59.0106C298.951 59.0036 298.808 59.0277 298.674 59.0814L294.072 60.9281C293.953 60.9756 293.827 61 293.699 61H280.185H257.754H245.292H225.354H216.631H178L158.143 59.0082C158.089 59.0027 158.034 59.0017 157.98 59.0052L134.476 60.4942C134.415 60.4981 134.354 60.4963 134.293 60.489L122.009 59.0103C121.952 59.0035 121.895 58.9917 121.84 58.9751L115.267 56.9969C114.158 56.6634 113.502 58.2003 114.509 58.7706C115.365 59.256 115.038 60.5614 114.054 60.5853L97.1339 60.9967C97.0451 60.9989 96.9563 60.9892 96.8699 60.9679L80.9389 57.0343C80.8468 57.0116 80.7519 57.002 80.657 57.006L57.1231 58H37.1846L29.6825 59.0624C22.4579 60.0855 16 54.4776 16 47.1809V27Z" fill="url(#paint0_linear_397_4477)"/>
</g>
<path d="M72.9813 16.4991L73.0115 16.5009L73.0418 16.4991L89.2849 15.5153C89.3728 15.51 89.4606 15.528 89.5393 15.5675L93.6374 17.6229C94.2159 17.913 94.9152 17.7994 95.3722 17.3411L95.0196 16.9896L95.3722 17.3411L95.8386 16.8732C95.9254 16.7862 96.0411 16.7341 96.1637 16.727L117.265 15.5H137.5H178H330.32C335.39 15.5 339.5 19.6102 339.5 24.6803V25.5392C339.5 26.0067 339.299 26.4516 338.949 26.761L336.969 28.5085C335.569 29.7447 336.654 32.0434 338.498 31.7474C339.024 31.6631 339.5 32.0689 339.5 32.601V48.4022C339.5 54.9728 334.004 60.2078 327.441 59.8886L299.119 58.5112C298.904 58.5007 298.688 58.5369 298.488 58.6173L293.885 60.464C293.826 60.4878 293.763 60.5 293.699 60.5H280.185H257.754H245.292H225.354H216.631H178.025L158.193 58.5107C158.112 58.5025 158.03 58.501 157.948 58.5062L134.445 59.9952C134.414 59.9971 134.384 59.9963 134.353 59.9926L122.069 58.5139C122.04 58.5105 122.012 58.5046 121.984 58.4963L115.411 56.5181C113.732 56.0128 112.737 58.3416 114.262 59.2057C114.678 59.441 114.519 60.0738 114.042 60.0854L97.1218 60.4969C97.0773 60.498 97.033 60.4931 96.9898 60.4825L96.8699 60.9679L96.9898 60.4825L81.0588 56.5489C80.9206 56.5148 80.7782 56.5005 80.6359 56.5065L57.1125 57.5H37.1846H37.1494L37.1145 57.5049L29.6124 58.5673C22.6889 59.5478 16.5 54.1736 16.5 47.1809V27C16.5 20.6487 21.6487 15.5 28 15.5H56.4849L72.9813 16.4991Z" stroke="url(#paint1_linear_397_4477)"/>
<g filter="url(#filter2_i_397_4477)">
<path d="M135.931 44.108C135.499 44.108 135.013 44.072 134.473 44C134.533 43.412 134.581 42.614 134.617 41.606C134.653 40.598 134.671 39.644 134.671 38.744C134.671 36.68 134.575 35.402 134.383 34.91C134.791 34.766 135.337 34.652 136.021 34.568C136.717 34.472 137.419 34.424 138.127 34.424C139.423 34.424 140.413 34.7 141.097 35.252C141.793 35.792 142.141 36.572 142.141 37.592C142.141 38.276 141.961 38.888 141.601 39.428C141.253 39.956 140.761 40.37 140.125 40.67C139.489 40.97 138.763 41.12 137.947 41.12C137.563 41.12 137.227 41.096 136.939 41.048C136.963 42.584 137.053 43.568 137.209 44C136.801 44.072 136.375 44.108 135.931 44.108ZM138.613 39.842C138.937 39.65 139.201 39.368 139.405 38.996C139.609 38.624 139.711 38.204 139.711 37.736C139.711 36.548 139.057 35.954 137.749 35.954C137.473 35.954 137.233 35.978 137.029 36.026C136.957 37.394 136.921 38.558 136.921 39.518C137.653 39.734 138.217 39.842 138.613 39.842ZM150.871 44.09C150.475 44.09 150.043 44.048 149.575 43.964L149.377 43.388L148.801 41.786C148.153 41.75 147.463 41.732 146.731 41.732C145.939 41.732 145.375 41.756 145.039 41.804C144.727 42.608 144.469 43.328 144.265 43.964C143.977 44.036 143.719 44.072 143.491 44.072C143.191 44.072 142.885 44.036 142.573 43.964C142.909 43.364 143.503 41.948 144.355 39.716C145.207 37.484 145.843 35.738 146.263 34.478C146.743 34.418 147.145 34.388 147.469 34.388C147.817 34.388 148.189 34.418 148.585 34.478C149.005 35.738 149.641 37.484 150.493 39.716C151.345 41.948 151.939 43.364 152.275 43.964C151.843 44.048 151.375 44.09 150.871 44.09ZM147.415 40.382C147.643 40.382 147.925 40.37 148.261 40.346C147.757 38.93 147.307 37.76 146.911 36.836C146.395 38.144 145.951 39.308 145.579 40.328C146.155 40.364 146.767 40.382 147.415 40.382ZM154.739 44.108C154.307 44.108 153.821 44.072 153.281 44C153.341 43.412 153.389 42.614 153.425 41.606C153.461 40.586 153.479 39.632 153.479 38.744C153.479 36.68 153.383 35.402 153.191 34.91C153.599 34.766 154.145 34.652 154.829 34.568C155.525 34.472 156.227 34.424 156.935 34.424C158.231 34.424 159.221 34.7 159.905 35.252C160.601 35.792 160.949 36.572 160.949 37.592C160.949 38.168 160.793 38.684 160.481 39.14C160.169 39.596 159.731 39.968 159.167 40.256C160.079 42.068 160.829 43.226 161.417 43.73C160.625 43.982 159.671 44.108 158.555 44.108C158.219 43.304 157.667 42.188 156.899 40.76C156.443 40.76 156.053 40.736 155.729 40.688C155.765 42.452 155.861 43.556 156.017 44C155.609 44.072 155.183 44.108 154.739 44.108ZM157.421 39.482C157.757 39.29 158.021 39.05 158.213 38.762C158.417 38.462 158.519 38.12 158.519 37.736C158.519 36.548 157.865 35.954 156.557 35.954C156.281 35.954 156.041 35.978 155.837 36.026C155.789 36.902 155.753 37.94 155.729 39.14C156.437 39.368 157.001 39.482 157.421 39.482ZM165.784 44.108C165.424 44.108 164.962 44.072 164.398 44C164.458 43.376 164.506 42.542 164.542 41.498C164.578 40.442 164.596 39.476 164.596 38.6C164.596 38.096 164.584 37.52 164.56 36.872L164.542 36.44C163.09 36.452 162.184 36.53 161.824 36.674C161.764 36.17 161.734 35.768 161.734 35.468C161.734 35.204 161.764 34.892 161.824 34.532C162.328 34.58 163 34.622 163.84 34.658C164.68 34.682 165.478 34.694 166.234 34.694C168.07 34.694 169.198 34.616 169.618 34.46C169.678 34.904 169.708 35.252 169.708 35.504C169.708 35.876 169.678 36.242 169.618 36.602C168.814 36.53 167.92 36.488 166.936 36.476C166.876 37.676 166.846 38.822 166.846 39.914C166.846 42.134 166.942 43.496 167.134 44C166.834 44.072 166.384 44.108 165.784 44.108ZM172.229 44.108C171.797 44.108 171.311 44.072 170.771 44C170.903 42.068 170.969 40.316 170.969 38.744C170.969 36.5 170.873 35.09 170.681 34.514C171.113 34.442 171.581 34.406 172.085 34.406C172.469 34.406 172.913 34.442 173.417 34.514C173.357 35.138 173.309 35.972 173.273 37.016C173.237 38.06 173.219 39.026 173.219 39.914C173.219 42.134 173.315 43.496 173.507 44C173.099 44.072 172.673 44.108 172.229 44.108ZM179.213 44.198C177.833 44.198 176.771 43.808 176.027 43.028C175.295 42.248 174.929 41.126 174.929 39.662C174.929 38.642 175.145 37.736 175.577 36.944C176.009 36.14 176.615 35.516 177.395 35.072C178.187 34.628 179.081 34.406 180.077 34.406C181.205 34.406 182.111 34.55 182.795 34.838C182.795 35.234 182.705 35.69 182.525 36.206C182.345 36.71 182.153 37.058 181.949 37.25C181.493 36.842 181.001 36.506 180.473 36.242C179.957 35.966 179.543 35.828 179.231 35.828C178.715 35.996 178.271 36.404 177.899 37.052C177.539 37.7 177.359 38.402 177.359 39.158C177.359 40.19 177.575 40.964 178.007 41.48C178.439 41.996 179.075 42.254 179.915 42.254C180.431 42.254 180.947 42.182 181.463 42.038C181.991 41.894 182.417 41.702 182.741 41.462L183.047 42.596C182.627 43.076 182.063 43.466 181.355 43.766C180.659 44.054 179.945 44.198 179.213 44.198ZM185.729 44.108C185.297 44.108 184.811 44.072 184.271 44C184.403 42.068 184.469 40.316 184.469 38.744C184.469 36.5 184.373 35.09 184.181 34.514C184.613 34.442 185.081 34.406 185.585 34.406C185.969 34.406 186.413 34.442 186.917 34.514C186.857 35.138 186.809 35.972 186.773 37.016C186.737 38.06 186.719 39.026 186.719 39.914C186.719 42.134 186.815 43.496 187.007 44C186.599 44.072 186.173 44.108 185.729 44.108ZM190.265 44.108C189.833 44.108 189.347 44.072 188.807 44C188.867 43.412 188.915 42.614 188.951 41.606C188.987 40.598 189.005 39.644 189.005 38.744C189.005 36.68 188.909 35.402 188.717 34.91C189.125 34.766 189.671 34.652 190.355 34.568C191.051 34.472 191.753 34.424 192.461 34.424C193.757 34.424 194.747 34.7 195.431 35.252C196.127 35.792 196.475 36.572 196.475 37.592C196.475 38.276 196.295 38.888 195.935 39.428C195.587 39.956 195.095 40.37 194.459 40.67C193.823 40.97 193.097 41.12 192.281 41.12C191.897 41.12 191.561 41.096 191.273 41.048C191.297 42.584 191.387 43.568 191.543 44C191.135 44.072 190.709 44.108 190.265 44.108ZM192.947 39.842C193.271 39.65 193.535 39.368 193.739 38.996C193.943 38.624 194.045 38.204 194.045 37.736C194.045 36.548 193.391 35.954 192.083 35.954C191.807 35.954 191.567 35.978 191.363 36.026C191.291 37.394 191.255 38.558 191.255 39.518C191.987 39.734 192.551 39.842 192.947 39.842ZM205.205 44.09C204.809 44.09 204.377 44.048 203.909 43.964L203.711 43.388L203.135 41.786C202.487 41.75 201.797 41.732 201.065 41.732C200.273 41.732 199.709 41.756 199.373 41.804C199.061 42.608 198.803 43.328 198.599 43.964C198.311 44.036 198.053 44.072 197.825 44.072C197.525 44.072 197.219 44.036 196.907 43.964C197.243 43.364 197.837 41.948 198.689 39.716C199.541 37.484 200.177 35.738 200.597 34.478C201.077 34.418 201.479 34.388 201.803 34.388C202.151 34.388 202.523 34.418 202.919 34.478C203.339 35.738 203.975 37.484 204.827 39.716C205.679 41.948 206.273 43.364 206.609 43.964C206.177 44.048 205.709 44.09 205.205 44.09ZM201.749 40.382C201.977 40.382 202.259 40.37 202.595 40.346C202.091 38.93 201.641 37.76 201.245 36.836C200.729 38.144 200.285 39.308 199.913 40.328C200.489 40.364 201.101 40.382 201.749 40.382ZM209.975 44.108C209.615 44.108 209.153 44.072 208.589 44C208.649 43.376 208.697 42.542 208.733 41.498C208.769 40.442 208.787 39.476 208.787 38.6C208.787 38.096 208.775 37.52 208.751 36.872L208.733 36.44C207.281 36.452 206.375 36.53 206.015 36.674C205.955 36.17 205.925 35.768 205.925 35.468C205.925 35.204 205.955 34.892 206.015 34.532C206.519 34.58 207.191 34.622 208.031 34.658C208.871 34.682 209.669 34.694 210.425 34.694C212.261 34.694 213.389 34.616 213.809 34.46C213.869 34.904 213.899 35.252 213.899 35.504C213.899 35.876 213.869 36.242 213.809 36.602C213.005 36.53 212.111 36.488 211.127 36.476C211.067 37.676 211.037 38.822 211.037 39.914C211.037 42.134 211.133 43.496 211.325 44C211.025 44.072 210.575 44.108 209.975 44.108ZM214.963 44.054C215.095 42.386 215.161 40.568 215.161 38.6C215.161 37.484 215.137 36.638 215.089 36.062C215.053 35.486 214.981 34.97 214.873 34.514C215.545 34.598 216.595 34.64 218.023 34.64C219.703 34.64 220.999 34.598 221.911 34.514C221.911 34.946 221.875 35.408 221.803 35.9C221.731 36.38 221.641 36.704 221.533 36.872C221.221 36.716 220.819 36.596 220.327 36.512C219.835 36.428 219.337 36.386 218.833 36.386C218.401 36.386 217.957 36.416 217.501 36.476C217.453 37.34 217.429 38.024 217.429 38.528C217.885 38.552 218.227 38.564 218.455 38.564C219.067 38.564 219.535 38.552 219.859 38.528C220.195 38.492 220.567 38.438 220.975 38.366C221.023 38.726 221.047 39.008 221.047 39.212C221.047 39.404 221.023 39.692 220.975 40.076C219.463 39.992 218.275 39.95 217.411 39.95C217.411 40.754 217.429 41.456 217.465 42.056C217.885 42.14 218.371 42.182 218.923 42.182C219.487 42.182 220.045 42.14 220.597 42.056C221.161 41.972 221.623 41.852 221.983 41.696C221.983 42.116 221.947 42.572 221.875 43.064C221.803 43.544 221.713 43.874 221.605 44.054C220.777 43.97 219.613 43.928 218.113 43.928C216.685 43.928 215.635 43.97 214.963 44.054Z" fill="#FFEFD7"/>
</g>
</g>
<defs>
<filter id="filter0_d_397_4477" x="-4" y="0" width="364" height="86" filterUnits="userSpaceOnUse" color-interpolation-filters="sRGB">
<feFlood flood-opacity="0" result="BackgroundImageFix"/>
<feColorMatrix in="SourceAlpha" type="matrix" values="0 0 0 0 0 0 0 0 0 0 0 0 0 0 0 0 0 0 127 0" result="hardAlpha"/>
<feOffset dy="5"/>
<feGaussianBlur stdDeviation="10"/>
<feComposite in2="hardAlpha" operator="out"/>
<feColorMatrix type="matrix" values="0 0 0 0 0.513726 0 0 0 0 0.243137 0 0 0 0 1 0 0 0 0.5 0"/>
<feBlend mode="normal" in2="BackgroundImageFix" result="effect1_dropShadow_397_4477"/>
<feBlend mode="normal" in="SourceGraphic" in2="effect1_dropShadow_397_4477" result="shape"/>
</filter>
<filter id="filter1_i_397_4477" x="16" y="15" width="324" height="46" filterUnits="userSpaceOnUse" color-interpolation-filters="sRGB">
<feFlood flood-opacity="0" result="BackgroundImageFix"/>
<feBlend mode="normal" in="SourceGraphic" in2="BackgroundImageFix" result="shape"/>
<feColorMatrix in="SourceAlpha" type="matrix" values="0 0 0 0 0 0 0 0 0 0 0 0 0 0 0 0 0 0 127 0" result="hardAlpha"/>
<feOffset dy="-1"/>
<feComposite in2="hardAlpha" operator="arithmetic" k2="-1" k3="1"/>
<feColorMatrix type="matrix" values="0 0 0 0 0.151244 0 0 0 0 0 0 0 0 0 0.343736 0 0 0 1 0"/>
<feBlend mode="normal" in2="shape" result="effect1_innerShadow_397_4477"/>
</filter>
<filter id="filter2_i_397_4477" x="134.383" y="34.3879" width="87.6002" height="9.81006" filterUnits="userSpaceOnUse" color-interpolation-filters="sRGB">
<feFlood flood-opacity="0" result="BackgroundImageFix"/>
<feBlend mode="normal" in="SourceGraphic" in2="BackgroundImageFix" result="shape"/>
<feColorMatrix in="SourceAlpha" type="matrix" values="0 0 0 0 0 0 0 0 0 0 0 0 0 0 0 0 0 0 127 0" result="hardAlpha"/>
<feOffset dy="1"/>
<feComposite in2="hardAlpha" operator="arithmetic" k2="-1" k3="1"/>
<feColorMatrix type="matrix" values="0 0 0 0 0.152941 0 0 0 0 0 0 0 0 0 0.345098 0 0 0 0.65 0"/>
<feBlend mode="normal" in2="shape" result="effect1_innerShadow_397_4477"/>
</filter>
<linearGradient id="paint0_linear_397_4477" x1="310.092" y1="15" x2="128.487" y2="275.761" gradientUnits="userSpaceOnUse">
<stop stop-color="#8334FF"/>
<stop offset="1" stop-color="#7BD8FF"/>
</linearGradient>
<linearGradient id="paint1_linear_397_4477" x1="150.585" y1="15" x2="150.585" y2="61" gradientUnits="userSpaceOnUse">
<stop stop-color="#D884FF"/>
<stop offset="0.677092" stop-color="white" stop-opacity="0"/>
</linearGradient>
</defs>
</svg>
