<svg width="172" height="66" viewBox="0 0 172 66" fill="none" xmlns="http://www.w3.org/2000/svg">
<g filter="url(#filter0_d_833_28929)">
<g filter="url(#filter1_i_833_28929)">
<path d="M16.0566 21.3131C16.0566 16.1696 20.2263 12 25.3698 12H33.5566L40.602 12.8158C40.6613 12.8226 40.7212 12.8226 40.7805 12.8158L47.4631 12.042C47.6929 12.0154 47.9225 12.0927 48.0895 12.2528L49.3792 13.4894C49.6795 13.7773 50.1721 13.6964 50.3644 13.3275C50.4605 13.1432 50.6421 13.0188 50.8487 12.9959L59.8066 12H68.5566H86.0566H147.53C152.239 12 156.057 15.8174 156.057 20.5264V20.9939C156.057 21.3252 155.968 21.6504 155.799 21.9354L154.307 24.453C153.974 25.0152 154.507 25.6929 155.132 25.5012C155.592 25.3601 156.057 25.7039 156.057 26.1848V39.7808C156.057 45.2648 151.342 49.5616 145.881 49.0539L138.59 48.376C138.396 48.3579 138.201 48.4139 138.046 48.533L136.343 49.8397C136.207 49.9437 136.041 50 135.87 50H130.21H120.518H115.134H106.518H102.749H86.1304C86.0813 50 86.0324 49.9953 85.9842 49.9861L77.5604 48.3707C77.4814 48.3555 77.4006 48.3527 77.3209 48.3624L67.3454 49.5706C67.2561 49.5814 67.1657 49.5766 67.078 49.5565L61.9386 48.3738C61.8639 48.3566 61.7921 48.3284 61.7256 48.2901L59.7679 47.1638C58.9977 46.7207 58.2081 47.71 58.8109 48.3628C59.2583 48.8473 58.9356 49.6337 58.2768 49.6643L51.2494 49.991C51.1228 49.9969 50.9967 49.9717 50.8821 49.9176L44.2439 46.7841C44.1212 46.7261 43.9855 46.7014 43.8502 46.7123L33.8259 47.5217H25.2902C25.2373 47.5217 25.1846 47.5287 25.1335 47.5426C20.5587 48.7811 16.0566 45.3359 16.0566 40.5964V21.3131Z" fill="url(#paint0_linear_833_28929)"/>
</g>
<path d="M86.0573 49.605L85.9842 49.9861L86.0573 49.605L77.6334 47.9896C77.5151 47.9669 77.3939 47.9627 77.2742 47.9772L67.2987 49.1854C67.2541 49.1908 67.2089 49.1884 67.1651 49.1783L62.0256 47.9956C61.9882 47.987 61.9524 47.9729 61.9191 47.9538L59.9614 46.8275C58.806 46.1628 57.6215 47.6468 58.5258 48.6261C58.7494 48.8683 58.5881 49.2614 58.2588 49.2767L51.2314 49.6034C51.1681 49.6063 51.1051 49.5937 51.0477 49.5667L44.4096 46.4332C44.2255 46.3463 44.0219 46.3092 43.819 46.3255L33.8102 47.1337H25.2902C25.2031 47.1337 25.1163 47.1452 25.0321 47.168C20.704 48.3398 16.4447 45.0803 16.4447 40.5964V21.3131C16.4447 16.3839 20.4406 12.388 25.3698 12.388H33.5343L40.5574 13.2012C40.6463 13.2115 40.7362 13.2115 40.8252 13.2012L47.5077 12.4275C47.6226 12.4142 47.7374 12.4528 47.8209 12.5329L49.1106 13.7695C49.5976 14.2365 50.3965 14.1052 50.7085 13.5069C50.7448 13.4372 50.8135 13.3902 50.8916 13.3815L59.8281 12.388H68.5566H86.0566H147.53C152.025 12.388 155.669 16.0317 155.669 20.5264V20.9939C155.669 21.2556 155.598 21.5125 155.465 21.7376L153.973 24.2552C153.459 25.1225 154.282 26.1679 155.246 25.8721C155.456 25.8076 155.669 25.9649 155.669 26.1848V39.7808C155.669 45.0363 151.15 49.1541 145.917 48.6675L138.626 47.9896C138.334 47.9625 138.043 48.0465 137.81 48.2251L136.106 49.5318C136.039 49.5838 135.956 49.612 135.87 49.612H130.21H120.518H115.134H106.518H102.749H86.1304C86.1181 49.612 86.1059 49.6114 86.0937 49.6102C86.0815 49.6091 86.0694 49.6073 86.0573 49.605Z" stroke="url(#paint1_linear_833_28929)" stroke-width="0.776093"/>
<g filter="url(#filter2_i_833_28929)">
<path d="M43.9872 36.1949C43.5552 36.1949 43.0692 36.1589 42.5292 36.0869C42.5892 35.4989 42.6372 34.7009 42.6732 33.6929C42.7092 32.6849 42.7272 31.7309 42.7272 30.8309C42.7272 28.7669 42.6312 27.4889 42.4392 26.9969C42.8472 26.8529 43.3932 26.7389 44.0772 26.6549C44.7732 26.5589 45.4752 26.5109 46.1832 26.5109C47.4792 26.5109 48.4692 26.7869 49.1532 27.3389C49.8492 27.8789 50.1972 28.6589 50.1972 29.6789C50.1972 30.3629 50.0172 30.9749 49.6572 31.5149C49.3092 32.0429 48.8172 32.4569 48.1812 32.7569C47.5452 33.0569 46.8192 33.2069 46.0032 33.2069C45.6192 33.2069 45.2832 33.1829 44.9952 33.1349C45.0192 34.6709 45.1092 35.6549 45.2652 36.0869C44.8572 36.1589 44.4312 36.1949 43.9872 36.1949ZM46.6692 31.9289C46.9932 31.7369 47.2572 31.4549 47.4612 31.0829C47.6652 30.7109 47.7672 30.2909 47.7672 29.8229C47.7672 28.6349 47.1132 28.0409 45.8052 28.0409C45.5292 28.0409 45.2892 28.0649 45.0852 28.1129C45.0132 29.4809 44.9772 30.6449 44.9772 31.6049C45.7092 31.8209 46.2732 31.9289 46.6692 31.9289ZM58.9272 36.1769C58.5312 36.1769 58.0992 36.1349 57.6312 36.0509L57.4332 35.4749L56.8572 33.8729C56.2092 33.8369 55.5192 33.8189 54.7872 33.8189C53.9952 33.8189 53.4312 33.8429 53.0952 33.8909C52.7832 34.6949 52.5252 35.4149 52.3212 36.0509C52.0332 36.1229 51.7752 36.1589 51.5472 36.1589C51.2472 36.1589 50.9412 36.1229 50.6292 36.0509C50.9652 35.4509 51.5592 34.0349 52.4112 31.8029C53.2632 29.5709 53.8992 27.8249 54.3192 26.5649C54.7992 26.5049 55.2012 26.4749 55.5252 26.4749C55.8732 26.4749 56.2452 26.5049 56.6412 26.5649C57.0612 27.8249 57.6972 29.5709 58.5492 31.8029C59.4012 34.0349 59.9952 35.4509 60.3312 36.0509C59.8992 36.1349 59.4312 36.1769 58.9272 36.1769ZM55.4712 32.4689C55.6992 32.4689 55.9812 32.4569 56.3172 32.4329C55.8132 31.0169 55.3632 29.8469 54.9672 28.9229C54.4512 30.2309 54.0072 31.3949 53.6352 32.4149C54.2112 32.4509 54.8232 32.4689 55.4712 32.4689ZM62.7958 36.1949C62.3638 36.1949 61.8778 36.1589 61.3378 36.0869C61.3978 35.4989 61.4458 34.7009 61.4818 33.6929C61.5178 32.6729 61.5358 31.7189 61.5358 30.8309C61.5358 28.7669 61.4398 27.4889 61.2478 26.9969C61.6558 26.8529 62.2018 26.7389 62.8858 26.6549C63.5818 26.5589 64.2838 26.5109 64.9918 26.5109C66.2878 26.5109 67.2778 26.7869 67.9618 27.3389C68.6578 27.8789 69.0058 28.6589 69.0058 29.6789C69.0058 30.2549 68.8498 30.7709 68.5378 31.2269C68.2258 31.6829 67.7878 32.0549 67.2238 32.3429C68.1358 34.1549 68.8858 35.3129 69.4738 35.8169C68.6818 36.0689 67.7278 36.1949 66.6118 36.1949C66.2758 35.3909 65.7238 34.2749 64.9558 32.8469C64.4998 32.8469 64.1098 32.8229 63.7858 32.7749C63.8218 34.5389 63.9178 35.6429 64.0738 36.0869C63.6658 36.1589 63.2398 36.1949 62.7958 36.1949ZM65.4778 31.5689C65.8138 31.3769 66.0778 31.1369 66.2698 30.8489C66.4738 30.5489 66.5758 30.2069 66.5758 29.8229C66.5758 28.6349 65.9218 28.0409 64.6138 28.0409C64.3378 28.0409 64.0978 28.0649 63.8938 28.1129C63.8458 28.9889 63.8098 30.0269 63.7858 31.2269C64.4938 31.4549 65.0578 31.5689 65.4778 31.5689ZM73.8402 36.1949C73.4802 36.1949 73.0182 36.1589 72.4542 36.0869C72.5142 35.4629 72.5622 34.6289 72.5982 33.5849C72.6342 32.5289 72.6522 31.5629 72.6522 30.6869C72.6522 30.1829 72.6402 29.6069 72.6162 28.9589L72.5982 28.5269C71.1462 28.5389 70.2402 28.6169 69.8802 28.7609C69.8202 28.2569 69.7902 27.8549 69.7902 27.5549C69.7902 27.2909 69.8202 26.9789 69.8802 26.6189C70.3842 26.6669 71.0562 26.7089 71.8962 26.7449C72.7362 26.7689 73.5342 26.7809 74.2902 26.7809C76.1262 26.7809 77.2542 26.7029 77.6742 26.5469C77.7342 26.9909 77.7642 27.3389 77.7642 27.5909C77.7642 27.9629 77.7342 28.3289 77.6742 28.6889C76.8702 28.6169 75.9762 28.5749 74.9922 28.5629C74.9322 29.7629 74.9022 30.9089 74.9022 32.0009C74.9022 34.2209 74.9982 35.5829 75.1902 36.0869C74.8902 36.1589 74.4402 36.1949 73.8402 36.1949ZM80.286 36.1949C79.854 36.1949 79.368 36.1589 78.828 36.0869C78.96 34.1549 79.026 32.4029 79.026 30.8309C79.026 28.5869 78.93 27.1769 78.738 26.6009C79.17 26.5289 79.638 26.4929 80.142 26.4929C80.526 26.4929 80.97 26.5289 81.474 26.6009C81.414 27.2249 81.366 28.0589 81.33 29.1029C81.294 30.1469 81.276 31.1129 81.276 32.0009C81.276 34.2209 81.372 35.5829 81.564 36.0869C81.156 36.1589 80.73 36.1949 80.286 36.1949ZM87.2692 36.2849C85.8892 36.2849 84.8272 35.8949 84.0832 35.1149C83.3512 34.3349 82.9852 33.2129 82.9852 31.7489C82.9852 30.7289 83.2012 29.8229 83.6332 29.0309C84.0652 28.2269 84.6712 27.6029 85.4512 27.1589C86.2432 26.7149 87.1372 26.4929 88.1332 26.4929C89.2612 26.4929 90.1672 26.6369 90.8512 26.9249C90.8512 27.3209 90.7612 27.7769 90.5812 28.2929C90.4012 28.7969 90.2092 29.1449 90.0052 29.3369C89.5492 28.9289 89.0572 28.5929 88.5292 28.3289C88.0132 28.0529 87.5992 27.9149 87.2872 27.9149C86.7712 28.0829 86.3272 28.4909 85.9552 29.1389C85.5952 29.7869 85.4152 30.4889 85.4152 31.2449C85.4152 32.2769 85.6312 33.0509 86.0632 33.5669C86.4952 34.0829 87.1312 34.3409 87.9712 34.3409C88.4872 34.3409 89.0032 34.2689 89.5192 34.1249C90.0472 33.9809 90.4732 33.7889 90.7972 33.5489L91.1032 34.6829C90.6832 35.1629 90.1192 35.5529 89.4112 35.8529C88.7152 36.1409 88.0012 36.2849 87.2692 36.2849ZM93.786 36.1949C93.354 36.1949 92.868 36.1589 92.328 36.0869C92.46 34.1549 92.526 32.4029 92.526 30.8309C92.526 28.5869 92.43 27.1769 92.238 26.6009C92.67 26.5289 93.138 26.4929 93.642 26.4929C94.026 26.4929 94.47 26.5289 94.974 26.6009C94.914 27.2249 94.866 28.0589 94.83 29.1029C94.794 30.1469 94.776 31.1129 94.776 32.0009C94.776 34.2209 94.872 35.5829 95.064 36.0869C94.656 36.1589 94.23 36.1949 93.786 36.1949ZM98.3212 36.1949C97.8892 36.1949 97.4032 36.1589 96.8632 36.0869C96.9232 35.4989 96.9712 34.7009 97.0072 33.6929C97.0432 32.6849 97.0612 31.7309 97.0612 30.8309C97.0612 28.7669 96.9652 27.4889 96.7732 26.9969C97.1812 26.8529 97.7272 26.7389 98.4112 26.6549C99.1072 26.5589 99.8092 26.5109 100.517 26.5109C101.813 26.5109 102.803 26.7869 103.487 27.3389C104.183 27.8789 104.531 28.6589 104.531 29.6789C104.531 30.3629 104.351 30.9749 103.991 31.5149C103.643 32.0429 103.151 32.4569 102.515 32.7569C101.879 33.0569 101.153 33.2069 100.337 33.2069C99.9532 33.2069 99.6172 33.1829 99.3292 33.1349C99.3532 34.6709 99.4432 35.6549 99.5992 36.0869C99.1912 36.1589 98.7652 36.1949 98.3212 36.1949ZM101.003 31.9289C101.327 31.7369 101.591 31.4549 101.795 31.0829C101.999 30.7109 102.101 30.2909 102.101 29.8229C102.101 28.6349 101.447 28.0409 100.139 28.0409C99.8632 28.0409 99.6232 28.0649 99.4192 28.1129C99.3472 29.4809 99.3112 30.6449 99.3112 31.6049C100.043 31.8209 100.607 31.9289 101.003 31.9289ZM113.261 36.1769C112.865 36.1769 112.433 36.1349 111.965 36.0509L111.767 35.4749L111.191 33.8729C110.543 33.8369 109.853 33.8189 109.121 33.8189C108.329 33.8189 107.765 33.8429 107.429 33.8909C107.117 34.6949 106.859 35.4149 106.655 36.0509C106.367 36.1229 106.109 36.1589 105.881 36.1589C105.581 36.1589 105.275 36.1229 104.963 36.0509C105.299 35.4509 105.893 34.0349 106.745 31.8029C107.597 29.5709 108.233 27.8249 108.653 26.5649C109.133 26.5049 109.535 26.4749 109.859 26.4749C110.207 26.4749 110.579 26.5049 110.975 26.5649C111.395 27.8249 112.031 29.5709 112.883 31.8029C113.735 34.0349 114.329 35.4509 114.665 36.0509C114.233 36.1349 113.765 36.1769 113.261 36.1769ZM109.805 32.4689C110.033 32.4689 110.315 32.4569 110.651 32.4329C110.147 31.0169 109.697 29.8469 109.301 28.9229C108.785 30.2309 108.341 31.3949 107.969 32.4149C108.545 32.4509 109.157 32.4689 109.805 32.4689ZM118.032 36.1949C117.672 36.1949 117.21 36.1589 116.646 36.0869C116.706 35.4629 116.754 34.6289 116.79 33.5849C116.826 32.5289 116.844 31.5629 116.844 30.6869C116.844 30.1829 116.832 29.6069 116.808 28.9589L116.79 28.5269C115.338 28.5389 114.432 28.6169 114.072 28.7609C114.012 28.2569 113.982 27.8549 113.982 27.5549C113.982 27.2909 114.012 26.9789 114.072 26.6189C114.576 26.6669 115.248 26.7089 116.088 26.7449C116.928 26.7689 117.726 26.7809 118.482 26.7809C120.318 26.7809 121.446 26.7029 121.866 26.5469C121.926 26.9909 121.956 27.3389 121.956 27.5909C121.956 27.9629 121.926 28.3289 121.866 28.6889C121.062 28.6169 120.168 28.5749 119.184 28.5629C119.124 29.7629 119.094 30.9089 119.094 32.0009C119.094 34.2209 119.19 35.5829 119.382 36.0869C119.082 36.1589 118.632 36.1949 118.032 36.1949ZM123.019 36.1409C123.151 34.4729 123.217 32.6549 123.217 30.6869C123.217 29.5709 123.193 28.7249 123.145 28.1489C123.109 27.5729 123.037 27.0569 122.929 26.6009C123.601 26.6849 124.651 26.7269 126.079 26.7269C127.759 26.7269 129.055 26.6849 129.967 26.6009C129.967 27.0329 129.931 27.4949 129.859 27.9869C129.787 28.4669 129.697 28.7909 129.589 28.9589C129.277 28.8029 128.875 28.6829 128.383 28.5989C127.891 28.5149 127.393 28.4729 126.889 28.4729C126.457 28.4729 126.013 28.5029 125.557 28.5629C125.509 29.4269 125.485 30.1109 125.485 30.6149C125.941 30.6389 126.283 30.6509 126.511 30.6509C127.123 30.6509 127.591 30.6389 127.915 30.6149C128.251 30.5789 128.623 30.5249 129.031 30.4529C129.079 30.8129 129.103 31.0949 129.103 31.2989C129.103 31.4909 129.079 31.7789 129.031 32.1629C127.519 32.0789 126.331 32.0369 125.467 32.0369C125.467 32.8409 125.485 33.5429 125.521 34.1429C125.941 34.2269 126.427 34.2689 126.979 34.2689C127.543 34.2689 128.101 34.2269 128.653 34.1429C129.217 34.0589 129.679 33.9389 130.039 33.7829C130.039 34.2029 130.003 34.6589 129.931 35.1509C129.859 35.6309 129.769 35.9609 129.661 36.1409C128.833 36.0569 127.669 36.0149 126.169 36.0149C124.741 36.0149 123.691 36.0569 123.019 36.1409Z" fill="#FFEFD7"/>
</g>
</g>
<defs>
<filter id="filter0_d_833_28929" x="0.534775" y="0.358601" width="171.044" height="69.0437" filterUnits="userSpaceOnUse" color-interpolation-filters="sRGB">
<feFlood flood-opacity="0" result="BackgroundImageFix"/>
<feColorMatrix in="SourceAlpha" type="matrix" values="0 0 0 0 0 0 0 0 0 0 0 0 0 0 0 0 0 0 127 0" result="hardAlpha"/>
<feOffset dy="3.88047"/>
<feGaussianBlur stdDeviation="7.76093"/>
<feComposite in2="hardAlpha" operator="out"/>
<feColorMatrix type="matrix" values="0 0 0 0 0.513726 0 0 0 0 0.243137 0 0 0 0 1 0 0 0 0.5 0"/>
<feBlend mode="normal" in2="BackgroundImageFix" result="effect1_dropShadow_833_28929"/>
<feBlend mode="normal" in="SourceGraphic" in2="effect1_dropShadow_833_28929" result="shape"/>
</filter>
<filter id="filter1_i_833_28929" x="16.0566" y="12" width="140" height="38" filterUnits="userSpaceOnUse" color-interpolation-filters="sRGB">
<feFlood flood-opacity="0" result="BackgroundImageFix"/>
<feBlend mode="normal" in="SourceGraphic" in2="BackgroundImageFix" result="shape"/>
<feColorMatrix in="SourceAlpha" type="matrix" values="0 0 0 0 0 0 0 0 0 0 0 0 0 0 0 0 0 0 127 0" result="hardAlpha"/>
<feOffset dy="-0.776093"/>
<feComposite in2="hardAlpha" operator="arithmetic" k2="-1" k3="1"/>
<feColorMatrix type="matrix" values="0 0 0 0 0.151244 0 0 0 0 0 0 0 0 0 0.343736 0 0 0 1 0"/>
<feBlend mode="normal" in2="shape" result="effect1_innerShadow_833_28929"/>
</filter>
<filter id="filter2_i_833_28929" x="42.4395" y="26.4746" width="87.5996" height="9.81055" filterUnits="userSpaceOnUse" color-interpolation-filters="sRGB">
<feFlood flood-opacity="0" result="BackgroundImageFix"/>
<feBlend mode="normal" in="SourceGraphic" in2="BackgroundImageFix" result="shape"/>
<feColorMatrix in="SourceAlpha" type="matrix" values="0 0 0 0 0 0 0 0 0 0 0 0 0 0 0 0 0 0 127 0" result="hardAlpha"/>
<feOffset dy="0.776093"/>
<feComposite in2="hardAlpha" operator="arithmetic" k2="-1" k3="1"/>
<feColorMatrix type="matrix" values="0 0 0 0 0.152941 0 0 0 0 0 0 0 0 0 0.345098 0 0 0 0.65 0"/>
<feBlend mode="normal" in2="shape" result="effect1_innerShadow_833_28929"/>
</filter>
<linearGradient id="paint0_linear_833_28929" x1="143.134" y1="12" x2="-10.4751" y2="127.368" gradientUnits="userSpaceOnUse">
<stop stop-color="#8334FF"/>
<stop offset="1" stop-color="#7BD8FF"/>
</linearGradient>
<linearGradient id="paint1_linear_833_28929" x1="74.2105" y1="12" x2="74.2105" y2="50" gradientUnits="userSpaceOnUse">
<stop stop-color="#D884FF"/>
<stop offset="0.677092" stop-color="white" stop-opacity="0"/>
</linearGradient>
</defs>
</svg>
