<svg width="189" height="36" viewBox="0 0 189 36" fill="none" xmlns="http://www.w3.org/2000/svg">
<path d="M162.089 35.4403L162.326 35.8805L162.089 35.4403C162.016 35.4795 161.935 35.5 161.852 35.5H154.108H141.023H133.754H122.123H117.035H94.5335L83.0447 33.9539C82.9362 33.9393 82.8266 33.9366 82.7176 33.9459L69.138 35.1001C69.0972 35.1035 69.0562 35.102 69.0159 35.0955L61.979 33.9591C61.9422 33.9531 61.9061 33.9431 61.8715 33.9291L58.4789 32.5594C57.1217 32.0115 56.085 33.8358 57.2503 34.7214C57.441 34.8663 57.344 35.1704 57.1046 35.1782L47.4117 35.4945C47.3528 35.4964 47.2941 35.4879 47.2382 35.4694L38.1381 32.4548C37.9588 32.3955 37.77 32.3705 37.5815 32.3811L23.9743 33.1522H12.4518C12.3579 33.1522 12.2642 33.161 12.1719 33.1785L9.39988 33.7052C4.77916 34.5831 0.5 31.0404 0.5 26.337V8C0.5 3.85786 3.85786 0.5 8 0.5H23.6047L33.1353 1.27439C33.2161 1.28096 33.2974 1.28096 33.3782 1.27439L42.5801 0.526704C42.693 0.517528 42.8057 0.546979 42.8997 0.610228L44.8323 1.9106C45.4371 2.31757 46.255 2.17741 46.6897 1.59228C46.7526 1.50764 46.8491 1.45435 46.9542 1.44614L59.082 0.5H70.875H94.5H181.674C185.444 0.5 188.5 3.55589 188.5 7.32552V8.37513C188.5 8.66055 188.399 8.93676 188.215 9.15485L186.67 10.9847C185.813 11.999 186.728 13.5224 188.026 13.2429C188.27 13.1904 188.5 13.3763 188.5 13.6258V27.461C188.5 31.7953 184.837 35.2273 180.512 34.9451L165.33 33.9545C165.05 33.9362 164.77 33.9972 164.522 34.1306L162.089 35.4403Z" fill="url(#paint0_linear_1853_1872)" stroke="url(#paint1_linear_1853_1872)"/>
<g filter="url(#filter0_i_1853_1872)">
<path d="M52.4306 20.8033C51.9986 20.8033 51.5126 20.7673 50.9726 20.6953C51.0326 20.1073 51.0806 19.3093 51.1166 18.3013C51.1526 17.2933 51.1706 16.3393 51.1706 15.4393C51.1706 13.3753 51.0746 12.0973 50.8826 11.6053C51.2906 11.4613 51.8366 11.3473 52.5206 11.2633C53.2166 11.1673 53.9186 11.1193 54.6266 11.1193C55.9226 11.1193 56.9126 11.3953 57.5966 11.9473C58.2926 12.4873 58.6406 13.2673 58.6406 14.2873C58.6406 14.9713 58.4606 15.5833 58.1006 16.1233C57.7526 16.6513 57.2606 17.0653 56.6246 17.3653C55.9886 17.6653 55.2626 17.8153 54.4466 17.8153C54.0626 17.8153 53.7266 17.7913 53.4386 17.7433C53.4626 19.2793 53.5526 20.2633 53.7086 20.6953C53.3006 20.7673 52.8746 20.8033 52.4306 20.8033ZM55.1126 16.5373C55.4366 16.3453 55.7006 16.0633 55.9046 15.6913C56.1086 15.3193 56.2106 14.8993 56.2106 14.4313C56.2106 13.2433 55.5566 12.6493 54.2486 12.6493C53.9726 12.6493 53.7326 12.6733 53.5286 12.7213C53.4566 14.0893 53.4206 15.2533 53.4206 16.2133C54.1526 16.4293 54.7166 16.5373 55.1126 16.5373ZM67.3706 20.7853C66.9746 20.7853 66.5426 20.7433 66.0746 20.6593L65.8766 20.0833L65.3006 18.4813C64.6526 18.4453 63.9626 18.4273 63.2306 18.4273C62.4386 18.4273 61.8746 18.4513 61.5386 18.4993C61.2266 19.3033 60.9686 20.0233 60.7646 20.6593C60.4766 20.7313 60.2186 20.7673 59.9906 20.7673C59.6906 20.7673 59.3846 20.7313 59.0726 20.6593C59.4086 20.0593 60.0026 18.6433 60.8546 16.4113C61.7066 14.1793 62.3426 12.4333 62.7626 11.1733C63.2426 11.1133 63.6446 11.0833 63.9686 11.0833C64.3166 11.0833 64.6886 11.1133 65.0846 11.1733C65.5046 12.4333 66.1406 14.1793 66.9926 16.4113C67.8446 18.6433 68.4386 20.0593 68.7746 20.6593C68.3426 20.7433 67.8746 20.7853 67.3706 20.7853ZM63.9146 17.0773C64.1426 17.0773 64.4246 17.0653 64.7606 17.0413C64.2566 15.6253 63.8066 14.4553 63.4106 13.5313C62.8946 14.8393 62.4506 16.0033 62.0786 17.0233C62.6546 17.0593 63.2666 17.0773 63.9146 17.0773ZM71.2391 20.8033C70.8071 20.8033 70.3211 20.7673 69.7811 20.6953C69.8411 20.1073 69.8891 19.3093 69.9251 18.3013C69.9611 17.2813 69.9791 16.3273 69.9791 15.4393C69.9791 13.3753 69.8831 12.0973 69.6911 11.6053C70.0991 11.4613 70.6451 11.3473 71.3291 11.2633C72.0251 11.1673 72.7271 11.1193 73.4351 11.1193C74.7311 11.1193 75.7211 11.3953 76.4051 11.9473C77.1011 12.4873 77.4491 13.2673 77.4491 14.2873C77.4491 14.8633 77.2931 15.3793 76.9811 15.8353C76.6691 16.2913 76.2311 16.6633 75.6671 16.9513C76.5791 18.7633 77.3291 19.9213 77.9171 20.4253C77.1251 20.6773 76.1711 20.8033 75.0551 20.8033C74.7191 19.9993 74.1671 18.8833 73.3991 17.4553C72.9431 17.4553 72.5531 17.4313 72.2291 17.3833C72.2651 19.1473 72.3611 20.2513 72.5171 20.6953C72.1091 20.7673 71.6831 20.8033 71.2391 20.8033ZM73.9211 16.1773C74.2571 15.9853 74.5211 15.7453 74.7131 15.4573C74.9171 15.1573 75.0191 14.8153 75.0191 14.4313C75.0191 13.2433 74.3651 12.6493 73.0571 12.6493C72.7811 12.6493 72.5411 12.6733 72.3371 12.7213C72.2891 13.5973 72.2531 14.6353 72.2291 15.8353C72.9371 16.0633 73.5011 16.1773 73.9211 16.1773ZM82.2836 20.8033C81.9236 20.8033 81.4616 20.7673 80.8976 20.6953C80.9576 20.0713 81.0056 19.2373 81.0416 18.1933C81.0776 17.1373 81.0956 16.1713 81.0956 15.2953C81.0956 14.7913 81.0836 14.2153 81.0596 13.5673L81.0416 13.1353C79.5896 13.1473 78.6836 13.2253 78.3236 13.3693C78.2636 12.8653 78.2336 12.4633 78.2336 12.1633C78.2336 11.8993 78.2636 11.5873 78.3236 11.2273C78.8276 11.2753 79.4996 11.3173 80.3396 11.3533C81.1796 11.3773 81.9776 11.3893 82.7336 11.3893C84.5696 11.3893 85.6976 11.3113 86.1176 11.1553C86.1776 11.5993 86.2076 11.9473 86.2076 12.1993C86.2076 12.5713 86.1776 12.9373 86.1176 13.2973C85.3136 13.2253 84.4196 13.1833 83.4356 13.1713C83.3756 14.3713 83.3456 15.5173 83.3456 16.6093C83.3456 18.8293 83.4416 20.1913 83.6336 20.6953C83.3336 20.7673 82.8836 20.8033 82.2836 20.8033ZM88.7294 20.8033C88.2974 20.8033 87.8114 20.7673 87.2714 20.6953C87.4034 18.7633 87.4694 17.0113 87.4694 15.4393C87.4694 13.1953 87.3734 11.7853 87.1814 11.2093C87.6134 11.1373 88.0814 11.1013 88.5854 11.1013C88.9694 11.1013 89.4134 11.1373 89.9174 11.2093C89.8574 11.8333 89.8094 12.6673 89.7734 13.7113C89.7374 14.7553 89.7194 15.7213 89.7194 16.6093C89.7194 18.8293 89.8154 20.1913 90.0074 20.6953C89.5994 20.7673 89.1734 20.8033 88.7294 20.8033ZM95.7125 20.8933C94.3325 20.8933 93.2705 20.5033 92.5265 19.7233C91.7945 18.9433 91.4285 17.8213 91.4285 16.3573C91.4285 15.3373 91.6445 14.4313 92.0765 13.6393C92.5085 12.8353 93.1145 12.2113 93.8945 11.7673C94.6865 11.3233 95.5805 11.1013 96.5765 11.1013C97.7045 11.1013 98.6105 11.2453 99.2945 11.5333C99.2945 11.9293 99.2045 12.3853 99.0245 12.9013C98.8445 13.4053 98.6525 13.7533 98.4485 13.9453C97.9925 13.5373 97.5005 13.2013 96.9725 12.9373C96.4565 12.6613 96.0425 12.5233 95.7305 12.5233C95.2145 12.6913 94.7705 13.0993 94.3985 13.7473C94.0385 14.3953 93.8585 15.0973 93.8585 15.8533C93.8585 16.8853 94.0745 17.6593 94.5065 18.1753C94.9385 18.6913 95.5745 18.9493 96.4145 18.9493C96.9305 18.9493 97.4465 18.8773 97.9625 18.7333C98.4905 18.5893 98.9165 18.3973 99.2405 18.1573L99.5465 19.2913C99.1265 19.7713 98.5625 20.1613 97.8545 20.4613C97.1585 20.7493 96.4445 20.8933 95.7125 20.8933ZM102.229 20.8033C101.797 20.8033 101.311 20.7673 100.771 20.6953C100.903 18.7633 100.969 17.0113 100.969 15.4393C100.969 13.1953 100.873 11.7853 100.681 11.2093C101.113 11.1373 101.581 11.1013 102.085 11.1013C102.469 11.1013 102.913 11.1373 103.417 11.2093C103.357 11.8333 103.309 12.6673 103.273 13.7113C103.237 14.7553 103.219 15.7213 103.219 16.6093C103.219 18.8293 103.315 20.1913 103.507 20.6953C103.099 20.7673 102.673 20.8033 102.229 20.8033ZM106.765 20.8033C106.333 20.8033 105.847 20.7673 105.307 20.6953C105.367 20.1073 105.415 19.3093 105.451 18.3013C105.487 17.2933 105.505 16.3393 105.505 15.4393C105.505 13.3753 105.409 12.0973 105.217 11.6053C105.625 11.4613 106.171 11.3473 106.855 11.2633C107.551 11.1673 108.253 11.1193 108.961 11.1193C110.257 11.1193 111.247 11.3953 111.931 11.9473C112.627 12.4873 112.975 13.2673 112.975 14.2873C112.975 14.9713 112.795 15.5833 112.435 16.1233C112.087 16.6513 111.595 17.0653 110.959 17.3653C110.323 17.6653 109.597 17.8153 108.781 17.8153C108.397 17.8153 108.061 17.7913 107.773 17.7433C107.797 19.2793 107.887 20.2633 108.043 20.6953C107.635 20.7673 107.209 20.8033 106.765 20.8033ZM109.447 16.5373C109.771 16.3453 110.035 16.0633 110.239 15.6913C110.443 15.3193 110.545 14.8993 110.545 14.4313C110.545 13.2433 109.891 12.6493 108.583 12.6493C108.307 12.6493 108.067 12.6733 107.863 12.7213C107.791 14.0893 107.755 15.2533 107.755 16.2133C108.487 16.4293 109.051 16.5373 109.447 16.5373ZM121.705 20.7853C121.309 20.7853 120.877 20.7433 120.409 20.6593L120.211 20.0833L119.635 18.4813C118.987 18.4453 118.297 18.4273 117.565 18.4273C116.773 18.4273 116.209 18.4513 115.873 18.4993C115.561 19.3033 115.303 20.0233 115.099 20.6593C114.811 20.7313 114.553 20.7673 114.325 20.7673C114.025 20.7673 113.719 20.7313 113.407 20.6593C113.743 20.0593 114.337 18.6433 115.189 16.4113C116.041 14.1793 116.677 12.4333 117.097 11.1733C117.577 11.1133 117.979 11.0833 118.303 11.0833C118.651 11.0833 119.023 11.1133 119.419 11.1733C119.839 12.4333 120.475 14.1793 121.327 16.4113C122.179 18.6433 122.773 20.0593 123.109 20.6593C122.677 20.7433 122.209 20.7853 121.705 20.7853ZM118.249 17.0773C118.477 17.0773 118.759 17.0653 119.095 17.0413C118.591 15.6253 118.141 14.4553 117.745 13.5313C117.229 14.8393 116.785 16.0033 116.413 17.0233C116.989 17.0593 117.601 17.0773 118.249 17.0773ZM126.475 20.8033C126.115 20.8033 125.653 20.7673 125.089 20.6953C125.149 20.0713 125.197 19.2373 125.233 18.1933C125.269 17.1373 125.287 16.1713 125.287 15.2953C125.287 14.7913 125.275 14.2153 125.251 13.5673L125.233 13.1353C123.781 13.1473 122.875 13.2253 122.515 13.3693C122.455 12.8653 122.425 12.4633 122.425 12.1633C122.425 11.8993 122.455 11.5873 122.515 11.2273C123.019 11.2753 123.691 11.3173 124.531 11.3533C125.371 11.3773 126.169 11.3893 126.925 11.3893C128.761 11.3893 129.889 11.3113 130.309 11.1553C130.369 11.5993 130.399 11.9473 130.399 12.1993C130.399 12.5713 130.369 12.9373 130.309 13.2973C129.505 13.2253 128.611 13.1833 127.627 13.1713C127.567 14.3713 127.537 15.5173 127.537 16.6093C127.537 18.8293 127.633 20.1913 127.825 20.6953C127.525 20.7673 127.075 20.8033 126.475 20.8033ZM131.463 20.7493C131.595 19.0813 131.661 17.2633 131.661 15.2953C131.661 14.1793 131.637 13.3333 131.589 12.7573C131.553 12.1813 131.481 11.6653 131.373 11.2093C132.045 11.2933 133.095 11.3353 134.523 11.3353C136.203 11.3353 137.499 11.2933 138.411 11.2093C138.411 11.6413 138.375 12.1033 138.303 12.5953C138.231 13.0753 138.141 13.3993 138.033 13.5673C137.721 13.4113 137.319 13.2913 136.827 13.2073C136.335 13.1233 135.837 13.0813 135.333 13.0813C134.901 13.0813 134.457 13.1113 134.001 13.1713C133.953 14.0353 133.929 14.7193 133.929 15.2233C134.385 15.2473 134.727 15.2593 134.955 15.2593C135.567 15.2593 136.035 15.2473 136.359 15.2233C136.695 15.1873 137.067 15.1333 137.475 15.0613C137.523 15.4213 137.547 15.7033 137.547 15.9073C137.547 16.0993 137.523 16.3873 137.475 16.7713C135.963 16.6873 134.775 16.6453 133.911 16.6453C133.911 17.4493 133.929 18.1513 133.965 18.7513C134.385 18.8353 134.871 18.8773 135.423 18.8773C135.987 18.8773 136.545 18.8353 137.097 18.7513C137.661 18.6673 138.123 18.5473 138.483 18.3913C138.483 18.8113 138.447 19.2673 138.375 19.7593C138.303 20.2393 138.213 20.5693 138.105 20.7493C137.277 20.6653 136.113 20.6233 134.613 20.6233C133.185 20.6233 132.135 20.6653 131.463 20.7493Z" fill="#FFEFD7"/>
</g>
<defs>
<filter id="filter0_i_1853_1872" x="50.8828" y="11.084" width="87.5996" height="9.80859" filterUnits="userSpaceOnUse" color-interpolation-filters="sRGB">
<feFlood flood-opacity="0" result="BackgroundImageFix"/>
<feBlend mode="normal" in="SourceGraphic" in2="BackgroundImageFix" result="shape"/>
<feColorMatrix in="SourceAlpha" type="matrix" values="0 0 0 0 0 0 0 0 0 0 0 0 0 0 0 0 0 0 127 0" result="hardAlpha"/>
<feOffset dy="1"/>
<feComposite in2="hardAlpha" operator="arithmetic" k2="-1" k3="1"/>
<feColorMatrix type="matrix" values="0 0 0 0 0.152941 0 0 0 0 0 0 0 0 0 0.345098 0 0 0 0.65 0"/>
<feBlend mode="normal" in2="shape" result="effect1_innerShadow_1853_1872"/>
</filter>
<linearGradient id="paint0_linear_1853_1872" x1="171.554" y1="-7.10197e-07" x2="20.3744" y2="161.8" gradientUnits="userSpaceOnUse">
<stop stop-color="#8334FF"/>
<stop offset="1" stop-color="#7BD8FF"/>
</linearGradient>
<linearGradient id="paint1_linear_1853_1872" x1="78.5077" y1="2.00219e-07" x2="78.5077" y2="36" gradientUnits="userSpaceOnUse">
<stop stop-color="#D884FF"/>
<stop offset="0.677092" stop-color="white" stop-opacity="0"/>
</linearGradient>
</defs>
</svg>
