<svg width="199" height="63" viewBox="0 0 199 63" fill="none" xmlns="http://www.w3.org/2000/svg">
<path d="M86.7978 59.4883L87.253 59.6954L86.7978 59.4883L87.4922 57.9621C88.2227 56.3564 89.8241 55.3256 91.5882 55.3256H109.98C111.782 55.3256 113.41 56.4006 114.118 58.0577L114.697 59.4139C115.248 60.7028 116.514 61.5389 117.916 61.5389L150.874 61.5391C151.921 61.5391 152.914 61.0699 153.579 60.2604L156.281 56.9696C157.136 55.9289 158.412 55.3256 159.759 55.3256L177.685 55.3256C178.861 55.3256 179.958 54.7352 180.606 53.7539L196.427 29.7894C197.203 28.613 197.198 27.0854 196.414 25.914L180.61 2.30513C179.96 1.33464 178.869 0.752132 177.702 0.752132L159.792 0.752132C158.728 0.752132 157.721 1.23603 157.057 2.06715L154.356 5.44691C153.503 6.51549 152.209 7.13765 150.841 7.13765H134.02L115.275 7.13765H86.1867L65.3308 7.13765H48.1676C46.8284 7.13765 45.5589 6.54123 44.704 5.51052L41.8069 2.01768C41.1419 1.21601 40.1545 0.752132 39.1129 0.752132L19.3428 0.752132C18.1299 0.752132 17.0035 1.38002 16.3658 2.41161L1.74269 26.0641C1.0377 27.2044 1.04602 28.6473 1.76414 29.7794L16.9375 53.7004C17.5795 54.7124 18.6946 55.3256 19.8931 55.3256L39.1457 55.3256C40.4636 55.3256 41.7154 55.9034 42.5703 56.9064L45.4712 60.3096C46.1362 61.0897 47.1098 61.5391 48.1348 61.5391L83.6121 61.5389C84.9841 61.5389 86.2297 60.7372 86.7978 59.4883Z" fill="url(#paint0_linear_2787_1389)" stroke="url(#paint1_linear_2787_1389)"/>
<path d="M175.238 50.0173C176.388 50.0173 177.464 49.453 178.118 48.5075L190.993 29.8829C191.809 28.7023 191.821 27.1431 191.025 25.9494L178.108 6.60079C177.459 5.62816 176.366 5.04408 175.197 5.04408L108.967 5.04408H100.326H90.6747L21.3795 5.04408C20.1786 5.04408 19.0615 5.65979 18.4203 6.67518L6.19983 26.0252C5.46811 27.1838 5.47984 28.6629 6.22987 29.8098L18.4091 48.4329C19.0556 49.4215 20.1571 50.0173 21.3383 50.0173L56.233 50.0173C57.9433 50.0173 59.5058 50.9868 60.2651 52.5193L63.7701 59.593C64.3607 60.785 65.576 61.5391 66.9062 61.5391H98.2554L129.519 61.5391C130.84 61.5391 132.048 60.7953 132.644 59.616L136.24 52.4898C137.005 50.9735 138.559 50.0173 140.258 50.0173L175.238 50.0173Z" fill="url(#paint2_linear_2787_1389)" stroke="url(#paint3_linear_2787_1389)"/>
<defs>
<linearGradient id="paint0_linear_2787_1389" x1="99.4464" y1="-30.2606" x2="99.4464" y2="370.863" gradientUnits="userSpaceOnUse">
<stop/>
<stop offset="1" stop-color="#4B4A4A"/>
</linearGradient>
<linearGradient id="paint1_linear_2787_1389" x1="194.455" y1="170.592" x2="3.98679" y2="170.592" gradientUnits="userSpaceOnUse">
<stop stop-color="white"/>
<stop offset="0.291671" stop-color="#262626"/>
<stop offset="0.432299" stop-color="white"/>
<stop offset="0.807306" stop-color="#686868"/>
<stop offset="1" stop-color="white"/>
</linearGradient>
<linearGradient id="paint2_linear_2787_1389" x1="99.1488" y1="-28.1368" x2="99.1487" y2="354.604" gradientUnits="userSpaceOnUse">
<stop/>
<stop offset="1" stop-color="#4B4A4A"/>
</linearGradient>
<linearGradient id="paint3_linear_2787_1389" x1="188.905" y1="163.511" x2="8.96675" y2="163.511" gradientUnits="userSpaceOnUse">
<stop stop-color="white"/>
<stop offset="0.291671" stop-color="#262626"/>
<stop offset="0.432299" stop-color="white"/>
<stop offset="0.807306" stop-color="#686868"/>
<stop offset="1" stop-color="white"/>
</linearGradient>
</defs>
</svg>
