<svg width="312" height="60" viewBox="0 0 312 60" fill="none" xmlns="http://www.w3.org/2000/svg">
<path d="M245.709 59.5C247.167 59.5 248.566 58.9209 249.597 57.8901L252.063 55.4251C253.282 54.2068 254.935 53.5224 256.658 53.5224L291.312 53.5224C293.161 53.5224 294.886 52.5937 295.904 51.0505L309.413 30.5667C310.614 28.7459 310.625 26.3875 309.442 24.5552L295.866 3.53C294.868 1.98376 293.162 1.03942 291.322 1.01396L256.904 0.537815C255.31 0.51577 253.785 1.1861 252.724 2.37523L250.356 5.02949C249.122 6.41142 247.358 7.2016 245.506 7.2016H187.189C185.034 7.2016 183.019 6.1334 181.81 4.34971L180.835 2.91314C179.812 1.40385 178.107 0.5 176.283 0.5H142.116C140.35 0.5 138.691 1.34817 137.657 2.78001L136.41 4.50703C135.188 6.19921 133.228 7.2016 131.14 7.2016L65.4884 7.2016C63.6329 7.2016 61.8658 6.40857 60.6324 5.02232L58.2493 2.34401C57.2056 1.17102 55.7104 0.5 54.1403 0.5H20.3C18.3889 0.5 16.6147 1.49209 15.6141 3.12033L2.39722 24.6273C1.29227 26.4253 1.31357 28.6969 2.452 30.4739L15.5955 50.9894C16.6067 52.5677 18.3521 53.5224 20.2266 53.5224H54.3434C56.0701 53.5224 57.7258 54.2095 58.9452 55.4319L61.3915 57.8843C62.4234 58.9187 63.8244 59.5 65.2854 59.5L131.346 59.4998C133.006 59.4998 134.577 58.7505 135.621 57.4607L136.858 55.9323C138.092 54.408 139.949 53.5224 141.91 53.5224H176.489C178.52 53.5224 180.434 54.4717 181.663 56.0885L182.606 57.3286C183.646 58.6966 185.266 59.4998 186.984 59.4998L245.709 59.5Z" fill="url(#paint0_linear_2787_1783)" stroke="url(#paint1_linear_2787_1783)"/>
<path d="M287.936 48.3574C289.722 48.3574 291.397 47.49 292.428 46.0311L303.642 30.1583C304.99 28.2515 304.986 25.7019 303.634 23.7987L292.429 8.03191C291.398 6.58018 289.727 5.71783 287.946 5.71783L173.761 5.71783L156.845 5.71783H140.686L23.0427 5.71783C21.151 5.71783 19.392 6.69001 18.3856 8.29179L8.4798 24.0578C7.35864 25.8422 7.35571 28.1104 8.47223 29.8978L18.3882 45.7714C19.3931 47.3801 21.1561 48.3574 23.0529 48.3574L287.936 48.3574Z" fill="url(#paint2_linear_2787_1783)" stroke="url(#paint3_linear_2787_1783)"/>
<g filter="url(#filter0_i_2787_1783)">
<path d="M61.1376 35.6743C58.7696 35.6743 56.7322 35.2903 55.0256 34.5223C55.0256 33.9463 55.0682 33.4343 55.1536 32.9863C55.2389 32.5383 55.3776 32.0903 55.5696 31.6423C56.1029 32.1543 56.8496 32.5596 57.8096 32.8583C58.7696 33.1356 59.8042 33.2743 60.9136 33.2743C61.8309 33.2743 62.5349 33.1249 63.0256 32.8263C63.5376 32.5063 63.7936 32.0583 63.7936 31.4823C63.7936 30.9916 63.5376 30.5649 63.0256 30.2023C62.5136 29.8396 61.7029 29.4023 60.5936 28.8903C59.4842 28.3783 58.5562 27.8983 57.8096 27.4503C57.0842 27.0023 56.4549 26.4263 55.9216 25.7223C55.3882 24.9969 55.1216 24.1329 55.1216 23.1303C55.1216 22.1703 55.4096 21.3276 55.9856 20.6023C56.5616 19.8556 57.3829 19.2796 58.4496 18.8743C59.5162 18.4689 60.7642 18.2663 62.1936 18.2663C64.3056 18.2663 66.0976 18.5223 67.5696 19.0343C67.5696 19.6956 67.4309 20.4636 67.1536 21.3383C66.8762 22.1916 66.5456 22.8529 66.1616 23.3223C65.2229 22.5756 64.2522 21.9676 63.2496 21.4983C62.2682 21.0076 61.4362 20.7623 60.7536 20.7623C60.4122 20.8263 60.1029 21.0076 59.8256 21.3063C59.5696 21.5836 59.4416 21.9249 59.4416 22.3303C59.4416 22.8849 59.7082 23.3543 60.2416 23.7383C60.7749 24.1009 61.6069 24.5383 62.7376 25.0503C63.8682 25.5623 64.7856 26.0316 65.4896 26.4583C66.2149 26.8849 66.8336 27.4609 67.3456 28.1863C67.8576 28.8903 68.1136 29.7543 68.1136 30.7783C68.1136 32.3356 67.5269 33.5409 66.3536 34.3943C65.1802 35.2476 63.4416 35.6743 61.1376 35.6743ZM73.3231 35.5143C72.5551 35.5143 71.6911 35.4503 70.7311 35.3223C70.8377 34.2769 70.9231 32.8583 70.9871 31.0663C71.0511 29.2743 71.0831 27.5783 71.0831 25.9783C71.0831 22.3089 70.9124 20.0369 70.5711 19.1623C71.2964 18.9063 72.2671 18.7036 73.4831 18.5543C74.7204 18.3836 75.9684 18.2983 77.2271 18.2983C79.5311 18.2983 81.2911 18.7889 82.5071 19.7703C83.7444 20.7303 84.3631 22.1169 84.3631 23.9303C84.3631 25.1463 84.0431 26.2343 83.4031 27.1943C82.7844 28.1329 81.9097 28.8689 80.7791 29.4023C79.6484 29.9356 78.3577 30.2023 76.9071 30.2023C76.2244 30.2023 75.6271 30.1596 75.1151 30.0743C75.1577 32.8049 75.3177 34.5543 75.5951 35.3223C74.8697 35.4503 74.1124 35.5143 73.3231 35.5143ZM78.0911 27.9303C78.6671 27.5889 79.1364 27.0876 79.4991 26.4263C79.8617 25.7649 80.0431 25.0183 80.0431 24.1863C80.0431 22.0743 78.8804 21.0183 76.5551 21.0183C76.0644 21.0183 75.6377 21.0609 75.2751 21.1463C75.1471 23.5783 75.0831 25.6476 75.0831 27.3543C76.3844 27.7383 77.3871 27.9303 78.0911 27.9303ZM89.3231 35.5143C88.5551 35.5143 87.6911 35.4503 86.7311 35.3223C86.9657 31.8876 87.0831 28.7729 87.0831 25.9783C87.0831 21.9889 86.9124 19.4823 86.5711 18.4583C87.3391 18.3303 88.1711 18.2663 89.0671 18.2663C89.7497 18.2663 90.5391 18.3303 91.4351 18.4583C91.3284 19.5676 91.2431 21.0503 91.1791 22.9063C91.1151 24.7623 91.0831 26.4796 91.0831 28.0583C91.0831 32.0049 91.2537 34.4263 91.5951 35.3223C90.8697 35.4503 90.1124 35.5143 89.3231 35.5143ZM96.2976 35.5143C95.8282 35.5143 95.2522 35.4503 94.5696 35.3223C94.7402 33.1463 94.8256 30.0316 94.8256 25.9783C94.8256 22.0103 94.7082 19.5036 94.4736 18.4583C95.0282 18.3303 95.7856 18.2663 96.7456 18.2663C97.4496 18.2663 98.3349 18.3303 99.4016 18.4583C100.063 19.7596 101.055 21.5943 102.378 23.9623C103.722 26.3303 105.012 28.5489 106.25 30.6183C106.292 28.4849 106.314 26.8529 106.314 25.7223C106.314 21.7543 106.196 19.3329 105.962 18.4583C106.431 18.3303 106.9 18.2663 107.37 18.2663C107.882 18.2663 108.468 18.3303 109.13 18.4583C108.959 21.1889 108.874 24.3036 108.874 27.8023C108.874 31.7703 108.991 34.2769 109.226 35.3223C108.479 35.4503 107.722 35.5143 106.954 35.5143C106.122 35.5143 105.226 35.4503 104.266 35.3223C103.647 34.0636 102.676 32.2716 101.354 29.9463C100.031 27.5996 98.7189 25.3383 97.4176 23.1623C97.3749 25.2956 97.3536 26.9276 97.3536 28.0583C97.3536 31.8983 97.4709 34.3196 97.7056 35.3223C97.2576 35.4503 96.7882 35.5143 96.2976 35.5143ZM125.114 35.5143C124.474 35.5143 123.652 35.4503 122.65 35.3223C122.756 34.2129 122.842 32.7303 122.906 30.8743C122.97 28.9969 123.002 27.2796 123.002 25.7223C123.002 24.8263 122.98 23.8023 122.938 22.6503L122.906 21.8823C120.324 21.9036 118.714 22.0423 118.074 22.2983C117.967 21.4023 117.914 20.6876 117.914 20.1543C117.914 19.6849 117.967 19.1303 118.074 18.4903C118.97 18.5756 120.164 18.6503 121.658 18.7143C123.151 18.7569 124.57 18.7783 125.914 18.7783C129.178 18.7783 131.183 18.6396 131.93 18.3623C132.036 19.1516 132.09 19.7703 132.09 20.2183C132.09 20.8796 132.036 21.5303 131.93 22.1703C130.5 22.0423 128.911 21.9676 127.162 21.9463C127.055 24.0796 127.002 26.1169 127.002 28.0583C127.002 32.0049 127.172 34.4263 127.514 35.3223C126.98 35.4503 126.18 35.5143 125.114 35.5143ZM136.573 35.5143C135.805 35.5143 134.941 35.4503 133.981 35.3223C134.088 34.1276 134.173 32.6449 134.237 30.8743C134.301 29.1036 134.333 27.4716 134.333 25.9783C134.333 21.9889 134.162 19.4823 133.821 18.4583C134.589 18.3303 135.421 18.2663 136.317 18.2663C137 18.2663 137.789 18.3303 138.685 18.4583C138.536 20.3143 138.429 22.6823 138.365 25.5623C139.581 25.6263 140.914 25.6583 142.365 25.6583C142.941 25.6583 143.656 25.6369 144.509 25.5943C144.509 21.7329 144.338 19.3543 143.997 18.4583C144.765 18.3303 145.608 18.2663 146.525 18.2663C147.186 18.2663 147.965 18.3303 148.861 18.4583C148.754 19.6529 148.669 21.1356 148.605 22.9063C148.541 24.6769 148.509 26.3089 148.509 27.8023C148.509 31.7916 148.68 34.2983 149.021 35.3223C148.296 35.4503 147.549 35.5143 146.781 35.5143C145.992 35.5143 145.117 35.4503 144.157 35.3223C144.306 33.4449 144.413 31.0663 144.477 28.1863C142.898 28.1436 141.682 28.1223 140.829 28.1223C140.104 28.1223 139.272 28.1436 138.333 28.1863C138.333 32.0476 138.504 34.4263 138.845 35.3223C138.12 35.4503 137.362 35.5143 136.573 35.5143ZM152.262 35.4183C152.497 32.4529 152.614 29.2209 152.614 25.7223C152.614 23.7383 152.572 22.2343 152.486 21.2103C152.422 20.1863 152.294 19.2689 152.102 18.4583C153.297 18.6076 155.164 18.6823 157.702 18.6823C160.689 18.6823 162.993 18.6076 164.614 18.4583C164.614 19.2263 164.55 20.0476 164.422 20.9223C164.294 21.7756 164.134 22.3516 163.942 22.6503C163.388 22.3729 162.673 22.1596 161.798 22.0103C160.924 21.8609 160.038 21.7863 159.142 21.7863C158.374 21.7863 157.585 21.8396 156.774 21.9463C156.689 23.4823 156.646 24.6983 156.646 25.5943C157.457 25.6369 158.065 25.6583 158.47 25.6583C159.558 25.6583 160.39 25.6369 160.966 25.5943C161.564 25.5303 162.225 25.4343 162.95 25.3063C163.036 25.9463 163.078 26.4476 163.078 26.8103C163.078 27.1516 163.036 27.6636 162.95 28.3463C160.262 28.1969 158.15 28.1223 156.614 28.1223C156.614 29.5516 156.646 30.7996 156.71 31.8663C157.457 32.0156 158.321 32.0903 159.302 32.0903C160.305 32.0903 161.297 32.0156 162.278 31.8663C163.281 31.7169 164.102 31.5036 164.742 31.2263C164.742 31.9729 164.678 32.7836 164.55 33.6583C164.422 34.5116 164.262 35.0983 164.07 35.4183C162.598 35.2689 160.529 35.1943 157.862 35.1943C155.324 35.1943 153.457 35.2689 152.262 35.4183ZM180.432 35.6103C179.792 35.6103 179.238 35.3223 178.768 34.7463C178.299 34.1703 177.883 33.4023 177.52 32.4423C177.179 31.4609 176.763 30.0956 176.272 28.3463C175.718 26.4263 175.195 24.7516 174.704 23.3223C174.235 21.8929 173.659 20.4316 172.976 18.9383C174.576 18.4903 176.315 18.2663 178.192 18.2663C178.32 19.3116 178.566 20.6876 178.928 22.3943C179.291 24.0796 179.675 25.6156 180.08 27.0023C180.614 28.6876 181.158 30.1809 181.712 31.4823C183.056 27.3223 184.006 24.1863 184.56 22.0743L183.28 18.9383C184.795 18.4903 186.523 18.2663 188.464 18.2663C188.635 19.4396 188.912 20.8903 189.296 22.6183C189.68 24.3463 190.043 25.8076 190.384 27.0023C190.982 28.8796 191.515 30.3729 191.984 31.4823C193.136 27.9836 193.979 25.2529 194.512 23.2903C195.067 21.3063 195.344 19.9303 195.344 19.1623C195.344 18.9703 195.323 18.7889 195.28 18.6183C196.304 18.3836 197.467 18.2663 198.768 18.2663C198.022 20.3569 197.115 23.0449 196.048 26.3303C194.982 29.5943 194.139 32.3036 193.52 34.4583L190.736 35.6103C190.075 35.6103 189.51 35.3223 189.04 34.7463C188.592 34.1703 188.198 33.4129 187.856 32.4743C187.515 31.5356 187.088 30.1703 186.576 28.3783L185.872 26.0103C185.872 26.0103 185.808 26.2129 185.68 26.6183C185.595 26.8529 185.52 27.1089 185.456 27.3863C184.582 30.0956 183.846 32.4529 183.248 34.4583L180.432 35.6103ZM203.229 35.5143C202.461 35.5143 201.597 35.4503 200.637 35.3223C200.744 34.1276 200.829 32.6449 200.893 30.8743C200.957 29.1036 200.989 27.4716 200.989 25.9783C200.989 21.9889 200.819 19.4823 200.477 18.4583C201.245 18.3303 202.077 18.2663 202.973 18.2663C203.656 18.2663 204.445 18.3303 205.341 18.4583C205.192 20.3143 205.085 22.6823 205.021 25.5623C206.237 25.6263 207.571 25.6583 209.021 25.6583C209.597 25.6583 210.312 25.6369 211.165 25.5943C211.165 21.7329 210.995 19.3543 210.653 18.4583C211.421 18.3303 212.264 18.2663 213.181 18.2663C213.843 18.2663 214.621 18.3303 215.517 18.4583C215.411 19.6529 215.325 21.1356 215.261 22.9063C215.197 24.6769 215.165 26.3089 215.165 27.8023C215.165 31.7916 215.336 34.2983 215.677 35.3223C214.952 35.4503 214.205 35.5143 213.437 35.5143C212.648 35.5143 211.773 35.4503 210.813 35.3223C210.963 33.4449 211.069 31.0663 211.133 28.1863C209.555 28.1436 208.339 28.1223 207.485 28.1223C206.76 28.1223 205.928 28.1436 204.989 28.1863C204.989 32.0476 205.16 34.4263 205.501 35.3223C204.776 35.4503 204.019 35.5143 203.229 35.5143ZM218.919 35.4183C219.153 32.4529 219.271 29.2209 219.271 25.7223C219.271 23.7383 219.228 22.2343 219.143 21.2103C219.079 20.1863 218.951 19.2689 218.759 18.4583C219.953 18.6076 221.82 18.6823 224.359 18.6823C227.345 18.6823 229.649 18.6076 231.271 18.4583C231.271 19.2263 231.207 20.0476 231.079 20.9223C230.951 21.7756 230.791 22.3516 230.599 22.6503C230.044 22.3729 229.329 22.1596 228.455 22.0103C227.58 21.8609 226.695 21.7863 225.799 21.7863C225.031 21.7863 224.241 21.8396 223.431 21.9463C223.345 23.4823 223.303 24.6983 223.303 25.5943C224.113 25.6369 224.721 25.6583 225.127 25.6583C226.215 25.6583 227.047 25.6369 227.623 25.5943C228.22 25.5303 228.881 25.4343 229.607 25.3063C229.692 25.9463 229.735 26.4476 229.735 26.8103C229.735 27.1516 229.692 27.6636 229.607 28.3463C226.919 28.1969 224.807 28.1223 223.271 28.1223C223.271 29.5516 223.303 30.7996 223.367 31.8663C224.113 32.0156 224.977 32.0903 225.959 32.0903C226.961 32.0903 227.953 32.0156 228.935 31.8663C229.937 31.7169 230.759 31.5036 231.399 31.2263C231.399 31.9729 231.335 32.7836 231.207 33.6583C231.079 34.5116 230.919 35.0983 230.727 35.4183C229.255 35.2689 227.185 35.1943 224.519 35.1943C221.98 35.1943 220.113 35.2689 218.919 35.4183ZM233.981 35.4183C234.216 32.4529 234.333 29.2209 234.333 25.7223C234.333 23.7383 234.29 22.2343 234.205 21.2103C234.141 20.1863 234.013 19.2689 233.821 18.4583C235.016 18.6076 236.882 18.6823 239.421 18.6823C242.408 18.6823 244.712 18.6076 246.333 18.4583C246.333 19.2263 246.269 20.0476 246.141 20.9223C246.013 21.7756 245.853 22.3516 245.661 22.6503C245.106 22.3729 244.392 22.1596 243.517 22.0103C242.642 21.8609 241.757 21.7863 240.861 21.7863C240.093 21.7863 239.304 21.8396 238.493 21.9463C238.408 23.4823 238.365 24.6983 238.365 25.5943C239.176 25.6369 239.784 25.6583 240.189 25.6583C241.277 25.6583 242.109 25.6369 242.685 25.5943C243.282 25.5303 243.944 25.4343 244.669 25.3063C244.754 25.9463 244.797 26.4476 244.797 26.8103C244.797 27.1516 244.754 27.6636 244.669 28.3463C241.981 28.1969 239.869 28.1223 238.333 28.1223C238.333 29.5516 238.365 30.7996 238.429 31.8663C239.176 32.0156 240.04 32.0903 241.021 32.0903C242.024 32.0903 243.016 32.0156 243.997 31.8663C245 31.7169 245.821 31.5036 246.461 31.2263C246.461 31.9729 246.397 32.7836 246.269 33.6583C246.141 34.5116 245.981 35.0983 245.789 35.4183C244.317 35.2689 242.248 35.1943 239.581 35.1943C237.042 35.1943 235.176 35.2689 233.981 35.4183ZM249.044 35.4183C249.278 32.2823 249.396 29.1356 249.396 25.9783C249.396 21.9036 249.225 19.3969 248.884 18.4583C249.652 18.3303 250.441 18.2663 251.252 18.2663C251.956 18.2663 252.788 18.3303 253.748 18.4583C253.641 19.5463 253.556 21.0183 253.492 22.8743C253.428 24.7089 253.396 26.4369 253.396 28.0583C253.396 29.7223 253.428 31.0876 253.492 32.1543C254.601 32.2823 255.508 32.3463 256.212 32.3463C257.022 32.3463 257.833 32.2716 258.644 32.1223C259.476 31.9729 260.169 31.7596 260.724 31.4823C260.724 32.1863 260.66 32.9436 260.532 33.7543C260.404 34.5649 260.244 35.1196 260.052 35.4183C258.793 35.2689 257.033 35.1943 254.772 35.1943C252.212 35.1943 250.302 35.2689 249.044 35.4183Z" fill="#FFEFD7"/>
</g>
<defs>
<filter id="filter0_i_2787_1783" x="55.0256" y="18.2666" width="205.698" height="17.4072" filterUnits="userSpaceOnUse" color-interpolation-filters="sRGB">
<feFlood flood-opacity="0" result="BackgroundImageFix"/>
<feBlend mode="normal" in="SourceGraphic" in2="BackgroundImageFix" result="shape"/>
<feColorMatrix in="SourceAlpha" type="matrix" values="0 0 0 0 0 0 0 0 0 0 0 0 0 0 0 0 0 0 127 0" result="hardAlpha"/>
<feOffset dy="0.776093"/>
<feComposite in2="hardAlpha" operator="arithmetic" k2="-1" k3="1"/>
<feColorMatrix type="matrix" values="0 0 0 0 0.152941 0 0 0 0 0 0 0 0 0 0.345098 0 0 0 0.65 0"/>
<feBlend mode="normal" in2="shape" result="effect1_innerShadow_2787_1783"/>
</filter>
<linearGradient id="paint0_linear_2787_1783" x1="156.91" y1="-28.796" x2="156.91" y2="357.101" gradientUnits="userSpaceOnUse">
<stop/>
<stop offset="1" stop-color="#4B4A4A"/>
</linearGradient>
<linearGradient id="paint1_linear_2787_1783" x1="319.569" y1="164.432" x2="-6.52164" y2="164.432" gradientUnits="userSpaceOnUse">
<stop stop-color="white"/>
<stop offset="0.291671" stop-color="#262626"/>
<stop offset="0.432299" stop-color="white"/>
<stop offset="0.807306" stop-color="#686868"/>
<stop offset="1" stop-color="white"/>
</linearGradient>
<linearGradient id="paint2_linear_2787_1783" x1="156.916" y1="-25.8042" x2="156.916" y2="337.509" gradientUnits="userSpaceOnUse">
<stop/>
<stop offset="1" stop-color="#4B4A4A"/>
</linearGradient>
<linearGradient id="paint3_linear_2787_1783" x1="310.888" y1="156.116" x2="2.21437" y2="156.116" gradientUnits="userSpaceOnUse">
<stop stop-color="white"/>
<stop offset="0.291671" stop-color="#262626"/>
<stop offset="0.432299" stop-color="white"/>
<stop offset="0.807306" stop-color="#686868"/>
<stop offset="1" stop-color="white"/>
</linearGradient>
</defs>
</svg>
