<svg width="100" height="39" viewBox="0 0 100 39" fill="none" xmlns="http://www.w3.org/2000/svg">
<g filter="url(#filter0_i_2787_1396)">
<path d="M0 9.56507C0 4.42158 4.16963 0.251953 9.31312 0.251953H12.5H17.6179H22.6923H24.0695H24.6898H31.25H37.5H50H90.6869C95.8304 0.251953 100 4.42158 100 9.56507V9.75195L100 11.7311L100 13.4693V28.9388C100 34.0823 95.8304 38.252 90.6869 38.252H87.3077H85.7692H81.5384H74.6154H70.7692H64.6154H61.9231H58.9423H55.9615H55.4591H55.0868H54.5048H52.9808H50H43.8461H43.3002H36.6005H32.7543H32.134H31.25H25H19.8511H12.6551H11.0422H9.92556H9.31312C4.16962 38.252 0 34.0823 0 28.9388V9.56507Z" fill="url(#paint0_linear_2787_1396)"/>
</g>
<path d="M0.388047 9.56507C0.388047 4.63589 4.38394 0.64 9.31312 0.64H12.5H17.6179H22.6923H24.0695H24.6898H31.25H37.5H50H90.6869C95.6161 0.64 99.6119 4.63589 99.6119 9.56507V9.75195L99.612 11.7311L99.6119 13.4693V28.9388C99.6119 33.868 95.6161 37.8639 90.6869 37.8639H87.3077H85.7692H81.5384H74.6154H70.7692H64.6154H61.9231H58.9423H55.9615H55.4591H55.0868H54.5048H52.9808H50H43.8461H43.3002H36.6005H32.7543H32.134H31.25H25H19.8511H12.6551H11.0422H9.92556H9.31312C4.38394 37.8639 0.388047 33.868 0.388047 28.9388V9.56507Z" stroke="url(#paint1_linear_2787_1396)" stroke-width="0.776093"/>
<g filter="url(#filter1_i_2787_1396)">
<path d="M34.1042 25.7591C32.3282 25.7591 30.8002 25.4711 29.5202 24.8951C29.5202 24.4631 29.5522 24.0791 29.6162 23.7431C29.6802 23.4071 29.7842 23.0711 29.9282 22.7351C30.3282 23.1191 30.8882 23.4231 31.6082 23.6471C32.3282 23.8551 33.1042 23.9591 33.9362 23.9591C34.6242 23.9591 35.1522 23.8471 35.5202 23.6231C35.9042 23.3831 36.0962 23.0471 36.0962 22.6151C36.0962 22.2471 35.9042 21.9271 35.5202 21.6551C35.1362 21.3831 34.5282 21.0551 33.6962 20.6711C32.8642 20.2871 32.1682 19.9271 31.6082 19.5911C31.0642 19.2551 30.5922 18.8231 30.1922 18.2951C29.7922 17.7511 29.5922 17.1031 29.5922 16.3511C29.5922 15.6311 29.8082 14.9991 30.2402 14.4551C30.6722 13.8951 31.2882 13.4631 32.0882 13.1591C32.8882 12.8551 33.8242 12.7031 34.8962 12.7031C36.4802 12.7031 37.8242 12.8951 38.9282 13.2791C38.9282 13.7751 38.8242 14.3511 38.6162 15.0071C38.4082 15.6471 38.1602 16.1431 37.8722 16.4951C37.1682 15.9351 36.4402 15.4791 35.6882 15.1271C34.9522 14.7591 34.3282 14.5751 33.8162 14.5751C33.5602 14.6231 33.3282 14.7591 33.1202 14.9831C32.9282 15.1911 32.8322 15.4471 32.8322 15.7511C32.8322 16.1671 33.0322 16.5191 33.4322 16.8071C33.8322 17.0791 34.4562 17.4071 35.3042 17.7911C36.1522 18.1751 36.8402 18.5271 37.3682 18.8471C37.9122 19.1671 38.3762 19.5991 38.7602 20.1431C39.1442 20.6711 39.3362 21.3191 39.3362 22.0871C39.3362 23.2551 38.8962 24.1591 38.0162 24.7991C37.1362 25.4391 35.8322 25.7591 34.1042 25.7591ZM43.2433 25.6391C42.6673 25.6391 42.0193 25.5911 41.2993 25.4951C41.3793 24.7111 41.4433 23.6471 41.4913 22.3031C41.5393 20.9591 41.5633 19.6871 41.5633 18.4871C41.5633 15.7351 41.4353 14.0311 41.1793 13.3751C41.7233 13.1831 42.4513 13.0311 43.3633 12.9191C44.2913 12.7911 45.2273 12.7271 46.1713 12.7271C47.8993 12.7271 49.2193 13.0951 50.1313 13.8311C51.0593 14.5511 51.5233 15.5911 51.5233 16.9511C51.5233 17.8631 51.2833 18.6791 50.8033 19.3991C50.3393 20.1031 49.6833 20.6551 48.8353 21.0551C47.9873 21.4551 47.0193 21.6551 45.9313 21.6551C45.4193 21.6551 44.9713 21.6231 44.5873 21.5591C44.6193 23.6071 44.7393 24.9191 44.9473 25.4951C44.4033 25.5911 43.8353 25.6391 43.2433 25.6391ZM46.8193 19.9511C47.2513 19.6951 47.6033 19.3191 47.8753 18.8231C48.1473 18.3271 48.2833 17.7671 48.2833 17.1431C48.2833 15.5591 47.4113 14.7671 45.6673 14.7671C45.2993 14.7671 44.9793 14.7991 44.7073 14.8631C44.6113 16.6871 44.5633 18.2391 44.5633 19.5191C45.5393 19.8071 46.2913 19.9511 46.8193 19.9511ZM55.2433 25.6391C54.6673 25.6391 54.0193 25.5911 53.2993 25.4951C53.4753 22.9191 53.5633 20.5831 53.5633 18.4871C53.5633 15.4951 53.4353 13.6151 53.1793 12.8471C53.7553 12.7511 54.3793 12.7031 55.0513 12.7031C55.5633 12.7031 56.1553 12.7511 56.8273 12.8471C56.7473 13.6791 56.6833 14.7911 56.6353 16.1831C56.5873 17.5751 56.5633 18.8631 56.5633 20.0471C56.5633 23.0071 56.6913 24.8231 56.9473 25.4951C56.4033 25.5911 55.8353 25.6391 55.2433 25.6391ZM60.4742 25.6391C60.1222 25.6391 59.6902 25.5911 59.1782 25.4951C59.3062 23.8631 59.3702 21.5271 59.3702 18.4871C59.3702 15.5111 59.2822 13.6311 59.1062 12.8471C59.5222 12.7511 60.0902 12.7031 60.8102 12.7031C61.3382 12.7031 62.0022 12.7511 62.8022 12.8471C63.2982 13.8231 64.0422 15.1991 65.0342 16.9751C66.0422 18.7511 67.0102 20.4151 67.9382 21.9671C67.9702 20.3671 67.9862 19.1431 67.9862 18.2951C67.9862 15.3191 67.8982 13.5031 67.7222 12.8471C68.0742 12.7511 68.4262 12.7031 68.7782 12.7031C69.1622 12.7031 69.6022 12.7511 70.0982 12.8471C69.9702 14.8951 69.9062 17.2311 69.9062 19.8551C69.9062 22.8311 69.9942 24.7111 70.1702 25.4951C69.6102 25.5911 69.0422 25.6391 68.4662 25.6391C67.8422 25.6391 67.1702 25.5911 66.4502 25.4951C65.9862 24.5511 65.2582 23.2071 64.2662 21.4631C63.2742 19.7031 62.2902 18.0071 61.3142 16.3751C61.2822 17.9751 61.2662 19.1991 61.2662 20.0471C61.2662 22.9271 61.3542 24.7431 61.5302 25.4951C61.1942 25.5911 60.8422 25.6391 60.4742 25.6391Z" fill="#FFEFD7"/>
</g>
<defs>
<filter id="filter0_i_2787_1396" x="0" y="0.251953" width="100" height="38" filterUnits="userSpaceOnUse" color-interpolation-filters="sRGB">
<feFlood flood-opacity="0" result="BackgroundImageFix"/>
<feBlend mode="normal" in="SourceGraphic" in2="BackgroundImageFix" result="shape"/>
<feColorMatrix in="SourceAlpha" type="matrix" values="0 0 0 0 0 0 0 0 0 0 0 0 0 0 0 0 0 0 127 0" result="hardAlpha"/>
<feOffset dy="-0.776093"/>
<feComposite in2="hardAlpha" operator="arithmetic" k2="-1" k3="1"/>
<feColorMatrix type="matrix" values="0 0 0 0 0.151244 0 0 0 0 0 0 0 0 0 0.343736 0 0 0 1 0"/>
<feBlend mode="normal" in2="shape" result="effect1_innerShadow_2787_1396"/>
</filter>
<filter id="filter1_i_2787_1396" x="29.5203" y="12.7031" width="40.6499" height="13.0557" filterUnits="userSpaceOnUse" color-interpolation-filters="sRGB">
<feFlood flood-opacity="0" result="BackgroundImageFix"/>
<feBlend mode="normal" in="SourceGraphic" in2="BackgroundImageFix" result="shape"/>
<feColorMatrix in="SourceAlpha" type="matrix" values="0 0 0 0 0 0 0 0 0 0 0 0 0 0 0 0 0 0 127 0" result="hardAlpha"/>
<feOffset dy="0.776093"/>
<feComposite in2="hardAlpha" operator="arithmetic" k2="-1" k3="1"/>
<feColorMatrix type="matrix" values="0 0 0 0 0.152941 0 0 0 0 0 0 0 0 0 0.345098 0 0 0 0.65 0"/>
<feBlend mode="normal" in2="shape" result="effect1_innerShadow_2787_1396"/>
</filter>
<linearGradient id="paint0_linear_2787_1396" x1="90.7692" y1="0.251954" x2="-42.4908" y2="71.7416" gradientUnits="userSpaceOnUse">
<stop stop-color="#883CFF"/>
<stop offset="1" stop-color="#2176F7"/>
</linearGradient>
<linearGradient id="paint1_linear_2787_1396" x1="41.5385" y1="0.251953" x2="41.5385" y2="38.252" gradientUnits="userSpaceOnUse">
<stop stop-color="#D884FF"/>
<stop offset="0.677092" stop-color="white" stop-opacity="0"/>
</linearGradient>
</defs>
</svg>
