<svg width="65" height="100" viewBox="0 0 65 100" fill="none" xmlns="http://www.w3.org/2000/svg">
<path d="M44.3235 73.597C44.3235 72.632 43.8273 71.7349 43.01 71.2221L41.4623 70.2508L38.3669 68.3084L34.3021 65.7577C33.1646 65.0439 31.7189 65.0439 30.5814 65.7577L26.5166 68.3084L23.4212 70.2508L21.8735 71.2221C21.0562 71.7349 20.56 72.632 20.56 73.597V76.6385V78.1671C20.56 78.6636 20.7015 79.1499 20.9679 79.5689C21.7199 80.7517 21.7199 82.2627 20.9679 83.4455C20.7015 83.8645 20.56 84.3507 20.56 84.8472V86.3759V89.4065C20.56 90.3787 21.0591 91.2829 21.8818 91.8011L23.4371 92.7808L26.5476 94.74L29.6582 96.6993L30.6265 97.3092C31.7712 98.0301 33.2288 98.0269 34.3703 97.3009L35.3143 96.7005L38.3946 94.7412L41.4748 92.7819L43.015 91.8023C43.8299 91.284 44.3235 90.3851 44.3235 89.4193V86.3759V84.8472C44.3235 84.3507 44.182 83.8645 43.9156 83.4455C43.1636 82.2627 43.1636 80.7517 43.9156 79.5689C44.182 79.1499 44.3235 78.6636 44.3235 78.1671V76.6385V73.597Z" fill="url(#paint0_linear_2790_3196)" stroke="url(#paint1_linear_2790_3196)"/>
<path d="M43.6819 74.4259C43.6819 73.2219 43.0631 72.1025 42.0435 71.4621L34.3022 66.5996C33.1641 65.8847 31.7171 65.8847 30.5789 66.5996L22.8376 71.4621C21.8181 72.1025 21.1993 73.2219 21.1993 74.4259V88.4932C21.1993 89.6951 21.816 90.8129 22.8326 91.4539L30.6209 96.3642C31.7662 97.0863 33.2252 97.0831 34.3673 96.3559L42.0616 91.4572C43.0708 90.8146 43.6819 89.7011 43.6819 88.5048V74.4259Z" fill="black" stroke="url(#paint2_linear_2790_3196)"/>
<path d="M49.845 54.447C49.845 53.2425 49.2256 52.1226 48.2053 51.4824L47.8413 51.2539L45.6033 49.8496L41.1275 47.0409L34.3018 42.7577C33.1643 42.0439 31.7187 42.0439 30.5811 42.7577L23.7555 47.0409L19.2796 49.8496L17.0417 51.2539L16.6776 51.4824C15.6574 52.1226 15.038 53.2425 15.038 54.447V59.2747V61.6308C15.038 62.2959 15.2275 62.9473 15.5844 63.5086L15.8334 63.9003C16.7701 65.3736 16.7701 67.2557 15.8334 68.729L15.5844 69.1207C15.2275 69.682 15.038 70.3334 15.038 70.9985V73.3546V78.1867C15.038 79.3891 15.6552 80.5073 16.6727 81.1482L17.0534 81.388L19.3023 82.8045L23.8 85.6375L28.2978 88.4705L30.6533 89.9541C31.7979 90.6751 33.2556 90.6719 34.397 89.9458L36.7147 88.4716L41.1687 85.6386L45.6227 82.8056L47.8496 81.3891L48.2234 81.1514C49.2333 80.509 49.845 79.3951 49.845 78.1982V73.3546V70.9985C49.845 70.3334 49.6554 69.682 49.2986 69.1207L49.0495 68.729C48.1129 67.2557 48.1129 65.3736 49.0495 63.9003L49.2986 63.5086C49.6554 62.9473 49.845 62.2959 49.845 61.6308V59.2747V54.447Z" fill="url(#paint3_linear_2790_3196)" stroke="url(#paint4_linear_2790_3196)"/>
<path d="M48.917 55.0888C48.917 53.8849 48.2982 52.7654 47.2786 52.125L34.3012 43.9736C33.163 43.2588 31.7161 43.2588 30.5779 43.9736L17.6005 52.125C16.5809 52.7654 15.9621 53.8849 15.9621 55.0888V77.3998C15.9621 78.6017 16.5788 79.7195 17.5955 80.3605L30.6455 88.5882C31.7908 89.3102 33.2498 89.307 34.3919 88.5799L47.2967 80.3637C48.3059 79.7212 48.917 78.6077 48.917 77.4113V55.0888Z" fill="black" stroke="url(#paint5_linear_2790_3196)"/>
<path d="M60.9536 36.6965L61.3746 36.9642L60.9536 36.6965C61.3105 36.1352 61.5 35.4838 61.5 34.8187V30.1712V20.7606C61.5 19.5561 60.8806 18.4362 59.8604 17.796L58.0394 16.6533L54.3447 14.3348L46.9551 9.69769L34.302 1.7577C33.1645 1.04388 31.7189 1.04388 30.5813 1.7577L17.9283 9.69769L10.5387 14.3348L6.84392 16.6533L5.023 17.796C4.00273 18.4362 3.38336 19.5561 3.38336 20.7606V30.1712V34.8187C3.38336 35.4838 3.5729 36.1352 3.92977 36.6965L5.63564 39.3796C6.57234 40.8529 6.57234 42.7351 5.63564 44.2083L3.92977 46.8915C3.5729 47.4528 3.38336 48.1041 3.38336 48.7693V53.4168V62.8318C3.38336 64.0342 4.00059 65.1524 5.01801 65.7933L6.86271 66.9552L10.5756 69.2938L18.0013 73.971L25.427 78.6483L30.7105 81.9761C31.8551 82.6971 33.3128 82.6939 34.4543 81.9679L39.6714 78.6494L47.0248 73.9722L54.3782 69.295L58.0549 66.9564L59.8784 65.7965C60.8884 65.1541 61.5 64.0402 61.5 62.8433V53.4168V48.7693C61.5 48.1041 61.3105 47.4528 60.9536 46.8915L59.2477 44.2084C58.311 42.7351 58.311 40.8529 59.2477 39.3796L60.9536 36.6965Z" fill="url(#paint6_linear_2790_3196)" stroke="url(#paint7_linear_2790_3196)"/>
<g filter="url(#filter0_d_2790_3196)">
<path d="M60.4683 21.8208C60.4683 20.4449 59.761 19.1655 58.5958 18.4336L34.5664 3.34028C33.2657 2.52326 31.612 2.52326 30.3112 3.34028L6.2818 18.4336C5.11661 19.1655 4.40939 20.4449 4.40939 21.8208V61.5318C4.40939 62.9054 5.11417 64.1829 6.27609 64.9154L30.4322 80.1452C31.7411 80.9704 33.4085 80.9667 34.7137 80.1357L58.6165 64.9175C59.7699 64.1832 60.4683 62.9106 60.4683 61.5433V21.8208Z" fill="black"/>
<path d="M59.9683 21.8208C59.9683 20.6169 59.3494 19.4974 58.3299 18.857L34.3005 3.76368C33.1623 3.04879 31.7153 3.04879 30.5772 3.76368L6.54774 18.857C5.52821 19.4974 4.90939 20.6169 4.90939 21.8208V61.5318C4.90939 62.7337 5.52607 63.8515 6.54275 64.4925L30.6989 79.7222C31.8441 80.4443 33.3031 80.4411 34.4452 79.7139L58.348 64.4957C59.3572 63.8532 59.9683 62.7397 59.9683 61.5433V21.8208Z" stroke="url(#paint8_linear_2790_3196)"/>
</g>
<defs>
<filter id="filter0_d_2790_3196" x="0.673385" y="2.72754" width="63.5309" height="85.5063" filterUnits="userSpaceOnUse" color-interpolation-filters="sRGB">
<feFlood flood-opacity="0" result="BackgroundImageFix"/>
<feColorMatrix in="SourceAlpha" type="matrix" values="0 0 0 0 0 0 0 0 0 0 0 0 0 0 0 0 0 0 127 0" result="hardAlpha"/>
<feOffset dy="3.73604"/>
<feGaussianBlur stdDeviation="1.86802"/>
<feComposite in2="hardAlpha" operator="out"/>
<feColorMatrix type="matrix" values="0 0 0 0 0 0 0 0 0 0 0 0 0 0 0 0 0 0 0.25 0"/>
<feBlend mode="normal" in2="BackgroundImageFix" result="effect1_dropShadow_2790_3196"/>
<feBlend mode="normal" in="SourceGraphic" in2="effect1_dropShadow_2790_3196" result="shape"/>
</filter>
<linearGradient id="paint0_linear_2790_3196" x1="32.4417" y1="64" x2="32.4417" y2="99.0816" gradientUnits="userSpaceOnUse">
<stop/>
<stop offset="1" stop-color="#4B4A4A"/>
</linearGradient>
<linearGradient id="paint1_linear_2790_3196" x1="32.4417" y1="64" x2="32.4417" y2="99.0816" gradientUnits="userSpaceOnUse">
<stop stop-color="white"/>
<stop offset="0.291671" stop-color="#262626"/>
<stop offset="0.432299" stop-color="white"/>
<stop offset="0.807306" stop-color="#686868"/>
<stop offset="1" stop-color="white"/>
</linearGradient>
<linearGradient id="paint2_linear_2790_3196" x1="32.4406" y1="65.0793" x2="32.4406" y2="98.3782" gradientUnits="userSpaceOnUse">
<stop stop-color="#5A5A5A"/>
<stop offset="1" stop-color="white"/>
</linearGradient>
<linearGradient id="paint3_linear_2790_3196" x1="32.4415" y1="41" x2="32.4415" y2="91.7265" gradientUnits="userSpaceOnUse">
<stop/>
<stop offset="1" stop-color="#4B4A4A"/>
</linearGradient>
<linearGradient id="paint4_linear_2790_3196" x1="32.4415" y1="41" x2="32.4415" y2="91.7265" gradientUnits="userSpaceOnUse">
<stop stop-color="white"/>
<stop offset="0.291671" stop-color="#262626"/>
<stop offset="0.432299" stop-color="white"/>
<stop offset="0.807306" stop-color="#686868"/>
<stop offset="1" stop-color="white"/>
</linearGradient>
<linearGradient id="paint5_linear_2790_3196" x1="32.4396" y1="42.5601" x2="32.4396" y2="90.7089" gradientUnits="userSpaceOnUse">
<stop stop-color="#5A5A5A"/>
<stop offset="1" stop-color="white"/>
</linearGradient>
<linearGradient id="paint6_linear_2790_3196" x1="32.4417" y1="0" x2="32.4417" y2="83.7486" gradientUnits="userSpaceOnUse">
<stop/>
<stop offset="1" stop-color="#4B4A4A"/>
</linearGradient>
<linearGradient id="paint7_linear_2790_3196" x1="32.4417" y1="0" x2="32.4417" y2="83.7486" gradientUnits="userSpaceOnUse">
<stop stop-color="white"/>
<stop offset="0.291671" stop-color="#262626"/>
<stop offset="0.432299" stop-color="white"/>
<stop offset="0.807306" stop-color="#686868"/>
<stop offset="1" stop-color="white"/>
</linearGradient>
<linearGradient id="paint8_linear_2790_3196" x1="32.4388" y1="2.57552" x2="32.4388" y2="82.0684" gradientUnits="userSpaceOnUse">
<stop stop-color="#5A5A5A"/>
<stop offset="1" stop-color="white"/>
</linearGradient>
</defs>
</svg>
