<svg width="26" height="21" viewBox="0 0 26 21" fill="none" xmlns="http://www.w3.org/2000/svg">
<path fill-rule="evenodd" clip-rule="evenodd" d="M9.8187 0C8.78759 0 7.92547 0.783909 7.82771 1.81038L6.20866 18.8104C6.09684 19.9846 7.02017 21 8.19966 21H23.8006C24.9801 21 25.9034 19.9846 25.7916 18.8104L24.1725 1.81038C24.0748 0.78391 23.2127 0 22.1816 0H9.8187ZM15.1 10.3226L13 12.4516L15.1 14.5806L16.5 16L17.9 14.5806L20 12.4516L17.9 10.3226L16.5 5L15.1 10.3226ZM9 3C9 2.44772 9.44772 2 10 2H22C22.5523 2 23 2.44772 23 3C23 3.55228 22.5523 4 22 4H10C9.44772 4 9 3.55228 9 3ZM10 17C9.44772 17 9 17.4477 9 18C9 18.5523 9.44772 19 10 19H22C22.5523 19 23 18.5523 23 18C23 17.4477 22.5523 17 22 17H10Z" fill="#FFEFD7"/>
<path d="M1.78101 3.75193C1.90612 2.75107 2.75692 2 3.76556 2L7.54545 2C8.34878 2 9 2.65122 9 3.45455C9 4.25787 8.34878 4.90909 7.54545 4.90909H6.0885C5.08432 4.90909 4.23582 5.65372 4.10543 6.6494L3.29591 12.8312C3.1391 14.0287 4.07128 15.0909 5.27898 15.0909H7.54546C8.34878 15.0909 9 15.7421 9 16.5455C9 17.3488 8.34878 18 7.54546 18H2.26556C1.06257 18 0.131795 16.9456 0.281009 15.7519L1.78101 3.75193Z" fill="#FFEFD7"/>
</svg>
