<svg width="235" height="70" viewBox="0 0 235 70" fill="none" xmlns="http://www.w3.org/2000/svg">
<g filter="url(#filter0_d_887_708)">
<g clip-path="url(#clip0_887_708)">
<path d="M218.535 17.0078C218.535 14.796 216.742 13.0029 214.53 13.0029H-56.8535C-59.0654 13.0029 -60.8584 14.796 -60.8584 17.0078V46.2505C-60.8584 48.4623 -59.0654 50.2554 -56.8535 50.2554H214.53C216.742 50.2554 218.535 48.4623 218.535 46.2505V17.0078Z" fill="#6A4A45" fill-opacity="0.61"/>
</g>
<rect x="-0.388047" y="0.388047" width="201.759" height="37.2239" rx="7.61195" transform="matrix(-1 0 0 1 217.759 13.0029)" stroke="url(#paint0_linear_887_708)" stroke-width="0.776093" shape-rendering="crispEdges"/>
</g>
<defs>
<filter id="filter0_d_887_708" x="0.478134" y="0.585437" width="233.579" height="69.0437" filterUnits="userSpaceOnUse" color-interpolation-filters="sRGB">
<feFlood flood-opacity="0" result="BackgroundImageFix"/>
<feColorMatrix in="SourceAlpha" type="matrix" values="0 0 0 0 0 0 0 0 0 0 0 0 0 0 0 0 0 0 127 0" result="hardAlpha"/>
<feOffset dy="3.10437"/>
<feGaussianBlur stdDeviation="7.76093"/>
<feComposite in2="hardAlpha" operator="out"/>
<feColorMatrix type="matrix" values="0 0 0 0 0 0 0 0 0 0 0 0 0 0 0 0 0 0 0.25 0"/>
<feBlend mode="normal" in2="BackgroundImageFix" result="effect1_dropShadow_887_708"/>
<feBlend mode="normal" in="SourceGraphic" in2="effect1_dropShadow_887_708" result="shape"/>
</filter>
<linearGradient id="paint0_linear_887_708" x1="101.268" y1="0" x2="101.268" y2="38" gradientUnits="userSpaceOnUse">
<stop stop-color="#908694"/>
<stop offset="1" stop-color="#1F1F1F"/>
</linearGradient>
<clipPath id="clip0_887_708">
<rect width="202.535" height="38" rx="8" transform="matrix(-1 0 0 1 218.535 13.0029)" fill="white"/>
</clipPath>
</defs>
</svg>
