<svg width="142" height="82" viewBox="0 0 142 82" fill="none" xmlns="http://www.w3.org/2000/svg">
<g style="mix-blend-mode:luminosity" opacity="0.5">
<g filter="url(#filter0_d_397_4385)">
<g clip-path="url(#clip0_397_4385)">
<path d="M122 21.1604C122 18.3104 119.69 16 116.84 16H15.1603C12.3104 16 10 18.3104 10 21.1603V52.8396C10 55.6896 12.3104 58 15.1604 58H116.84C119.69 58 122 55.6896 122 52.8396V21.1604Z" fill="#8C5A5A" fill-opacity="0.61"/>
</g>
<path d="M109.625 16.5H22C15.6488 16.5 10.5 21.6487 10.5 28V46C10.5 52.3513 15.6488 57.5 22 57.5H109.625C115.977 57.5 121.125 52.3513 121.125 46V28C121.125 21.6487 115.977 16.5 109.625 16.5Z" stroke="url(#paint0_linear_397_4385)" shape-rendering="crispEdges"/>
</g>
</g>
<defs>
<filter id="filter0_d_397_4385" x="-10" y="0" width="151.625" height="82" filterUnits="userSpaceOnUse" color-interpolation-filters="sRGB">
<feFlood flood-opacity="0" result="BackgroundImageFix"/>
<feColorMatrix in="SourceAlpha" type="matrix" values="0 0 0 0 0 0 0 0 0 0 0 0 0 0 0 0 0 0 127 0" result="hardAlpha"/>
<feOffset dy="4"/>
<feGaussianBlur stdDeviation="10"/>
<feComposite in2="hardAlpha" operator="out"/>
<feColorMatrix type="matrix" values="0 0 0 0 0 0 0 0 0 0 0 0 0 0 0 0 0 0 0.25 0"/>
<feBlend mode="normal" in2="BackgroundImageFix" result="effect1_dropShadow_397_4385"/>
<feBlend mode="normal" in="SourceGraphic" in2="effect1_dropShadow_397_4385" result="shape"/>
</filter>
<linearGradient id="paint0_linear_397_4385" x1="65.8127" y1="16" x2="65.8127" y2="58" gradientUnits="userSpaceOnUse">
<stop stop-color="#908694"/>
<stop offset="1" stop-color="#1F1F1F"/>
</linearGradient>
<clipPath id="clip0_397_4385">
<path d="M121.625 28C121.625 21.3726 116.253 16 109.625 16H22C15.3726 16 10 21.3726 10 28V46C10 52.6274 15.3726 58 22 58H109.625C116.253 58 121.625 52.6274 121.625 46V28Z" fill="white"/>
</clipPath>
</defs>
</svg>
