<svg width="88" height="84" viewBox="0 0 88 84" fill="none" xmlns="http://www.w3.org/2000/svg">
<g filter="url(#filter0_d_630_2906)">
<g clip-path="url(#clip0_630_2906)">
<path d="M68 17.1603C68 14.3104 65.6896 12 62.8397 12H-286.84C-289.69 12 -292 14.3104 -292 17.1603V54.8397C-292 57.6896 -289.69 60 -286.84 60H62.8397C65.6896 60 68 57.6896 68 54.8397V17.1603Z" fill="#6A4A45"/>
<path d="M35.6038 36.6065C34.6176 36.3391 34.6201 34.9392 35.6072 34.6753L44.3903 32.3271C44.5484 32.2848 44.6937 32.2044 44.8135 32.0928L50.0929 27.1767C50.8064 26.5124 51.9516 27.1573 51.7536 28.1117L50.8921 32.2627L50.4134 35.4887C50.3991 35.5854 50.399 35.6837 50.4132 35.7804L50.8921 39.0509L51.7641 43.4023C51.9566 44.3631 50.7958 44.9988 50.09 44.3191L44.8037 39.2287C44.6826 39.1121 44.534 39.0278 44.3717 38.9838L35.6038 36.6065Z" fill="#FFEFD7"/>
</g>
<path d="M67.5 24C67.5 17.6487 62.3513 12.5 56 12.5H32C25.6487 12.5 20.5 17.6487 20.5 24V48C20.5 54.3513 25.6487 59.5 32 59.5H56C62.3513 59.5 67.5 54.3513 67.5 48V24Z" stroke="url(#paint0_linear_630_2906)" shape-rendering="crispEdges"/>
</g>
<defs>
<filter id="filter0_d_630_2906" x="0" y="-4" width="88" height="88" filterUnits="userSpaceOnUse" color-interpolation-filters="sRGB">
<feFlood flood-opacity="0" result="BackgroundImageFix"/>
<feColorMatrix in="SourceAlpha" type="matrix" values="0 0 0 0 0 0 0 0 0 0 0 0 0 0 0 0 0 0 127 0" result="hardAlpha"/>
<feOffset dy="4"/>
<feGaussianBlur stdDeviation="10"/>
<feComposite in2="hardAlpha" operator="out"/>
<feColorMatrix type="matrix" values="0 0 0 0 0 0 0 0 0 0 0 0 0 0 0 0 0 0 0.25 0"/>
<feBlend mode="normal" in2="BackgroundImageFix" result="effect1_dropShadow_630_2906"/>
<feBlend mode="normal" in="SourceGraphic" in2="effect1_dropShadow_630_2906" result="shape"/>
</filter>
<linearGradient id="paint0_linear_630_2906" x1="44" y1="12" x2="44" y2="60" gradientUnits="userSpaceOnUse">
<stop stop-color="#908694"/>
<stop offset="1" stop-color="#1F1F1F"/>
</linearGradient>
<clipPath id="clip0_630_2906">
<path d="M68 24C68 17.3726 62.6274 12 56 12H32C25.3726 12 20 17.3726 20 24V48C20 54.6274 25.3726 60 32 60H56C62.6274 60 68 54.6274 68 48V24Z" fill="white"/>
</clipPath>
</defs>
</svg>
