<svg width="340" height="88" viewBox="0 0 340 88" fill="none" xmlns="http://www.w3.org/2000/svg">
<g filter="url(#filter0_d_617_876)">
<g clip-path="url(#clip0_617_876)">
<path d="M320 21.1603C320 18.3104 317.69 16 314.84 16H25.1603C22.3104 16 20 18.3104 20 21.1603V58.8397C20 61.6896 22.3104 64 25.1603 64H314.84C317.69 64 320 61.6896 320 58.8397V21.1603Z" fill="#132618"/>
</g>
<path d="M308 16.5H32C25.6487 16.5 20.5 21.6487 20.5 28V52C20.5 58.3513 25.6487 63.5 32 63.5H308C314.351 63.5 319.5 58.3513 319.5 52V28C319.5 21.6487 314.351 16.5 308 16.5Z" stroke="url(#paint0_linear_617_876)" shape-rendering="crispEdges"/>
</g>
<defs>
<filter id="filter0_d_617_876" x="0" y="0" width="340" height="88" filterUnits="userSpaceOnUse" color-interpolation-filters="sRGB">
<feFlood flood-opacity="0" result="BackgroundImageFix"/>
<feColorMatrix in="SourceAlpha" type="matrix" values="0 0 0 0 0 0 0 0 0 0 0 0 0 0 0 0 0 0 127 0" result="hardAlpha"/>
<feOffset dy="4"/>
<feGaussianBlur stdDeviation="10"/>
<feComposite in2="hardAlpha" operator="out"/>
<feColorMatrix type="matrix" values="0 0 0 0 0 0 0 0 0 0 0 0 0 0 0 0 0 0 0.25 0"/>
<feBlend mode="normal" in2="BackgroundImageFix" result="effect1_dropShadow_617_876"/>
<feBlend mode="normal" in="SourceGraphic" in2="effect1_dropShadow_617_876" result="shape"/>
</filter>
<linearGradient id="paint0_linear_617_876" x1="170" y1="16" x2="170" y2="64" gradientUnits="userSpaceOnUse">
<stop stop-color="#908694"/>
<stop offset="1" stop-color="#1F1F1F"/>
</linearGradient>
<clipPath id="clip0_617_876">
<path d="M320 28C320 21.3726 314.627 16 308 16H32C25.3726 16 20 21.3726 20 28V52C20 58.6274 25.3726 64 32 64H308C314.627 64 320 58.6274 320 52V28Z" fill="white"/>
</clipPath>
</defs>
</svg>
