<svg width="340" height="89" viewBox="0 0 340 89" fill="none" xmlns="http://www.w3.org/2000/svg">
<g filter="url(#filter0_d_617_805)">
<g clip-path="url(#clip0_617_805)">
<path d="M320 21.7108C320 18.8608 317.69 16.5504 314.84 16.5504H25.1603C22.3104 16.5504 20 18.8608 20 21.7108V59.3901C20 62.2401 22.3104 64.5504 25.1603 64.5504H314.84C317.69 64.5504 320 62.2401 320 59.3901V21.7108Z" fill="#6A4A45"/>
</g>
<path d="M308 17.0504H32C25.6487 17.0504 20.5 22.1991 20.5 28.5504V52.5504C20.5 58.9017 25.6487 64.0504 32 64.0504H308C314.351 64.0504 319.5 58.9017 319.5 52.5504V28.5504C319.5 22.1991 314.351 17.0504 308 17.0504Z" stroke="url(#paint0_linear_617_805)" shape-rendering="crispEdges"/>
</g>
<defs>
<filter id="filter0_d_617_805" x="0" y="0.550415" width="340" height="88" filterUnits="userSpaceOnUse" color-interpolation-filters="sRGB">
<feFlood flood-opacity="0" result="BackgroundImageFix"/>
<feColorMatrix in="SourceAlpha" type="matrix" values="0 0 0 0 0 0 0 0 0 0 0 0 0 0 0 0 0 0 127 0" result="hardAlpha"/>
<feOffset dy="4"/>
<feGaussianBlur stdDeviation="10"/>
<feComposite in2="hardAlpha" operator="out"/>
<feColorMatrix type="matrix" values="0 0 0 0 0 0 0 0 0 0 0 0 0 0 0 0 0 0 0.25 0"/>
<feBlend mode="normal" in2="BackgroundImageFix" result="effect1_dropShadow_617_805"/>
<feBlend mode="normal" in="SourceGraphic" in2="effect1_dropShadow_617_805" result="shape"/>
</filter>
<linearGradient id="paint0_linear_617_805" x1="170" y1="16.5504" x2="170" y2="64.5504" gradientUnits="userSpaceOnUse">
<stop stop-color="#908694"/>
<stop offset="1" stop-color="#1F1F1F"/>
</linearGradient>
<clipPath id="clip0_617_805">
<path d="M320 28.5504C320 21.923 314.627 16.5504 308 16.5504H32C25.3726 16.5504 20 21.923 20 28.5504V52.5504C20 59.1778 25.3726 64.5504 32 64.5504H308C314.627 64.5504 320 59.1778 320 52.5504V28.5504Z" fill="white"/>
</clipPath>
</defs>
</svg>
