<svg width="80" height="27" viewBox="0 0 80 27" fill="none" xmlns="http://www.w3.org/2000/svg">
<g clip-path="url(#clip0_2511_3301)">
<path d="M79.999 4.00491C79.999 1.79306 78.206 0 75.9941 0H4.00393C1.79208 0 -0.000978947 1.79306 -0.000978947 4.00491V22.0898C-0.000978947 24.3017 1.79208 26.0947 4.00393 26.0947H75.9941C78.206 26.0947 79.999 24.3017 79.999 22.0898V4.00491Z" fill="url(#paint0_linear_2511_3301)"/>
<path d="M28.5417 17.5017C27.5151 17.5017 26.7264 17.1983 26.1757 16.5917C25.6251 15.985 25.3497 15.1123 25.3497 13.9737C25.3497 13.1803 25.5037 12.4757 25.8117 11.8597C26.1291 11.2343 26.5677 10.749 27.1277 10.4037C27.6971 10.0583 28.3457 9.88566 29.0737 9.88566C29.8671 9.88566 30.5437 9.99766 31.1037 10.2217C31.1037 10.427 31.0664 10.6603 30.9917 10.9217C30.9264 11.1737 30.8424 11.379 30.7397 11.5377C30.3477 11.267 29.9277 11.0383 29.4797 10.8517C29.0317 10.665 28.6771 10.5717 28.4157 10.5717C28.1077 10.6463 27.8184 10.8377 27.5477 11.1457C27.2864 11.4443 27.0764 11.813 26.9177 12.2517C26.7591 12.681 26.6797 13.1243 26.6797 13.5817C26.6797 14.5337 26.8851 15.243 27.2957 15.7097C27.7157 16.1763 28.2664 16.4097 28.9477 16.4097C29.8717 16.4097 30.6277 16.2417 31.2157 15.9057L31.3137 16.2557C31.0057 16.629 30.5951 16.9323 30.0817 17.1657C29.5777 17.3897 29.0644 17.5017 28.5417 17.5017ZM33.4597 17.4737C33.1797 17.4737 32.9837 17.3943 32.8717 17.2357C32.7597 17.0677 32.7037 16.7643 32.7037 16.3257C32.7037 16.0363 32.713 15.5743 32.7317 14.9397C32.7503 14.2303 32.7597 13.647 32.7597 13.1897C32.7597 11.687 32.671 10.6137 32.4937 9.96966C32.755 9.86699 33.0023 9.79699 33.2357 9.75966C33.4783 9.71299 33.7443 9.68966 34.0337 9.68966C33.9217 10.847 33.8657 12.5037 33.8657 14.6597C33.8657 15.1637 33.8797 15.5557 33.9077 15.8357C33.945 16.1063 34.001 16.321 34.0757 16.4797C34.1503 16.6383 34.267 16.8017 34.4257 16.9697C34.2763 17.1377 34.113 17.2637 33.9357 17.3477C33.7583 17.4317 33.5997 17.4737 33.4597 17.4737ZM36.8213 17.5017C36.4853 17.5017 36.2006 17.3803 35.9673 17.1377C35.7433 16.8857 35.6313 16.5683 35.6313 16.1857C35.6313 15.0563 36.7326 14.4217 38.9353 14.2817C38.9353 13.6657 38.8466 13.2363 38.6693 12.9937C38.492 12.751 38.1653 12.6297 37.6893 12.6297C37.4 12.6297 37.106 12.6763 36.8073 12.7697C36.518 12.863 36.252 12.989 36.0093 13.1477L35.8973 12.8817C36.1493 12.471 36.49 12.1397 36.9193 11.8877C37.3486 11.6263 37.7873 11.4957 38.2353 11.4957C38.842 11.4957 39.3086 11.659 39.6353 11.9857C39.962 12.303 40.1253 12.765 40.1253 13.3717C40.1253 13.7077 40.102 14.0857 40.0553 14.5057C40.018 14.9537 39.9993 15.285 39.9993 15.4997C39.9993 15.8543 40.0366 16.1297 40.1113 16.3257C40.186 16.5217 40.3306 16.7363 40.5453 16.9697C40.2 17.2683 39.822 17.4457 39.4113 17.5017C39.1593 17.3337 38.982 17.077 38.8793 16.7317C38.5433 16.965 38.1933 17.1517 37.8293 17.2917C37.4653 17.4317 37.1293 17.5017 36.8213 17.5017ZM37.3813 16.8297C37.6146 16.811 37.862 16.7457 38.1233 16.6337C38.3846 16.5217 38.618 16.3863 38.8233 16.2277V16.1577C38.8233 15.859 38.8373 15.5697 38.8653 15.2897L38.9073 14.6877C38.2726 14.725 37.7826 14.8603 37.4373 15.0937C37.092 15.3177 36.9193 15.621 36.9193 16.0037C36.9193 16.1623 36.9613 16.321 37.0453 16.4797C37.1293 16.629 37.2413 16.7457 37.3813 16.8297ZM42.9746 17.4737C42.704 17.4737 42.5126 17.3897 42.4006 17.2217C42.2886 17.0537 42.2326 16.755 42.2326 16.3257C42.2326 15.9803 42.242 15.4903 42.2606 14.8557C42.2793 14.2583 42.2886 13.8197 42.2886 13.5397C42.2886 13.157 42.2653 12.807 42.2186 12.4897C42.172 12.163 42.102 11.9297 42.0086 11.7897C42.27 11.687 42.5173 11.617 42.7506 11.5797C42.9933 11.533 43.264 11.5097 43.5626 11.5097C43.516 11.7803 43.474 12.2003 43.4366 12.7697C43.4086 13.3297 43.3946 13.9597 43.3946 14.6597C43.3946 15.173 43.4086 15.565 43.4366 15.8357C43.474 16.1063 43.5253 16.321 43.5906 16.4797C43.6653 16.6383 43.782 16.8017 43.9406 16.9697C43.7913 17.1377 43.628 17.2637 43.4506 17.3477C43.2733 17.4317 43.1146 17.4737 42.9746 17.4737ZM42.8066 10.6277C42.5546 10.3197 42.27 10.0303 41.9526 9.75966C42.2326 9.41432 42.5173 9.12499 42.8066 8.89166C43.068 9.20899 43.3573 9.49832 43.6746 9.75966C43.4133 10.077 43.124 10.3663 42.8066 10.6277ZM46.6866 17.4317C46.4906 17.4317 46.2293 17.4037 45.9026 17.3477C45.9679 16.4143 46.0006 15.4203 46.0006 14.3657C46.0006 13.8523 45.9819 13.4603 45.9446 13.1897C45.9166 12.919 45.8653 12.7043 45.7906 12.5457C45.7253 12.387 45.6133 12.2237 45.4546 12.0557C45.6039 11.8783 45.7626 11.7523 45.9306 11.6777C46.0986 11.5937 46.2526 11.5517 46.3926 11.5517C46.8779 11.5517 47.1579 11.827 47.2326 12.3777C47.4753 12.107 47.7599 11.8923 48.0866 11.7337C48.4133 11.575 48.7399 11.4957 49.0666 11.4957C49.8599 11.4957 50.3593 11.8317 50.5646 12.5037C50.8073 12.1863 51.1013 11.939 51.4466 11.7617C51.7919 11.5843 52.1419 11.4957 52.4966 11.4957C53.5793 11.4957 54.1206 12.1397 54.1206 13.4277L54.0926 14.3097C54.0646 14.655 54.0506 14.9677 54.0506 15.2477C54.0506 16.209 54.1486 16.909 54.3446 17.3477C54.0833 17.4037 53.8359 17.4317 53.6026 17.4317C53.3693 17.4317 53.0893 17.4037 52.7626 17.3477C52.8279 16.2183 52.8606 14.9957 52.8606 13.6797C52.8606 13.3063 52.7859 13.0403 52.6366 12.8817C52.4873 12.7137 52.2399 12.6297 51.8946 12.6297C51.4279 12.6297 51.0173 12.737 50.6626 12.9517C50.6719 13.297 50.6673 13.8103 50.6486 14.4917C50.6393 14.6877 50.6346 14.9397 50.6346 15.2477C50.6346 16.2183 50.7233 16.9183 50.9006 17.3477C50.6486 17.4037 50.4059 17.4317 50.1726 17.4317C49.9393 17.4317 49.6593 17.4037 49.3326 17.3477C49.3979 16.2183 49.4306 14.9957 49.4306 13.6797C49.4306 13.3063 49.3559 13.0403 49.2066 12.8817C49.0573 12.7137 48.8099 12.6297 48.4646 12.6297C47.9886 12.6297 47.5873 12.737 47.2606 12.9517L47.2466 13.5537C47.2186 14.0297 47.2046 14.5943 47.2046 15.2477C47.2046 16.2277 47.2979 16.9277 47.4846 17.3477C47.2046 17.4037 46.9386 17.4317 46.6866 17.4317Z" fill="#FFEFD7"/>
</g>
<rect x="-0.388047" y="0.388047" width="79.2239" height="26.0239" rx="7.61195" transform="matrix(-1 0 0 1 79.2229 0)" stroke="url(#paint1_linear_2511_3301)" stroke-width="0.776093"/>
<defs>
<linearGradient id="paint0_linear_2511_3301" x1="39.999" y1="0" x2="39.999" y2="26.0947" gradientUnits="userSpaceOnUse">
<stop stop-color="#522B87"/>
<stop offset="1" stop-color="#7E39E8"/>
</linearGradient>
<linearGradient id="paint1_linear_2511_3301" x1="40" y1="0" x2="40" y2="26.8" gradientUnits="userSpaceOnUse">
<stop stop-color="#908694"/>
<stop offset="1" stop-color="#1F1F1F"/>
</linearGradient>
<clipPath id="clip0_2511_3301">
<rect width="80" height="26.8" rx="8" transform="matrix(-1 0 0 1 79.999 0)" fill="white"/>
</clipPath>
</defs>
</svg>
