<svg width="110" height="31" viewBox="0 0 110 31" fill="none" xmlns="http://www.w3.org/2000/svg">
<g clip-path="url(#clip0_2226_2812)">
<path d="M110 4.00491C110 1.79306 108.207 0 105.995 0H4.00597C1.79411 0 0.00105286 1.79306 0.00105286 4.00491V26.1793C0.00105286 28.3911 1.79411 30.1842 4.00597 30.1842H105.995C108.207 30.1842 110 28.3911 110 26.1793V4.00491Z" fill="url(#paint0_linear_2226_2812)"/>
<path d="M31.9252 19.4678C31.6266 19.4678 31.3699 19.3278 31.1552 19.0478C30.9406 18.7585 30.7539 18.3945 30.5952 17.9558C30.4459 17.5171 30.2546 16.8918 30.0212 16.0798C29.7692 15.1931 29.5452 14.4605 29.3492 13.8818C29.1626 13.2938 28.9339 12.7245 28.6632 12.1738C29.1952 11.9778 29.7692 11.8798 30.3852 11.8798C30.4319 12.2905 30.5346 12.8598 30.6932 13.5878C30.8519 14.3065 31.0246 15.0111 31.2112 15.7018C31.5192 16.6911 31.7992 17.4705 32.0512 18.0398C32.8539 15.6131 33.3626 13.9331 33.5772 12.9998L33.2132 12.1738C33.7266 11.9778 34.3006 11.8798 34.9352 11.8798C34.9912 12.2811 35.0986 12.8458 35.2572 13.5738C35.4159 14.3018 35.5839 15.0111 35.7612 15.7018C36.0972 16.7658 36.3726 17.5451 36.5872 18.0398C37.2032 16.1825 37.6326 14.8291 37.8752 13.9798C38.1272 13.1211 38.2532 12.5331 38.2532 12.2158C38.2532 12.1505 38.2439 12.0898 38.2252 12.0338C38.5986 11.9311 39.0139 11.8798 39.4712 11.8798C39.1446 12.7198 38.7386 13.8538 38.2532 15.2818C37.7772 16.7098 37.3806 17.9371 37.0632 18.9638L36.4752 19.4678C36.1766 19.4678 35.9199 19.3278 35.7052 19.0478C35.4906 18.7678 35.3039 18.4085 35.1452 17.9698C34.9866 17.5218 34.7952 16.8918 34.5712 16.0798C34.4032 15.4451 34.2306 14.8525 34.0532 14.3018C33.6986 15.3471 33.1852 16.9011 32.5132 18.9638L31.9252 19.4678ZM41.3784 19.4678C41.1077 19.4678 40.9164 19.3838 40.8044 19.2158C40.6924 19.0478 40.6364 18.7491 40.6364 18.3198C40.6364 17.9745 40.6457 17.4845 40.6644 16.8498C40.6831 16.2525 40.6924 15.8138 40.6924 15.5338C40.6924 15.1511 40.6691 14.8011 40.6224 14.4838C40.5757 14.1571 40.5057 13.9238 40.4124 13.7838C40.6737 13.6811 40.9211 13.6111 41.1544 13.5738C41.3971 13.5271 41.6677 13.5038 41.9664 13.5038C41.9197 13.7745 41.8777 14.1945 41.8404 14.7638C41.8124 15.3238 41.7984 15.9538 41.7984 16.6538C41.7984 17.1671 41.8124 17.5591 41.8404 17.8298C41.8777 18.1005 41.9291 18.3151 41.9944 18.4738C42.0691 18.6325 42.1857 18.7958 42.3444 18.9638C42.1951 19.1318 42.0317 19.2578 41.8544 19.3418C41.6771 19.4258 41.5184 19.4678 41.3784 19.4678ZM41.2104 12.6218C40.9584 12.3138 40.6737 12.0245 40.3564 11.7538C40.6364 11.4085 40.9211 11.1191 41.2104 10.8858C41.4717 11.2031 41.7611 11.4925 42.0784 11.7538C41.8171 12.0711 41.5277 12.3605 41.2104 12.6218ZM45.2164 19.4678C44.8897 19.4678 44.661 19.3885 44.5304 19.2298C44.3997 19.0618 44.3344 18.7725 44.3344 18.3618C44.3344 18.0725 44.3437 17.6011 44.3624 16.9478C44.381 16.2385 44.3904 15.6505 44.3904 15.1838C44.3904 14.9598 44.381 14.7451 44.3624 14.5398C43.989 14.5398 43.737 14.5165 43.6064 14.4698C43.485 14.4138 43.4244 14.3205 43.4244 14.1898C44.031 13.8445 44.605 13.3731 45.1464 12.7758L45.4824 12.8178C45.5197 13.1351 45.543 13.4618 45.5524 13.7978C46.1777 13.7885 46.635 13.7511 46.9244 13.6858C46.9244 13.8818 46.9057 14.0545 46.8684 14.2038C46.831 14.3531 46.7704 14.5071 46.6864 14.6658C46.4157 14.5631 46.0284 14.5071 45.5244 14.4978C45.4964 14.9178 45.4824 15.3565 45.4824 15.8138C45.4824 16.9618 45.5524 17.8345 45.6924 18.4318C46.1217 18.4038 46.467 18.3525 46.7284 18.2778L46.8124 18.5998C46.6444 18.8611 46.411 19.0711 46.1124 19.2298C45.8137 19.3885 45.515 19.4678 45.2164 19.4678ZM48.978 19.4258C48.7447 19.4258 48.474 19.3978 48.166 19.3418C48.2313 18.1471 48.264 16.9571 48.264 15.7718C48.264 14.1478 48.2173 12.8785 48.124 11.9638C48.5813 11.7771 49.0947 11.6838 49.664 11.6838C49.608 12.1225 49.5427 13.0278 49.468 14.3998C49.7293 14.1198 50.028 13.9005 50.364 13.7418C50.7 13.5738 51.0407 13.4898 51.386 13.4898C52.478 13.4898 53.024 14.1338 53.024 15.4218L52.996 16.3038L52.968 17.2418C52.968 18.2218 53.0613 18.9218 53.248 19.3418C52.9867 19.3978 52.7393 19.4258 52.506 19.4258C52.282 19.4258 52.0067 19.3978 51.68 19.3418C51.7453 18.0165 51.778 16.7938 51.778 15.6738C51.778 15.3005 51.6987 15.0345 51.54 14.8758C51.3907 14.7078 51.1433 14.6238 50.798 14.6238C50.3033 14.6238 49.8647 14.7451 49.482 14.9878C49.4633 15.2585 49.454 15.6411 49.454 16.1358C49.454 17.8811 49.552 18.9498 49.748 19.3418C49.496 19.3978 49.2393 19.4258 48.978 19.4258ZM57.1 19.5098C56.344 19.5098 55.77 19.2625 55.378 18.7678C54.9953 18.2638 54.804 17.5218 54.804 16.5418C54.804 15.5338 55 14.7731 55.392 14.2598C55.7933 13.7465 56.386 13.4898 57.17 13.4898C57.786 13.4898 58.3506 13.6765 58.864 14.0498C58.808 13.1165 58.7193 12.4211 58.598 11.9638C58.8686 11.8611 59.1206 11.7911 59.354 11.7538C59.5966 11.7071 59.8626 11.6838 60.152 11.6838C60.04 12.8505 59.984 14.8198 59.984 17.5918C59.984 17.9185 60.0213 18.1798 60.096 18.3758C60.1706 18.5625 60.3153 18.7678 60.53 18.9918C60.2126 19.2718 59.8393 19.4398 59.41 19.4958C59.158 19.3091 58.9806 19.0478 58.878 18.7118C58.626 18.9638 58.3413 19.1598 58.024 19.2998C57.716 19.4398 57.408 19.5098 57.1 19.5098ZM57.45 18.8238C57.6646 18.7958 57.8886 18.7258 58.122 18.6138C58.3646 18.5018 58.5933 18.3665 58.808 18.2078C58.808 17.9185 58.8173 17.4285 58.836 16.7378C58.8546 15.9725 58.864 15.3705 58.864 14.9318C58.5 14.6985 58.0706 14.5818 57.576 14.5818C57.0906 14.5818 56.7173 14.7545 56.456 15.0998C56.1946 15.4451 56.064 15.9445 56.064 16.5978C56.064 17.2418 56.1853 17.7551 56.428 18.1378C56.6706 18.5205 57.0113 18.7491 57.45 18.8238ZM63.302 19.4258C63.0686 19.4258 62.798 19.3978 62.49 19.3418C62.5553 18.4085 62.588 17.4145 62.588 16.3598C62.588 15.8465 62.5693 15.4545 62.532 15.1838C62.504 14.9131 62.4526 14.6985 62.378 14.5398C62.3126 14.3811 62.2006 14.2178 62.042 14.0498C62.1913 13.8818 62.3546 13.7558 62.532 13.6718C62.7093 13.5878 62.868 13.5458 63.008 13.5458C63.54 13.5458 63.82 13.8911 63.848 14.5818C64.0906 14.2831 64.3473 14.0405 64.618 13.8538C64.898 13.6578 65.2153 13.5131 65.57 13.4198C65.6353 13.5691 65.6913 13.7838 65.738 14.0638C65.794 14.3438 65.822 14.6005 65.822 14.8338C65.71 14.8151 65.5513 14.8058 65.346 14.8058C65.0473 14.8058 64.7626 14.8431 64.492 14.9178C64.2213 14.9831 64.002 15.0671 63.834 15.1698L63.82 15.6038C63.8013 16.2198 63.792 16.7658 63.792 17.2418C63.792 18.2218 63.8853 18.9218 64.072 19.3418C63.792 19.3978 63.5353 19.4258 63.302 19.4258ZM67.6684 19.4958C67.3324 19.4958 67.0478 19.3745 66.8144 19.1318C66.5904 18.8798 66.4784 18.5625 66.4784 18.1798C66.4784 17.0505 67.5798 16.4158 69.7824 16.2758C69.7824 15.6598 69.6938 15.2305 69.5164 14.9878C69.3391 14.7451 69.0124 14.6238 68.5364 14.6238C68.2471 14.6238 67.9531 14.6705 67.6544 14.7638C67.3651 14.8571 67.0991 14.9831 66.8564 15.1418L66.7444 14.8758C66.9964 14.4651 67.3371 14.1338 67.7664 13.8818C68.1958 13.6205 68.6344 13.4898 69.0824 13.4898C69.6891 13.4898 70.1558 13.6531 70.4824 13.9798C70.8091 14.2971 70.9724 14.7591 70.9724 15.3658C70.9724 15.7018 70.9491 16.0798 70.9024 16.4998C70.8651 16.9478 70.8464 17.2791 70.8464 17.4938C70.8464 17.8485 70.8838 18.1238 70.9584 18.3198C71.0331 18.5158 71.1778 18.7305 71.3924 18.9638C71.0471 19.2625 70.6691 19.4398 70.2584 19.4958C70.0064 19.3278 69.8291 19.0711 69.7264 18.7258C69.3904 18.9591 69.0404 19.1458 68.6764 19.2858C68.3124 19.4258 67.9764 19.4958 67.6684 19.4958ZM68.2284 18.8238C68.4618 18.8051 68.7091 18.7398 68.9704 18.6278C69.2318 18.5158 69.4651 18.3805 69.6704 18.2218V18.1518C69.6704 17.8531 69.6844 17.5638 69.7124 17.2838L69.7544 16.6818C69.1198 16.7191 68.6298 16.8545 68.2844 17.0878C67.9391 17.3118 67.7664 17.6151 67.7664 17.9978C67.7664 18.1565 67.8084 18.3151 67.8924 18.4738C67.9764 18.6231 68.0884 18.7398 68.2284 18.8238ZM74.8438 19.4678C74.2931 19.4678 73.9058 19.0851 73.6818 18.3198L73.1778 16.6118C73.0658 16.2011 72.9631 15.8418 72.8698 15.5338C72.7391 15.1418 72.5991 14.7965 72.4498 14.4978C72.3098 14.1898 72.1791 13.9751 72.0578 13.8538C72.3004 13.7511 72.5431 13.6765 72.7858 13.6298C73.0378 13.5831 73.3271 13.5598 73.6538 13.5598C73.7191 13.9705 73.9338 14.8198 74.2978 16.1078C74.6711 17.3958 74.9184 18.1705 75.0398 18.4318C75.7398 16.3785 76.1504 15.1045 76.2718 14.6098C76.1131 14.2458 75.9591 13.9938 75.8098 13.8538C76.2671 13.6578 76.8038 13.5598 77.4198 13.5598C77.4758 13.9611 77.6951 14.8431 78.0778 16.2058C78.4698 17.5591 78.7124 18.3105 78.8058 18.4598C79.3284 16.9758 79.6784 15.9305 79.8558 15.3238C80.0424 14.7171 80.1358 14.2878 80.1358 14.0358C80.1358 13.9518 80.1171 13.8445 80.0798 13.7138C80.4251 13.6111 80.8451 13.5598 81.3398 13.5598C81.0691 14.1478 80.7564 14.9225 80.4018 15.8838C80.0564 16.8451 79.7064 17.8951 79.3518 19.0338L78.5958 19.4678C78.3158 19.4678 78.0824 19.3745 77.8958 19.1878C77.7091 18.9918 77.5551 18.7025 77.4338 18.3198C77.0698 17.1065 76.8224 16.2478 76.6918 15.7438C76.3931 16.5558 76.0291 17.6525 75.5998 19.0338L74.8438 19.4678Z" fill="#FFEFD7"/>
</g>
<rect x="-0.388047" y="0.388047" width="109.223" height="30.2239" rx="7.61195" transform="matrix(-1 0 0 1 109.224 0)" stroke="url(#paint1_linear_2226_2812)" stroke-width="0.776093"/>
<defs>
<linearGradient id="paint0_linear_2226_2812" x1="55.0005" y1="0" x2="55.0005" y2="30.1842" gradientUnits="userSpaceOnUse">
<stop stop-color="#522B87"/>
<stop offset="1" stop-color="#7E39E8"/>
</linearGradient>
<linearGradient id="paint1_linear_2226_2812" x1="54.9995" y1="0" x2="54.9995" y2="31" gradientUnits="userSpaceOnUse">
<stop stop-color="#908694"/>
<stop offset="1" stop-color="#1F1F1F"/>
</linearGradient>
<clipPath id="clip0_2226_2812">
<rect width="109.999" height="31" rx="8" transform="matrix(-1 0 0 1 110 0)" fill="white"/>
</clipPath>
</defs>
</svg>
