<svg width="25" height="32" viewBox="0 0 25 32" fill="none" xmlns="http://www.w3.org/2000/svg">
<path d="M8.1516 8.68232L10.594 6.20166L12.2223 0L13.8506 6.20166L16.293 8.68232L13.8506 11.163L12.2223 12.8168L10.594 11.163L8.1516 8.68232Z" fill="#FFEFD7"/>
<path d="M19.1931 9.25977L23.7256 9.26345L23.7282 13.5847L16.7343 20.2891L20.3521 23.7591L22.1623 22.0247L23.9712 23.7591L20.8063 26.7948L24.4241 30.2648L22.6152 31.9992L18.9961 28.5292L15.8299 31.565L14.021 29.8306L15.8299 28.095L12.2108 24.6263L8.59296 28.095L10.4031 29.8306L8.59424 31.565L5.42801 28.5292L1.80891 31.9992L0 30.2648L3.6191 26.7936L0.452867 23.7591L2.26178 22.0247L4.07069 23.7578L7.68722 20.2891L0.702328 13.592L0.69849 9.25977L5.23483 9.26345L12.2108 15.9532L19.1931 9.25977ZM9.49613 22.0235L5.87959 25.4922L6.78533 26.3594L10.4019 22.8907L9.49741 22.0235H9.49613ZM21.1683 11.7141H20.2511L14.021 17.6863L14.9241 18.5535L21.1683 12.5691V11.7141ZM3.25834 11.7141V12.5727L17.6388 26.3606L18.5432 25.4934L4.17303 11.7154L3.25834 11.7141Z" fill="#FFEFD7"/>
</svg>
