<svg width="23" height="35" viewBox="0 0 23 35" fill="none" xmlns="http://www.w3.org/2000/svg">
<path fill-rule="evenodd" clip-rule="evenodd" d="M6.23062 8.18262C6.22553 8.18522 6.22044 8.18782 6.21535 8.19042L4.97192 8.24016C3.40771 8.30272 1.92827 7.52866 1.08782 6.20795L0.0760994 4.6181L0.00245369 6.82747C-0.0556313 8.57002 0.921691 10.1822 2.49351 10.9367L2.70134 11.0364C1.12006 12.9823 0.245758 15.4222 0.245758 17.9522C0.241913 20.5309 1.15048 23.0279 2.81065 25.0011C1.28268 26.0124 0.333488 27.304 0.25185 28.7174L0.245758 28.9185L11.212 34.0631L22.1783 28.9185L22.1722 28.7174C22.0893 27.3052 21.1414 26.0136 19.6122 25.0023C20.9543 23.4032 21.8121 21.4543 22.0848 19.3846C22.3575 17.3148 22.0337 15.2102 21.1515 13.3181C20.8053 12.5755 20.3787 11.8778 19.8817 11.2362L20.5058 10.9367C22.0776 10.1822 23.0549 8.57002 22.9968 6.82747L22.9232 4.6181L21.9114 6.20795C21.071 7.52866 19.5916 8.30272 18.0273 8.24016L16.818 8.19178L14.8906 10.2569C15.7554 10.6703 16.5524 11.2303 17.2432 11.9211C18.8427 13.5206 19.7413 15.6901 19.7413 17.9522C19.7453 19.9578 19.0386 21.9 17.7467 23.4341L15.9884 25.5275L18.2682 27.0347L18.4851 27.1846L18.5448 27.2285L11.212 31.5665L3.87803 27.2285L4.04496 27.1103L6.43561 25.5275L4.67735 23.4353L4.4434 23.1441C3.309 21.6686 2.68271 19.8616 2.68271 17.9522C2.68271 15.6901 3.58133 13.5206 5.18089 11.9211C5.98933 11.1126 6.94336 10.4832 7.98136 10.0584L6.23062 8.18262ZM4.98136 13.8576V14.2005C4.98136 16.6282 6.94934 18.5961 9.37698 18.5961H9.89267V23.1648L11.4158 25.8726L12.7696 23.1648V18.5961H13.1089C15.5366 18.5961 17.5046 16.6282 17.5046 14.2005V13.8576L16.7435 14.6873C15.9649 15.536 14.8843 16.0452 13.7341 16.1054L11.416 16.2267L11.4158 16.2263L11.4154 16.2267L11.4122 16.2269L8.8001 16.0974C7.68653 16.0422 6.63555 15.5659 5.85996 14.765L4.98136 13.8576ZM11.4122 16.2269L11.4133 16.2293L11.407 16.237L11.4122 16.2269Z" fill="#FFEFD7"/>
<path d="M15.3775 8.08505L13.0675 5.77504L11.5275 0L9.9875 5.77504L7.67749 8.08505L9.9875 10.3951L11.5275 11.9351L13.0675 10.3951L15.3775 8.08505Z" fill="#FFEFD7"/>
</svg>
