<svg width="25" height="29" viewBox="0 0 25 29" fill="none" xmlns="http://www.w3.org/2000/svg">
<path fill-rule="evenodd" clip-rule="evenodd" d="M4.8125 28.25H23.375C23.7397 28.25 24.0894 28.1051 24.3473 27.8473C24.6051 27.5894 24.75 27.2397 24.75 26.875V25.5H22.75V21.375H24.75V2.125C24.75 1.76033 24.6051 1.41059 24.3473 1.15273C24.0894 0.894866 23.7397 0.75 23.375 0.75H4.125C3.03098 0.75 1.98177 1.1846 1.20818 1.95818C0.434597 2.73177 0 3.78098 0 4.875V23.4375C0 24.7139 0.50703 25.9379 1.40955 26.8405C2.31207 27.743 3.53615 28.25 4.8125 28.25ZM20 21.375V25.5H4.8125C4.26549 25.5 3.74089 25.2827 3.35409 24.8959C2.9673 24.5091 2.75 23.9845 2.75 23.4375C2.75 22.8905 2.9673 22.3659 3.35409 21.9791C3.74089 21.5923 4.26549 21.375 4.8125 21.375H20ZM11.3167 10.2017L8.87425 12.6823L11.3167 15.163L12.9449 16.8168L14.5732 15.163L17.0156 12.6823L14.5732 10.2017L12.9449 4L11.3167 10.2017Z" fill="#FFEFD7"/>
</svg>
