<svg width="400" height="88" viewBox="0 0 400 88" fill="none" xmlns="http://www.w3.org/2000/svg">
<g style="mix-blend-mode:luminosity" opacity="0.5">
<g filter="url(#filter0_d_397_3716)">
<g clip-path="url(#clip0_397_3716)">
<path d="M380 21.1603C380 18.3104 377.69 16 374.84 16H25.1603C22.3104 16 20 18.3104 20 21.1603V58.8397C20 61.6896 22.3104 64 25.1603 64H374.84C377.69 64 380 61.6896 380 58.8397V21.1603Z" fill="#8C5A5A" fill-opacity="0.61"/>
</g>
<path d="M368 16.5H32C25.6487 16.5 20.5 21.6487 20.5 28V52C20.5 58.3513 25.6487 63.5 32 63.5H368C374.351 63.5 379.5 58.3513 379.5 52V28C379.5 21.6487 374.351 16.5 368 16.5Z" stroke="url(#paint0_linear_397_3716)" shape-rendering="crispEdges"/>
</g>
</g>
<defs>
<filter id="filter0_d_397_3716" x="0" y="0" width="400" height="88" filterUnits="userSpaceOnUse" color-interpolation-filters="sRGB">
<feFlood flood-opacity="0" result="BackgroundImageFix"/>
<feColorMatrix in="SourceAlpha" type="matrix" values="0 0 0 0 0 0 0 0 0 0 0 0 0 0 0 0 0 0 127 0" result="hardAlpha"/>
<feOffset dy="4"/>
<feGaussianBlur stdDeviation="10"/>
<feComposite in2="hardAlpha" operator="out"/>
<feColorMatrix type="matrix" values="0 0 0 0 0 0 0 0 0 0 0 0 0 0 0 0 0 0 0.25 0"/>
<feBlend mode="normal" in2="BackgroundImageFix" result="effect1_dropShadow_397_3716"/>
<feBlend mode="normal" in="SourceGraphic" in2="effect1_dropShadow_397_3716" result="shape"/>
</filter>
<linearGradient id="paint0_linear_397_3716" x1="210.5" y1="16" x2="210.5" y2="64" gradientUnits="userSpaceOnUse">
<stop stop-color="#908694"/>
<stop offset="1" stop-color="#1F1F1F"/>
</linearGradient>
<clipPath id="clip0_397_3716">
<path d="M380 28C380 21.3726 374.627 16 368 16H32C25.3726 16 20 21.3726 20 28V52C20 58.6274 25.3726 64 32 64H368C374.627 64 380 58.6274 380 52V28Z" fill="white"/>
</clipPath>
</defs>
</svg>
