<svg width="29" height="23" viewBox="0 0 29 23" fill="none" xmlns="http://www.w3.org/2000/svg">
<path d="M5.21802 1.30405L5.75817 0.763899C6.24728 0.274792 6.91065 1.33514e-05 7.60236 1.33514e-05H24.1266C26.2872 1.33514e-05 28.0387 1.75153 28.0387 3.91214L28.0386 16.5242C28.0386 17.2159 27.7638 17.8793 27.2747 18.3684L26.7346 18.9085V4.56414C26.7346 2.76364 25.275 1.30405 23.4745 1.30405H5.21802Z" fill="#FFEFD7"/>
<path fill-rule="evenodd" clip-rule="evenodd" d="M4.55582 2.60658C3.11543 2.60658 1.94775 3.77425 1.94775 5.21465V7.17046L11.5797 7.17044C12.3799 7.17044 13.0286 7.7932 13.0286 8.56141V16.2118C13.0286 16.98 12.3799 17.6027 11.5797 17.6027H1.94775V19.5591C1.94775 20.9995 3.11543 22.1671 4.55583 22.1671H22.8124C24.2528 22.1671 25.4204 20.9995 25.4204 19.5591V5.21461C25.4204 3.77421 24.2528 2.60653 22.8123 2.60654L4.55582 2.60658Z" fill="#FFEFD7"/>
<path fill-rule="evenodd" clip-rule="evenodd" d="M1.15914 8.47243C0.518966 8.47243 0 8.9395 0 9.51566V15.2534C0 15.8296 0.518967 16.2966 1.15914 16.2966H10.5772C11.2174 16.2966 11.7363 15.8296 11.7363 15.2534V9.51564C11.7363 8.93948 11.2174 8.47241 10.5772 8.47241L1.15914 8.47243ZM7.82108 13.6894C8.54128 13.6894 9.12512 13.1056 9.12512 12.3854C9.12512 11.6652 8.54128 11.0814 7.82108 11.0814C7.10088 11.0814 6.51705 11.6652 6.51705 12.3854C6.51705 13.1056 7.10088 13.6894 7.82108 13.6894Z" fill="#FFEFD7"/>
</svg>
