<svg width="324" height="52" viewBox="0 0 324 52" fill="none" xmlns="http://www.w3.org/2000/svg">
<g clip-path="url(#clip0_1951_3622)">
<path d="M324 4.84785C324 1.99787 321.69 -0.3125 318.84 -0.3125H4.16034C1.31036 -0.3125 -1 1.99787 -1 4.84785V46.5271C-1 49.3771 1.31036 51.6875 4.16034 51.6875H318.84C321.69 51.6875 324 49.3771 324 46.5271V4.84785Z" fill="#6A4A45"/>
<path d="M57.9977 31.132C57.367 31.132 56.7143 31.0953 56.0397 31.022C55.365 30.9633 54.7857 30.8827 54.3017 30.78C54.375 30.076 54.4337 29.1153 54.4777 27.898C54.5217 26.666 54.5437 25.5 54.5437 24.4C54.5437 21.9507 54.419 20.4473 54.1697 19.89C54.639 19.714 55.2623 19.5747 56.0397 19.472C56.8317 19.3547 57.631 19.296 58.4377 19.296C60.3883 19.296 61.8843 19.802 62.9257 20.814C63.967 21.826 64.4877 23.2707 64.4877 25.148C64.4877 26.3213 64.2163 27.3627 63.6737 28.272C63.131 29.1667 62.3683 29.8707 61.3857 30.384C60.403 30.8827 59.2737 31.132 57.9977 31.132ZM59.0317 30.01C59.6477 29.922 60.2123 29.658 60.7257 29.218C61.239 28.7633 61.6423 28.2133 61.9357 27.568C62.2437 26.908 62.3977 26.2333 62.3977 25.544C62.3977 22.332 60.9237 20.726 57.9757 20.726C57.4917 20.726 57.0223 20.792 56.5677 20.924C56.465 22.5667 56.4137 24.2607 56.4137 26.006C56.4137 27.4287 56.4503 28.6167 56.5237 29.57C57.6237 29.8633 58.4597 30.01 59.0317 30.01ZM68.299 31.198C67.8737 31.198 67.573 31.066 67.397 30.802C67.221 30.538 67.133 30.0687 67.133 29.394C67.133 28.8513 67.1477 28.0813 67.177 27.084C67.2063 26.1453 67.221 25.456 67.221 25.016C67.221 24.4147 67.1843 23.8647 67.111 23.366C67.0377 22.8527 66.9277 22.486 66.781 22.266C67.1917 22.1047 67.5803 21.9947 67.947 21.936C68.3283 21.8627 68.7537 21.826 69.223 21.826C69.1497 22.2513 69.0837 22.9113 69.025 23.806C68.981 24.686 68.959 25.676 68.959 26.776C68.959 27.5827 68.981 28.1987 69.025 28.624C69.0837 29.0493 69.1643 29.3867 69.267 29.636C69.3843 29.8853 69.5677 30.142 69.817 30.406C69.5823 30.67 69.3257 30.868 69.047 31C68.7683 31.132 68.519 31.198 68.299 31.198ZM68.035 20.44C67.639 19.956 67.1917 19.5013 66.693 19.076C67.133 18.5333 67.5803 18.0787 68.035 17.712C68.4457 18.2107 68.9003 18.6653 69.399 19.076C68.9883 19.5747 68.5337 20.0293 68.035 20.44ZM75.3641 31.242C74.1908 31.242 73.2888 30.8607 72.6581 30.098C72.0421 29.3207 71.7341 28.2207 71.7341 26.798C71.7341 25.83 71.9248 24.972 72.3061 24.224C72.6874 23.4613 73.2154 22.8673 73.8901 22.442C74.5794 22.0167 75.3641 21.804 76.2441 21.804C77.4174 21.804 78.3048 22.1927 78.9061 22.97C79.5221 23.7327 79.8301 24.862 79.8301 26.358C79.0528 26.5487 78.1141 26.7173 77.0141 26.864C75.9141 26.996 74.8288 27.0767 73.7581 27.106C73.8461 28.0007 74.0881 28.6533 74.4841 29.064C74.8948 29.46 75.4888 29.658 76.2661 29.658C76.8674 29.658 77.4321 29.592 77.9601 29.46C78.5028 29.3133 78.9648 29.1153 79.3461 28.866L79.5001 29.284C79.0454 29.8707 78.4368 30.3473 77.6741 30.714C76.9261 31.066 76.1561 31.242 75.3641 31.242ZM73.7141 26.402C74.4474 26.3287 75.1661 26.2113 75.8701 26.05C76.5741 25.874 77.1314 25.6833 77.5421 25.478C77.5274 24.7007 77.3001 24.0627 76.8601 23.564C76.4348 23.0653 75.8848 22.816 75.2101 22.816C74.7554 23.08 74.3888 23.5347 74.1101 24.18C73.8461 24.8253 73.7141 25.566 73.7141 26.402ZM89.2877 31.242C88.7597 31.242 88.3123 31.0513 87.9457 30.67C87.5937 30.274 87.4177 29.7753 87.4177 29.174C87.4177 27.3993 89.1483 26.402 92.6097 26.182C92.6097 25.214 92.4703 24.5393 92.1917 24.158C91.913 23.7767 91.3997 23.586 90.6517 23.586C90.197 23.586 89.735 23.6593 89.2657 23.806C88.811 23.9527 88.393 24.1507 88.0117 24.4L87.8357 23.982C88.2317 23.3367 88.767 22.816 89.4417 22.42C90.1163 22.0093 90.8057 21.804 91.5097 21.804C92.463 21.804 93.1963 22.0607 93.7097 22.574C94.223 23.0727 94.4797 23.7987 94.4797 24.752C94.4797 25.28 94.443 25.874 94.3697 26.534C94.311 27.238 94.2817 27.7587 94.2817 28.096C94.2817 28.6533 94.3403 29.086 94.4577 29.394C94.575 29.702 94.8023 30.0393 95.1397 30.406C94.597 30.8753 94.003 31.154 93.3577 31.242C92.9617 30.978 92.683 30.5747 92.5217 30.032C91.9937 30.3987 91.4437 30.692 90.8717 30.912C90.2997 31.132 89.7717 31.242 89.2877 31.242ZM90.1677 30.186C90.5343 30.1567 90.923 30.054 91.3337 29.878C91.7443 29.702 92.111 29.4893 92.4337 29.24V29.13C92.4337 28.6607 92.4557 28.206 92.4997 27.766L92.5657 26.82C91.5683 26.8787 90.7983 27.0913 90.2557 27.458C89.713 27.81 89.4417 28.2867 89.4417 28.888C89.4417 29.1373 89.5077 29.3867 89.6397 29.636C89.7717 29.8707 89.9477 30.054 90.1677 30.186ZM99.4192 31.132C99.1112 31.132 98.7005 31.088 98.1872 31C98.2899 29.5333 98.3412 27.9713 98.3412 26.314C98.3412 25.5073 98.3119 24.8913 98.2532 24.466C98.2092 24.0407 98.1285 23.7033 98.0112 23.454C97.9085 23.2047 97.7325 22.948 97.4832 22.684C97.7179 22.4053 97.9672 22.2073 98.2312 22.09C98.4952 21.958 98.7372 21.892 98.9572 21.892C99.7345 21.892 100.182 22.332 100.299 23.212C100.681 22.772 101.128 22.4273 101.641 22.178C102.169 21.9287 102.705 21.804 103.247 21.804C104.963 21.804 105.821 22.816 105.821 24.84L105.777 26.226C105.733 26.7687 105.711 27.26 105.711 27.7C105.711 29.2107 105.865 30.3107 106.173 31C105.763 31.088 105.374 31.132 105.007 31.132C104.626 31.132 104.186 31.088 103.687 31C103.79 29.2253 103.841 27.304 103.841 25.236C103.841 24.6493 103.724 24.2313 103.489 23.982C103.255 23.718 102.866 23.586 102.323 23.586C101.517 23.586 100.849 23.7547 100.321 24.092L100.299 25.038C100.255 25.786 100.233 26.6733 100.233 27.7C100.233 29.24 100.38 30.34 100.673 31C100.233 31.088 99.8152 31.132 99.4192 31.132ZM112.233 31.264C111.045 31.264 110.143 30.8753 109.527 30.098C108.925 29.306 108.625 28.14 108.625 26.6C108.625 25.016 108.933 23.8207 109.549 23.014C110.179 22.2073 111.111 21.804 112.343 21.804C113.311 21.804 114.198 22.0973 115.005 22.684C114.917 21.2173 114.777 20.1247 114.587 19.406C115.012 19.2447 115.408 19.1347 115.775 19.076C116.156 19.0027 116.574 18.966 117.029 18.966C116.853 20.7993 116.765 23.894 116.765 28.25C116.765 28.7633 116.823 29.174 116.941 29.482C117.058 29.7753 117.285 30.098 117.623 30.45C117.124 30.89 116.537 31.154 115.863 31.242C115.467 30.9487 115.188 30.538 115.027 30.01C114.631 30.406 114.183 30.714 113.685 30.934C113.201 31.154 112.717 31.264 112.233 31.264ZM112.783 30.186C113.12 30.142 113.472 30.032 113.839 29.856C114.22 29.68 114.579 29.4673 114.917 29.218C114.917 28.7633 114.931 27.9933 114.961 26.908C114.99 25.7053 115.005 24.7593 115.005 24.07C114.433 23.7033 113.758 23.52 112.981 23.52C112.218 23.52 111.631 23.7913 111.221 24.334C110.81 24.8767 110.605 25.6613 110.605 26.688C110.605 27.7 110.795 28.5067 111.177 29.108C111.558 29.7093 112.093 30.0687 112.783 30.186ZM128.862 31.242C127.396 31.242 126.12 30.978 125.034 30.45C125.034 30.142 125.064 29.8707 125.122 29.636C125.181 29.4013 125.276 29.1593 125.408 28.91C125.746 29.262 126.208 29.5407 126.794 29.746C127.381 29.9367 128.019 30.032 128.708 30.032C129.5 30.032 130.102 29.878 130.512 29.57C130.938 29.262 131.15 28.822 131.15 28.25C131.15 27.766 130.945 27.3627 130.534 27.04C130.124 26.7173 129.486 26.3433 128.62 25.918C127.858 25.522 127.249 25.1847 126.794 24.906C126.354 24.6127 125.973 24.2387 125.65 23.784C125.328 23.3147 125.166 22.7647 125.166 22.134C125.166 21.2833 125.562 20.594 126.354 20.066C127.161 19.538 128.239 19.274 129.588 19.274C130.806 19.274 131.84 19.45 132.69 19.802C132.69 20.1247 132.632 20.4913 132.514 20.902C132.397 21.3127 132.258 21.6353 132.096 21.87C131.48 21.43 130.842 21.0633 130.182 20.77C129.537 20.4767 129.009 20.33 128.598 20.33C128.29 20.3887 127.99 20.5647 127.696 20.858C127.403 21.1513 127.256 21.5033 127.256 21.914C127.256 22.442 127.469 22.8747 127.894 23.212C128.32 23.5493 128.972 23.938 129.852 24.378C130.586 24.7447 131.172 25.0673 131.612 25.346C132.052 25.6247 132.426 25.984 132.734 26.424C133.057 26.864 133.218 27.3847 133.218 27.986C133.218 29.0273 132.852 29.834 132.118 30.406C131.4 30.9633 130.314 31.242 128.862 31.242ZM136.876 31.242C136.348 31.242 135.9 31.0513 135.534 30.67C135.182 30.274 135.006 29.7753 135.006 29.174C135.006 27.3993 136.736 26.402 140.198 26.182C140.198 25.214 140.058 24.5393 139.78 24.158C139.501 23.7767 138.988 23.586 138.24 23.586C137.785 23.586 137.323 23.6593 136.854 23.806C136.399 23.9527 135.981 24.1507 135.6 24.4L135.424 23.982C135.82 23.3367 136.355 22.816 137.03 22.42C137.704 22.0093 138.394 21.804 139.098 21.804C140.051 21.804 140.784 22.0607 141.298 22.574C141.811 23.0727 142.068 23.7987 142.068 24.752C142.068 25.28 142.031 25.874 141.958 26.534C141.899 27.238 141.87 27.7587 141.87 28.096C141.87 28.6533 141.928 29.086 142.046 29.394C142.163 29.702 142.39 30.0393 142.728 30.406C142.185 30.8753 141.591 31.154 140.946 31.242C140.55 30.978 140.271 30.5747 140.11 30.032C139.582 30.3987 139.032 30.692 138.46 30.912C137.888 31.132 137.36 31.242 136.876 31.242ZM137.756 30.186C138.122 30.1567 138.511 30.054 138.922 29.878C139.332 29.702 139.699 29.4893 140.022 29.24V29.13C140.022 28.6607 140.044 28.206 140.088 27.766L140.154 26.82C139.156 26.8787 138.386 27.0913 137.844 27.458C137.301 27.81 137.03 28.2867 137.03 28.888C137.03 29.1373 137.096 29.3867 137.228 29.636C137.36 29.8707 137.536 30.054 137.756 30.186ZM148.327 31.242C147.139 31.242 146.222 30.8607 145.577 30.098C144.932 29.3207 144.609 28.2207 144.609 26.798C144.609 25.83 144.8 24.972 145.181 24.224C145.577 23.4613 146.127 22.8673 146.831 22.442C147.535 22.0167 148.334 21.804 149.229 21.804C150.256 21.804 151.128 21.98 151.847 22.332C151.847 22.5813 151.774 22.904 151.627 23.3C151.495 23.6813 151.341 24.0113 151.165 24.29C150.578 23.7913 150.021 23.41 149.493 23.146C148.965 22.8673 148.525 22.728 148.173 22.728C147.733 22.9773 147.366 23.4247 147.073 24.07C146.78 24.7007 146.633 25.3973 146.633 26.16C146.633 27.4213 146.831 28.3233 147.227 28.866C147.638 29.4087 148.312 29.68 149.251 29.68C150.322 29.68 151.231 29.4087 151.979 28.866L152.155 29.24C151.73 29.8413 151.165 30.3253 150.461 30.692C149.757 31.0587 149.046 31.242 148.327 31.242ZM156.117 31.132C155.751 31.132 155.325 31.088 154.841 31C154.944 29.5333 154.995 27.9713 154.995 26.314C154.995 25.5073 154.966 24.8913 154.907 24.466C154.863 24.0407 154.783 23.7033 154.665 23.454C154.563 23.2047 154.387 22.948 154.137 22.684C154.372 22.42 154.629 22.222 154.907 22.09C155.186 21.958 155.435 21.892 155.655 21.892C156.491 21.892 156.931 22.4347 156.975 23.52C157.357 23.0507 157.76 22.6693 158.185 22.376C158.625 22.068 159.124 21.8407 159.681 21.694C159.784 21.9287 159.872 22.266 159.945 22.706C160.033 23.146 160.077 23.5493 160.077 23.916C159.901 23.8867 159.652 23.872 159.329 23.872C158.86 23.872 158.413 23.9307 157.987 24.048C157.562 24.1507 157.217 24.2827 156.953 24.444L156.931 25.126C156.902 26.094 156.887 26.952 156.887 27.7C156.887 29.24 157.034 30.34 157.327 31C156.887 31.088 156.484 31.132 156.117 31.132ZM163.045 31.198C162.62 31.198 162.319 31.066 162.143 30.802C161.967 30.538 161.879 30.0687 161.879 29.394C161.879 28.8513 161.894 28.0813 161.923 27.084C161.952 26.1453 161.967 25.456 161.967 25.016C161.967 24.4147 161.93 23.8647 161.857 23.366C161.784 22.8527 161.674 22.486 161.527 22.266C161.938 22.1047 162.326 21.9947 162.693 21.936C163.074 21.8627 163.5 21.826 163.969 21.826C163.896 22.2513 163.83 22.9113 163.771 23.806C163.727 24.686 163.705 25.676 163.705 26.776C163.705 27.5827 163.727 28.1987 163.771 28.624C163.83 29.0493 163.91 29.3867 164.013 29.636C164.13 29.8853 164.314 30.142 164.563 30.406C164.328 30.67 164.072 30.868 163.793 31C163.514 31.132 163.265 31.198 163.045 31.198ZM162.781 20.44C162.385 19.956 161.938 19.5013 161.439 19.076C161.879 18.5333 162.326 18.0787 162.781 17.712C163.192 18.2107 163.646 18.6653 164.145 19.076C163.734 19.5747 163.28 20.0293 162.781 20.44ZM166.7 34.278C167.008 33.8967 167.243 33.5373 167.404 33.2C167.566 32.8627 167.683 32.408 167.756 31.836C167.83 31.2787 167.866 30.494 167.866 29.482C167.866 28.3233 167.808 26.314 167.69 23.454C167.192 23.4393 166.854 23.3953 166.678 23.322C166.517 23.2487 166.436 23.1093 166.436 22.904C167.023 22.596 167.441 22.3467 167.69 22.156C167.866 20.9387 168.292 19.9633 168.966 19.23C169.656 18.4967 170.499 18.13 171.496 18.13C172.508 18.13 173.484 18.306 174.422 18.658C174.422 18.8927 174.364 19.208 174.246 19.604C174.129 20 173.982 20.352 173.806 20.66C173.22 20.176 172.611 19.7873 171.98 19.494C171.35 19.186 170.822 19.0393 170.396 19.054C170.147 19.23 169.964 19.5527 169.846 20.022C169.744 20.4767 169.685 21.2247 169.67 22.266H173.3C173.946 21.9727 174.686 21.826 175.522 21.826C175.449 22.2513 175.383 22.9113 175.324 23.806C175.28 24.686 175.258 25.676 175.258 26.776C175.258 27.5827 175.28 28.1987 175.324 28.624C175.383 29.0493 175.464 29.3867 175.566 29.636C175.684 29.8853 175.867 30.142 176.116 30.406C175.882 30.67 175.625 30.868 175.346 31C175.068 31.132 174.818 31.198 174.598 31.198C174.158 31.198 173.85 31.0733 173.674 30.824C173.513 30.56 173.432 30.0833 173.432 29.394C173.432 28.8513 173.447 28.0813 173.476 27.084L173.498 25.016C173.498 24.6053 173.484 24.0627 173.454 23.388H169.626V24.928C169.626 25.808 169.656 26.8347 169.714 28.008C169.758 28.624 169.78 29.1593 169.78 29.614C169.78 30.3473 169.7 30.9633 169.538 31.462C169.392 31.9607 169.12 32.4373 168.724 32.892C168.328 33.3467 167.734 33.882 166.942 34.498L166.7 34.278ZM181.757 31.242C180.569 31.242 179.652 30.8607 179.007 30.098C178.361 29.3207 178.039 28.2207 178.039 26.798C178.039 25.83 178.229 24.972 178.611 24.224C179.007 23.4613 179.557 22.8673 180.261 22.442C180.965 22.0167 181.764 21.804 182.659 21.804C183.685 21.804 184.558 21.98 185.277 22.332C185.277 22.5813 185.203 22.904 185.057 23.3C184.925 23.6813 184.771 24.0113 184.595 24.29C184.008 23.7913 183.451 23.41 182.923 23.146C182.395 22.8673 181.955 22.728 181.603 22.728C181.163 22.9773 180.796 23.4247 180.503 24.07C180.209 24.7007 180.063 25.3973 180.063 26.16C180.063 27.4213 180.261 28.3233 180.657 28.866C181.067 29.4087 181.742 29.68 182.681 29.68C183.751 29.68 184.661 29.4087 185.409 28.866L185.585 29.24C185.159 29.8413 184.595 30.3253 183.891 30.692C183.187 31.0587 182.475 31.242 181.757 31.242ZM190.735 31.242C189.562 31.242 188.66 30.8607 188.029 30.098C187.413 29.3207 187.105 28.2207 187.105 26.798C187.105 25.83 187.296 24.972 187.677 24.224C188.059 23.4613 188.587 22.8673 189.261 22.442C189.951 22.0167 190.735 21.804 191.615 21.804C192.789 21.804 193.676 22.1927 194.277 22.97C194.893 23.7327 195.201 24.862 195.201 26.358C194.424 26.5487 193.485 26.7173 192.385 26.864C191.285 26.996 190.2 27.0767 189.129 27.106C189.217 28.0007 189.459 28.6533 189.855 29.064C190.266 29.46 190.86 29.658 191.637 29.658C192.239 29.658 192.803 29.592 193.331 29.46C193.874 29.3133 194.336 29.1153 194.717 28.866L194.871 29.284C194.417 29.8707 193.808 30.3473 193.045 30.714C192.297 31.066 191.527 31.242 190.735 31.242ZM189.085 26.402C189.819 26.3287 190.537 26.2113 191.241 26.05C191.945 25.874 192.503 25.6833 192.913 25.478C192.899 24.7007 192.671 24.0627 192.231 23.564C191.806 23.0653 191.256 22.816 190.581 22.816C190.127 23.08 189.76 23.5347 189.481 24.18C189.217 24.8253 189.085 25.566 189.085 26.402ZM207.057 31.132C206.705 31.132 206.287 31.088 205.803 31C205.92 29.9733 205.993 28.602 206.023 26.886C205.348 25.39 204.578 23.9013 203.713 22.42C202.847 20.9387 202.261 20.044 201.953 19.736C202.671 19.428 203.573 19.274 204.659 19.274C204.761 19.6407 205.069 20.4107 205.583 21.584C206.111 22.7427 206.697 23.916 207.343 25.104C208.105 23.6373 208.67 22.4273 209.037 21.474C209.418 20.506 209.623 19.8167 209.653 19.406C210.342 19.318 211.105 19.274 211.941 19.274C210.767 20.9607 209.425 23.4907 207.915 26.864C207.915 29.0933 208.032 30.472 208.267 31C207.871 31.088 207.467 31.132 207.057 31.132ZM216.01 31.242C214.807 31.242 213.839 30.8313 213.106 30.01C212.372 29.1887 212.006 28.1107 212.006 26.776C212.006 25.808 212.204 24.95 212.6 24.202C213.01 23.4393 213.575 22.8527 214.294 22.442C215.027 22.0167 215.856 21.804 216.78 21.804C217.601 21.804 218.327 21.9947 218.958 22.376C219.588 22.7427 220.072 23.2633 220.41 23.938C220.762 24.6127 220.938 25.39 220.938 26.27C220.938 27.238 220.725 28.1033 220.3 28.866C219.889 29.614 219.31 30.2007 218.562 30.626C217.814 31.0367 216.963 31.242 216.01 31.242ZM216.406 30.318C217.242 30.318 217.894 30.0393 218.364 29.482C218.833 28.91 219.068 28.1107 219.068 27.084C219.068 26.1747 218.855 25.39 218.43 24.73C218.004 24.07 217.418 23.6227 216.67 23.388C215.819 23.388 215.137 23.6813 214.624 24.268C214.125 24.84 213.876 25.6173 213.876 26.6C213.876 27.744 214.11 28.6533 214.58 29.328C215.064 29.988 215.672 30.318 216.406 30.318ZM226.134 31.242C224.448 31.242 223.604 30.23 223.604 28.206L223.648 26.82L223.692 25.346C223.692 23.9087 223.553 22.882 223.274 22.266C223.993 21.9727 224.8 21.826 225.694 21.826C225.606 23.6153 225.562 25.6687 225.562 27.986C225.562 28.5727 225.687 29.0053 225.936 29.284C226.186 29.548 226.589 29.68 227.146 29.68C227.865 29.68 228.518 29.5113 229.104 29.174C229.104 28.1913 229.126 27.3187 229.17 26.556L229.192 25.346C229.192 23.9087 229.053 22.882 228.774 22.266C229.493 21.9727 230.307 21.826 231.216 21.826C231.158 22.838 231.099 24.0407 231.04 25.434C230.982 26.8127 230.952 27.7367 230.952 28.206C230.952 28.734 231.011 29.152 231.128 29.46C231.246 29.768 231.473 30.098 231.81 30.45C231.282 30.89 230.696 31.154 230.05 31.242C229.61 30.934 229.324 30.494 229.192 29.922C228.796 30.3327 228.327 30.6553 227.784 30.89C227.256 31.1247 226.706 31.242 226.134 31.242ZM236.147 31.132C235.78 31.132 235.355 31.088 234.871 31C234.973 29.5333 235.025 27.9713 235.025 26.314C235.025 25.5073 234.995 24.8913 234.937 24.466C234.893 24.0407 234.812 23.7033 234.695 23.454C234.592 23.2047 234.416 22.948 234.167 22.684C234.401 22.42 234.658 22.222 234.937 22.09C235.215 21.958 235.465 21.892 235.685 21.892C236.521 21.892 236.961 22.4347 237.005 23.52C237.386 23.0507 237.789 22.6693 238.215 22.376C238.655 22.068 239.153 21.8407 239.711 21.694C239.813 21.9287 239.901 22.266 239.975 22.706C240.063 23.146 240.107 23.5493 240.107 23.916C239.931 23.8867 239.681 23.872 239.359 23.872C238.889 23.872 238.442 23.9307 238.017 24.048C237.591 24.1507 237.247 24.2827 236.983 24.444L236.961 25.126C236.931 26.094 236.917 26.952 236.917 27.7C236.917 29.24 237.063 30.34 237.357 31C236.917 31.088 236.513 31.132 236.147 31.132ZM244.306 31.242C242.928 31.242 241.82 30.978 240.984 30.45C240.984 30.1713 241.014 29.9073 241.072 29.658C241.131 29.4087 241.234 29.1373 241.38 28.844C241.659 29.2107 242.026 29.4967 242.48 29.702C242.95 29.9073 243.448 30.01 243.976 30.01C245.37 30.01 246.066 29.6213 246.066 28.844C246.066 28.5213 245.905 28.25 245.582 28.03C245.274 27.81 244.798 27.5607 244.152 27.282C243.507 26.9887 242.986 26.732 242.59 26.512C242.194 26.2773 241.85 25.962 241.556 25.566C241.263 25.17 241.116 24.686 241.116 24.114C241.116 23.4247 241.417 22.8673 242.018 22.442C242.634 22.0167 243.434 21.804 244.416 21.804C245.722 21.804 246.836 21.98 247.76 22.332C247.76 22.5667 247.694 22.882 247.562 23.278C247.43 23.6593 247.269 24.004 247.078 24.312C246.55 23.828 246.037 23.4467 245.538 23.168C245.04 22.8747 244.622 22.728 244.284 22.728C243.932 22.8013 243.646 22.9407 243.426 23.146C243.206 23.3367 243.096 23.5493 243.096 23.784C243.096 24.1947 243.265 24.5247 243.602 24.774C243.94 25.0233 244.468 25.3167 245.186 25.654C245.788 25.918 246.279 26.1673 246.66 26.402C247.056 26.622 247.386 26.9227 247.65 27.304C247.929 27.6707 248.068 28.118 248.068 28.646C248.068 29.4673 247.738 30.1053 247.078 30.56C246.433 31.0147 245.509 31.242 244.306 31.242ZM253.319 31.242C252.146 31.242 251.244 30.8607 250.613 30.098C249.997 29.3207 249.689 28.2207 249.689 26.798C249.689 25.83 249.88 24.972 250.261 24.224C250.642 23.4613 251.17 22.8673 251.845 22.442C252.534 22.0167 253.319 21.804 254.199 21.804C255.372 21.804 256.26 22.1927 256.861 22.97C257.477 23.7327 257.785 24.862 257.785 26.358C257.008 26.5487 256.069 26.7173 254.969 26.864C253.869 26.996 252.784 27.0767 251.713 27.106C251.801 28.0007 252.043 28.6533 252.439 29.064C252.85 29.46 253.444 29.658 254.221 29.658C254.822 29.658 255.387 29.592 255.915 29.46C256.458 29.3133 256.92 29.1153 257.301 28.866L257.455 29.284C257 29.8707 256.392 30.3473 255.629 30.714C254.881 31.066 254.111 31.242 253.319 31.242ZM251.669 26.402C252.402 26.3287 253.121 26.2113 253.825 26.05C254.529 25.874 255.086 25.6833 255.497 25.478C255.482 24.7007 255.255 24.0627 254.815 23.564C254.39 23.0653 253.84 22.816 253.165 22.816C252.71 23.08 252.344 23.5347 252.065 24.18C251.801 24.8253 251.669 25.566 251.669 26.402ZM261.745 31.198C261.305 31.198 260.997 31.0733 260.821 30.824C260.645 30.56 260.557 30.0833 260.557 29.394C260.557 28.9393 260.572 28.2133 260.601 27.216C260.631 26.1013 260.645 25.1847 260.645 24.466C260.645 22.1047 260.506 20.418 260.227 19.406C260.638 19.2447 261.027 19.1347 261.393 19.076C261.775 19.0027 262.193 18.966 262.647 18.966C262.471 20.7847 262.383 23.388 262.383 26.776C262.383 27.568 262.405 28.184 262.449 28.624C262.508 29.0493 262.596 29.3867 262.713 29.636C262.831 29.8853 263.014 30.142 263.263 30.406C263.029 30.67 262.772 30.868 262.493 31C262.215 31.132 261.965 31.198 261.745 31.198ZM265.378 34.278C265.686 33.8967 265.921 33.5373 266.082 33.2C266.243 32.8627 266.361 32.408 266.434 31.836C266.507 31.2787 266.544 30.494 266.544 29.482C266.544 28.3233 266.485 26.314 266.368 23.454C265.869 23.4393 265.532 23.3953 265.356 23.322C265.195 23.2487 265.114 23.1093 265.114 22.904C265.701 22.596 266.119 22.3467 266.368 22.156C266.544 20.9387 266.969 19.9633 267.644 19.23C268.333 18.4967 269.177 18.13 270.174 18.13C270.878 18.13 271.567 18.2253 272.242 18.416C272.242 18.636 272.176 18.944 272.044 19.34C271.912 19.736 271.758 20.0953 271.582 20.418C271.157 20.0073 270.702 19.6773 270.218 19.428C269.749 19.164 269.367 19.0393 269.074 19.054C268.825 19.23 268.641 19.5527 268.524 20.022C268.421 20.4913 268.363 21.2467 268.348 22.288C269.448 22.2587 270.211 22.2 270.636 22.112C270.636 22.4053 270.607 22.6693 270.548 22.904C270.489 23.1387 270.394 23.388 270.262 23.652C269.778 23.4907 269.125 23.4027 268.304 23.388V24.928C268.304 25.808 268.333 26.8347 268.392 28.008C268.436 28.624 268.458 29.1593 268.458 29.614C268.458 30.3473 268.377 30.9633 268.216 31.462C268.069 31.9607 267.798 32.4373 267.402 32.892C267.006 33.3467 266.412 33.882 265.62 34.498L265.378 34.278Z" fill="#FFEFD7"/>
</g>
<defs>
<clipPath id="clip0_1951_3622">
<path d="M324 12C324 5.37258 318.627 0 312 0H12C5.37258 0 0 5.37258 0 12V40C0 46.6274 5.37258 52 12 52H312C318.627 52 324 46.6274 324 40V12Z" fill="white"/>
</clipPath>
</defs>
</svg>
