<svg width="270" height="42" viewBox="0 0 270 42" fill="none" xmlns="http://www.w3.org/2000/svg">
<g clip-path="url(#clip0_1951_3181)">
<path d="M270 5.16035C270 2.31037 267.69 0 264.84 0H5.16034C2.31033 0 0 2.31037 0 5.16035V40.8396C0 43.6896 2.31036 46 5.16034 46H264.84C267.69 46 270 43.6896 270 40.8396V5.16035Z" fill="#6A4A45"/>
<path d="M49.9072 26.108C49.3912 26.108 48.8572 26.078 48.3052 26.018C47.7532 25.97 47.2792 25.904 46.8832 25.82C46.9432 25.244 46.9912 24.458 47.0272 23.462C47.0632 22.454 47.0812 21.5 47.0812 20.6C47.0812 18.596 46.9792 17.366 46.7752 16.91C47.1592 16.766 47.6692 16.652 48.3052 16.568C48.9532 16.472 49.6072 16.424 50.2672 16.424C51.8632 16.424 53.0872 16.838 53.9392 17.666C54.7912 18.494 55.2172 19.676 55.2172 21.212C55.2172 22.172 54.9952 23.024 54.5512 23.768C54.1072 24.5 53.4832 25.076 52.6792 25.496C51.8752 25.904 50.9512 26.108 49.9072 26.108ZM50.7532 25.19C51.2572 25.118 51.7192 24.902 52.1392 24.542C52.5592 24.17 52.8892 23.72 53.1292 23.192C53.3812 22.652 53.5072 22.1 53.5072 21.536C53.5072 18.908 52.3012 17.594 49.8892 17.594C49.4932 17.594 49.1092 17.648 48.7372 17.756C48.6532 19.1 48.6112 20.486 48.6112 21.914C48.6112 23.078 48.6412 24.05 48.7012 24.83C49.6012 25.07 50.2852 25.19 50.7532 25.19ZM58.3355 26.162C57.9875 26.162 57.7415 26.054 57.5975 25.838C57.4535 25.622 57.3815 25.238 57.3815 24.686C57.3815 24.242 57.3935 23.612 57.4175 22.796C57.4415 22.028 57.4535 21.464 57.4535 21.104C57.4535 20.612 57.4235 20.162 57.3635 19.754C57.3035 19.334 57.2135 19.034 57.0935 18.854C57.4295 18.722 57.7475 18.632 58.0475 18.584C58.3595 18.524 58.7075 18.494 59.0915 18.494C59.0315 18.842 58.9775 19.382 58.9295 20.114C58.8935 20.834 58.8755 21.644 58.8755 22.544C58.8755 23.204 58.8935 23.708 58.9295 24.056C58.9775 24.404 59.0435 24.68 59.1275 24.884C59.2235 25.088 59.3735 25.298 59.5775 25.514C59.3855 25.73 59.1755 25.892 58.9475 26C58.7195 26.108 58.5155 26.162 58.3355 26.162ZM58.1195 17.36C57.7955 16.964 57.4295 16.592 57.0215 16.244C57.3815 15.8 57.7475 15.428 58.1195 15.128C58.4555 15.536 58.8275 15.908 59.2355 16.244C58.8995 16.652 58.5275 17.024 58.1195 17.36ZM64.1161 26.198C63.1561 26.198 62.4181 25.886 61.9021 25.262C61.3981 24.626 61.1461 23.726 61.1461 22.562C61.1461 21.77 61.3021 21.068 61.6141 20.456C61.9261 19.832 62.3581 19.346 62.9101 18.998C63.4741 18.65 64.1161 18.476 64.8361 18.476C65.7961 18.476 66.5221 18.794 67.0141 19.43C67.5181 20.054 67.7701 20.978 67.7701 22.202C67.1341 22.358 66.3661 22.496 65.4661 22.616C64.5661 22.724 63.6781 22.79 62.8021 22.814C62.8741 23.546 63.0721 24.08 63.3961 24.416C63.7321 24.74 64.2181 24.902 64.8541 24.902C65.3461 24.902 65.8081 24.848 66.2401 24.74C66.6841 24.62 67.0621 24.458 67.3741 24.254L67.5001 24.596C67.1281 25.076 66.6301 25.466 66.0061 25.766C65.3941 26.054 64.7641 26.198 64.1161 26.198ZM62.7661 22.238C63.3661 22.178 63.9541 22.082 64.5301 21.95C65.1061 21.806 65.5621 21.65 65.8981 21.482C65.8861 20.846 65.7001 20.324 65.3401 19.916C64.9921 19.508 64.5421 19.304 63.9901 19.304C63.6181 19.52 63.3181 19.892 63.0901 20.42C62.8741 20.948 62.7661 21.554 62.7661 22.238ZM75.5081 26.198C75.0761 26.198 74.7101 26.042 74.4101 25.73C74.1221 25.406 73.9781 24.998 73.9781 24.506C73.9781 23.054 75.3941 22.238 78.2261 22.058C78.2261 21.266 78.1121 20.714 77.8841 20.402C77.6561 20.09 77.2361 19.934 76.6241 19.934C76.2521 19.934 75.8741 19.994 75.4901 20.114C75.1181 20.234 74.7761 20.396 74.4641 20.6L74.3201 20.258C74.6441 19.73 75.0821 19.304 75.6341 18.98C76.1861 18.644 76.7501 18.476 77.3261 18.476C78.1061 18.476 78.7061 18.686 79.1261 19.106C79.5461 19.514 79.7561 20.108 79.7561 20.888C79.7561 21.32 79.7261 21.806 79.6661 22.346C79.6181 22.922 79.5941 23.348 79.5941 23.624C79.5941 24.08 79.6421 24.434 79.7381 24.686C79.8341 24.938 80.0201 25.214 80.2961 25.514C79.8521 25.898 79.3661 26.126 78.8381 26.198C78.5141 25.982 78.2861 25.652 78.1541 25.208C77.7221 25.508 77.2721 25.748 76.8041 25.928C76.3361 26.108 75.9041 26.198 75.5081 26.198ZM76.2281 25.334C76.5281 25.31 76.8461 25.226 77.1821 25.082C77.5181 24.938 77.8181 24.764 78.0821 24.56V24.47C78.0821 24.086 78.1001 23.714 78.1361 23.354L78.1901 22.58C77.3741 22.628 76.7441 22.802 76.3001 23.102C75.8561 23.39 75.6341 23.78 75.6341 24.272C75.6341 24.476 75.6881 24.68 75.7961 24.884C75.9041 25.076 76.0481 25.226 76.2281 25.334ZM83.7975 26.108C83.5455 26.108 83.2095 26.072 82.7895 26C82.8735 24.8 82.9155 23.522 82.9155 22.166C82.9155 21.506 82.8915 21.002 82.8435 20.654C82.8075 20.306 82.7415 20.03 82.6455 19.826C82.5615 19.622 82.4175 19.412 82.2135 19.196C82.4055 18.968 82.6095 18.806 82.8255 18.71C83.0415 18.602 83.2395 18.548 83.4195 18.548C84.0555 18.548 84.4215 18.908 84.5175 19.628C84.8295 19.268 85.1955 18.986 85.6155 18.782C86.0475 18.578 86.4855 18.476 86.9295 18.476C88.3335 18.476 89.0355 19.304 89.0355 20.96L88.9995 22.094C88.9635 22.538 88.9455 22.94 88.9455 23.3C88.9455 24.536 89.0715 25.436 89.3235 26C88.9875 26.072 88.6695 26.108 88.3695 26.108C88.0575 26.108 87.6975 26.072 87.2895 26C87.3735 24.548 87.4155 22.976 87.4155 21.284C87.4155 20.804 87.3195 20.462 87.1275 20.258C86.9355 20.042 86.6175 19.934 86.1735 19.934C85.5135 19.934 84.9675 20.072 84.5355 20.348L84.5175 21.122C84.4815 21.734 84.4635 22.46 84.4635 23.3C84.4635 24.56 84.5835 25.46 84.8235 26C84.4635 26.072 84.1215 26.108 83.7975 26.108ZM94.2814 26.216C93.3094 26.216 92.5714 25.898 92.0674 25.262C91.5754 24.614 91.3294 23.66 91.3294 22.4C91.3294 21.104 91.5814 20.126 92.0854 19.466C92.6014 18.806 93.3634 18.476 94.3714 18.476C95.1634 18.476 95.8894 18.716 96.5494 19.196C96.4774 17.996 96.3634 17.102 96.2074 16.514C96.5554 16.382 96.8794 16.292 97.1794 16.244C97.4914 16.184 97.8334 16.154 98.2054 16.154C98.0614 17.654 97.9894 20.186 97.9894 23.75C97.9894 24.17 98.0374 24.506 98.1334 24.758C98.2294 24.998 98.4154 25.262 98.6914 25.55C98.2834 25.91 97.8034 26.126 97.2514 26.198C96.9274 25.958 96.6994 25.622 96.5674 25.19C96.2434 25.514 95.8774 25.766 95.4694 25.946C95.0734 26.126 94.6774 26.216 94.2814 26.216ZM94.7314 25.334C95.0074 25.298 95.2954 25.208 95.5954 25.064C95.9074 24.92 96.2014 24.746 96.4774 24.542C96.4774 24.17 96.4894 23.54 96.5134 22.652C96.5374 21.668 96.5494 20.894 96.5494 20.33C96.0814 20.03 95.5294 19.88 94.8934 19.88C94.2694 19.88 93.7894 20.102 93.4534 20.546C93.1174 20.99 92.9494 21.632 92.9494 22.472C92.9494 23.3 93.1054 23.96 93.4174 24.452C93.7294 24.944 94.1674 25.238 94.7314 25.334ZM107.887 26.198C106.687 26.198 105.643 25.982 104.755 25.55C104.755 25.298 104.779 25.076 104.827 24.884C104.875 24.692 104.953 24.494 105.061 24.29C105.337 24.578 105.715 24.806 106.195 24.974C106.675 25.13 107.197 25.208 107.761 25.208C108.409 25.208 108.901 25.082 109.237 24.83C109.585 24.578 109.759 24.218 109.759 23.75C109.759 23.354 109.591 23.024 109.255 22.76C108.919 22.496 108.397 22.19 107.689 21.842C107.065 21.518 106.567 21.242 106.195 21.014C105.835 20.774 105.523 20.468 105.259 20.096C104.995 19.712 104.863 19.262 104.863 18.746C104.863 18.05 105.187 17.486 105.835 17.054C106.495 16.622 107.377 16.406 108.481 16.406C109.477 16.406 110.323 16.55 111.019 16.838C111.019 17.102 110.971 17.402 110.875 17.738C110.779 18.074 110.665 18.338 110.533 18.53C110.029 18.17 109.507 17.87 108.967 17.63C108.439 17.39 108.007 17.27 107.671 17.27C107.419 17.318 107.173 17.462 106.933 17.702C106.693 17.942 106.573 18.23 106.573 18.566C106.573 18.998 106.747 19.352 107.095 19.628C107.443 19.904 107.977 20.222 108.697 20.582C109.297 20.882 109.777 21.146 110.137 21.374C110.497 21.602 110.803 21.896 111.055 22.256C111.319 22.616 111.451 23.042 111.451 23.534C111.451 24.386 111.151 25.046 110.551 25.514C109.963 25.97 109.075 26.198 107.887 26.198ZM114.444 26.198C114.012 26.198 113.646 26.042 113.346 25.73C113.058 25.406 112.914 24.998 112.914 24.506C112.914 23.054 114.33 22.238 117.162 22.058C117.162 21.266 117.048 20.714 116.82 20.402C116.592 20.09 116.172 19.934 115.56 19.934C115.188 19.934 114.81 19.994 114.426 20.114C114.054 20.234 113.712 20.396 113.4 20.6L113.256 20.258C113.58 19.73 114.018 19.304 114.57 18.98C115.122 18.644 115.686 18.476 116.262 18.476C117.042 18.476 117.642 18.686 118.062 19.106C118.482 19.514 118.692 20.108 118.692 20.888C118.692 21.32 118.662 21.806 118.602 22.346C118.554 22.922 118.53 23.348 118.53 23.624C118.53 24.08 118.578 24.434 118.674 24.686C118.77 24.938 118.956 25.214 119.232 25.514C118.788 25.898 118.302 26.126 117.774 26.198C117.45 25.982 117.222 25.652 117.09 25.208C116.658 25.508 116.208 25.748 115.74 25.928C115.272 26.108 114.84 26.198 114.444 26.198ZM115.164 25.334C115.464 25.31 115.782 25.226 116.118 25.082C116.454 24.938 116.754 24.764 117.018 24.56V24.47C117.018 24.086 117.036 23.714 117.072 23.354L117.126 22.58C116.31 22.628 115.68 22.802 115.236 23.102C114.792 23.39 114.57 23.78 114.57 24.272C114.57 24.476 114.624 24.68 114.732 24.884C114.84 25.076 114.984 25.226 115.164 25.334ZM123.813 26.198C122.841 26.198 122.091 25.886 121.563 25.262C121.035 24.626 120.771 23.726 120.771 22.562C120.771 21.77 120.927 21.068 121.239 20.456C121.563 19.832 122.013 19.346 122.589 18.998C123.165 18.65 123.819 18.476 124.551 18.476C125.391 18.476 126.105 18.62 126.693 18.908C126.693 19.112 126.633 19.376 126.513 19.7C126.405 20.012 126.279 20.282 126.135 20.51C125.655 20.102 125.199 19.79 124.767 19.574C124.335 19.346 123.975 19.232 123.687 19.232C123.327 19.436 123.027 19.802 122.787 20.33C122.547 20.846 122.427 21.416 122.427 22.04C122.427 23.072 122.589 23.81 122.913 24.254C123.249 24.698 123.801 24.92 124.569 24.92C125.445 24.92 126.189 24.698 126.801 24.254L126.945 24.56C126.597 25.052 126.135 25.448 125.559 25.748C124.983 26.048 124.401 26.198 123.813 26.198ZM130.187 26.108C129.887 26.108 129.539 26.072 129.143 26C129.227 24.8 129.269 23.522 129.269 22.166C129.269 21.506 129.245 21.002 129.197 20.654C129.161 20.306 129.095 20.03 128.999 19.826C128.915 19.622 128.771 19.412 128.567 19.196C128.759 18.98 128.969 18.818 129.197 18.71C129.425 18.602 129.629 18.548 129.809 18.548C130.493 18.548 130.853 18.992 130.889 19.88C131.201 19.496 131.531 19.184 131.879 18.944C132.239 18.692 132.647 18.506 133.103 18.386C133.187 18.578 133.259 18.854 133.319 19.214C133.391 19.574 133.427 19.904 133.427 20.204C133.283 20.18 133.079 20.168 132.815 20.168C132.431 20.168 132.065 20.216 131.717 20.312C131.369 20.396 131.087 20.504 130.871 20.636L130.853 21.194C130.829 21.986 130.817 22.688 130.817 23.3C130.817 24.56 130.937 25.46 131.177 26C130.817 26.072 130.487 26.108 130.187 26.108ZM135.855 26.162C135.507 26.162 135.261 26.054 135.117 25.838C134.973 25.622 134.901 25.238 134.901 24.686C134.901 24.242 134.913 23.612 134.937 22.796C134.961 22.028 134.973 21.464 134.973 21.104C134.973 20.612 134.943 20.162 134.883 19.754C134.823 19.334 134.733 19.034 134.613 18.854C134.949 18.722 135.267 18.632 135.567 18.584C135.879 18.524 136.227 18.494 136.611 18.494C136.551 18.842 136.497 19.382 136.449 20.114C136.413 20.834 136.395 21.644 136.395 22.544C136.395 23.204 136.413 23.708 136.449 24.056C136.497 24.404 136.563 24.68 136.647 24.884C136.743 25.088 136.893 25.298 137.097 25.514C136.905 25.73 136.695 25.892 136.467 26C136.239 26.108 136.035 26.162 135.855 26.162ZM135.639 17.36C135.315 16.964 134.949 16.592 134.541 16.244C134.901 15.8 135.267 15.428 135.639 15.128C135.975 15.536 136.347 15.908 136.755 16.244C136.419 16.652 136.047 17.024 135.639 17.36ZM138.846 28.682C139.098 28.37 139.29 28.076 139.422 27.8C139.554 27.524 139.65 27.152 139.71 26.684C139.77 26.228 139.8 25.586 139.8 24.758C139.8 23.81 139.752 22.166 139.656 19.826C139.248 19.814 138.972 19.778 138.828 19.718C138.696 19.658 138.63 19.544 138.63 19.376C139.11 19.124 139.452 18.92 139.656 18.764C139.8 17.768 140.148 16.97 140.7 16.37C141.264 15.77 141.954 15.47 142.77 15.47C143.598 15.47 144.396 15.614 145.164 15.902C145.164 16.094 145.116 16.352 145.02 16.676C144.924 17 144.804 17.288 144.66 17.54C144.18 17.144 143.682 16.826 143.166 16.586C142.65 16.334 142.218 16.214 141.87 16.226C141.666 16.37 141.516 16.634 141.42 17.018C141.336 17.39 141.288 18.002 141.276 18.854H144.246C144.774 18.614 145.38 18.494 146.064 18.494C146.004 18.842 145.95 19.382 145.902 20.114C145.866 20.834 145.848 21.644 145.848 22.544C145.848 23.204 145.866 23.708 145.902 24.056C145.95 24.404 146.016 24.68 146.1 24.884C146.196 25.088 146.346 25.298 146.55 25.514C146.358 25.73 146.148 25.892 145.92 26C145.692 26.108 145.488 26.162 145.308 26.162C144.948 26.162 144.696 26.06 144.552 25.856C144.42 25.64 144.354 25.25 144.354 24.686C144.354 24.242 144.366 23.612 144.39 22.796L144.408 21.104C144.408 20.768 144.396 20.324 144.372 19.772H141.24V21.032C141.24 21.752 141.264 22.592 141.312 23.552C141.348 24.056 141.366 24.494 141.366 24.866C141.366 25.466 141.3 25.97 141.168 26.378C141.048 26.786 140.826 27.176 140.502 27.548C140.178 27.92 139.692 28.358 139.044 28.862L138.846 28.682ZM151.165 26.198C150.193 26.198 149.443 25.886 148.915 25.262C148.387 24.626 148.123 23.726 148.123 22.562C148.123 21.77 148.279 21.068 148.591 20.456C148.915 19.832 149.365 19.346 149.941 18.998C150.517 18.65 151.171 18.476 151.903 18.476C152.743 18.476 153.457 18.62 154.045 18.908C154.045 19.112 153.985 19.376 153.865 19.7C153.757 20.012 153.631 20.282 153.487 20.51C153.007 20.102 152.551 19.79 152.119 19.574C151.687 19.346 151.327 19.232 151.039 19.232C150.679 19.436 150.379 19.802 150.139 20.33C149.899 20.846 149.779 21.416 149.779 22.04C149.779 23.072 149.941 23.81 150.265 24.254C150.601 24.698 151.153 24.92 151.921 24.92C152.797 24.92 153.541 24.698 154.153 24.254L154.297 24.56C153.949 25.052 153.487 25.448 152.911 25.748C152.335 26.048 151.753 26.198 151.165 26.198ZM158.511 26.198C157.551 26.198 156.813 25.886 156.297 25.262C155.793 24.626 155.541 23.726 155.541 22.562C155.541 21.77 155.697 21.068 156.009 20.456C156.321 19.832 156.753 19.346 157.305 18.998C157.869 18.65 158.511 18.476 159.231 18.476C160.191 18.476 160.917 18.794 161.409 19.43C161.913 20.054 162.165 20.978 162.165 22.202C161.529 22.358 160.761 22.496 159.861 22.616C158.961 22.724 158.073 22.79 157.197 22.814C157.269 23.546 157.467 24.08 157.791 24.416C158.127 24.74 158.613 24.902 159.249 24.902C159.741 24.902 160.203 24.848 160.635 24.74C161.079 24.62 161.457 24.458 161.769 24.254L161.895 24.596C161.523 25.076 161.025 25.466 160.401 25.766C159.789 26.054 159.159 26.198 158.511 26.198ZM157.161 22.238C157.761 22.178 158.349 22.082 158.925 21.95C159.501 21.806 159.957 21.65 160.293 21.482C160.281 20.846 160.095 20.324 159.735 19.916C159.387 19.508 158.937 19.304 158.385 19.304C158.013 19.52 157.713 19.892 157.485 20.42C157.269 20.948 157.161 21.554 157.161 22.238ZM171.865 26.108C171.577 26.108 171.235 26.072 170.839 26C170.935 25.16 170.995 24.038 171.019 22.634C170.467 21.41 169.837 20.192 169.129 18.98C168.421 17.768 167.941 17.036 167.689 16.784C168.277 16.532 169.015 16.406 169.903 16.406C169.987 16.706 170.239 17.336 170.659 18.296C171.091 19.244 171.571 20.204 172.099 21.176C172.723 19.976 173.185 18.986 173.485 18.206C173.797 17.414 173.965 16.85 173.989 16.514C174.553 16.442 175.177 16.406 175.861 16.406C174.901 17.786 173.803 19.856 172.567 22.616C172.567 24.44 172.663 25.568 172.855 26C172.531 26.072 172.201 26.108 171.865 26.108ZM179.19 26.198C178.206 26.198 177.414 25.862 176.814 25.19C176.214 24.518 175.914 23.636 175.914 22.544C175.914 21.752 176.076 21.05 176.4 20.438C176.736 19.814 177.198 19.334 177.786 18.998C178.386 18.65 179.064 18.476 179.82 18.476C180.492 18.476 181.086 18.632 181.602 18.944C182.118 19.244 182.514 19.67 182.79 20.222C183.078 20.774 183.222 21.41 183.222 22.13C183.222 22.922 183.048 23.63 182.7 24.254C182.364 24.866 181.89 25.346 181.278 25.694C180.666 26.03 179.97 26.198 179.19 26.198ZM179.514 25.442C180.198 25.442 180.732 25.214 181.116 24.758C181.5 24.29 181.692 23.636 181.692 22.796C181.692 22.052 181.518 21.41 181.17 20.87C180.822 20.33 180.342 19.964 179.73 19.772C179.034 19.772 178.476 20.012 178.056 20.492C177.648 20.96 177.444 21.596 177.444 22.4C177.444 23.336 177.636 24.08 178.02 24.632C178.416 25.172 178.914 25.442 179.514 25.442ZM187.473 26.198C186.093 26.198 185.403 25.37 185.403 23.714L185.439 22.58L185.475 21.374C185.475 20.198 185.361 19.358 185.133 18.854C185.721 18.614 186.381 18.494 187.113 18.494C187.041 19.958 187.005 21.638 187.005 23.534C187.005 24.014 187.107 24.368 187.311 24.596C187.515 24.812 187.845 24.92 188.301 24.92C188.889 24.92 189.423 24.782 189.903 24.506C189.903 23.702 189.921 22.988 189.957 22.364L189.975 21.374C189.975 20.198 189.861 19.358 189.633 18.854C190.221 18.614 190.887 18.494 191.631 18.494C191.583 19.322 191.535 20.306 191.487 21.446C191.439 22.574 191.415 23.33 191.415 23.714C191.415 24.146 191.463 24.488 191.559 24.74C191.655 24.992 191.841 25.262 192.117 25.55C191.685 25.91 191.205 26.126 190.677 26.198C190.317 25.946 190.083 25.586 189.975 25.118C189.651 25.454 189.267 25.718 188.823 25.91C188.391 26.102 187.941 26.198 187.473 26.198ZM195.666 26.108C195.366 26.108 195.018 26.072 194.622 26C194.706 24.8 194.748 23.522 194.748 22.166C194.748 21.506 194.724 21.002 194.676 20.654C194.64 20.306 194.574 20.03 194.478 19.826C194.394 19.622 194.25 19.412 194.046 19.196C194.238 18.98 194.448 18.818 194.676 18.71C194.904 18.602 195.108 18.548 195.288 18.548C195.972 18.548 196.332 18.992 196.368 19.88C196.68 19.496 197.01 19.184 197.358 18.944C197.718 18.692 198.126 18.506 198.582 18.386C198.666 18.578 198.738 18.854 198.798 19.214C198.87 19.574 198.906 19.904 198.906 20.204C198.762 20.18 198.558 20.168 198.294 20.168C197.91 20.168 197.544 20.216 197.196 20.312C196.848 20.396 196.566 20.504 196.35 20.636L196.332 21.194C196.308 21.986 196.296 22.688 196.296 23.3C196.296 24.56 196.416 25.46 196.656 26C196.296 26.072 195.966 26.108 195.666 26.108ZM202.342 26.198C201.214 26.198 200.308 25.982 199.624 25.55C199.624 25.322 199.648 25.106 199.696 24.902C199.744 24.698 199.828 24.476 199.948 24.236C200.176 24.536 200.476 24.77 200.848 24.938C201.232 25.106 201.64 25.19 202.072 25.19C203.212 25.19 203.782 24.872 203.782 24.236C203.782 23.972 203.65 23.75 203.386 23.57C203.134 23.39 202.744 23.186 202.216 22.958C201.688 22.718 201.262 22.508 200.938 22.328C200.614 22.136 200.332 21.878 200.092 21.554C199.852 21.23 199.732 20.834 199.732 20.366C199.732 19.802 199.978 19.346 200.47 18.998C200.974 18.65 201.628 18.476 202.432 18.476C203.5 18.476 204.412 18.62 205.168 18.908C205.168 19.1 205.114 19.358 205.006 19.682C204.898 19.994 204.766 20.276 204.61 20.528C204.178 20.132 203.758 19.82 203.35 19.592C202.942 19.352 202.6 19.232 202.324 19.232C202.036 19.292 201.802 19.406 201.622 19.574C201.442 19.73 201.352 19.904 201.352 20.096C201.352 20.432 201.49 20.702 201.766 20.906C202.042 21.11 202.474 21.35 203.062 21.626C203.554 21.842 203.956 22.046 204.268 22.238C204.592 22.418 204.862 22.664 205.078 22.976C205.306 23.276 205.42 23.642 205.42 24.074C205.42 24.746 205.15 25.268 204.61 25.64C204.082 26.012 203.326 26.198 202.342 26.198ZM209.716 26.198C208.756 26.198 208.018 25.886 207.502 25.262C206.998 24.626 206.746 23.726 206.746 22.562C206.746 21.77 206.902 21.068 207.214 20.456C207.526 19.832 207.958 19.346 208.51 18.998C209.074 18.65 209.716 18.476 210.436 18.476C211.396 18.476 212.122 18.794 212.614 19.43C213.118 20.054 213.37 20.978 213.37 22.202C212.734 22.358 211.966 22.496 211.066 22.616C210.166 22.724 209.278 22.79 208.402 22.814C208.474 23.546 208.672 24.08 208.996 24.416C209.332 24.74 209.818 24.902 210.454 24.902C210.946 24.902 211.408 24.848 211.84 24.74C212.284 24.62 212.662 24.458 212.974 24.254L213.1 24.596C212.728 25.076 212.23 25.466 211.606 25.766C210.994 26.054 210.364 26.198 209.716 26.198ZM208.366 22.238C208.966 22.178 209.554 22.082 210.13 21.95C210.706 21.806 211.162 21.65 211.498 21.482C211.486 20.846 211.3 20.324 210.94 19.916C210.592 19.508 210.142 19.304 209.59 19.304C209.218 19.52 208.918 19.892 208.69 20.42C208.474 20.948 208.366 21.554 208.366 22.238ZM216.61 26.162C216.25 26.162 215.998 26.06 215.854 25.856C215.71 25.64 215.638 25.25 215.638 24.686C215.638 24.314 215.65 23.72 215.674 22.904C215.698 21.992 215.71 21.242 215.71 20.654C215.71 18.722 215.596 17.342 215.368 16.514C215.704 16.382 216.022 16.292 216.322 16.244C216.634 16.184 216.976 16.154 217.348 16.154C217.204 17.642 217.132 19.772 217.132 22.544C217.132 23.192 217.15 23.696 217.186 24.056C217.234 24.404 217.306 24.68 217.402 24.884C217.498 25.088 217.648 25.298 217.852 25.514C217.66 25.73 217.45 25.892 217.222 26C216.994 26.108 216.79 26.162 216.61 26.162ZM219.582 28.682C219.834 28.37 220.026 28.076 220.158 27.8C220.29 27.524 220.386 27.152 220.446 26.684C220.506 26.228 220.536 25.586 220.536 24.758C220.536 23.81 220.488 22.166 220.392 19.826C219.984 19.814 219.708 19.778 219.564 19.718C219.432 19.658 219.366 19.544 219.366 19.376C219.846 19.124 220.188 18.92 220.392 18.764C220.536 17.768 220.884 16.97 221.436 16.37C222 15.77 222.69 15.47 223.506 15.47C224.082 15.47 224.646 15.548 225.198 15.704C225.198 15.884 225.144 16.136 225.036 16.46C224.928 16.784 224.802 17.078 224.658 17.342C224.31 17.006 223.938 16.736 223.542 16.532C223.158 16.316 222.846 16.214 222.606 16.226C222.402 16.37 222.252 16.634 222.156 17.018C222.072 17.402 222.024 18.02 222.012 18.872C222.912 18.848 223.536 18.8 223.884 18.728C223.884 18.968 223.86 19.184 223.812 19.376C223.764 19.568 223.686 19.772 223.578 19.988C223.182 19.856 222.648 19.784 221.976 19.772V21.032C221.976 21.752 222 22.592 222.048 23.552C222.084 24.056 222.102 24.494 222.102 24.866C222.102 25.466 222.036 25.97 221.904 26.378C221.784 26.786 221.562 27.176 221.238 27.548C220.914 27.92 220.428 28.358 219.78 28.862L219.582 28.682Z" fill="#FFEFD7"/>
</g>
<path d="M269.5 12C269.5 5.64873 264.351 0.5 258 0.5H12C5.64874 0.5 0.5 5.64873 0.5 12V30C0.5 36.3513 5.64874 41.5 12 41.5H258C264.351 41.5 269.5 36.3513 269.5 30V12Z" stroke="url(#paint0_linear_1951_3181)"/>
<defs>
<linearGradient id="paint0_linear_1951_3181" x1="135" y1="0" x2="135" y2="42" gradientUnits="userSpaceOnUse">
<stop stop-color="#908694"/>
<stop offset="1" stop-color="#1F1F1F"/>
</linearGradient>
<clipPath id="clip0_1951_3181">
<path d="M270 12C270 5.37258 264.627 0 258 0H12C5.37259 0 0 5.37258 0 12V30C0 36.6274 5.37259 42 12 42H258C264.627 42 270 36.6274 270 30V12Z" fill="white"/>
</clipPath>
</defs>
</svg>
