<svg width="147" height="171" viewBox="0 0 147 171" fill="none" xmlns="http://www.w3.org/2000/svg">
<path d="M2.35748 118.328C2.35748 120.911 3.68688 123.313 5.87607 124.684L11.0753 127.941L20.0277 133.549L37.9324 144.764L69.4951 164.535C71.9302 166.061 75.0228 166.061 77.4579 164.535L109.021 144.764L126.925 133.549L135.878 127.941L141.077 124.684C143.266 123.313 144.596 120.911 144.596 118.328L144.596 105.147C144.596 104.056 144.357 102.978 143.898 101.988L137.21 87.5833C136.156 85.3134 136.156 82.6943 137.21 80.4244L143.898 66.0192C144.357 65.0297 144.595 63.9518 144.595 62.8609L144.595 49.671C144.595 47.0922 143.271 44.6943 141.088 43.3217L135.833 40.018L126.837 34.3616L108.845 23.0488L90.8522 11.7361L77.1391 3.11389C74.6887 1.57321 71.5704 1.58009 69.1268 3.13161L55.5769 11.7349L37.7597 23.0477L19.9426 34.3604L11.034 40.0168L5.8373 43.3164C3.67025 44.6923 2.35742 47.0809 2.35743 49.6479L2.35744 62.8687C2.35744 63.9549 2.5934 65.0282 3.04901 66.0143L9.71347 80.4387C10.7585 82.7006 10.7585 85.3071 9.71348 87.5689L3.04904 101.993C2.59343 102.979 2.35747 104.053 2.35747 105.139L2.35748 118.328Z" fill="url(#paint0_linear_2227_6932)" stroke="url(#paint1_linear_2227_6932)"/>
<g filter="url(#filter0_d_2227_6932)">
<path d="M5.25469 115.013C5.24176 117.781 6.66011 120.358 9.00485 121.828L68.8987 159.382C71.4976 161.012 74.7994 161.012 77.3982 159.382L137.333 121.803C139.656 120.347 141.071 117.803 141.084 115.062L141.375 52.8298C141.387 50.0671 139.974 47.4933 137.636 46.0217L77.4306 8.13135C74.8154 6.48549 71.4862 6.49284 68.8783 8.15025L9.25459 46.0436C6.95596 47.5045 5.55847 50.0345 5.54574 52.758L5.25469 115.013Z" fill="black"/>
<path d="M5.75469 115.016C5.74256 117.61 7.07226 120.027 9.27046 121.405L69.1643 158.959C71.6008 160.486 74.6962 160.486 77.1326 158.959L137.068 121.379C139.245 120.014 140.572 117.629 140.584 115.06L140.875 52.8275C140.887 50.2374 139.562 47.8245 137.369 46.4449L77.1642 8.55452C74.7125 7.01152 71.5914 7.01842 69.1465 8.57224L9.52279 46.4656C7.36781 47.8352 6.05767 50.207 6.04573 52.7604L5.75469 115.016Z" stroke="url(#paint2_linear_2227_6932)"/>
</g>
<defs>
<filter id="filter0_d_2227_6932" x="0.440735" y="6.90234" width="145.748" height="163.329" filterUnits="userSpaceOnUse" color-interpolation-filters="sRGB">
<feFlood flood-opacity="0" result="BackgroundImageFix"/>
<feColorMatrix in="SourceAlpha" type="matrix" values="0 0 0 0 0 0 0 0 0 0 0 0 0 0 0 0 0 0 127 0" result="hardAlpha"/>
<feOffset dy="4.8139"/>
<feGaussianBlur stdDeviation="2.40695"/>
<feComposite in2="hardAlpha" operator="out"/>
<feColorMatrix type="matrix" values="0 0 0 0 0 0 0 0 0 0 0 0 0 0 0 0 0 0 0.25 0"/>
<feBlend mode="normal" in2="BackgroundImageFix" result="effect1_dropShadow_2227_6932"/>
<feBlend mode="normal" in="SourceGraphic" in2="effect1_dropShadow_2227_6932" result="shape"/>
</filter>
<linearGradient id="paint0_linear_2227_6932" x1="73.4705" y1="202.56" x2="73.4705" y2="-0.00127578" gradientUnits="userSpaceOnUse">
<stop/>
<stop offset="1" stop-color="#4B4A4A"/>
</linearGradient>
<linearGradient id="paint1_linear_2227_6932" x1="73.4705" y1="202.56" x2="73.4705" y2="-0.00127578" gradientUnits="userSpaceOnUse">
<stop stop-color="white"/>
<stop offset="0.291671" stop-color="#262626"/>
<stop offset="0.432299" stop-color="white"/>
<stop offset="0.807306" stop-color="#686868"/>
<stop offset="1" stop-color="white"/>
</linearGradient>
<linearGradient id="paint2_linear_2227_6932" x1="73.4805" y1="196.321" x2="73.4805" y2="4.05338" gradientUnits="userSpaceOnUse">
<stop stop-color="#5A5A5A"/>
<stop offset="1" stop-color="white"/>
</linearGradient>
</defs>
</svg>
