<svg width="270" height="42" viewBox="0 0 270 42" fill="none" xmlns="http://www.w3.org/2000/svg">
<g clip-path="url(#clip0_2227_6928)">
<path d="M270 5.16035C270 2.31037 267.69 0 264.84 0H5.16034C2.31033 0 0 2.31037 0 5.16035V40.8396C0 43.6896 2.31036 46 5.16034 46H264.84C267.69 46 270 43.6896 270 40.8396V5.16035Z" fill="#6A4A45"/>
<path d="M108.105 26.198C106.785 26.198 105.771 25.808 105.063 25.028C104.355 24.248 104.001 23.126 104.001 21.662C104.001 20.642 104.199 19.736 104.595 18.944C105.003 18.14 105.567 17.516 106.287 17.072C107.019 16.628 107.853 16.406 108.789 16.406C109.809 16.406 110.679 16.55 111.399 16.838C111.399 17.102 111.351 17.402 111.255 17.738C111.171 18.062 111.063 18.326 110.931 18.53C110.427 18.182 109.887 17.888 109.311 17.648C108.735 17.408 108.279 17.288 107.943 17.288C107.547 17.384 107.175 17.63 106.827 18.026C106.491 18.41 106.221 18.884 106.017 19.448C105.813 20 105.711 20.57 105.711 21.158C105.711 22.382 105.975 23.294 106.503 23.894C107.043 24.494 107.751 24.794 108.627 24.794C109.815 24.794 110.787 24.578 111.543 24.146L111.669 24.596C111.273 25.076 110.745 25.466 110.085 25.766C109.437 26.054 108.777 26.198 108.105 26.198ZM116.084 26.198C115.1 26.198 114.308 25.862 113.708 25.19C113.108 24.518 112.808 23.636 112.808 22.544C112.808 21.752 112.97 21.05 113.294 20.438C113.63 19.814 114.092 19.334 114.68 18.998C115.28 18.65 115.958 18.476 116.714 18.476C117.386 18.476 117.98 18.632 118.496 18.944C119.012 19.244 119.408 19.67 119.684 20.222C119.972 20.774 120.116 21.41 120.116 22.13C120.116 22.922 119.942 23.63 119.594 24.254C119.258 24.866 118.784 25.346 118.172 25.694C117.56 26.03 116.864 26.198 116.084 26.198ZM116.408 25.442C117.092 25.442 117.626 25.214 118.01 24.758C118.394 24.29 118.586 23.636 118.586 22.796C118.586 22.052 118.412 21.41 118.064 20.87C117.716 20.33 117.236 19.964 116.624 19.772C115.928 19.772 115.37 20.012 114.95 20.492C114.542 20.96 114.338 21.596 114.338 22.4C114.338 23.336 114.53 24.08 114.914 24.632C115.31 25.172 115.808 25.442 116.408 25.442ZM123.612 26.108C123.36 26.108 123.024 26.072 122.604 26C122.688 24.8 122.73 23.522 122.73 22.166C122.73 21.506 122.706 21.002 122.658 20.654C122.622 20.306 122.556 20.03 122.46 19.826C122.376 19.622 122.232 19.412 122.028 19.196C122.22 18.968 122.424 18.806 122.64 18.71C122.856 18.602 123.054 18.548 123.234 18.548C123.87 18.548 124.236 18.908 124.332 19.628C124.644 19.268 125.01 18.986 125.43 18.782C125.862 18.578 126.3 18.476 126.744 18.476C128.148 18.476 128.85 19.304 128.85 20.96L128.814 22.094C128.778 22.538 128.76 22.94 128.76 23.3C128.76 24.536 128.886 25.436 129.138 26C128.802 26.072 128.484 26.108 128.184 26.108C127.872 26.108 127.512 26.072 127.104 26C127.188 24.548 127.23 22.976 127.23 21.284C127.23 20.804 127.134 20.462 126.942 20.258C126.75 20.042 126.432 19.934 125.988 19.934C125.328 19.934 124.782 20.072 124.35 20.348L124.332 21.122C124.296 21.734 124.278 22.46 124.278 23.3C124.278 24.56 124.398 25.46 124.638 26C124.278 26.072 123.936 26.108 123.612 26.108ZM133.196 26.162C132.776 26.162 132.482 26.06 132.314 25.856C132.146 25.64 132.062 25.268 132.062 24.74C132.062 24.368 132.074 23.762 132.098 22.922C132.122 22.01 132.134 21.254 132.134 20.654C132.134 20.366 132.122 20.09 132.098 19.826C131.618 19.826 131.294 19.796 131.126 19.736C130.97 19.664 130.892 19.544 130.892 19.376C131.672 18.932 132.41 18.326 133.106 17.558L133.538 17.612C133.586 18.02 133.616 18.44 133.628 18.872C134.432 18.86 135.02 18.812 135.392 18.728C135.392 18.98 135.368 19.202 135.32 19.394C135.272 19.586 135.194 19.784 135.086 19.988C134.738 19.856 134.24 19.784 133.592 19.772C133.556 20.312 133.538 20.876 133.538 21.464C133.538 22.94 133.628 24.062 133.808 24.83C134.36 24.794 134.804 24.728 135.14 24.632L135.248 25.046C135.032 25.382 134.732 25.652 134.348 25.856C133.964 26.06 133.58 26.162 133.196 26.162ZM138.14 26.162C137.792 26.162 137.546 26.054 137.402 25.838C137.258 25.622 137.186 25.238 137.186 24.686C137.186 24.242 137.198 23.612 137.222 22.796C137.246 22.028 137.258 21.464 137.258 21.104C137.258 20.612 137.228 20.162 137.168 19.754C137.108 19.334 137.018 19.034 136.898 18.854C137.234 18.722 137.552 18.632 137.852 18.584C138.164 18.524 138.512 18.494 138.896 18.494C138.836 18.842 138.782 19.382 138.734 20.114C138.698 20.834 138.68 21.644 138.68 22.544C138.68 23.204 138.698 23.708 138.734 24.056C138.782 24.404 138.848 24.68 138.932 24.884C139.028 25.088 139.178 25.298 139.382 25.514C139.19 25.73 138.98 25.892 138.752 26C138.524 26.108 138.32 26.162 138.14 26.162ZM137.924 17.36C137.6 16.964 137.234 16.592 136.826 16.244C137.186 15.8 137.552 15.428 137.924 15.128C138.26 15.536 138.632 15.908 139.04 16.244C138.704 16.652 138.332 17.024 137.924 17.36ZM142.913 26.108C142.661 26.108 142.325 26.072 141.905 26C141.989 24.8 142.031 23.522 142.031 22.166C142.031 21.506 142.007 21.002 141.959 20.654C141.923 20.306 141.857 20.03 141.761 19.826C141.677 19.622 141.533 19.412 141.329 19.196C141.521 18.968 141.725 18.806 141.941 18.71C142.157 18.602 142.355 18.548 142.535 18.548C143.171 18.548 143.537 18.908 143.633 19.628C143.945 19.268 144.311 18.986 144.731 18.782C145.163 18.578 145.601 18.476 146.045 18.476C147.449 18.476 148.151 19.304 148.151 20.96L148.115 22.094C148.079 22.538 148.061 22.94 148.061 23.3C148.061 24.536 148.187 25.436 148.439 26C148.103 26.072 147.785 26.108 147.485 26.108C147.173 26.108 146.813 26.072 146.405 26C146.489 24.548 146.531 22.976 146.531 21.284C146.531 20.804 146.435 20.462 146.243 20.258C146.051 20.042 145.733 19.934 145.289 19.934C144.629 19.934 144.083 20.072 143.651 20.348L143.633 21.122C143.597 21.734 143.579 22.46 143.579 23.3C143.579 24.56 143.699 25.46 143.939 26C143.579 26.072 143.237 26.108 142.913 26.108ZM153.091 26.198C151.711 26.198 151.021 25.37 151.021 23.714L151.057 22.58L151.093 21.374C151.093 20.198 150.979 19.358 150.751 18.854C151.339 18.614 151.999 18.494 152.731 18.494C152.659 19.958 152.623 21.638 152.623 23.534C152.623 24.014 152.725 24.368 152.929 24.596C153.133 24.812 153.463 24.92 153.919 24.92C154.507 24.92 155.041 24.782 155.521 24.506C155.521 23.702 155.539 22.988 155.575 22.364L155.593 21.374C155.593 20.198 155.479 19.358 155.251 18.854C155.839 18.614 156.505 18.494 157.249 18.494C157.201 19.322 157.153 20.306 157.105 21.446C157.057 22.574 157.033 23.33 157.033 23.714C157.033 24.146 157.081 24.488 157.177 24.74C157.273 24.992 157.459 25.262 157.735 25.55C157.303 25.91 156.823 26.126 156.295 26.198C155.935 25.946 155.701 25.586 155.593 25.118C155.269 25.454 154.885 25.718 154.441 25.91C154.009 26.102 153.559 26.198 153.091 26.198ZM162.255 26.198C161.295 26.198 160.557 25.886 160.041 25.262C159.537 24.626 159.285 23.726 159.285 22.562C159.285 21.77 159.441 21.068 159.753 20.456C160.065 19.832 160.497 19.346 161.049 18.998C161.613 18.65 162.255 18.476 162.975 18.476C163.935 18.476 164.661 18.794 165.153 19.43C165.657 20.054 165.909 20.978 165.909 22.202C165.273 22.358 164.505 22.496 163.605 22.616C162.705 22.724 161.817 22.79 160.941 22.814C161.013 23.546 161.211 24.08 161.535 24.416C161.871 24.74 162.357 24.902 162.993 24.902C163.485 24.902 163.947 24.848 164.379 24.74C164.823 24.62 165.201 24.458 165.513 24.254L165.639 24.596C165.267 25.076 164.769 25.466 164.145 25.766C163.533 26.054 162.903 26.198 162.255 26.198ZM160.905 22.238C161.505 22.178 162.093 22.082 162.669 21.95C163.245 21.806 163.701 21.65 164.037 21.482C164.025 20.846 163.839 20.324 163.479 19.916C163.131 19.508 162.681 19.304 162.129 19.304C161.757 19.52 161.457 19.892 161.229 20.42C161.013 20.948 160.905 21.554 160.905 22.238Z" fill="#FFEFD7"/>
</g>
<path d="M269.5 12C269.5 5.64873 264.351 0.5 258 0.5H12C5.64874 0.5 0.5 5.64873 0.5 12V30C0.5 36.3513 5.64874 41.5 12 41.5H258C264.351 41.5 269.5 36.3513 269.5 30V12Z" stroke="url(#paint0_linear_2227_6928)"/>
<defs>
<linearGradient id="paint0_linear_2227_6928" x1="135" y1="0" x2="135" y2="42" gradientUnits="userSpaceOnUse">
<stop stop-color="#908694"/>
<stop offset="1" stop-color="#1F1F1F"/>
</linearGradient>
<clipPath id="clip0_2227_6928">
<path d="M270 12C270 5.37258 264.627 0 258 0H12C5.37259 0 0 5.37258 0 12V30C0 36.6274 5.37259 42 12 42H258C264.627 42 270 36.6274 270 30V12Z" fill="white"/>
</clipPath>
</defs>
</svg>
