<svg width="90" height="20" viewBox="0 0 90 20" fill="none" xmlns="http://www.w3.org/2000/svg">
<g filter="url(#filter0_b_2226_7850)">
<path d="M90 0L0 0V10V12C0 16.4183 3.58173 20 8 20H82C86.4183 20 90 16.4183 90 12V0Z" fill="#565F0C"/>
<path d="M89.612 0.388047H0.388046V10V12C0.388046 16.204 3.79604 19.612 8 19.612H82C86.204 19.612 89.612 16.204 89.612 12V0.388047Z" stroke="url(#paint0_linear_2226_7850)" stroke-width="0.776093"/>
</g>
<path d="M14.9528 14.096C14.6968 14.096 14.3981 14.064 14.0568 14C14.1101 13.4667 14.1528 12.736 14.1848 11.808C14.2168 10.88 14.2328 10 14.2328 9.168C14.2328 7.408 14.1421 6.32533 13.9608 5.92C14.2914 5.792 14.7234 5.69067 15.2568 5.616C15.8008 5.53067 16.3501 5.488 16.9048 5.488C17.9714 5.488 18.7928 5.73333 19.3688 6.224C19.9448 6.704 20.2328 7.39733 20.2328 8.304C20.2328 8.912 20.0834 9.456 19.7848 9.936C19.4968 10.4053 19.0861 10.7733 18.5528 11.04C18.0301 11.3067 17.4274 11.44 16.7448 11.44C16.3181 11.44 15.9394 11.4027 15.6088 11.328C15.6301 12.7147 15.7101 13.6053 15.8488 14C15.5608 14.064 15.2621 14.096 14.9528 14.096ZM17.3368 10.624C17.7314 10.464 18.0568 10.1813 18.3128 9.776C18.5794 9.37067 18.7128 8.92267 18.7128 8.432C18.7128 7.16267 17.9981 6.528 16.5688 6.528C16.2594 6.528 15.9714 6.56533 15.7048 6.64C15.6301 7.81333 15.5928 9.024 15.5928 10.272C16.3714 10.5067 16.9528 10.624 17.3368 10.624ZM23.7759 14.176C22.5492 14.176 21.9359 13.44 21.9359 11.968L21.9679 10.96L21.9999 9.888C21.9999 8.84267 21.8985 8.096 21.6959 7.648C22.2185 7.43467 22.8052 7.328 23.4559 7.328C23.3919 8.62933 23.3599 10.1227 23.3599 11.808C23.3599 12.2347 23.4505 12.5493 23.6319 12.752C23.8132 12.944 24.1065 13.04 24.5119 13.04C25.0345 13.04 25.5092 12.9173 25.9359 12.672C25.9359 11.9573 25.9519 11.3227 25.9839 10.768L25.9999 9.888C25.9999 8.84267 25.8985 8.096 25.6959 7.648C26.2185 7.43467 26.8105 7.328 27.4719 7.328C27.4292 8.064 27.3865 8.93867 27.3439 9.952C27.3012 10.9547 27.2799 11.6267 27.2799 11.968C27.2799 12.352 27.3225 12.656 27.4079 12.88C27.4932 13.104 27.6585 13.344 27.9039 13.6C27.5199 13.92 27.0932 14.112 26.6239 14.176C26.3039 13.952 26.0959 13.632 25.9999 13.216C25.7119 13.5147 25.3705 13.7493 24.9759 13.92C24.5919 14.0907 24.1919 14.176 23.7759 14.176ZM31.0578 14.096C30.7911 14.096 30.4818 14.064 30.1298 14C30.2044 12.9333 30.2418 11.7973 30.2418 10.592C30.2418 10.0053 30.2204 9.55733 30.1778 9.248C30.1458 8.93867 30.0871 8.69333 30.0018 8.512C29.9271 8.33067 29.7991 8.144 29.6178 7.952C29.7884 7.76 29.9751 7.616 30.1778 7.52C30.3804 7.424 30.5618 7.376 30.7218 7.376C31.3298 7.376 31.6498 7.77067 31.6818 8.56C31.9591 8.21867 32.2524 7.94133 32.5618 7.728C32.8818 7.504 33.2444 7.33867 33.6498 7.232C33.7244 7.40267 33.7884 7.648 33.8418 7.968C33.9058 8.288 33.9378 8.58133 33.9378 8.848C33.8098 8.82667 33.6284 8.816 33.3938 8.816C33.0524 8.816 32.7271 8.85867 32.4178 8.944C32.1084 9.01867 31.8578 9.11467 31.6658 9.232L31.6498 9.728C31.6284 10.432 31.6178 11.056 31.6178 11.6C31.6178 12.72 31.7244 13.52 31.9378 14C31.6178 14.064 31.3244 14.096 31.0578 14.096ZM37.392 14.176C36.528 14.176 35.8613 13.8987 35.392 13.344C34.9227 12.7787 34.688 11.9787 34.688 10.944C34.688 10.24 34.8267 9.616 35.104 9.072C35.392 8.51733 35.792 8.08533 36.304 7.776C36.816 7.46667 37.3973 7.312 38.048 7.312C38.7947 7.312 39.4293 7.44 39.952 7.696C39.952 7.87733 39.8987 8.112 39.792 8.4C39.696 8.67733 39.584 8.91733 39.456 9.12C39.0293 8.75733 38.624 8.48 38.24 8.288C37.856 8.08533 37.536 7.984 37.28 7.984C36.96 8.16533 36.6933 8.49067 36.48 8.96C36.2667 9.41867 36.16 9.92533 36.16 10.48C36.16 11.3973 36.304 12.0533 36.592 12.448C36.8907 12.8427 37.3813 13.04 38.064 13.04C38.8427 13.04 39.504 12.8427 40.048 12.448L40.176 12.72C39.8667 13.1573 39.456 13.5093 38.944 13.776C38.432 14.0427 37.9147 14.176 37.392 14.176ZM42.5938 14.096C42.3271 14.096 42.0178 14.064 41.6658 14C41.7404 12.6347 41.7778 11.2747 41.7778 9.92C41.7778 8.064 41.7244 6.61333 41.6178 5.568C42.1404 5.35467 42.7271 5.248 43.3778 5.248C43.3138 5.74933 43.2391 6.784 43.1538 8.352C43.4524 8.032 43.7938 7.78133 44.1778 7.6C44.5618 7.408 44.9511 7.312 45.3458 7.312C46.5938 7.312 47.2178 8.048 47.2178 9.52L47.1858 10.528L47.1538 11.6C47.1538 12.72 47.2604 13.52 47.4738 14C47.1751 14.064 46.8924 14.096 46.6258 14.096C46.3698 14.096 46.0551 14.064 45.6818 14C45.7564 12.4853 45.7938 11.088 45.7938 9.808C45.7938 9.38133 45.7031 9.07733 45.5218 8.896C45.3511 8.704 45.0684 8.608 44.6738 8.608C44.1084 8.608 43.6071 8.74667 43.1698 9.024C43.1484 9.33333 43.1378 9.77067 43.1378 10.336C43.1378 12.3307 43.2498 13.552 43.4738 14C43.1858 14.064 42.8924 14.096 42.5938 14.096ZM50.548 14.176C50.164 14.176 49.8387 14.0373 49.572 13.76C49.316 13.472 49.188 13.1093 49.188 12.672C49.188 11.3813 50.4467 10.656 52.964 10.496C52.964 9.792 52.8627 9.30133 52.66 9.024C52.4573 8.74667 52.084 8.608 51.54 8.608C51.2093 8.608 50.8733 8.66133 50.532 8.768C50.2013 8.87467 49.8973 9.01867 49.62 9.2L49.492 8.896C49.78 8.42667 50.1693 8.048 50.66 7.76C51.1507 7.46133 51.652 7.312 52.164 7.312C52.8573 7.312 53.3907 7.49867 53.764 7.872C54.1373 8.23467 54.324 8.76267 54.324 9.456C54.324 9.84 54.2973 10.272 54.244 10.752C54.2013 11.264 54.18 11.6427 54.18 11.888C54.18 12.2933 54.2227 12.608 54.308 12.832C54.3933 13.056 54.5587 13.3013 54.804 13.568C54.4093 13.9093 53.9773 14.112 53.508 14.176C53.22 13.984 53.0173 13.6907 52.9 13.296C52.516 13.5627 52.116 13.776 51.7 13.936C51.284 14.096 50.9 14.176 50.548 14.176ZM51.188 13.408C51.4547 13.3867 51.7373 13.312 52.036 13.184C52.3347 13.056 52.6013 12.9013 52.836 12.72V12.64C52.836 12.2987 52.852 11.968 52.884 11.648L52.932 10.96C52.2067 11.0027 51.6467 11.1573 51.252 11.424C50.8573 11.68 50.66 12.0267 50.66 12.464C50.66 12.6453 50.708 12.8267 50.804 13.008C50.9 13.1787 51.028 13.312 51.188 13.408ZM58.4764 14.176C57.4737 14.176 56.6684 13.984 56.0604 13.6C56.0604 13.3973 56.0817 13.2053 56.1244 13.024C56.167 12.8427 56.2417 12.6453 56.3484 12.432C56.551 12.6987 56.8177 12.9067 57.1484 13.056C57.4897 13.2053 57.8524 13.28 58.2364 13.28C59.2497 13.28 59.7564 12.9973 59.7564 12.432C59.7564 12.1973 59.639 12 59.4044 11.84C59.1804 11.68 58.8337 11.4987 58.3644 11.296C57.895 11.0827 57.5164 10.896 57.2284 10.736C56.9404 10.5653 56.6897 10.336 56.4764 10.048C56.263 9.76 56.1564 9.408 56.1564 8.992C56.1564 8.49067 56.375 8.08533 56.8124 7.776C57.2604 7.46667 57.8417 7.312 58.5564 7.312C59.5057 7.312 60.3164 7.44 60.9884 7.696C60.9884 7.86667 60.9404 8.096 60.8444 8.384C60.7484 8.66133 60.631 8.912 60.4924 9.136C60.1084 8.784 59.735 8.50667 59.3724 8.304C59.0097 8.09067 58.7057 7.984 58.4604 7.984C58.2044 8.03733 57.9964 8.13867 57.8364 8.288C57.6764 8.42667 57.5964 8.58133 57.5964 8.752C57.5964 9.05067 57.719 9.29067 57.9644 9.472C58.2097 9.65333 58.5937 9.86667 59.1164 10.112C59.5537 10.304 59.911 10.4853 60.1884 10.656C60.4764 10.816 60.7164 11.0347 60.9084 11.312C61.111 11.5787 61.2124 11.904 61.2124 12.288C61.2124 12.8853 60.9724 13.3493 60.4924 13.68C60.023 14.0107 59.351 14.176 58.4764 14.176ZM65.0311 14.176C64.1778 14.176 63.5218 13.8987 63.0631 13.344C62.6151 12.7787 62.3911 11.9787 62.3911 10.944C62.3911 10.24 62.5298 9.616 62.8071 9.072C63.0845 8.51733 63.4685 8.08533 63.9591 7.776C64.4605 7.46667 65.0311 7.312 65.6711 7.312C66.5245 7.312 67.1698 7.59467 67.6071 8.16C68.0551 8.71467 68.2791 9.536 68.2791 10.624C67.7138 10.7627 67.0311 10.8853 66.2311 10.992C65.4311 11.088 64.6418 11.1467 63.8631 11.168C63.9271 11.8187 64.1031 12.2933 64.3911 12.592C64.6898 12.88 65.1218 13.024 65.6871 13.024C66.1245 13.024 66.5351 12.976 66.9191 12.88C67.3138 12.7733 67.6498 12.6293 67.9271 12.448L68.0391 12.752C67.7085 13.1787 67.2658 13.5253 66.7111 13.792C66.1671 14.048 65.6071 14.176 65.0311 14.176ZM63.8311 10.656C64.3645 10.6027 64.8871 10.5173 65.3991 10.4C65.9111 10.272 66.3165 10.1333 66.6151 9.984C66.6045 9.41867 66.4391 8.95467 66.1191 8.592C65.8098 8.22933 65.4098 8.048 64.9191 8.048C64.5885 8.24 64.3218 8.57067 64.1191 9.04C63.9271 9.50933 63.8311 10.048 63.8311 10.656ZM72.4073 14.192C71.5433 14.192 70.8873 13.9093 70.4393 13.344C70.0019 12.768 69.7833 11.92 69.7833 10.8C69.7833 9.648 70.0073 8.77867 70.4553 8.192C70.9139 7.60533 71.5913 7.312 72.4873 7.312C73.1913 7.312 73.8366 7.52533 74.4233 7.952C74.3593 6.88533 74.2579 6.09067 74.1193 5.568C74.4286 5.45067 74.7166 5.37067 74.9833 5.328C75.2606 5.27467 75.5646 5.248 75.8953 5.248C75.7673 6.58133 75.7033 8.832 75.7033 12C75.7033 12.3733 75.7459 12.672 75.8313 12.896C75.9166 13.1093 76.0819 13.344 76.3273 13.6C75.9646 13.92 75.5379 14.112 75.0473 14.176C74.7593 13.9627 74.5566 13.664 74.4393 13.28C74.1513 13.568 73.8259 13.792 73.4633 13.952C73.1113 14.112 72.7593 14.192 72.4073 14.192ZM72.8073 13.408C73.0526 13.376 73.3086 13.296 73.5753 13.168C73.8526 13.04 74.1139 12.8853 74.3593 12.704C74.3593 12.3733 74.3699 11.8133 74.3913 11.024C74.4126 10.1493 74.4233 9.46133 74.4233 8.96C74.0073 8.69333 73.5166 8.56 72.9513 8.56C72.3966 8.56 71.9699 8.75733 71.6713 9.152C71.3726 9.54667 71.2233 10.1173 71.2233 10.864C71.2233 11.6 71.3619 12.1867 71.6393 12.624C71.9166 13.0613 72.3059 13.3227 72.8073 13.408Z" fill="#FFEFD7"/>
<defs>
<filter id="filter0_b_2226_7850" x="-3.33743" y="-3.33743" width="96.6749" height="26.6749" filterUnits="userSpaceOnUse" color-interpolation-filters="sRGB">
<feFlood flood-opacity="0" result="BackgroundImageFix"/>
<feGaussianBlur in="BackgroundImageFix" stdDeviation="1.66871"/>
<feComposite in2="SourceAlpha" operator="in" result="effect1_backgroundBlur_2226_7850"/>
<feBlend mode="normal" in="SourceGraphic" in2="effect1_backgroundBlur_2226_7850" result="shape"/>
</filter>
<linearGradient id="paint0_linear_2226_7850" x1="48.747" y1="0" x2="48.747" y2="20" gradientUnits="userSpaceOnUse">
<stop stop-color="#FAFAFA"/>
<stop offset="1" stop-color="#5D5C5B"/>
</linearGradient>
</defs>
</svg>
